<?xml version="1.0" encoding="UTF-8" standalone="no"?>
<svg
   xmlns:dc="http://purl.org/dc/elements/1.1/"
   xmlns:cc="http://creativecommons.org/ns#"
   xmlns:rdf="http://www.w3.org/1999/02/22-rdf-syntax-ns#"
   xmlns:svg="http://www.w3.org/2000/svg"
   xmlns="http://www.w3.org/2000/svg"
   xmlns:xlink="http://www.w3.org/1999/xlink"
   xmlns:sodipodi="http://sodipodi.sourceforge.net/DTD/sodipodi-0.dtd"
   xmlns:inkscape="http://www.inkscape.org/namespaces/inkscape"
   width="1000"
   height="700"
   viewBox="0 0 1200 600"
   version="1.1"
   id="svg37"
   sodipodi:docname="ck.svg"
   inkscape:version="0.92.3 (2405546, 2018-03-11)">
  <metadata
     id="metadata43">
    <rdf:RDF>
      <cc:Work
         rdf:about="">
        <dc:format>image/svg+xml</dc:format>
        <dc:type
           rdf:resource="http://purl.org/dc/dcmitype/StillImage" />
      </cc:Work>
    </rdf:RDF>
  </metadata>
  <defs
     id="defs41" />
  <sodipodi:namedview
     pagecolor="#ffffff"
     bordercolor="#666666"
     borderopacity="1"
     objecttolerance="10"
     gridtolerance="10"
     guidetolerance="10"
     inkscape:pageopacity="0"
     inkscape:pageshadow="2"
     inkscape:window-width="2560"
     inkscape:window-height="1376"
     id="namedview39"
     showgrid="false"
     inkscape:zoom="0.953584"
     inkscape:cx="562.0678"
     inkscape:cy="432.26714"
     inkscape:window-x="0"
     inkscape:window-y="0"
     inkscape:window-maximized="1"
     inkscape:current-layer="svg37" />
  <clipPath
     id="c">
    <path
       d="M0,0V150H700V300H600zM600,0H300V350H0V300z"
       id="path2" />
  </clipPath>
  <rect
     width="1200"
     height="842.87317"
     id="rect5"
     x="0"
     y="-122.0658"
     style="fill:#00247d;stroke-width:1.18523777" />
  <path
     d="M 2.0086226,-124.12728 634.73713,224.07249 m 0,-348.19977 L 2.0086226,224.07249"
     id="path7"
     inkscape:connector-curvature="0"
     style="stroke:#ffffff;stroke-width:66.38009644" />
  <path
     d="M 0,0 600,300 M 600,0 0,300"
     clip-path="url(#c)"
     id="path9"
     inkscape:connector-curvature="0"
     transform="matrix(1.0545475,0,0,1.160666,2.0086226,-124.12728)"
     style="stroke:#cf142b;stroke-width:40" />
  <path
     d="M 318.37286,-124.12728 V 282.10578 M 2.0086226,49.972604 H 740.19187"
     id="path11"
     inkscape:connector-curvature="0"
     style="stroke:#ffffff;stroke-width:110.63350677" />
  <path
     d="M 318.37286,-124.12728 V 282.10578 M 2.0086226,49.972604 H 740.19187"
     id="path13"
     inkscape:connector-curvature="0"
     style="stroke:#cf142b;stroke-width:66.38009644" />
  <path
     d="M 2.0086226,230.28327 H 634.73713 V -117.91649 H 845.64662 V 346.34987 H 2.0086226 Z"
     id="path15"
     inkscape:connector-curvature="0"
     style="fill:#00247d;stroke-width:1.10633516" />
  <g
     transform="matrix(2,0,0,2,908.5723,303.66997)"
     id="g47">
    <g
       style="fill:#ffffff"
       id="s1"
       transform="translate(0,-102)">
      <g
         id="c-3">
        <path
           inkscape:connector-curvature="0"
           id="t"
           d="M 0,-22.5 V 0 h 12"
           transform="rotate(18,0,-22.5)" />
        <use
           height="100%"
           width="100%"
           y="0"
           x="0"
           xlink:href="#t"
           transform="scale(-1,1)"
           id="use18" />
      </g>
      <use
         height="100%"
         width="100%"
         y="0"
         x="0"
         xlink:href="#c-3"
         transform="rotate(72)"
         id="use21" />
      <use
         height="100%"
         width="100%"
         y="0"
         x="0"
         xlink:href="#c-3"
         transform="rotate(144)"
         id="use23" />
      <use
         height="100%"
         width="100%"
         y="0"
         x="0"
         xlink:href="#c-3"
         transform="rotate(-144)"
         id="use25" />
      <use
         height="100%"
         width="100%"
         y="0"
         x="0"
         xlink:href="#c-3"
         transform="rotate(-72)"
         id="use27" />
    </g>
    <g
       id="s7">
      <use
         height="100%"
         width="100%"
         y="0"
         x="0"
         xlink:href="#s1"
         transform="rotate(24)"
         id="use30" />
      <use
         height="100%"
         width="100%"
         y="0"
         x="0"
         xlink:href="#s1"
         transform="rotate(48)"
         id="use32" />
      <use
         height="100%"
         width="100%"
         y="0"
         x="0"
         xlink:href="#s1"
         transform="rotate(72)"
         id="use34" />
      <use
         height="100%"
         width="100%"
         y="0"
         x="0"
         xlink:href="#s1"
         transform="rotate(96)"
         id="use36" />
      <use
         height="100%"
         width="100%"
         y="0"
         x="0"
         xlink:href="#s1"
         transform="rotate(120)"
         id="use38" />
      <use
         height="100%"
         width="100%"
         y="0"
         x="0"
         xlink:href="#s1"
         transform="rotate(144)"
         id="use40" />
      <use
         height="100%"
         width="100%"
         y="0"
         x="0"
         xlink:href="#s1"
         transform="rotate(168)"
         id="use42" />
    </g>
    <use
       height="100%"
       width="100%"
       y="0"
       x="0"
       xlink:href="#s7"
       transform="rotate(168)"
       id="use45" />
  </g>
</svg>
