<?xml version="1.0" encoding="UTF-8" standalone="no"?>
<svg
   xmlns:dc="http://purl.org/dc/elements/1.1/"
   xmlns:cc="http://creativecommons.org/ns#"
   xmlns:rdf="http://www.w3.org/1999/02/22-rdf-syntax-ns#"
   xmlns:svg="http://www.w3.org/2000/svg"
   xmlns="http://www.w3.org/2000/svg"
   xmlns:xlink="http://www.w3.org/1999/xlink"
   xmlns:sodipodi="http://sodipodi.sourceforge.net/DTD/sodipodi-0.dtd"
   xmlns:inkscape="http://www.inkscape.org/namespaces/inkscape"
   width="1000"
   height="700"
   viewBox="0 0 24000 16000"
   version="1.1"
   id="svg11"
   sodipodi:docname="bb.svg"
   inkscape:version="0.92.3 (2405546, 2018-03-11)">
  <metadata
     id="metadata17">
    <rdf:RDF>
      <cc:Work
         rdf:about="">
        <dc:format>image/svg+xml</dc:format>
        <dc:type
           rdf:resource="http://purl.org/dc/dcmitype/StillImage" />
      </cc:Work>
    </rdf:RDF>
  </metadata>
  <defs
     id="defs15" />
  <sodipodi:namedview
     pagecolor="#ffffff"
     bordercolor="#666666"
     borderopacity="1"
     objecttolerance="10"
     gridtolerance="10"
     guidetolerance="10"
     inkscape:pageopacity="0"
     inkscape:pageshadow="2"
     inkscape:window-width="2560"
     inkscape:window-height="1376"
     id="namedview13"
     showgrid="false"
     inkscape:zoom="0.953584"
     inkscape:cx="960.39016"
     inkscape:cy="433.26603"
     inkscape:window-x="0"
     inkscape:window-y="0"
     inkscape:window-maximized="1"
     inkscape:current-layer="svg11" />
  <title
     id="title2">Flag of Barbados</title>
  <rect
     width="24000"
     height="16931.223"
     id="rect4"
     x="0"
     y="-427.85953"
     style="fill:#00267f;stroke-width:1.02868927" />
  <rect
     width="8000"
     height="16931.223"
     x="8000"
     id="rect6"
     y="-427.85953"
     style="fill:#ffc726;stroke-width:1.02868927" />
  <path
     id="h"
     fill="#000"
     d="M 12000,4124 C 11740,4833 11475,5571 10908,6136 C 11084,6078 11392,6026 11590,6031 L 11590,9013 L 10748,9138 C 10718,9135 10708,9088 10708,9024 C 10627,8098 10408,7320 10156,6515 C 10138,6405 9819,5985 10065,6059 C 10095,6063 10424,6197 10372,6133 C 9924,5669 9269,5335 8633,5236 C 8577,5222 8544,5250 8594,5315 C 9438,6614 10144,8147 10138,9966 C 10466,9966 11261,9772 11590,9772 C 11590,9772 11590,11876 11590,11876 L 12005,11876 12100, 6000 z" />
  <use
     xlink:href="#h"
     transform="translate(24000,0) scale(-1,1)"
     id="use9" />
</svg>
