<?xml version="1.0" encoding="UTF-8" standalone="no"?>
<svg
   xmlns:dc="http://purl.org/dc/elements/1.1/"
   xmlns:cc="http://creativecommons.org/ns#"
   xmlns:rdf="http://www.w3.org/1999/02/22-rdf-syntax-ns#"
   xmlns:svg="http://www.w3.org/2000/svg"
   xmlns="http://www.w3.org/2000/svg"
   xmlns:xlink="http://www.w3.org/1999/xlink"
   xmlns:sodipodi="http://sodipodi.sourceforge.net/DTD/sodipodi-0.dtd"
   xmlns:inkscape="http://www.inkscape.org/namespaces/inkscape"
   width="1000"
   height="700"
   viewBox="0 0 500 300"
   version="1.1"
   id="svg42"
   sodipodi:docname="gd.svg"
   inkscape:version="0.92.3 (2405546, 2018-03-11)">
  <metadata
     id="metadata46">
    <rdf:RDF>
      <cc:Work
         rdf:about="">
        <dc:format>image/svg+xml</dc:format>
        <dc:type
           rdf:resource="http://purl.org/dc/dcmitype/StillImage" />
      </cc:Work>
    </rdf:RDF>
  </metadata>
  <sodipodi:namedview
     pagecolor="#ffffff"
     bordercolor="#666666"
     borderopacity="1"
     objecttolerance="10"
     gridtolerance="10"
     guidetolerance="10"
     inkscape:pageopacity="0"
     inkscape:pageshadow="2"
     inkscape:window-width="2560"
     inkscape:window-height="1376"
     id="namedview44"
     showgrid="false"
     inkscape:zoom="1.3485714"
     inkscape:cx="745.04127"
     inkscape:cy="328.53046"
     inkscape:window-x="0"
     inkscape:window-y="0"
     inkscape:window-maximized="1"
     inkscape:current-layer="svg42" />
  <defs
     id="defs15">
    <g
       id="s">
      <g
         id="c">
        <path
           id="t"
           d="M 0,-1 v 1 h .5"
           transform="rotate(18 0,-1)"
           fill="#fcd116" />
        <use
           xlink:href="#t"
           transform="scale(-1,1)"
           id="use3" />
      </g>
      <use
         xlink:href="#c"
         transform="rotate(72)"
         id="use6" />
      <use
         xlink:href="#c"
         transform="rotate(144)"
         id="use8" />
      <use
         xlink:href="#c"
         transform="rotate(216)"
         id="use10" />
      <use
         xlink:href="#c"
         transform="rotate(288)"
         id="use12" />
    </g>
  </defs>
  <rect
     width="500"
     height="351.16525"
     id="rect17"
     x="0"
     y="-25"
     style="fill:#ce1126;stroke-width:1.08192003" />
  <rect
     x="42"
     y="17"
     width="416"
     height="267.53601"
     id="rect19"
     style="fill:#007a5e;stroke-width:1.11292076" />
  <path
     d="M 42,17 H 458 L 42,284.53602 h 416 z"
     id="path21"
     inkscape:connector-curvature="0"
     style="fill:#fcd116;stroke-width:1.11292076" />
  <circle
     cx="250"
     cy="156"
     r="36"
     id="circle23"
     style="fill:#ce1126" />
  <use
     xlink:href="#s"
     transform="matrix(33,0,0,33,250,156)"
     id="use25"
     x="0"
     y="0"
     width="100%"
     height="100%" />
  <use
     xlink:href="#s2"
     x="-100"
     id="use27"
     y="0"
     width="100%"
     height="100%" />
  <use
     id="s2"
     xlink:href="#s"
     transform="matrix(19.5,0,0,19.5,250,-4)"
     x="0"
     y="0"
     width="100%"
     height="100%" />
  <use
     xlink:href="#s2"
     x="100"
     id="use30"
     y="0"
     width="100%"
     height="100%" />
  <use
     xlink:href="#s2"
     x="-100"
     y="258"
     id="use32"
     width="100%"
     height="100%"
     transform="translate(0,54)" />
  <use
     xlink:href="#s2"
     y="258"
     id="use34"
     x="0"
     width="100%"
     height="100%"
     transform="translate(0,54)" />
  <use
     xlink:href="#s2"
     x="100"
     y="258"
     id="use36"
     width="100%"
     height="100%"
     transform="translate(0,54)" />
  <path
     d="m 82.778434,135.34719 c 6.059145,11.2869 17.845156,23.56932 28.137896,27.88767 0.16547,-11.46179 -3.90131,-26.15226 -9.46271,-37.85621 z"
     id="path38"
     inkscape:connector-curvature="0"
     style="fill:#ce1126;stroke-width:1.345281" />
  <path
     d="m 72.504523,96.63 c 8.783339,18.30927 -22.779643,61.99055 29.806047,72.22814 -6.486947,-8.85195 -10.669425,-23.4617 -9.087375,-35.19255 11.032645,4.19727 22.641075,16.47969 27.332075,25.86975 C 134.31749,109.55815 85.255096,112.59849 72.504523,96.63 Z"
     id="path40"
     inkscape:connector-curvature="0"
     style="fill:#fcd116;stroke-width:1.345281" />
</svg>
