<?xml version="1.0" encoding="UTF-8" standalone="no"?>
<svg
   xmlns:dc="http://purl.org/dc/elements/1.1/"
   xmlns:cc="http://creativecommons.org/ns#"
   xmlns:rdf="http://www.w3.org/1999/02/22-rdf-syntax-ns#"
   xmlns:svg="http://www.w3.org/2000/svg"
   xmlns="http://www.w3.org/2000/svg"
   xmlns:sodipodi="http://sodipodi.sourceforge.net/DTD/sodipodi-0.dtd"
   xmlns:inkscape="http://www.inkscape.org/namespaces/inkscape"
   width="1000"
   height="700"
   viewBox="-72 -28 144 96"
   version="1.1"
   id="svg10"
   sodipodi:docname="mr.svg"
   inkscape:version="0.92.3 (2405546, 2018-03-11)">
  <metadata
     id="metadata16">
    <rdf:RDF>
      <cc:Work
         rdf:about="">
        <dc:format>image/svg+xml</dc:format>
        <dc:type
           rdf:resource="http://purl.org/dc/dcmitype/StillImage" />
      </cc:Work>
    </rdf:RDF>
  </metadata>
  <defs
     id="defs14" />
  <sodipodi:namedview
     pagecolor="#ffffff"
     bordercolor="#666666"
     borderopacity="1"
     objecttolerance="10"
     gridtolerance="10"
     guidetolerance="10"
     inkscape:pageopacity="0"
     inkscape:pageshadow="2"
     inkscape:window-width="2560"
     inkscape:window-height="1376"
     id="namedview12"
     showgrid="false"
     inkscape:zoom="1.3485714"
     inkscape:cx="320.34733"
     inkscape:cy="366.57293"
     inkscape:window-x="0"
     inkscape:window-y="0"
     inkscape:window-maximized="1"
     inkscape:current-layer="svg10" />
  <path
     d="M -72,-30.669492 H 72 V 70.455932 H -72 Z"
     id="path2"
     inkscape:connector-curvature="0"
     style="fill:#cd2a3e;stroke-width:1.02634776" />
  <path
     d="M -72,-15.500678 H 72 V 55.287118 H -72 Z"
     id="path4"
     inkscape:connector-curvature="0"
     style="fill:#006233;stroke-width:1.02634776" />
  <path
     d="m29.999999 2.9199999c-0.08 16.4960001-13.488 29.8400001-29.99999952 29.8400001-16.51200048 0-29.91999948-13.344-29.99999948-29.8400001-0.656 2.512-1.008 5.1360001-1.008 7.8400001 0 17.12 13.871999 31.008 31.00799948 31.008 17.13599952 0 31.00799952-13.872 31.00799952-31.008 0-2.704-0.352-5.3440001-1.008-7.8400001z"
     class="st1"
     fill="#ffc400"
     id="path6" />
  <path
     d="m-0.000001-9.2399582-2.694398 8.291438-8.718241 0.000318 7.053009 5.12472l-2.693771 8.2916412 7.053401-5.1241852 7.0534 5.1241862-2.693771-8.2916422 7.053012-5.12472-8.718243-0.000318z"
     fill="#ffc400"
     id="path8" />
</svg>
