<?xml version="1.0" encoding="UTF-8" standalone="no"?>
<svg
   xmlns:dc="http://purl.org/dc/elements/1.1/"
   xmlns:cc="http://creativecommons.org/ns#"
   xmlns:rdf="http://www.w3.org/1999/02/22-rdf-syntax-ns#"
   xmlns:svg="http://www.w3.org/2000/svg"
   xmlns="http://www.w3.org/2000/svg"
   xmlns:xlink="http://www.w3.org/1999/xlink"
   xmlns:sodipodi="http://sodipodi.sourceforge.net/DTD/sodipodi-0.dtd"
   xmlns:inkscape="http://www.inkscape.org/namespaces/inkscape"
   width="1000"
   height="700"
   viewBox="0 0 800 500"
   version="1.1"
   id="svg54"
   sodipodi:docname="ar.svg"
   inkscape:version="0.92.3 (2405546, 2018-03-11)">
  <metadata
     id="metadata60">
    <rdf:RDF>
      <cc:Work
         rdf:about="">
        <dc:format>image/svg+xml</dc:format>
        <dc:type
           rdf:resource="http://purl.org/dc/dcmitype/StillImage" />
      </cc:Work>
    </rdf:RDF>
  </metadata>
  <defs
     id="defs58" />
  <sodipodi:namedview
     pagecolor="#ffffff"
     bordercolor="#666666"
     borderopacity="1"
     objecttolerance="10"
     gridtolerance="10"
     guidetolerance="10"
     inkscape:pageopacity="0"
     inkscape:pageshadow="2"
     inkscape:window-width="2560"
     inkscape:window-height="1376"
     id="namedview56"
     showgrid="false"
     inkscape:zoom="0.953584"
     inkscape:cx="941.71201"
     inkscape:cy="351.79084"
     inkscape:window-x="0"
     inkscape:window-y="0"
     inkscape:window-maximized="1"
     inkscape:current-layer="svg54" />
  <rect
     width="800"
     height="562.0816"
     id="rect2"
     x="0"
     y="-30.400003"
     style="fill:#74acdf;stroke-width:1.06026566" />
  <rect
     y="156.96414"
     width="800"
     height="187.36427"
     id="rect4"
     x="0"
     style="fill:#ffffff;stroke-width:1.06026566" />
  <g
     id="rays"
     transform="matrix(1.2816366,0,0,1.2816366,-113.73955,-69.324247)">
    <path
       id="ray1"
       d="m 396.84,251.31 28.454,61.992 c 0,0 0.4896,1.185 1.28,0.8586 0.7902,-0.3267 0.2988,-1.5116 0.2988,-1.5116 l -23.715,-63.956 m -0.68,24.12 c -0.3465,9.4278 5.4526,14.613 4.6943,23.032 -0.7569,8.42 3.8673,13.18 4.9396,16.454 1.0733,3.2744 -1.16,5.2323 -0.198,5.6982 0.96336,0.4662 3.07,-2.1207 2.3833,-6.7756 -0.68675,-4.6549 -4.2204,-6.0368 -3.3898,-16.32 0.83,-10.283 -4.206,-12.678 -2.98,-22.058"
       inkscape:connector-curvature="0"
       style="fill:#f6b40e;stroke:#85340a;stroke-width:1.11160004" />
    <use
       xlink:href="#ray1"
       transform="rotate(22.5,400,250)"
       id="use7"
       x="0"
       y="0"
       width="100%"
       height="100%" />
    <use
       xlink:href="#ray1"
       transform="rotate(45,400,250)"
       id="use9"
       x="0"
       y="0"
       width="100%"
       height="100%" />
    <use
       xlink:href="#ray1"
       transform="rotate(67.5,400,250)"
       id="use11"
       x="0"
       y="0"
       width="100%"
       height="100%" />
    <path
       id="ray2"
       d="m 404.31,274.41 c 0.45334,9.0538 5.5867,13.063 4.5787,21.314 2.2133,-6.5249 -3.1233,-11.583 -2.82,-21.22 m -7.6487,-23.757 19.487,42.577 -16.329,-43.887"
       inkscape:connector-curvature="0"
       style="fill:#85340a" />
    <use
       xlink:href="#ray2"
       transform="rotate(22.5,400,250)"
       id="use14"
       x="0"
       y="0"
       width="100%"
       height="100%" />
    <use
       xlink:href="#ray2"
       transform="rotate(45,400,250)"
       id="use16"
       x="0"
       y="0"
       width="100%"
       height="100%" />
    <use
       xlink:href="#ray2"
       transform="rotate(67.5,400,250)"
       id="use18"
       x="0"
       y="0"
       width="100%"
       height="100%" />
  </g>
  <use
     xlink:href="#rays"
     transform="rotate(90,398.9151,251.0849)"
     id="use21"
     x="0"
     y="0"
     width="100%"
     height="100%" />
  <use
     xlink:href="#rays"
     transform="rotate(180,398.9151,251.0849)"
     id="use23"
     x="0"
     y="0"
     width="100%"
     height="100%" />
  <use
     xlink:href="#rays"
     transform="rotate(-90,398.9151,251.0849)"
     id="use25"
     x="0"
     y="0"
     width="100%"
     height="100%" />
  <circle
     cy="251.08498"
     cx="398.91501"
     id="circle27"
     r="35.601303"
     style="fill:#f6b40e;stroke:#85340a;stroke-width:1.92245495" />
  <path
     id="loweyecontour"
     d="m 411.05219,243.47198 c -2.43088,4e-5 -4.75884,1.05329 -6.12776,3.24408 2.73848,2.4642 8.78754,2.73219 12.89583,-0.28036 -1.7793,-1.91656 -4.3377,-2.96378 -6.76858,-2.96378 z m -0.04,0.56072 c 2.36615,-0.0429 4.57762,1.04384 4.88624,2.12265 -2.73848,3.01235 -7.11411,2.75077 -9.85258,0.56071 1.19807,-1.91694 3.12604,-2.65004 4.96634,-2.68349 z"
     inkscape:connector-curvature="0"
     style="fill:#843511;stroke-width:1.2816366" />
  <use
     xlink:href="#uppalpebra"
     transform="matrix(-1,0,0,1,798.1506,0)"
     id="use30"
     x="0"
     y="0"
     width="100%"
     height="100%" />
  <use
     xlink:href="#eyebrow_nose"
     transform="matrix(-1,0,0,1,798.1506,0)"
     id="use32"
     x="0"
     y="0"
     width="100%"
     height="100%" />
  <use
     xlink:href="#pupil"
     transform="translate(24.17423)"
     id="use34"
     x="0"
     y="0"
     width="100%"
     height="100%" />
  <use
     xlink:href="#lowpalpebra"
     transform="matrix(-1,0,0,1,798.1506,0)"
     id="use36"
     x="0"
     y="0"
     width="100%"
     height="100%" />
  <path
     d="m 393.46814,256.00639 c -1.17066,0.21362 -2.00256,1.2525 -2.00256,2.44305 0,1.36033 1.12461,2.44306 2.48317,2.44306 0.80317,0 1.54117,-0.38039 2.00256,-1.04133 0.9478,0.71277 2.26158,0.78835 2.96379,0.80102 0.10804,0.003 0.24751,0 0.32041,0 0.70222,-0.0128 2.01601,-0.0883 2.96378,-0.80102 0.46139,0.66094 1.19939,1.04133 2.00256,1.04133 1.35853,0 2.48317,-1.08283 2.48317,-2.44306 0,-1.19061 -0.83202,-2.22953 -2.00256,-2.44305 0.65748,0.23185 1.08138,0.86703 1.08138,1.56206 0,0.90663 -0.73212,1.64203 -1.64203,1.64203 -0.87203,0 -1.5909,-0.69228 -1.64203,-1.56206 -0.26738,0.53364 -1.32534,2.12124 -3.40429,2.20288 -2.07907,-0.0815 -3.13693,-1.66921 -3.40428,-2.20288 -0.0513,0.86972 -0.77007,1.56206 -1.64203,1.56206 -0.90998,0 -1.64204,-0.73547 -1.64204,-1.64203 0,-0.69497 0.42391,-1.33009 1.08138,-1.56206 z"
     id="path38"
     inkscape:connector-curvature="0"
     style="fill:#85340a;stroke-width:1.2816366" />
  <path
     d="m 396.14676,263.2989 c -2.74014,0 -3.82299,2.48227 -6.28796,4.12533 1.36968,-0.5464 2.44741,-1.62678 4.36551,-2.72347 1.91732,-1.09506 3.55231,0.2403 4.64593,0.2403 h 0.04 c 1.09349,0 2.7286,-1.33495 4.64593,-0.2403 1.91822,1.09695 3.03594,2.17711 4.40562,2.72347 -2.46497,-1.64306 -3.58807,-4.12533 -6.32808,-4.12533 -0.54674,0 -1.62973,0.29548 -2.72347,0.84107 h -0.04 c -1.09367,-0.54651 -2.1766,-0.84107 -2.72348,-0.84107 z"
     id="path40"
     inkscape:connector-curvature="0"
     style="fill:#85340a;stroke-width:1.2816366" />
  <path
     d="m 395.22398,266.54144 c -1.08157,0.0479 -2.51149,0.26498 -4.56583,0.88113 4.93084,-1.09496 6.01882,0.56071 8.21042,0.56071 h 0.04 c 2.1916,0 3.27945,-1.65587 8.21042,-0.56071 -5.47823,-1.64306 -6.56736,-0.56072 -8.21042,-0.56072 h -0.04 c -1.02691,0 -1.84197,-0.40038 -3.64472,-0.32041 z"
     id="path42"
     inkscape:connector-curvature="0"
     style="fill:#85340a;stroke-width:1.2816366" />
  <path
     d="m 390.90487,267.38732 c -0.31809,0.004 -0.6648,0.006 -1.04133,0.04 5.75198,0.5481 2.98698,3.84491 9.01144,3.84491 h 0.04 c 6.02459,0 3.29957,-3.29688 9.05156,-3.84491 -6.02459,-0.54675 -4.11995,3.0039 -9.05156,3.0039 h -0.04 c -4.6235,0 -3.19884,-3.10348 -7.97024,-3.04389 z"
     id="path44"
     inkscape:connector-curvature="0"
     style="fill:#85340a;stroke-width:1.2816366" />
  <path
     d="m 403.8494,276.28188 c 0,-2.72143 -2.20865,-4.92982 -4.92956,-4.92982 -2.7213,0 -4.92956,2.20826 -4.92956,4.92982 0.54213,-2.2826 2.58455,-3.89528 4.92956,-3.89528 2.34962,0 4.38832,1.61307 4.92956,3.89528 z"
     id="path46"
     inkscape:connector-curvature="0"
     style="fill:#85340a;stroke-width:1.2816366" />
  <path
     id="eyebrow_nose"
     d="m 376.78123,243.42072 c 6.29873,-5.47631 14.23898,-6.29886 18.62218,-2.18981 1.07273,1.43633 1.76007,2.97212 2.04216,4.57493 0.55136,3.11822 -0.42332,6.48726 -2.86664,9.94025 0.27568,-0.001 0.82474,0.27222 1.09811,0.54674 2.17455,-4.15762 2.94354,-8.42817 2.23005,-12.49006 -0.18686,-1.06119 -0.47869,-2.10573 -0.85819,-3.12168 -6.02458,-4.92815 -14.23898,-5.4763 -20.26395,2.73976 z"
     inkscape:connector-curvature="0"
     style="fill:#85340a;stroke-width:1.2816366" />
  <path
     id="uppalpebra"
     d="m 386.63702,241.78022 c 3.55872,0 4.3814,0.82243 6.02459,2.1916 1.64472,1.36917 2.46497,1.09465 2.73847,1.36917 0.27222,0.27453 0,1.09465 -0.54675,0.82012 -0.54674,-0.27452 -1.64472,-0.82012 -3.28522,-2.1898 -1.64472,-1.37084 -3.28522,-1.36917 -4.92955,-1.36917 -4.92956,0 -7.66804,4.10713 -8.21453,3.83299 -0.54674,-0.27453 2.73848,-4.65555 8.21453,-4.65555 z"
     inkscape:connector-curvature="0"
     style="fill:#85340a;stroke-width:1.2816366" />
  <use
     xlink:href="#loweyecontour"
     transform="translate(-24.583072)"
     id="use50"
     x="0"
     y="0"
     width="100%"
     height="100%" />
  <circle
     id="pupil"
     cy="246.15068"
     cx="386.79074"
     r="2.4645872"
     style="fill:#85340a;stroke-width:1.2816366" />
  <path
     id="lowpalpebra"
     d="m 380.06222,247.80391 c 4.6558,3.56078 9.31109,3.28663 12.04956,1.64306 2.73848,-1.64306 2.73848,-2.1898 2.1916,-2.1898 -0.54674,0 -1.09349,0.54674 -3.28522,1.64177 -2.19159,1.09696 -5.47643,1.09696 -10.95286,-1.09464 z"
     inkscape:connector-curvature="0"
     style="fill:#85340a;stroke-width:1.2816366" />
</svg>
