<?xml version="1.0" encoding="UTF-8" standalone="no"?>
<svg
   xmlns:dc="http://purl.org/dc/elements/1.1/"
   xmlns:cc="http://creativecommons.org/ns#"
   xmlns:rdf="http://www.w3.org/1999/02/22-rdf-syntax-ns#"
   xmlns:svg="http://www.w3.org/2000/svg"
   xmlns="http://www.w3.org/2000/svg"
   xmlns:sodipodi="http://sodipodi.sourceforge.net/DTD/sodipodi-0.dtd"
   xmlns:inkscape="http://www.inkscape.org/namespaces/inkscape"
   width="1000"
   height="700"
   viewBox="0 0 1200 600"
   version="1.1"
   id="svg37"
   sodipodi:docname="au.svg"
   inkscape:version="0.92.3 (2405546, 2018-03-11)">
  <metadata
     id="metadata43">
    <rdf:RDF>
      <cc:Work
         rdf:about="">
        <dc:format>image/svg+xml</dc:format>
        <dc:type
           rdf:resource="http://purl.org/dc/dcmitype/StillImage" />
      </cc:Work>
    </rdf:RDF>
  </metadata>
  <defs
     id="defs41" />
  <sodipodi:namedview
     pagecolor="#ffffff"
     bordercolor="#666666"
     borderopacity="1"
     objecttolerance="10"
     gridtolerance="10"
     guidetolerance="10"
     inkscape:pageopacity="0"
     inkscape:pageshadow="2"
     inkscape:window-width="2560"
     inkscape:window-height="1376"
     id="namedview39"
     showgrid="false"
     inkscape:zoom="0.953584"
     inkscape:cx="562.0678"
     inkscape:cy="432.26714"
     inkscape:window-x="0"
     inkscape:window-y="0"
     inkscape:window-maximized="1"
     inkscape:current-layer="svg37" />
  <clipPath
     id="c">
    <path
       d="M0,0V150H700V300H600zM600,0H300V350H0V300z"
       id="path2" />
  </clipPath>
  <rect
     width="1200"
     height="842.87317"
     id="rect5"
     x="0"
     y="-122.0658"
     style="fill:#00247d;stroke-width:1.18523777" />
  <path
     d="M 2.0086226,-124.12728 634.73713,224.07249 m 0,-348.19977 L 2.0086226,224.07249"
     id="path7"
     inkscape:connector-curvature="0"
     style="stroke:#ffffff;stroke-width:66.38009644" />
  <path
     d="M 0,0 600,300 M 600,0 0,300"
     clip-path="url(#c)"
     id="path9"
     inkscape:connector-curvature="0"
     transform="matrix(1.0545475,0,0,1.160666,2.0086226,-124.12728)"
     style="stroke:#cf142b;stroke-width:40" />
  <path
     d="M 318.37286,-124.12728 V 282.10578 M 2.0086226,49.972604 H 740.19187"
     id="path11"
     inkscape:connector-curvature="0"
     style="stroke:#ffffff;stroke-width:110.63350677" />
  <path
     d="M 318.37286,-124.12728 V 282.10578 M 2.0086226,49.972604 H 740.19187"
     id="path13"
     inkscape:connector-curvature="0"
     style="stroke:#cf142b;stroke-width:66.38009644" />
  <path
     d="M 2.0086226,230.28327 H 634.73713 V -117.91649 H 845.64662 V 346.34987 H 2.0086226 Z"
     id="path15"
     inkscape:connector-curvature="0"
     style="fill:#00247d;stroke-width:1.10633516" />
  <g
     transform="matrix(0.11555673,0,0,0.11555673,39.82014,-7.243138)"
     style="fill:#ffffff"
     id="g30">
    <path
       inkscape:connector-curvature="0"
       d="m 2520,2752.8 174.9419,543.9294 534.3356,-202.3593 -316.1866,475.9095 491.3637,291.5914 -569.2202,49.5201 78.3849,565.9679 L 2520,4063.2 l -393.6193,414.159 78.3849,-565.9679 -569.2202,-49.5201 491.3637,-291.5914 -316.1866,-475.9095 534.3356,202.3593 z"
       id="Comwlth"
       style="stroke-width:2.51999998" />
    <path
       inkscape:connector-curvature="0"
       d="m 7560,3648 83.3057,259.014 254.4455,-96.3616 -150.565,226.6236 233.9827,138.853 -271.0573,23.581 37.3262,269.5085 L 7560,4272 l -187.4378,197.2185 37.3262,-269.5085 -271.0573,-23.581 233.9827,-138.853 -150.565,-226.6236 254.4455,96.3616 z"
       id="αCrucis"
       style="stroke-width:1.20000005" />
    <path
       inkscape:connector-curvature="0"
       d="m 6300,1653 83.3057,259.014 254.4455,-96.3616 -150.565,226.6236 233.9827,138.853 -271.0573,23.581 37.3262,269.5086 L 6300,2277 l -187.4378,197.2186 37.3262,-269.5086 -271.0573,-23.581 233.9827,-138.853 -150.565,-226.6236 254.4455,96.3616 z"
       id="βCrucis"
       style="stroke-width:1.20000005" />
    <path
       inkscape:connector-curvature="0"
       d="m 7560,288 83.3057,259.01398 254.4455,-96.36157 -150.565,226.62357 233.9827,138.85306 -271.0573,23.581 37.3262,269.50856 L 7560,912 l -187.4378,197.2186 37.3262,-269.50856 -271.0573,-23.581 233.9827,-138.85306 -150.565,-226.62357 254.4455,96.36157 z"
       id="γCrucis"
       style="stroke-width:1.20000005" />
    <path
       inkscape:connector-curvature="0"
       d="m 8680,1317 83.3057,259.014 254.4455,-96.3616 -150.565,226.6236 233.9827,138.853 -271.0573,23.581 37.3262,269.5086 L 8680,1941 l -187.4378,197.2186 37.3262,-269.5086 -271.0573,-23.581 233.9827,-138.853 -150.565,-226.6236 254.4455,96.3616 z"
       id="δCrucis"
       style="stroke-width:1.20000005" />
    <path
       inkscape:connector-curvature="0"
       d="m 8064,2358 65.8319,161.3901 173.8343,12.7376 -133.1479,112.4822 41.6036,169.2624 L 8064,2722 l -148.1219,91.8723 41.6036,-169.2624 -133.1479,-112.4822 173.8343,-12.7376 z"
       id="εCrucis"
       style="stroke-width:1.20000005" />
  </g>
</svg>
