<?xml version="1.0" encoding="UTF-8" standalone="no"?>
<svg
   xmlns:dc="http://purl.org/dc/elements/1.1/"
   xmlns:cc="http://creativecommons.org/ns#"
   xmlns:rdf="http://www.w3.org/1999/02/22-rdf-syntax-ns#"
   xmlns:svg="http://www.w3.org/2000/svg"
   xmlns="http://www.w3.org/2000/svg"
   xmlns:xlink="http://www.w3.org/1999/xlink"
   xmlns:sodipodi="http://sodipodi.sourceforge.net/DTD/sodipodi-0.dtd"
   xmlns:inkscape="http://www.inkscape.org/namespaces/inkscape"
   width="1000"
   height="700"
   viewBox="0 0 1098 549"
   version="1.1"
   id="svg20"
   sodipodi:docname="by.svg"
   inkscape:version="0.92.3 (2405546, 2018-03-11)">
  <metadata
     id="metadata26">
    <rdf:RDF>
      <cc:Work
         rdf:about="">
        <dc:format>image/svg+xml</dc:format>
        <dc:type
           rdf:resource="http://purl.org/dc/dcmitype/StillImage" />
      </cc:Work>
    </rdf:RDF>
  </metadata>
  <defs
     id="defs24" />
  <sodipodi:namedview
     pagecolor="#ffffff"
     bordercolor="#666666"
     borderopacity="1"
     objecttolerance="10"
     gridtolerance="10"
     guidetolerance="10"
     inkscape:pageopacity="0"
     inkscape:pageshadow="2"
     inkscape:window-width="2560"
     inkscape:window-height="1376"
     id="namedview22"
     showgrid="false"
     inkscape:zoom="0.953584"
     inkscape:cx="1012.9496"
     inkscape:cy="368.73149"
     inkscape:window-x="0"
     inkscape:window-y="0"
     inkscape:window-maximized="1"
     inkscape:current-layer="svg20" />
  <title
     id="title2">Flag of Belarus</title>
  <rect
     width="1098"
     height="775.03528"
     id="rect4"
     x="0"
     y="-111.69022"
     style="fill:#c8313e;stroke-width:1.18815899" />
  <rect
     y="405"
     width="1098"
     height="258.34509"
     id="rect6"
     x="0"
     style="fill:#4aa657;stroke-width:1.18815899" />
  <rect
     width="122"
     height="775.03528"
     id="rect8"
     x="0"
     y="-111.69022"
     style="fill:#ffffff;stroke-width:1.18815899" />
  <g
     id="h"
     transform="matrix(1,0,0,1.4122623,0,-111.72173)">
    <g
       id="q"
       transform="scale(5.3043478,9)"
       style="fill:#c8313e;fill-rule:evenodd">
      <path
         d="m 4,0 h 3 v 1 h 1 v 1 h 1 v 1 h 1 v 1 h 1 V 5 H 10 V 6 H 9 V 7 H 8 V 8 H 7 V 9 H 6 v 1 H 5 V 9 H 4 V 8 H 3 V 7 H 2 V 6 H 1 V 5 H 0 V 4 H 1 V 3 H 2 V 2 H 3 V 1 H 4 Z M 5,2 H 6 V 3 H 7 V 4 H 8 V 5 H 7 V 6 H 6 V 7 H 5 V 6 H 4 V 5 H 3 V 4 H 4 V 3 H 5 Z M 5,4 H 6 V 5 H 5 Z M 0,1 H 1 V 2 H 0 Z M 0,7 H 1 V 8 H 0 Z M 11,0 h 0.6 V 2 H 11 Z m 0,7 h 0.6 V 9 H 11 Z M 2,9 h 1 v 1 h 1 v 1 h 1 v 1 H 4 v 1 H 3 v 1 H 2 V 13 H 1 V 12 H 0 v -1 h 1 v -1 h 1 z m 0,2 h 1 v 1 H 2 Z M 8,9 h 1 v 1 h 1 v 1 h 1 v 1 h -1 v 1 H 9 v 1 H 8 V 13 H 7 V 12 H 6 v -1 h 1 v -1 h 1 z m 0,2 h 1 v 1 H 8 Z m -8,4 h 1 v 1 H 0 Z m 11,-1 h 0.6 v 2 H 11 Z"
         id="path10"
         inkscape:connector-curvature="0" />
      <path
         d="m 0,18 h 1 v -1 h 1 v -1 h 1 v -1 h 1 v -1 h 1 v -1 h 1 v 1 h 1 v 1 h 1 v 1 h 1 v 1 h 1 v 1 h 1 v 1 h 0.6 v 4 H 11 v 1 h -1 v 1 H 9 v 1 H 8 v 1 H 7 v 1 H 6 v 2.6 H 4 V 30 H 3 V 29 H 2 V 28 H 1 V 27 H 0 v -3 h 1 v 1 h 1 v 1 h 1 v 1 H 4 V 26 H 5 V 25 H 6 V 24 H 7 V 23 H 8 V 22 H 9 V 21 H 8 V 20 H 7 V 19 H 4 v 1 h 2 v 1 H 5 v 1 H 4 v 1 H 3 V 22 H 2 V 21 H 1 V 20 H 0 Z m 0,4 h 1 v 1 H 0 Z m 11,3 h 0.6 v 1 H 11 Z m -2,2 h 1 v 1 h 1 v 1 h 0.6 v 1.6 H 11 V 30 H 10 V 29 H 9 Z m -2,3 h 1 v 0.6 H 7 Z"
         id="path12"
         inkscape:connector-curvature="0" />
    </g>
    <use
       xlink:href="#q"
       transform="matrix(-1,0,0,1,122,0)"
       id="use15"
       x="0"
       y="0"
       width="100%"
       height="100%" />
  </g>
  <use
     xlink:href="#h"
     transform="matrix(1,0,0,-1,0,551.88852)"
     id="use18"
     x="0"
     y="0"
     width="100%"
     height="100%" />
</svg>
