<?xml version="1.0" encoding="UTF-8" standalone="no"?>
<svg
   xmlns:dc="http://purl.org/dc/elements/1.1/"
   xmlns:cc="http://creativecommons.org/ns#"
   xmlns:rdf="http://www.w3.org/1999/02/22-rdf-syntax-ns#"
   xmlns:svg="http://www.w3.org/2000/svg"
   xmlns="http://www.w3.org/2000/svg"
   xmlns:sodipodi="http://sodipodi.sourceforge.net/DTD/sodipodi-0.dtd"
   xmlns:inkscape="http://www.inkscape.org/namespaces/inkscape"
   width="1000"
   height="700"
   viewBox="0 0 1000 500"
   version="1.1"
   id="svg208"
   sodipodi:docname="as.svg"
   inkscape:version="0.92.3 (2405546, 2018-03-11)">
  <metadata
     id="metadata214">
    <rdf:RDF>
      <cc:Work
         rdf:about="">
        <dc:format>image/svg+xml</dc:format>
        <dc:type
           rdf:resource="http://purl.org/dc/dcmitype/StillImage" />
      </cc:Work>
    </rdf:RDF>
  </metadata>
  <defs
     id="defs212" />
  <sodipodi:namedview
     pagecolor="#ffffff"
     bordercolor="#666666"
     borderopacity="1"
     objecttolerance="10"
     gridtolerance="10"
     guidetolerance="10"
     inkscape:pageopacity="0"
     inkscape:pageshadow="2"
     inkscape:window-width="2560"
     inkscape:window-height="1376"
     id="namedview210"
     showgrid="false"
     inkscape:zoom="1.3485714"
     inkscape:cx="547.85714"
     inkscape:cy="327.4099"
     inkscape:window-x="0"
     inkscape:window-y="0"
     inkscape:window-maximized="1"
     inkscape:current-layer="svg208" />
  <rect
     height="700.21191"
     width="1000"
     id="rect2"
     x="0"
     y="-100.10593"
     style="fill:#000066;stroke-width:1.18339503" />
  <path
     d="M 0,249.99999 1000,-100.10593 V 600.10593 Z"
     id="path4"
     inkscape:connector-curvature="0"
     style="fill:#bd1021;stroke-width:1.18339503" />
  <path
     d="M 107.14,249.99999 1000,-62.588581 V 562.58857"
     id="path6"
     inkscape:connector-curvature="0"
     style="fill:#ffffff;stroke-width:1.18339503" />
  <g
     id="g206"
     transform="matrix(1.2022475,0,0,1.2022475,-199.03752,-49.179759)"
     style="stroke:#000000;stroke-width:1.72000003">
    <path
       d="m 832.04,306.06 c 0,0 -6.2429,-5.108 1.135,-13.337 -3.973,-3.4049 -0.2834,-9.9312 -0.2834,-9.9312 0,0 -6.8111,-2.5547 0.2834,-13.054 -5.108,-3.4049 -2.8381,-11.068 -2.8381,-11.068 0,0 -16.742,-6.2429 -0.85018,-12.201 -13.054,5.6748 -25.257,-7.6626 -25.257,-7.6626 l -19.012,0.56816 c -3.2161,-15.797 -28.283,-2.0814 -9.6482,-47.39 -4.8242,-0.85142 -10.216,-2.27 -15.607,1.7027 -5.3916,3.9728 -20.715,12.486 -29.796,3.9728 -9.0806,-8.5131 5.9593,-20.715 6.2431,-20.999 0.28367,-0.2838 20.148,-10.5 22.986,-17.31 -0.28381,-5.108 -6.5269,-9.0806 -0.85142,-20.148 6.5267,-10.5 46.538,-20.432 64.701,-23.837 8.7962,-3.9728 12.769,-11.635 12.769,-11.635 l 1.9865,7.378 c 0,0 40.296,-11.918 42.282,-17.594 1.9865,-5.6755 0.85156,5.1078 0.85156,5.1078 15.891,-1.4189 36.038,-15.04 38.876,-8.7969 13.337,-2.5539 38.877,-13.905 38.877,-13.905 0,0 8.7962,-0.28364 2.5533,9.3646 3.973,6.2429 -1.135,11.635 -1.4184,11.635 -0.28477,0 1.7017,6.2429 -3.4062,9.6482 1.7045,5.3916 -3.1215,9.6482 -3.1215,9.6482 0,0 2.2713,6.5267 -6.8097,9.932 0.85157,5.6755 -5.108,6.8106 -5.108,6.8106 0,0 0.85156,5.9593 -3.1215,8.5131 0,4.5404 -4.5398,6.8106 -4.5398,6.8106 0,0 2.8367,1.7026 -1.1363,4.5404 -3.9716,2.8377 -45.119,28.093 -45.119,27.81 0,-0.28366 30.08,5.3917 32.066,6.5268 1.9865,1.1351 24.688,16.175 24.688,16.175 l -22.987,28.377 c 0,0 -25.539,-2.8367 -26.673,-1.4184 -1.135,1.4184 5.3914,1.9865 6.8097,4.2564 1.4197,2.2699 3.6896,7.6627 8.2294,7.0945 4.5412,-0.56816 -8.5129,8.2295 -17.026,9.081 0,3.1215 10.783,3.4049 13.621,0.85155 2.8381,-2.5547 -6.8111,7.3779 -7.9461,8.7962 -1.135,1.4183 12.771,-1.9865 12.771,-1.9865 0,0 -2.2713,9.3644 -14.472,12.202 4.8232,7.946 2.8367,13.054 2.5533,13.054 -0.28339,0 -7.946,-7.946 -15.324,-6.5277 1.9865,7.6627 7.9461,14.756 9.6492,15.892 1.7017,1.135 -13.337,0.85018 -15.324,-3.4062 -1.9865,-4.2564 -3.6896,10.216 1.7018,14.757 -6.2416,0.2834 -11.634,-3.4062 -11.634,-3.4062 0,0 -3.6882,8.5128 -1.135,12.771 2.5547,4.2564 -8.7962,-8.5142 -8.7962,-8.5142 l -21.567,9.081 -4.8246,-8.2294 z"
       id="path8"
       inkscape:connector-curvature="0"
       style="fill:#9c3900;stroke-linejoin:round" />
    <g
       id="g14"
       style="fill:#ffc221">
      <path
         d="m 665.36,289.17 c 0.50543,0 31.331,-0.50627 45.48,-8.5913 7.0747,11.117 16.676,18.697 16.676,18.697 l 4.5481,-16.17 c 0,0 11.117,0.50489 12.128,3.032 -1.516,3.0307 -2.0213,7.0739 -2.0213,7.0739 0,0 7.58,0.50627 8.0853,1.516 0.5053,1.0111 -2.0213,9.601 -2.0213,9.601 l 32.342,7.5801 c 0,0 2.5266,-12.633 5.0532,-11.117 2.5268,1.516 13.644,17.181 29.31,18.192 15.665,1.0111 16.676,-13.139 16.676,-13.139 l 3.5369,2.0223 c 0,0 6.569,-14.149 7.5801,-14.149 1.0111,0 2.5272,2.0209 11.117,2.0209 2.5272,3.032 3.5383,10.106 3.5383,10.106 0,0 -9.6024,9.6024 -6.5704,17.183 3.032,7.5801 3.5383,5.5578 3.5383,5.5578 l 69.736,16.676 c 0,0 3.5383,5.5592 -2.5258,8.5913 0,0.50489 -70.242,-16.171 -70.242,-16.171 0,0 -6.5704,7.5801 -11.623,6.0641 -5.053,-1.516 -1.516,3.032 -1.516,3.032 l 75.8,6.0641 c 0,0 5.5592,7.0752 1.516,9.0962 -5.053,0.50488 -81.864,-5.053 -81.864,-5.053 0,0 -4.5481,9.601 -9.601,1.516 -3.5369,5.5578 -7.5801,-1.516 -7.5801,-1.516 0,0 -6.569,5.053 -7.5801,-0.50626 -5.5592,4.0432 -9.0961,-2.5258 -9.0961,-2.5258 l -32.341,-2.0223 -2.0213,3.032 c 0,0 5.5587,1.516 -3.032,5.0543 -8.5907,3.5369 51.544,2.0209 53.06,2.5258 1.516,0.50625 -4.0418,5.0543 -4.0418,5.0543 0,0 30.825,2.0209 36.383,-4.5481 5.5592,-6.5703 -2.0209,8.5899 -2.0209,8.5899 0,0 24.256,-1.0098 24.256,-2.0209 0,-1.0111 -0.50626,7.5801 -17.181,6.569 10.106,6.5704 22.739,10.612 22.739,10.612 0,0 -12.633,3.032 -27.287,-0.50488 2.5258,6.569 13.644,12.633 13.644,12.633 0,0 -8.0864,7.0752 -26.279,-10.107 5.0543,9.0962 1.0111,12.634 0.50625,11.623 -0.50625,-1.0111 -9.0961,-13.644 -29.309,-18.192 12.633,8.085 7.0739,11.623 7.0739,11.623 0,0 -6.569,-11.623 -17.181,0 -4.0432,-10.612 -19.708,-16.676 -38.911,-17.687 -6.064,-7.0739 -9.6014,-5.0529 -23.751,-9.0961 -8.0853,-9.0948 -19.708,-19.202 -19.708,-19.202 0,0 0.5053,-13.644 14.149,-12.128 1.516,4.5481 1.516,3.032 1.516,3.032 0,0 15.16,-5.5592 19.708,2.0209 6.5692,-11.623 15.665,-1.7375 17.181,2.3043 4.3537,0.63832 26.278,1.2326 26.278,1.2326 0,0 -2.5272,-4.5481 -1.0112,-4.0418 1.516,0.50488 13.644,-4.5481 13.139,-6.0641 -0.50625,-1.516 -1.0111,-6.569 1.0098,-6.0641 2.0223,0.50489 -17.181,-2.5272 -27.793,5.5592 -3.5373,-3.5383 -1.0106,-13.139 -1.0106,-13.139 l -31.331,-6.569 -1.516,8.085 c 0,0 -9.096,1.516 -8.5907,-0.50487 0.50529,-2.0223 -2.0213,7.0739 -2.0213,7.0739 0,0 -12.128,-3.0321 -12.128,-3.5369 0,-0.50489 3.5374,-18.192 3.5374,-17.687 0,0.50626 -10.107,1.0112 -24.256,11.623 -4.0426,-12.633 -35.879,-29.309 -35.879,-29.814 z"
         id="path10"
         inkscape:connector-curvature="0" />
      <path
         d="m 704.78,247.73 c 0,0 -21.224,18.191 0,28.803 1.0106,-7.0752 2.5268,-8.085 2.5268,-8.085 0,0 17.687,6.569 28.299,-9.0961 -4.5481,-6.569 -12.633,-4.0418 -12.633,-4.0418 0,0 -16.676,-0.001 -18.192,-7.5801 z"
         id="path12"
         inkscape:connector-curvature="0" />
    </g>
    <path
       d="m 722.47,255.82 -14.655,12.633"
       id="path16"
       inkscape:connector-curvature="0"
       style="fill:none" />
    <g
       id="g22"
       style="fill:#ffffff">
      <path
         d="m 705.48,247.88 v 0 c 0,0 2.8377,-2.8381 3.6891,-6.2429 0.85129,-3.4049 -1.1351,-7.0945 2.2702,-10.216 3.4051,-3.1215 48.241,-22.134 51.93,-25.823 3.6891,-3.6888 10.499,-11.634 11.351,-13.337 0.85129,-1.7027 3.4053,8.5131 -4.2566,13.054 8.2293,-2.2707 13.621,-4.8243 17.026,-3.6892 -3.4058,4.8242 -12.486,12.77 -16.743,12.77 9.932,-3.6896 19.012,-6.8111 21.567,-4.8246 2.5533,1.9865 -12.202,11.919 -18.162,12.486 9.932,-2.5533 23.27,-6.5263 24.971,-2.2699 -5.3914,1.7031 -3.6896,3.1201 -14.756,9.3644 -1.4188,1.1363 -8.5131,1.4184 -8.5131,1.4184 8.5131,-0.85156 20.147,-4.2564 21.282,1.9865 -6.8097,2.5533 -9.3639,5.9595 -15.039,7.3779 -5.6755,1.4197 -18.729,3.973 -26.675,7.0945 -7.9455,3.1215 -19.58,12.202 -19.58,12.202 0,0 -25.256,0.85155 -25.256,0.56678 0,-0.28339 -4.824,-11.634 -5.1078,-11.918 z"
         id="path18"
         inkscape:connector-curvature="0"
         style="stroke-linejoin:round" />
      <path
         d="m 921.99,230.57 49.092,9.3644 c 0,0 5.3928,-6.2429 2.5547,-9.6478 7.3779,-1.7017 5.3914,-11.351 5.3914,-11.351 0,0 8.5128,-3.6883 1.4183,-12.202 4.826,-4.8239 -1.135,-8.5128 -1.135,-8.5128 0,0 1.9865,-8.5131 -4.2564,-9.3644 1.7031,-6.8104 -10.783,-9.0807 -10.783,-9.0807 0,0 -25.823,7.0944 -43.985,7.6618 5.9595,5.9593 -2.2699,9.6482 -2.2699,9.6482 0,0 4.8246,3.4053 3.4049,6.2429 -1.4183,2.8382 0.85157,5.9597 -5.3914,7.9462 8.2294,3.6896 -0.85156,9.9312 -0.85156,9.9312 0,0 9.081,6.2429 6.8111,9.3644 z"
         id="path20"
         inkscape:connector-curvature="0" />
    </g>
    <g
       id="g204"
       style="fill:none">
      <path
         d="m 742.17,293.72 -6.5694,29.309"
         id="path24"
         inkscape:connector-curvature="0" />
      <path
         d="m 748.24,304.83 -2.0213,9.601"
         id="path26"
         inkscape:connector-curvature="0" />
      <path
         d="m 780.58,312.41 -3.032,9.0962"
         id="path28"
         inkscape:connector-curvature="0" />
      <path
         d="m 836.67,374.06 c -0.50489,0 -16.17,2.0209 -18.192,1.516 -2.0209,-0.50489 24.761,8.085 24.761,11.622"
         id="path30"
         inkscape:connector-curvature="0" />
      <path
         d="m 808.37,377.6 c 0,0 -15.666,-10.106 -18.192,-9.0961 -2.5269,1.0111 15.665,-0.50489 17.181,-2.0209"
         id="path32"
         inkscape:connector-curvature="0" />
      <path
         d="m 776.03,365.98 c 0,0 -16.171,0.50488 -17.687,-1.0111 -1.516,-1.51598 15.665,11.117 18.697,10.107"
         id="path34"
         inkscape:connector-curvature="0" />
      <path
         d="m 744.7,358.9 c -0.5053,0 -11.117,-4.0418 -15.665,-5.0543 4.0426,4.0432 7.0747,9.6024 17.181,11.623"
         id="path36"
         inkscape:connector-curvature="0" />
      <path
         d="m 748.74,352.34 c -0.50529,-1.0111 -20.213,-7.0752 -20.213,-10.107 4.5481,1.516 11.117,3.5369 17.181,2.0209"
         id="path38"
         inkscape:connector-curvature="0" />
      <path
         d="m 853.35,329.09 -2.0209,9.0948"
         id="path40"
         inkscape:connector-curvature="0" />
      <path
         d="m 767.6,343.56 c 0,0 3.3779,3.724 0.34585,8.2721"
         id="path42"
         inkscape:connector-curvature="0" />
      <path
         d="m 838.69,347.28 -5.5578,0.50625"
         id="path44"
         inkscape:connector-curvature="0" />
      <path
         d="m 793.21,344.25 10.106,1.516"
         id="path46"
         inkscape:connector-curvature="0" />
      <path
         d="m 820.4,318.26 c 0,0 0.2834,10.216 -8.2294,9.9326 -8.5128,-0.28477 -5.6762,0.2834 -5.6762,0.2834"
         id="path48"
         inkscape:connector-curvature="0" />
      <path
         d="m 826.93,316.55 c 0,0 3.4049,1.135 2.5547,3.6896 -0.85155,2.5533 0.85018,9.9312 -9.081,17.026 -10.501,2.2699 -9.3644,-8.7962 -9.3644,-8.7962"
         id="path50"
         inkscape:connector-curvature="0" />
      <path
         d="m 830.62,319.68 c 0,0 6.2429,-3.6883 7.0945,2.2713 0.85018,5.9582 -5.108,17.026 -9.3644,18.729 -4.2578,1.7018 -9.081,-0.28476 -8.5142,-3.1215"
         id="path52"
         inkscape:connector-curvature="0" />
      <path
         d="m 838.28,322.23 c 0,0 5.6762,-4.5412 7.3779,1.4184 1.7031,5.9596 -4.5398,19.297 -7.0945,19.58"
         id="path54"
         inkscape:connector-curvature="0" />
      <path
         d="m 846.23,323.65 c 0,0 2.8381,-1.4184 4.8232,0.28339"
         id="path56"
         inkscape:connector-curvature="0" />
      <path
         d="m 837.15,344.08 c -1.135,0.28339 -5.9595,0.56678 -7.6613,-3.1215"
         id="path58"
         inkscape:connector-curvature="0" />
      <path
         d="m 811.61,334.15 c -0.28339,0 -5.9582,0.28476 -5.9582,0.28476"
         id="path60"
         inkscape:connector-curvature="0" />
      <path
         d="m 833.46,356.57 -0.56679,-9.3644 -2.2699,-3.1215 -3.973,3.973 c 0,0 -0.56816,9.3644 -2.2699,10.216"
         id="path62"
         inkscape:connector-curvature="0" />
      <path
         d="m 826.65,347.77 c -0.28339,-0.56678 -3.1215,-5.9582 -3.1215,-5.9582 l -4.8246,5.9582 c 0,0 -0.5668,8.5142 -2.2699,9.3658"
         id="path64"
         inkscape:connector-curvature="0" />
      <path
         d="m 818.7,347.49 c 0,-0.28339 -1.9865,-5.6748 -1.9865,-5.6748 0,0 -5.6748,3.1215 -6.2429,5.3914 -0.56679,2.2699 -0.85156,8.5128 -2.2699,9.081"
         id="path66"
         inkscape:connector-curvature="0" />
      <path
         d="m 810.47,346.07 c 0,0 0.56816,-5.108 -1.135,-5.108 -1.7018,0 -9.3644,7.0945 -9.6478,13.337"
         id="path68"
         inkscape:connector-curvature="0" />
      <path
         d="m 717.39,245.9 c 0,0 0.28382,-5.6748 2.8377,-7.6613 2.554,-1.9865 15.324,-6.8111 18.161,-11.068 2.8377,-4.2564 -4.2566,7.3779 -3.1215,10.499"
         id="path70"
         inkscape:connector-curvature="0" />
      <path
         d="m 722.5,237.38 c 0,0 6.2431,2.2713 4.8242,7.0945"
         id="path72"
         inkscape:connector-curvature="0" />
      <path
         d="m 57.344,126.01 a 3.9192,3.9192 0 1 1 -7.8384,0 3.9192,3.9192 0 1 1 7.8384,0 z"
         transform="matrix(1.1946929,0,0,1.1946929,661.37184,90.106184)"
         id="path74"
         inkscape:connector-curvature="0"
         style="stroke-width:1.00000003pt" />
      <path
         d="m 917.17,220.07 v 0 c 0,0 43.417,5.108 45.404,5.108 1.9865,0 9.6478,2.5547 11.068,5.108"
         id="path76"
         inkscape:connector-curvature="0" />
      <path
         d="m 919.44,217.52 60.443,1.4184"
         id="path78"
         inkscape:connector-curvature="0" />
      <path
         d="m 919.72,216.1 c 0,0 57.321,-3.4049 61.294,-9.3644"
         id="path80"
         inkscape:connector-curvature="0" />
      <path
         d="m 921.43,203.61 c 0,0 57.606,-6.2429 58.174,-5.3916"
         id="path82"
         inkscape:connector-curvature="0" />
      <path
         d="m 919.44,196.52 c 0,0 55.903,-8.7969 56.47,-7.378"
         id="path84"
         inkscape:connector-curvature="0" />
      <path
         d="m 759.96,160.48 c 0,0 17.594,19.296 15.891,32.35"
         id="path86"
         inkscape:connector-curvature="0" />
      <path
         d="m 774.72,182.61 c 0,0 5.6753,8.2293 7.9455,9.0806 2.2702,0.85128 22.134,1.9864 23.269,10.5 1.135,5.3916 -4.2564,3.6885 -3.4049,7.6616 1.4184,5.108 14.756,11.634 29.228,3.973"
         id="path88"
         inkscape:connector-curvature="0" />
      <path
         d="m 818.42,217.8 c 0,0 11.918,17.594 29.512,-1.4183"
         id="path90"
         inkscape:connector-curvature="0" />
      <path
         d="m 838.85,224.05 c 0,0 14.472,7.6613 26.39,-12.202"
         id="path92"
         inkscape:connector-curvature="0" />
      <path
         d="m 849.92,225.75 c 0,0 7.0945,5.9596 21.852,-1.9851"
         id="path94"
         inkscape:connector-curvature="0" />
      <path
         d="m 892.2,215.82 c 0,0 21.85,4.5398 23.27,5.9596"
         id="path96"
         inkscape:connector-curvature="0" />
      <path
         d="m 900.43,210.99 c 0.28339,0 15.324,0.56817 15.324,0.56817"
         id="path98"
         inkscape:connector-curvature="0" />
      <path
         d="m 891.06,202.48 c 0,0 26.107,-1.7026 29.513,3.6895"
         id="path100"
         inkscape:connector-curvature="0" />
      <path
         d="m 879.71,194.25 c 0,0 36.607,1.4188 38.309,3.4053"
         id="path102"
         inkscape:connector-curvature="0" />
      <path
         d="m 887.94,231.71 c 0,0 6.2429,-1.7017 7.0945,-0.85019"
         id="path104"
         inkscape:connector-curvature="0" />
      <path
         d="m 873.75,247.03 c 0,0 8.2294,7.0945 18.73,3.973"
         id="path106"
         inkscape:connector-curvature="0" />
      <path
         d="m 878.29,258.95 c 0,0 9.3644,4.2564 20.432,1.7018"
         id="path108"
         inkscape:connector-curvature="0" />
      <path
         d="m 881.41,266.04 c 0,0 9.3644,6.2429 15.607,5.1066"
         id="path110"
         inkscape:connector-curvature="0" />
      <path
         d="m 877.16,269.73 c 0,0 6.5263,4.8246 6.8097,7.3779"
         id="path112"
         inkscape:connector-curvature="0" />
      <path
         d="m 868.08,275.41 c 0,0 1.9865,10.215 9.081,13.904"
         id="path114"
         inkscape:connector-curvature="0" />
      <path
         d="m 863.25,279.95 c 0,0 -3.1215,13.337 4.8246,21.567"
         id="path116"
         inkscape:connector-curvature="0" />
      <path
         d="m 855.02,290.45 c 0,0.28339 -0.56679,6.2429 -0.2834,6.8111"
         id="path118"
         inkscape:connector-curvature="0" />
      <path
         d="m 803.94,238.8 15.324,-0.85157 c 0,0 5.6748,-2.2699 1.7017,-5.9582"
         id="path120"
         inkscape:connector-curvature="0" />
      <path
         d="m 822.96,235.4 c 0.28477,0 14.472,1.135 18.162,5.3914 3.6882,4.2564 8.2294,12.769 10.783,14.189 2.5547,1.4184 3.1215,-0.56816 3.1215,-0.56816"
         id="path122"
         inkscape:connector-curvature="0" />
      <path
         d="m 848.78,252.14 c 0,0 -7.6613,13.054 -1.7018,17.027"
         id="path124"
         inkscape:connector-curvature="0" />
      <path
         d="m 844.52,266.61 c 0,0 -6.8097,9.081 -1.4184,13.621"
         id="path126"
         inkscape:connector-curvature="0" />
      <path
         d="m 841.69,279.1 c 0,0 -5.3914,8.7976 1.1363,14.756"
         id="path128"
         inkscape:connector-curvature="0" />
      <path
         d="m 839.3,255.76 c -0.36594,0.36594 -6.591,4.7599 -8.788,3.6621"
         id="path130"
         inkscape:connector-curvature="0" />
      <path
         d="m 832.71,269.68 c 0,0 2.5629,2.5629 4.7599,2.197"
         id="path132"
         inkscape:connector-curvature="0" />
      <path
         d="m 833.01,282.98 4.09,2.805"
         id="path134"
         inkscape:connector-curvature="0" />
      <path
         d="m 833.56,293.17 3.5383,2.1351"
         id="path136"
         inkscape:connector-curvature="0" />
      <path
         d="m 769.47,154.01 c 0,0 7.4602,3.8794 13.428,0 5.9688,-3.8792 34.615,-18.501 42.075,-20.888 7.4591,-2.3873 11.637,-16.114 13.13,-22.082"
         id="path138"
         inkscape:connector-curvature="0" />
      <path
         d="m 832.44,127.15 41.777,-12.235 c 0,0 6.8634,-5.6697 7.1619,-16.114"
         id="path140"
         inkscape:connector-curvature="0" />
      <path
         d="m 878.39,110.14 c 0,0 41.776,-4.1776 41.776,-19.695"
         id="path142"
         inkscape:connector-curvature="0" />
      <path
         d="m 913.6,101.19 c 0,0 43.866,-11.936 48.044,-16.412"
         id="path144"
         inkscape:connector-curvature="0" />
      <path
         d="m 791.26,163.55 c 0,0 26.558,-13.727 30.736,-15.219 4.1766,-1.4921 13.725,-13.428 -0.59705,-13.428"
         id="path146"
         inkscape:connector-curvature="0" />
      <path
         d="m 804.09,168.93 c 0.29852,0 21.783,-14.025 28.945,-15.815 3.8795,-5.3712 1.7912,-11.041 -4.7737,-9.8473"
         id="path148"
         inkscape:connector-curvature="0" />
      <path
         d="m 834.82,149.53 c 0.59705,-0.29839 11.638,-0.59678 7.759,8.0569 -5.6679,4.1776 -30.139,16.412 -30.139,16.412"
         id="path150"
         inkscape:connector-curvature="0" />
      <path
         d="m 829.15,140.28 46.551,-15.517 c 0,0 3.8795,-8.0569 -1.7898,-9.2505"
         id="path152"
         inkscape:connector-curvature="0" />
      <path
         d="m 912.71,101.49 c 0,0.29839 5.9692,3.5808 2.3882,8.9521 -6.5648,3.8793 -37.599,11.339 -37.599,11.339"
         id="path154"
         inkscape:connector-curvature="0" />
      <path
         d="M 959.85,96.712 915.99,108.95"
         id="path156"
         inkscape:connector-curvature="0" />
      <path
         d="m 956.57,106.56 -38.195,11.638"
         id="path158"
         inkscape:connector-curvature="0" />
      <path
         d="m 953.29,116.11 -33.72,10.14"
         id="path160"
         inkscape:connector-curvature="0" />
      <path
         d="m 947.02,125.66 c -0.89558,0 -25.065,7.4602 -25.065,7.4602"
         id="path162"
         inkscape:connector-curvature="0" />
      <path
         d="m 941.65,133.12 -15.518,6.2665"
         id="path164"
         inkscape:connector-curvature="0" />
      <path
         d="m 937.77,141.47 c -0.59705,0 -13.428,5.6697 -13.428,5.6697"
         id="path166"
         inkscape:connector-curvature="0" />
      <path
         d="m 933.89,148.34 -11.936,5.6695"
         id="path168"
         inkscape:connector-curvature="0" />
      <path
         d="m 913.3,161.17 c 0,0 1.4926,0.59678 1.1941,2.3873"
         id="path170"
         inkscape:connector-curvature="0" />
      <path
         d="m 883.16,177.58 c 0,0 5.0736,1.7903 0.29853,6.5649 -2.3868,3.2824 -9.2502,2.3874 -13.428,8.3553"
         id="path172"
         inkscape:connector-curvature="0" />
      <path
         d="m 915.69,110.74 c 0,0 6.2677,1.4919 1.4926,9.5489 -12.534,4.7745 -37.898,12.533 -37.898,12.533 0,0 -1.1927,2.0889 -4.4752,3.8793 -3.2824,1.7904 -39.389,11.936 -39.389,11.936"
         id="path174"
         inkscape:connector-curvature="0" />
      <path
         d="m 917.78,119.99 c 0,0 6.8634,2.984 0,8.0569 -7.759,4.476 -34.914,12.831 -34.914,12.831 0,0 -0.29854,2.3871 -1.4913,3.2824 -1.1941,0.89517 -37.002,12.831 -37.002,12.831"
         id="path176"
         inkscape:connector-curvature="0" />
      <path
         d="m 919.57,128.04 c 0,0 7.1619,2.0889 0.89558,8.0568 -7.4604,4.4761 -31.333,12.533 -31.333,12.533 0,0 -2.3868,2.9839 -6.2663,4.1776 -3.8795,1.1936 -28.646,11.339 -28.646,11.339"
         id="path178"
         inkscape:connector-curvature="0" />
      <path
         d="m 921.36,136.1 c 2.0897,0.89517 7.759,1.7905 0.89559,7.1618 -8.0561,3.5808 -27.751,11.339 -27.751,11.339 l -1.7912,3.2824 -31.332,13.428"
         id="path180"
         inkscape:connector-curvature="0" />
      <path
         d="m 923.15,144.16 c 0,0 2.9839,3.581 -3.581,7.7586 -7.1619,3.8792 -22.678,9.8473 -22.678,9.8473"
         id="path182"
         inkscape:connector-curvature="0" />
      <path
         d="m 919.57,152.51 c 0,0 3.2824,2.0889 -0.8942,5.0729 -4.7751,2.3873 -23.574,12.235 -23.574,12.235 l -12.236,8.0569"
         id="path184"
         inkscape:connector-curvature="0" />
      <path
         d="m 876.6,125.06 c 0,0.29839 5.0736,4.4761 3.2824,9.2505 4.4765,3.2824 3.581,6.8634 3.581,6.8634 0,0 6.2663,3.5808 5.3721,8.6537 6.2663,1.4921 5.9678,5.0729 5.9678,5.0729 l -2.0897,3.2824 c 0,0 6.2663,-0.29839 0.89558,7.7586 3.2824,1.7905 1.7912,3.8792 1.7912,3.8792"
         id="path186"
         inkscape:connector-curvature="0" />
      <path
         d="m 893.61,166.24 c -0.89558,0 -21.783,7.7586 -27.155,12.533"
         id="path188"
         inkscape:connector-curvature="0" />
      <path
         d="m 843.18,156.99 c 0,0 6.2663,-0.29839 5.3721,6.5648 7.1619,-2.3873 5.6693,4.476 5.6693,4.476 0,0 8.3546,-3.2824 6.8634,7.1618 5.3707,-1.1936 4.4752,4.1776 4.4752,4.1776 0,0 4.7751,-0.29839 4.7751,2.3873 3.2824,-2.984 6.8634,-1.492 6.8634,-1.492 0,0 2.3868,-3.2826 5.6693,-2.3872"
         id="path190"
         inkscape:connector-curvature="0" />
      <path
         d="m 848.85,163.26 c 0,0.59706 -28.051,16.114 -28.051,16.114"
         id="path192"
         inkscape:connector-curvature="0" />
      <path
         d="m 854.22,168.33 -21.187,13.13"
         id="path194"
         inkscape:connector-curvature="0" />
      <path
         d="m 861.38,174.89 c 0,0.29839 -18.502,11.041 -18.502,11.041"
         id="path196"
         inkscape:connector-curvature="0" />
      <path
         d="m 865.56,179.07 c 0,0 -13.13,10.743 -16.114,10.146"
         id="path198"
         inkscape:connector-curvature="0" />
      <path
         d="m 870.04,182.35 c 0,0 -7.4604,5.6698 -13.727,8.3553"
         id="path200"
         inkscape:connector-curvature="0" />
      <path
         d="m 877.79,179.97 c 0,0 2.3868,2.984 -12.533,10.742"
         id="path202"
         inkscape:connector-curvature="0" />
    </g>
  </g>
</svg>
