<?xml version="1.0" encoding="UTF-8" standalone="no"?>
<svg
   xmlns:dc="http://purl.org/dc/elements/1.1/"
   xmlns:cc="http://creativecommons.org/ns#"
   xmlns:rdf="http://www.w3.org/1999/02/22-rdf-syntax-ns#"
   xmlns:svg="http://www.w3.org/2000/svg"
   xmlns="http://www.w3.org/2000/svg"
   xmlns:xlink="http://www.w3.org/1999/xlink"
   xmlns:sodipodi="http://sodipodi.sourceforge.net/DTD/sodipodi-0.dtd"
   xmlns:inkscape="http://www.inkscape.org/namespaces/inkscape"
   width="1000"
   height="700"
   viewBox="0 0 630 360"
   version="1.1"
   id="svg42"
   sodipodi:docname="ir.svg"
   inkscape:version="0.92.3 (2405546, 2018-03-11)">
  <metadata
     id="metadata48">
    <rdf:RDF>
      <cc:Work
         rdf:about="">
        <dc:format>image/svg+xml</dc:format>
        <dc:type
           rdf:resource="http://purl.org/dc/dcmitype/StillImage" />
      </cc:Work>
    </rdf:RDF>
  </metadata>
  <defs
     id="defs46" />
  <sodipodi:namedview
     pagecolor="#ffffff"
     bordercolor="#666666"
     borderopacity="1"
     objecttolerance="10"
     gridtolerance="10"
     guidetolerance="10"
     inkscape:pageopacity="0"
     inkscape:pageshadow="2"
     inkscape:window-width="2560"
     inkscape:window-height="1376"
     id="namedview44"
     showgrid="false"
     inkscape:zoom="0.953584"
     inkscape:cx="525.58025"
     inkscape:cy="389.58152"
     inkscape:window-x="0"
     inkscape:window-y="0"
     inkscape:window-maximized="1"
     inkscape:current-layer="svg42" />
  <rect
     width="630"
     height="441.92249"
     id="rect2"
     x="0"
     y="-40.961258"
     style="fill:#da0000;stroke-width:1.10795426" />
  <rect
     width="630"
     height="294.61499"
     id="rect4"
     x="0"
     y="-40.961258"
     style="fill:#ffffff;stroke-width:1.10795426" />
  <rect
     width="630"
     height="147.3075"
     id="rect6"
     x="0"
     y="-40.961258"
     style="fill:#239f40;stroke-width:1.10795426" />
  <g
     transform="matrix(1,0,0,1.1576965,8.4,87.847356)"
     id="g27">
    <g
       id="tb4">
      <g
         id="tb1"
         style="fill:none;stroke:#ffffff;stroke-width:2">
        <path
           id="tbp1"
           d="M 0,1 H 26 M 1,10 V 5 h 8 v 4 h 8 V 5 H 12 M 4,9 H 6 M 26,9 H 21 V 5 h 8 m 0,-5 v 9 h 8 V 0 m -4,0 v 9"
           transform="scale(1.4)"
           inkscape:connector-curvature="0" />
        <path
           id="tbp2"
           d="m 0,7 h 9 m 1,0 h 9"
           transform="scale(2.8)"
           inkscape:connector-curvature="0" />
        <use
           xlink:href="#tbp2"
           y="120"
           id="use10"
           x="0"
           width="100%"
           height="100%" />
        <use
           xlink:href="#tbp1"
           y="145.2"
           id="use12"
           x="0"
           width="100%"
           height="100%" />
      </g>
      <g
         id="tb3">
        <use
           xlink:href="#tb1"
           x="56"
           id="use15"
           y="0"
           width="100%"
           height="100%" />
        <use
           xlink:href="#tb1"
           x="112"
           id="use17"
           y="0"
           width="100%"
           height="100%" />
        <use
           xlink:href="#tb1"
           x="168"
           id="use19"
           y="0"
           width="100%"
           height="100%" />
      </g>
    </g>
    <use
       xlink:href="#tb3"
       x="168"
       id="use23"
       y="0"
       width="100%"
       height="100%" />
    <use
       xlink:href="#tb4"
       x="392"
       id="use25"
       y="0"
       width="100%"
       height="100%" />
  </g>
  <g
     fill="#da0000"
     transform="matrix(45,0,0,45,315,180)"
     id="g40">
    <g
       id="emblem_half">
      <path
         d="M-0.54815,0.83638A0.912046,0.912046 0 0,0 0.328544,-0.722384A1,1 0 0,1 -0.54815,0.83638"
         id="path29" />
      <path
         d="M0.618339,0.661409A0.763932,0.763932 0 0,0 0.421644,-0.741049A1,1 0 0,1 0.618339,0.661409"
         id="path31" />
      <path
         d="M0,1 -0.05,0 0,-0.787278A0.309995,0.309995 0 0,0 0.118034,-0.688191V-0.100406L0.077809,0.892905z"
         id="path33" />
      <path
         d="M-0.02,-0.85 0,-0.831217A0.14431,0.14431 0 0,0 0.252075,-0.967708A0.136408,0.136408 0 0,1 0,-0.924634"
         id="path35" />
    </g>
    <use
       xlink:href="#emblem_half"
       transform="scale(-1,1)"
       id="use38" />
  </g>
</svg>
