<?xml version="1.0" encoding="UTF-8" standalone="no"?>
<svg
   xmlns:dc="http://purl.org/dc/elements/1.1/"
   xmlns:cc="http://creativecommons.org/ns#"
   xmlns:rdf="http://www.w3.org/1999/02/22-rdf-syntax-ns#"
   xmlns:svg="http://www.w3.org/2000/svg"
   xmlns="http://www.w3.org/2000/svg"
   xmlns:xlink="http://www.w3.org/1999/xlink"
   xmlns:sodipodi="http://sodipodi.sourceforge.net/DTD/sodipodi-0.dtd"
   xmlns:inkscape="http://www.inkscape.org/namespaces/inkscape"
   width="1000"
   height="700"
   viewBox="0 0 625 400"
   version="1.1"
   id="svg322"
   sodipodi:docname="kh.svg"
   inkscape:version="0.92.3 (2405546, 2018-03-11)">
  <metadata
     id="metadata328">
    <rdf:RDF>
      <cc:Work
         rdf:about="">
        <dc:format>image/svg+xml</dc:format>
        <dc:type
           rdf:resource="http://purl.org/dc/dcmitype/StillImage" />
      </cc:Work>
    </rdf:RDF>
  </metadata>
  <defs
     id="defs326" />
  <sodipodi:namedview
     pagecolor="#ffffff"
     bordercolor="#666666"
     borderopacity="1"
     objecttolerance="10"
     gridtolerance="10"
     guidetolerance="10"
     inkscape:pageopacity="0"
     inkscape:pageshadow="2"
     inkscape:window-width="2560"
     inkscape:window-height="1376"
     id="namedview324"
     showgrid="false"
     showguides="true"
     inkscape:guide-bbox="true"
     inkscape:zoom="0.953584"
     inkscape:cx="545.12715"
     inkscape:cy="373.39053"
     inkscape:window-x="0"
     inkscape:window-y="0"
     inkscape:window-maximized="1"
     inkscape:current-layer="svg322">
    <sodipodi:guide
       position="371.71265,198.55506"
       orientation="0,1"
       id="guide402"
       inkscape:locked="false" />
    <sodipodi:guide
       position="312.33736,209.29728"
       orientation="1,0"
       id="guide404"
       inkscape:locked="false" />
  </sodipodi:namedview>
  <rect
     width="625"
     height="437.35904"
     id="rect117"
     x="0"
     y="-19.00724"
     style="fill:#032ea1;stroke-width:1.04565656" />
  <rect
     width="625"
     height="218.67952"
     y="90.33252"
     id="rect119"
     x="0"
     style="fill:#e00025;stroke-width:1.04565656" />
  <g
     transform="matrix(1.1843338,0,0,1.1843338,81.1848,-551.80434)"
     id="g320"
     style="fill:#ffffff;stroke:#000000;stroke-width:0.95999998">
    <g
       id="g151"
       style="stroke-linejoin:bevel">
      <path
         d="m 139.02,623.46 h 113.8 v 43.788 h -113.8 z"
         id="path121"
         inkscape:connector-curvature="0" />
      <rect
         width="3.5864"
         height="16.495001"
         x="246.95"
         y="647.64001"
         id="rect123" />
      <rect
         width="113.8"
         height="5.0903001"
         x="139.02"
         y="639.48999"
         id="rect125" />
      <rect
         width="113.8"
         height="4.4889998"
         x="139.02"
         y="632.59003"
         id="rect127" />
      <rect
         width="113.8"
         height="4.3540001"
         x="139.02"
         y="625.70001"
         id="rect129"
         style="stroke-width:0.94545001" />
      <rect
         width="3.5864"
         height="16.495001"
         x="168.98"
         y="647.64001"
         id="rect131" />
      <rect
         width="3.5864"
         height="16.495001"
         x="217.97"
         y="647.64001"
         id="rect133" />
      <rect
         width="3.5864"
         height="16.495001"
         x="139.92"
         y="647.64001"
         id="rect135" />
      <rect
         width="3.5864"
         height="16.495001"
         x="146.95"
         y="647.64001"
         id="rect137" />
      <rect
         width="3.5864"
         height="16.495001"
         x="154.45"
         y="647.64001"
         id="rect139" />
      <rect
         width="3.5864"
         height="16.495001"
         x="161.95"
         y="647.64001"
         id="rect141" />
      <rect
         width="3.5864"
         height="16.495001"
         x="224.77"
         y="647.64001"
         id="rect143" />
      <rect
         width="3.5864"
         height="16.495001"
         x="232.27"
         y="647.64001"
         id="rect145" />
      <rect
         width="3.5864"
         height="16.495001"
         x="239.77"
         y="647.64001"
         id="rect147" />
      <path
         d="m 94.509,669.55 c 1.7604,-0.89672 3.7684,-2.9836 4.425,-5.319 h 193.07 c 0.65665,2.3354 2.6647,4.4222 4.425,5.319 z"
         id="path149"
         inkscape:connector-curvature="0"
         style="stroke-linejoin:miter" />
    </g>
    <g
       id="g229">
      <g
         id="g187">
        <path
           d="m 193,556.8 c 0,0 -0.14437,-4.1125 2.2507,-4.1572 2.3951,0.0447 2.2507,4.1572 2.2507,4.1572 z"
           id="path153"
           inkscape:connector-curvature="0" />
        <path
           d="m 180.51,611.34 v -5.5357 c -0.0789,-2.768 -2.7591,-2.9681 -2.838,-4.9862 0,0 -0.34606,-3.0266 0.45159,-4.4082 1.0845,4.0474 3.0561,3.3039 3.0561,1.6397 0,-1.4526 -1.117,-2.8031 -3.408,-6.3302 -0.73206,-1.127 -0.27901,-4.6597 0.74692,-5.9224 0.39808,3.0709 0.85311,4.5398 2.1717,4.5398 0.80428,0 1.4612,-0.52417 1.4612,-2.0621 0,-1.9565 -1.325,-2.9445 -1.9762,-4.725 -0.76004,-2.0777 -0.23675,-4.1957 1.0259,-5.3795 0.54129,3.0293 0.38028,4.2372 1.7255,4.2372 2.7133,-0.8584 6.3e-4,-4.7866 -0.57911,-5.7773 -0.667,-1.1553 0.89682,-3.4598 0.89682,-3.4598 0.86209,2.6898 1.1394,2.909 2.0699,2.6597 1.1738,-0.31452 1.0224,-2.056 -0.40996,-3.4633 -0.90449,-0.88866 -0.80857,-2.2116 0.16248,-3.274 0.97489,1.9056 2.2229,1.7898 2.343,0.65821 l -0.78373,-4.3931 h 17.255 l -0.85683,4.2488 c -0.24526,1.2162 1.396,1.4801 2.4162,-0.51392 0.97105,1.0624 1.067,2.3854 0.16248,3.274 -1.4323,1.4073 -1.5837,3.1488 -0.40996,3.4633 0.93041,0.2493 1.2078,0.0302 2.0699,-2.6597 0,0 1.403,1.5708 0.89682,3.4598 -0.57974,0.99071 -3.2924,4.9189 -0.57911,5.7773 1.3453,0 1.1842,-1.2079 1.7255,-4.2372 1.2627,1.1838 1.786,3.3017 1.0259,5.3795 -0.65127,1.7804 -1.9762,2.7685 -1.9762,4.725 0,1.538 0.65688,2.0621 1.4612,2.0621 1.3186,0 1.7736,-1.4689 2.1717,-4.5398 1.0259,1.2627 1.479,4.7953 0.74692,5.9224 -2.291,3.527 -3.408,4.8776 -3.408,6.3302 0,1.6641 1.9716,2.4076 3.0561,-1.6397 0.79765,1.3816 0.4516,4.4082 0.4516,4.4082 -0.0789,2.018 -2.7591,2.2182 -2.838,4.9862 v 5.5357 z"
           id="path155"
           inkscape:connector-curvature="0" />
        <path
           d="m 187.73,565.32 -0.39721,-3.125 h 15.838 l -0.39721,3.125 z"
           id="path157"
           inkscape:connector-curvature="0" />
        <path
           d="m 188.79,562.13 -0.34117,-2.5686 h 13.604 l -0.34117,2.5686 z"
           id="path159"
           inkscape:connector-curvature="0" />
        <path
           d="m 190.95,559.47 -0.22717,-2.5686 h 9.0585 l -0.22718,2.5686 z"
           id="path161"
           inkscape:connector-curvature="0" />
        <path
           d="m 223.97,669.55 c -2.0266,-0.78125 -4.9773,-2.9188 -4.9773,-5.0695 v -24.297 l 2.6385,-3.3588 -52.776,8e-5 2.5293,3.3588 v 24.297 c 0,2.1508 -2.0264,4.2883 -4.0529,5.0695 z"
           id="path163"
           inkscape:connector-curvature="0" />
        <rect
           width="3.5864"
           height="16.495001"
           x="178.24001"
           y="647.64001"
           id="rect165"
           style="stroke-linejoin:bevel" />
        <rect
           width="3.5864"
           height="16.495001"
           x="208.56"
           y="647.64001"
           id="rect167"
           style="stroke-linejoin:bevel" />
        <path
           d="m 167.91,609.17 v 14.648 7.0117 5.9961 h 54.023 v -5.957 l 0.0783,-21.699 c -2.2097,0.8681 -2.5976,2.8711 -2.5976,2.8711 v 11.777 h -48.75 v -11.777 c 0,0 -0.5442,-2.003 -2.7539,-2.8711 z"
           id="path169"
           inkscape:connector-curvature="0" />
        <path
           d="m 214.6,669.55 c -1.7655,-0.78125 -5.6118,-2.9188 -5.6118,-5.0695 v -27.192 c 0.37751,-1.518 2.436,-2.414 3.761,-3.3588 h -35.823 c 1.7049,0.90271 3.6054,1.6522 4.2846,3.3588 v 27.192 c 0,2.1508 -3.041,4.2883 -4.8065,5.0695 z"
           id="path171"
           inkscape:connector-curvature="0" />
        <path
           d="m 219.41,634.22 -2.7e-4,-19.587 -4.9104,-8e-5 v -1.9085 h -38.839 v 1.9085 l -4.9109,-1.8e-4 1.7e-4,19.587 z"
           id="path173"
           inkscape:connector-curvature="0" />
        <path
           d="m 206.86,669.55 c -1.7299,-0.78125 -4.2489,-2.9186 -4.2489,-5.0694 v -23.215 l 1.4205,-2.1088 h -17.691 l 1.4205,2.109 v 23.215 c 0,2.1508 -2.5189,4.2883 -4.2488,5.0695 z"
           id="path175"
           inkscape:connector-curvature="0" />
        <path
           d="m 190.71,639.16 8.9655,-5e-5 v 30.377 H 190.71 Z"
           id="path177"
           inkscape:connector-curvature="0"
           style="stroke-width:0.98100001" />
        <path
           d="m 204.38,632.48 c 0.0215,-2.0012 5.8375,-2.091 8.8318,-3.7949 h -35.952 c 2.9943,1.7039 8.6755,1.8441 8.6755,3.7949 l 1.2166,3.8818 14.883,0.59776 z"
           id="path179"
           inkscape:connector-curvature="0"
           style="stroke-linejoin:bevel" />
        <path
           d="m 211.41,611.34 c 0,-4.8986 0.20532,-6.7857 1.7103,-6.7857 l 1e-5,15.58 c -3.6912,1.3393 -6.3254,6.0491 -6.3254,6.0491 l -23.211,-2.7e-4 c 0,0 -2.6342,-4.7096 -6.3254,-6.0488 v -15.58 c 1.856,0 1.8682,1.9717 1.8682,6.7857 z"
           id="path181"
           inkscape:connector-curvature="0" />
        <path
           d="m 213.12,609.33 c 0,-5.6184 4.8512,-6.2503 4.8512,-6.2503 v 5 c -1.8465,-0.0789 -2.7368,1.578 -2.7368,4.0444 0,2.4663 1.4868,2.5056 1.4868,2.5056 v 14.19 H 213.12 Z"
           id="path183"
           inkscape:connector-curvature="0" />
        <path
           d="m 177.28,609.33 c 0,-5.6184 -4.8512,-6.2503 -4.8512,-6.2503 v 5 c 1.8465,-0.0789 2.7368,1.578 2.7368,4.0444 0,2.4663 -1.4868,2.5056 -1.4868,2.5056 v 14.19 h 3.6012 z"
           id="path185"
           inkscape:connector-curvature="0" />
      </g>
      <g
         id="g203"
         style="fill:none;stroke-width:0.80000001">
        <path
           d="m 186.84,570.62 h 17.128"
           id="path189"
           inkscape:connector-curvature="0" />
        <path
           d="m 184.81,575.97 h 20.921"
           id="path191"
           inkscape:connector-curvature="0" />
        <path
           d="m 182.78,582.46 h 24.904"
           id="path193"
           inkscape:connector-curvature="0" />
        <path
           d="m 180.66,590.39 h 29.536"
           id="path195"
           inkscape:connector-curvature="0" />
        <path
           d="m 179.98,599.43 h 30.426"
           id="path197"
           inkscape:connector-curvature="0" />
        <path
           d="m 170.75,628.92 h 48.661"
           id="path199"
           inkscape:connector-curvature="0"
           style="stroke-width:0.95999998" />
        <rect
           width="18.035999"
           height="6.6290998"
           x="186.19"
           y="628.92999"
           id="rect201"
           style="stroke-width:0.95999998" />
      </g>
      <g
         id="g227">
        <path
           d="m 183.93,614.24 c 2.9903,3.59 2.7128,9.6801 2.6786,13.27 h 17.343 c -0.0342,-3.59 -0.31172,-9.68 2.6786,-13.27 z"
           id="path205"
           inkscape:connector-curvature="0" />
        <path
           d="m 193.68,573.11 -2.3764,-1.2239 v -3.4974 c 0.97149,0.29214 2.062,0.41142 2.1686,1.9595 0.33824,-2.2099 0.94822,-2.1018 1.9064,-2.963 0.95814,0.86127 1.5681,0.75315 1.9064,2.963 0.10661,-1.5481 1.1971,-1.6674 2.1686,-1.9595 v 3.4974 l -2.3764,1.2239 z"
           id="path207"
           inkscape:connector-curvature="0" />
        <path
           d="m 193.52,578.85 -3.9464,-2.7128 v -3.2231 c 1.3836,0.32035 2.9366,0.45115 3.0885,2.1488 0.48172,-2.4232 1.3504,-3.6754 2.715,-4.6198 1.3646,0.94444 2.2332,2.1966 2.715,4.6198 0.15183,-1.6976 1.7049,-1.8284 3.0885,-2.1488 v 3.2231 l -3.9464,2.7128 z"
           id="path209"
           inkscape:connector-curvature="0" />
        <path
           d="m 193.24,587.8 -4.5378,-3.9854 v -4.7351 c 1.5909,0.47062 3.3767,0.66279 3.5513,3.1567 0.55391,-3.56 1.5528,-5.3995 3.1218,-6.787 1.569,1.3875 2.5679,3.227 3.1218,6.787 0.17458,-2.4939 1.9604,-2.6861 3.5513,-3.1567 v 4.7351 l -4.5378,3.9854 z"
           id="path211"
           inkscape:connector-curvature="0" />
        <path
           d="m 201.61,593.09 -4.1037,5.6759 H 192.86 l -4.1037,-5.6759 z"
           id="path213"
           inkscape:connector-curvature="0" />
        <path
           d="m 186.39,602.62 c 2.0526,1.1219 2.8106,3.3568 3.0299,7.5527 h 11.55 c 0.21927,-4.1959 0.97728,-6.4308 3.0298,-7.5527 z"
           id="path215"
           inkscape:connector-curvature="0" />
        <path
           d="m 204.17,593.09 v -5.7018 c -1.9498,0.53675 -3.2129,1.6912 -3.7755,3.2577 0,-1.8927 -2.4906,-6.2573 -5.2071,-8.4294 -2.7242,2.4314 -5.2575,6.3801 -5.2066,8.4294 -0.46332,-1.4918 -1.8258,-2.7209 -3.7755,-3.2577 v 5.702 z"
           id="path217"
           inkscape:connector-curvature="0"
           style="stroke-linejoin:bevel" />
        <path
           d="m 205.04,602.62 -2.1e-4,-5.7022 c -2.1373,0.53675 -3.522,1.6912 -4.1387,3.2577 0,-1.8927 -2.7299,-6.2573 -5.7077,-8.4294 -2.9863,2.4314 -5.7635,6.3801 -5.7077,8.4294 -0.50788,-1.4918 -2.0014,-2.7209 -4.1387,-3.2577 v 5.702 z"
           id="path219"
           inkscape:connector-curvature="0"
           style="stroke-linejoin:bevel" />
        <path
           d="m 207.44,614.32 v -6.5765 c -2.6591,0.68624 -4.3124,2.653 -5.1491,3.7996 0,-3.5614 -4.0212,-8.9902 -7.1011,-10.768 -3.1599,1.8244 -7.1011,7.435 -7.1011,10.768 -0.85883,-1.1395 -2.49,-3.1134 -5.1491,-3.7996 v 6.5765 z"
           id="path221"
           inkscape:connector-curvature="0"
           style="stroke-linejoin:bevel" />
        <path
           d="m 206,628.92 v -6.7617 c -2.3465,0.9193 -3.0479,3.1802 -3.7862,4.7163 0.28981,-6.8584 -3.8614,-14.23 -7.0239,-16.1 -3.1624,1.8699 -7.3926,9.3996 -7.0239,16.1 -0.75787,-1.5265 -1.4397,-3.797 -3.7862,-4.7163 v 6.7618 z"
           id="path223"
           inkscape:connector-curvature="0"
           style="stroke-linejoin:bevel" />
        <path
           d="m 204.36,639.16 v -6.7618 c -2.4581,0.58449 -2.61,1.491 -3.3916,3.0055 0.28981,-4.0963 -2.6114,-8.7695 -5.7739,-10.639 -3.1624,1.8699 -6.0637,6.5431 -5.7739,10.639 -0.78168,-1.5145 -0.87771,-2.421 -3.3916,-3.0055 v 6.7618 z"
           id="path225"
           inkscape:connector-curvature="0" />
      </g>
    </g>
    <g
       id="tower">
      <g
         id="g263">
        <path
           d="m 98.935,664.23 v -20.44 c -0.66964,-2.6026 -2.8793,-4.9052 -4.5407,-5.3664 v -17.993 l 3.7418,2.0232 4.2712,18.811 v 22.965 z"
           id="path231"
           inkscape:connector-curvature="0" />
        <path
           d="m 98.935,664.31 v -20.519 c -0.66964,-2.6026 -2.8793,-4.9052 -4.5407,-5.3664 v -19.243 c 2.5118,0 3.7418,3.2732 3.7418,3.2732 l 4.2712,18.811 v 22.886 z"
           id="path233"
           inkscape:connector-curvature="0" />
        <path
           d="m 96.275,669.55 c 1.7299,-0.78125 4.2487,-2.9188 4.2487,-5.0695 v -25.547 l -1.1852,-2.1088 h 43.522 l -1.6983,2.1088 v 25.547 c 0,2.1508 1.7297,4.2883 3.4596,5.0695 z"
           id="path235"
           inkscape:connector-curvature="0" />
        <path
           d="m 135.84,669.55 c -1.7299,-0.78125 -4.2487,-2.9188 -4.2487,-5.0695 v -24.297 l 3.619,-3.359 -29.588,8e-5 3.6191,3.3589 v 24.297 c 0,2.1508 -2.5189,4.2883 -4.2488,5.0695 z"
           id="path237"
           inkscape:connector-curvature="0" />
        <path
           d="m 131.69,669.55 c -1.7299,-0.78125 -4.2487,-2.9188 -4.2487,-5.0695 v -21.965 l 2.369,-3.359 h -18.798 l 2.3688,3.359 v 21.965 c 0,2.1508 -2.5189,4.2883 -4.2488,5.0695 z"
           id="path239"
           inkscape:connector-curvature="0" />
        <path
           d="m 115.92,639.16 8.9819,-4e-5 -2e-5,30.393 h -8.9818 z"
           id="path241"
           inkscape:connector-curvature="0" />
        <rect
           width="3.5864"
           height="16.495001"
           x="103.7"
           y="647.64001"
           id="rect243"
           style="stroke-linejoin:bevel" />
        <rect
           width="3.5864"
           height="16.495001"
           x="134.45"
           y="647.64001"
           id="rect245"
           style="stroke-linejoin:bevel" />
        <path
           d="m 100.64,619.82 h 4.3202 v 16.909 H 100.64 Z"
           id="path247"
           inkscape:connector-curvature="0"
           style="stroke-linejoin:bevel" />
        <path
           d="m 100.64,616.64 h 4.2946 v 3.1387 H 100.64 Z"
           id="path249"
           inkscape:connector-curvature="0"
           style="stroke-linejoin:bevel" />
        <path
           d="m 136.17,623.46 h 6.1594 v 13.054 H 136.17 Z"
           id="path251"
           inkscape:connector-curvature="0"
           style="stroke-width:1.03369999;stroke-linejoin:bevel" />
        <path
           d="m 104.89,636.6 v -28.941 c 1.2321,0 1.4222,4.2418 4.249,4.2418 1.4716,0 1.3152,-1.757 0.4889,-3.1882 -0.73168,-1.2673 -1.6372,-3.0176 -0.40702,-6.2783 0.84298,2.4949 3.1119,3.2866 2.6927,1.722 -0.72042,-2.6886 -2.7945,-3.1298 -1.2383,-7.3021 0.54049,3.4806 2.7732,3.3273 2.2309,1.3034 -0.61083,-2.2796 -1.8732,-3.2139 -0.3157,-6.4275 0.87209,3.6492 2.0519,3.4352 2.0519,1.1711 0,-3.347 -0.1285,-6.9568 4.2027,-8.296 0,0 0.25002,-3.0682 1.8123,-3.0682 1.56228,0 1.8123,3.0682 1.8123,3.0682 4.3312,1.3393 4.2027,4.949 4.2027,8.296 0,2.264 1.1798,2.4781 2.0519,-1.1711 1.5574,3.2136 0.29513,4.1479 -0.3157,6.4275 -0.54227,2.0238 1.6904,2.1772 2.2309,-1.3034 1.5562,4.1722 -0.5179,4.6134 -1.2383,7.3021 -0.41923,1.5646 1.8497,0.77297 2.6927,-1.722 1.2302,3.2606 0.32466,5.011 -0.40702,6.2783 -0.82627,1.4311 -0.98274,3.1882 0.4889,3.1882 2.8268,0 3.0168,-4.2418 4.249,-4.2418 V 636.6 Z"
           id="path253"
           inkscape:connector-curvature="0" />
        <path
           d="m 98.124,614.74 8.1e-5,22.079 h 2.511099 l -1.9e-4,-22.135 c -0.904979,-0.45686 -1.754599,-0.5274 -2.510999,0.0558 z"
           id="path255"
           inkscape:connector-curvature="0" />
        <path
           d="m 98.203,629.03 c 3.1124,1.5914 6.1949,3.4325 6.9754,7.7931 H 98.203 Z"
           id="path257"
           inkscape:connector-curvature="0" />
        <path
           d="m 141.37,622.42 6e-5,14.407 h 2.0354 v -14.443 c -0.63587,-0.2981 -1.5039,-0.34413 -2.0354,0.0364 z"
           id="path259"
           inkscape:connector-curvature="0" />
        <path
           d="m 143.41,628.92 c -3.1124,1.5914 -6.1949,3.4325 -6.9754,7.7931 h 6.9754 z"
           id="path261"
           inkscape:connector-curvature="0" />
      </g>
      <g
         id="g281">
        <path
           d="m 122.83,595.27 1.8142,-1.5247 v -1.9528 c -0.6637,0.0645 -1.0258,0.29275 -1.516,0.93531 -0.41694,-1.2944 -1.3337,-2.3051 -2.5624,-2.9327 -1.2287,0.6276 -2.1454,1.5924 -2.5624,2.8867 -0.49022,-0.64256 -0.8523,-0.8249 -1.516,-0.88935 v 1.9528 l 1.8142,1.5247 z"
           id="path265"
           inkscape:connector-curvature="0" />
        <path
           d="m 123.8,600.16 0.8432,-1.8253 v -2.5384 c -0.6637,0.0654 -1.0258,0.29688 -1.516,0.94855 -0.41694,-1.3127 -1.3337,-2.3377 -2.5624,-2.9742 -1.2287,0.63649 -2.1454,1.6149 -2.5624,2.9276 -0.49022,-0.65166 -0.8523,-0.83658 -1.516,-0.90194 v 2.5384 l 0.8432,1.8253 z"
           id="path267"
           inkscape:connector-curvature="0" />
        <path
           d="m 123.93,606.79 2.6948,-3.2865 v -3.2432 c -0.98588,0.11068 -1.5237,0.50272 -2.2519,1.6061 -0.61934,-2.2227 -1.9811,-2.7084 -3.8062,-3.7861 -1.8251,1.0777 -3.1869,1.4845 -3.8062,3.7072 -0.72818,-1.1034 -1.266,-1.4165 -2.2519,-1.5272 v 3.2432 l 2.6949,3.2865 z"
           id="path269"
           inkscape:connector-curvature="0" />
        <path
           d="m 124.72,613.3 c 0,0 3.1405,-2.7397 3.3269,-4.2436 v -3.4672 c -1.2171,0.14291 -2.3682,0.45834 -3.2672,1.8831 -0.76458,-2.8701 -1.9586,-3.6704 -4.2117,-5.0621 -2.2532,1.3916 -3.4471,2.192 -4.2117,5.0621 -0.89895,-1.4248 -2.0501,-1.7402 -3.2672,-1.8831 v 3.4672 c 0.3965,1.5039 3.3269,4.2436 3.3269,4.2436 z"
           id="path271"
           inkscape:connector-curvature="0" />
        <path
           d="m 126.06,625.32 c 0,0 4.3013,-4.7614 4.3999,-6.6164 v -5.4059 c -1.6097,0.22281 -3.1321,1.3298 -4.321,3.5513 -1.0112,-4.4748 -2.5903,-7.5949 -5.5702,-9.7647 -2.9799,2.1698 -4.559,5.2898 -5.5702,9.7647 -1.1889,-2.2215 -2.7113,-3.3285 -4.321,-3.5513 v 5.4059 c 0.30884,1.8551 4.3999,6.6164 4.3999,6.6164 z"
           id="path273"
           inkscape:connector-curvature="0" />
        <path
           d="m 126.06,632.43 c 0,0 3.6763,-3.7418 4.3999,-5.3664 v -5.4059 c -1.6097,0.22281 -3.1321,1.3299 -4.321,3.5513 -1.0112,-4.4748 -2.5903,-7.0369 -5.5702,-9.2067 -2.9799,2.1698 -4.559,4.7318 -5.5702,9.2067 -1.1889,-2.2215 -2.7113,-3.3285 -4.321,-3.5513 v 5.4059 c 0.93384,1.6247 4.3999,5.3664 4.3999,5.3664 z"
           id="path275"
           inkscape:connector-curvature="0" />
        <path
           d="m 127.54,636.56 c -1.0733,-4.6678 -1.9959,-8.1303 -7.163,-11.641 -5.167,3.5104 -6.0894,6.9728 -7.1627,11.641 z"
           id="path277"
           inkscape:connector-curvature="0" />
        <path
           d="m 130.2,639.16 v -6.7618 c -2.3465,0.91931 -4.467,2.2802 -5.2487,3.7947 -0.87376,-3.754 -2.5569,-5.4078 -4.6536,-7.6786 -2.0967,2.2708 -3.5008,3.9245 -4.3746,7.6786 -0.78168,-1.5145 -2.9024,-2.8754 -5.2489,-3.7946 l 2.2e-4,6.7618 z"
           id="path279"
           inkscape:connector-curvature="0" />
      </g>
    </g>
    <use
       xlink:href="#tower"
       transform="matrix(-1,0,0,1,390.73979,0)"
       id="use284"
       x="0"
       y="0"
       width="100%"
       height="100%" />
    <g
       id="g308">
      <path
         d="m 72.694,694.25 h 245.33 l 1.8e-4,12.531 -245.33,1e-5 z"
         id="path286"
         inkscape:connector-curvature="0" />
      <path
         d="m 66.228,706.76 h 258.26 l 1.8e-4,12.512 -258.26,2e-5 z"
         id="path288"
         inkscape:connector-curvature="0" />
      <path
         d="m 85.576,675.51 h 219.56 l 1.5e-4,8.1093 -219.56,1e-5 z"
         id="path290"
         inkscape:connector-curvature="0" />
      <path
         d="m 79.157,683.56 h 232.4 l 1.7e-4,10.622 -232.4,10e-6 z"
         id="path292"
         inkscape:connector-curvature="0" />
      <path
         d="m 89.412,669.28 h 211.89 l 1.5e-4,6.174 h -211.89 z"
         id="path294"
         inkscape:connector-curvature="0" />
      <path
         d="m 112.41,669.31 h 16.005 v 49.935 H 112.41 Z"
         id="path296"
         inkscape:connector-curvature="0"
         style="stroke-width:1.04460001" />
      <path
         d="m 115.95,669.31 h 8.9171 v 49.936 h -8.917 z"
         id="path298"
         inkscape:connector-curvature="0"
         style="stroke-width:1.04289997" />
      <path
         d="m 187.08,669.31 h 16.006 v 49.935 h -16.005 z"
         id="path300"
         inkscape:connector-curvature="0"
         style="stroke-width:1.04460001" />
      <path
         d="m 190.73,669.31 h 8.9171 v 49.936 h -8.917 z"
         id="path302"
         inkscape:connector-curvature="0"
         style="stroke-width:1.04289997" />
      <path
         d="m 262.19,669.31 h 16.005 v 49.935 H 262.19 Z"
         id="path304"
         inkscape:connector-curvature="0"
         style="stroke-width:1.04460001" />
      <path
         d="m 265.73,669.31 h 8.9171 v 49.936 h -8.917 z"
         id="path306"
         inkscape:connector-curvature="0"
         style="stroke-width:1.04289997" />
    </g>
    <g
       id="g318"
       style="fill:none">
      <path
         d="m 98.935,664.23 h 193.07"
         id="path310"
         inkscape:connector-curvature="0" />
      <path
         d="m 115.79,712.97 h 9.2438 m -9.2438,-6.25 h 9.2438 m -9.2438,-6.25 h 9.2438 m -9.2438,-6.25 h 9.2438 m -9.2438,-6.25 h 9.2438 m -9.2438,-6.25 h 9.2438 m -9.2438,-6.25 h 9.2438"
         id="path312"
         inkscape:connector-curvature="0" />
      <path
         d="m 190.77,712.98 h 8.6071 m -8.6071,-6.2533 h 8.6071 m -8.6071,-6.2533 h 8.6071 m -8.6071,-6.2533 h 8.6071 m -8.6071,-6.2533 h 8.6071 m -8.6071,-6.2533 h 8.6071 m -8.6071,-6.2533 h 8.6071"
         id="path314"
         inkscape:connector-curvature="0" />
      <path
         d="m 265.57,712.97 h 9.2438 m -9.2438,-6.25 h 9.2438 m -9.2438,-6.25 h 9.2438 m -9.2438,-6.25 h 9.2438 m -9.2438,-6.25 h 9.2438 m -9.2438,-6.25 h 9.2438 m -9.2438,-6.25 h 9.2438"
         id="path316"
         inkscape:connector-curvature="0" />
    </g>
  </g>
</svg>
