<?xml version="1.0" encoding="UTF-8" standalone="no"?>
<svg
   xmlns:dc="http://purl.org/dc/elements/1.1/"
   xmlns:cc="http://creativecommons.org/ns#"
   xmlns:rdf="http://www.w3.org/1999/02/22-rdf-syntax-ns#"
   xmlns:svg="http://www.w3.org/2000/svg"
   xmlns="http://www.w3.org/2000/svg"
   xmlns:sodipodi="http://sodipodi.sourceforge.net/DTD/sodipodi-0.dtd"
   xmlns:inkscape="http://www.inkscape.org/namespaces/inkscape"
   width="1000"
   height="700"
   viewBox="0 0 900 600"
   version="1.1"
   id="svg107"
   sodipodi:docname="ug.svg"
   inkscape:version="0.92.3 (2405546, 2018-03-11)">
  <metadata
     id="metadata113">
    <rdf:RDF>
      <cc:Work
         rdf:about="">
        <dc:format>image/svg+xml</dc:format>
        <dc:type
           rdf:resource="http://purl.org/dc/dcmitype/StillImage" />
      </cc:Work>
    </rdf:RDF>
  </metadata>
  <defs
     id="defs111" />
  <sodipodi:namedview
     pagecolor="#ffffff"
     bordercolor="#666666"
     borderopacity="1"
     objecttolerance="10"
     gridtolerance="10"
     guidetolerance="10"
     inkscape:pageopacity="0"
     inkscape:pageshadow="2"
     inkscape:window-width="2560"
     inkscape:window-height="1376"
     id="namedview109"
     showgrid="false"
     showguides="true"
     inkscape:guide-bbox="true"
     inkscape:zoom="1.3485714"
     inkscape:cx="1109.5046"
     inkscape:cy="217.3794"
     inkscape:window-x="0"
     inkscape:window-y="0"
     inkscape:window-maximized="1"
     inkscape:current-layer="svg107">
    <sodipodi:guide
       position="450.19631,622.23899"
       orientation="1,0"
       id="guide164"
       inkscape:locked="false" />
    <sodipodi:guide
       position="988.16675,299.3219"
       orientation="0,1"
       id="guide166"
       inkscape:locked="false" />
  </sodipodi:namedview>
  <rect
     width="900"
     height="631.36652"
     id="rect65"
     x="0"
     y="-15.349576"
     style="stroke-width:1.02580583" />
  <rect
     y="89.878181"
     width="900"
     height="105.22777"
     id="rect67"
     x="0"
     style="fill:#fcdc04;stroke-width:1.02580583" />
  <rect
     y="195.10594"
     width="900"
     height="105.22777"
     id="rect69"
     x="0"
     style="fill:#d90000;stroke-width:1.02580583" />
  <rect
     y="405.56146"
     width="900"
     height="105.22777"
     id="rect71"
     x="0"
     style="fill:#fcdc04;stroke-width:1.02580583" />
  <rect
     y="510.78918"
     width="900"
     height="105.22777"
     id="rect73"
     x="0"
     style="fill:#d90000;stroke-width:1.02580583" />
  <circle
     cx="450.81033"
     cy="300.81033"
     r="103.31029"
     id="circle75"
     style="fill:#ffffff;stroke-width:1.10492301" />
  <g
     id="g105"
     transform="matrix(1.104923,0,0,1.104923,-46.405039,-30.66659)"
     style="stroke:#000000">
    <path
       d="m 433.52031,228.39062 -6.06438,-11.17029 c 2.34014,-2.34013 6.27719,-4.14905 12.55357,-4.14905 0,0.42563 -0.63844,12.23435 -0.63844,12.23435 z"
       id="path77"
       inkscape:connector-curvature="0"
       style="fill:#d90000" />
    <path
       d="m 439.37106,225.41204 0.85125,-12.34076 c 0,0 12.55357,-0.74404 19.36199,7.44685 0.1064,-0.1064 -6.70201,9.57418 -6.70201,9.57418 z"
       id="path79"
       inkscape:connector-curvature="0"
       style="fill:#fcdc04" />
    <path
       d="m 453.0951,229.98591 6.16998,-9.57418 c 4.14905,4.36187 5.85075,7.44685 6.48919,12.12794 0.10641,0.10641 -9.78699,2.44655 -9.78699,2.34014 0,-0.10641 -2.76577,-4.7875 -2.87218,-4.8939 z"
       id="path81"
       inkscape:connector-curvature="0"
       style="fill:#d90000" />
    <path
       d="m 436.60529,388.07318 c 0,0 11.59591,-13.29842 34.14929,-10.42544 -3.40421,-5.53234 -14.36168,-4.8939 -14.36168,-4.8939 0,0 -3.4042,-25.85118 -0.74484,-27.12806 2.65935,-1.27688 13.93604,0.10641 13.93604,0.10641 1.48889,0 4.04265,-4.04265 2.02173,-6.5956 -2.02173,-2.55377 -7.97889,-12.34076 -5.53234,-14.25608 2.44736,-1.91451 15.74496,1.06406 15.74496,1.06406 l -37.55349,-48.08533 c 0,0 -3.82983,-18.0851 3.82983,-26.80884 9.25578,-7.65967 8.29811,-15.95778 7.97889,-15.85137 -1.27688,-8.40452 -14.04245,-14.46889 -22.65978,-6.70201 -5.10672,6.16998 -1.70251,10.85106 -1.70251,10.85106 0,0 -13.40401,3.61702 -13.93605,5.95716 -0.53203,2.34095 15.10652,-0.42481 15.10652,-0.42481 l -1.48969,10.74465 c 0,0 -30.42586,27.65928 -7.12764,51.59595 0.21282,-0.10641 0.74485,-1.06407 0.74485,-1.06407 0,0 8.1917,10.10703 16.80822,12.34076 8.0853,8.29811 7.34126,7.02123 7.34126,7.02123 0,0 1.59529,13.0856 0.10641,15.63855 -2.02173,-0.63844 -22.65979,-1.38247 -25.74558,-0.21281 -2.76577,0.85126 -13.40402,0.31922 -10.74466,17.66029 2.02092,-4.68109 3.82984,-8.83015 3.82984,-8.83015 0,0 -0.31922,6.27638 2.23454,8.51093 -0.42563,-6.59641 2.44654,-11.06388 2.44654,-11.06388 0,0 0.53204,7.23404 2.12733,8.2973 1.5961,1.06407 1.5961,-11.70232 10.42625,-10.63825 8.82933,1.06407 15.21293,0.74485 15.21293,0.74485 0,0 2.97858,24.99992 2.02091,27.34087 -6.3836,-1.48969 -21.59571,0.63844 -22.55337,4.46828 8.93573,-0.53204 13.0856,0.53122 13.0856,0.53122 0,0 -7.23404,6.3836 -5.00031,10.10703 z"
       id="path83"
       inkscape:connector-curvature="0" />
    <path
       d="m 440.19145,251.66041 c 0,0 -22.13913,24.4021 -12.58769,43.07528 0.50848,-2.60412 0.28673,-4.24003 0.60595,-4.13362 -0.53203,-0.31922 2.74546,2.24673 2.49609,1.74718 0.0699,-1.34998 -0.99827,-4.24327 -0.99827,-4.24327 0.99827,0.24936 1.99736,0.49954 2.99564,0.7489 -0.5824,-1.08193 -1.16561,-2.16306 -1.748,-3.245 1.41497,0.16652 2.82912,0.33222 4.24409,0.49873 0,0 -1.49782,-3.99391 -0.99828,-3.99391 0.49874,0 3.49437,0.24937 3.49437,0.24937 -6.29587,-11.29862 -0.35658,-20.68192 2.4961,-30.70366 z"
       id="path85"
       inkscape:connector-curvature="0"
       style="fill:#9ca69c;stroke:#9ca69c" />
    <path
       d="m 447.88198,230.73075 c 0,0 1.17048,8.40452 -3.40421,10.85107 -0.74484,0.53203 -3.61702,1.48969 -3.19139,3.1922 0.53203,2.34014 1.8081,1.91451 3.61702,1.48888 4.78668,-0.85125 10.31903,-11.06387 2.97858,-15.53215 z"
       id="path87"
       inkscape:connector-curvature="0"
       style="fill:#9ca69c;stroke:#9ca69c" />
    <circle
       cx="438"
       cy="238"
       r="1.8"
       id="circle89"
       style="fill:#ffffff;stroke:none" />
    <path
       d="m 432.56264,244.98602 c -1.17047,0.95766 -7.34044,7.34126 -1.27688,9.6814 6.27719,-1.70251 4.57468,-2.87217 5.95797,-4.25546 0.0357,-2.87217 -3.12072,-3.61702 -4.68109,-5.42594 z"
       id="path91"
       inkscape:connector-curvature="0"
       style="fill:#d90000" />
    <path
       d="m 445.96666,305.30652 c -0.31922,1.38329 -1.7017,6.48919 0.21281,10.42543 5.31953,-2.23373 7.76608,-1.5961 9.57499,-0.42562 -4.36105,-3.51062 -6.06356,-5.00031 -9.7878,-9.99981 z"
       id="path93"
       inkscape:connector-curvature="0"
       style="fill:#9ca69c;stroke:#9ca69c" />
    <path
       d="m 455.11602,329.45519 0.31922,11.91513 c 0,0 4.14906,0.74485 6.06357,0 1.91532,-0.74485 -0.10641,-8.29811 -6.38279,-11.91513 z"
       id="path95"
       inkscape:connector-curvature="0"
       style="fill:#ffffff;stroke:#ffffff" />
    <path
       d="m 485.22266,330.94488 c 0,0 -7.65967,-18.51073 -27.23447,-23.19181 -19.57479,-4.68109 -17.02184,-25.53196 -15.42574,-26.80884 0.85126,-1.80892 1.4897,-4.57469 7.12763,-1.91452 5.63875,2.65936 31.59634,15.74416 35.31977,16.3826 3.72342,0.63844 0.53203,35.9582 0.21281,35.53257 z"
       id="path97"
       inkscape:connector-curvature="0"
       style="fill:#9ca69c" />
    <path
       d="m 466.60552,307.64666 c -0.31922,0.21281 26.1704,15.63774 18.19151,28.93616 7.55408,-5.00031 5.10672,-13.72323 5.10672,-13.72323 0,0 6.16997,16.06418 -8.83014,23.93667 1.5961,1.38328 2.66017,1.06325 2.66017,1.06325 l -2.55377,2.55377 c 0,0 -1.17047,1.91451 8.93655,-2.9794 -2.76657,2.23455 -2.97858,3.82984 -2.97858,3.82984 0,0 0.74404,2.12813 7.34045,-3.61702 -5.31953,5.74515 -6.49,8.72373 -6.49,8.61733 14.36167,-1.27688 45.63879,-47.97893 -9.8934,-61.80938 2.97939,3.08579 2.55295,2.66017 2.55295,2.66017 z"
       id="path99"
       inkscape:connector-curvature="0"
       style="fill:#d90000" />
    <path
       d="m 467.776,303.07198 c 3.61702,2.55295 4.89309,3.4042 5.31872,4.68109 -3.2978,-0.74404 -6.27638,-0.53204 -6.27638,-0.53204 0,0 -7.12764,-6.80841 -8.40452,-7.34045 -0.95766,0 -6.48919,-3.51061 -6.48919,-3.51061 -2.76577,-1.38329 -5.31872,-10.95747 4.8939,-8.1917 10.53103,4.99949 12.02073,5.42593 12.02073,5.42593 4.18479,1.31181 8.36877,2.62444 12.55357,3.93624 2.41161,2.6951 4.82242,5.3902 7.23404,8.0853 0,0 -12.87198,-6.3836 -14.46808,-6.49 3.51061,2.87217 5.53234,6.80841 5.53234,6.80841 -4.07839,-1.17048 -7.62393,-2.23373 -11.91513,-2.87217 z"
       id="path101"
       inkscape:connector-curvature="0"
       style="fill:#ffffff" />
    <path
       d="m 417.66893,245.94368 c 0,0 12.34076,-2.97858 13.82965,-2.55295"
       id="path103"
       inkscape:connector-curvature="0"
       style="stroke:#ffffff" />
  </g>
</svg>
