<?xml version="1.0" encoding="UTF-8" standalone="no"?>
<svg
   xmlns:dc="http://purl.org/dc/elements/1.1/"
   xmlns:cc="http://creativecommons.org/ns#"
   xmlns:rdf="http://www.w3.org/1999/02/22-rdf-syntax-ns#"
   xmlns:svg="http://www.w3.org/2000/svg"
   xmlns="http://www.w3.org/2000/svg"
   xmlns:xlink="http://www.w3.org/1999/xlink"
   xmlns:sodipodi="http://sodipodi.sourceforge.net/DTD/sodipodi-0.dtd"
   xmlns:inkscape="http://www.inkscape.org/namespaces/inkscape"
   width="1000"
   height="700"
   viewBox="0 0 1400 700"
   version="1.1"
   id="svg1490"
   sodipodi:docname="tj.svg"
   inkscape:version="0.92.3 (2405546, 2018-03-11)">
  <metadata
     id="metadata1496">
    <rdf:RDF>
      <cc:Work
         rdf:about="">
        <dc:format>image/svg+xml</dc:format>
        <dc:type
           rdf:resource="http://purl.org/dc/dcmitype/StillImage" />
      </cc:Work>
    </rdf:RDF>
  </metadata>
  <defs
     id="defs1494" />
  <sodipodi:namedview
     pagecolor="#ffffff"
     bordercolor="#666666"
     borderopacity="1"
     objecttolerance="10"
     gridtolerance="10"
     guidetolerance="10"
     inkscape:pageopacity="0"
     inkscape:pageshadow="2"
     inkscape:window-width="2560"
     inkscape:window-height="1376"
     id="namedview1492"
     showgrid="false"
     showguides="true"
     inkscape:guide-bbox="true"
     inkscape:zoom="1.3485714"
     inkscape:cx="417.09954"
     inkscape:cy="342.95829"
     inkscape:window-x="0"
     inkscape:window-y="0"
     inkscape:window-maximized="1"
     inkscape:current-layer="svg1490">
    <sodipodi:guide
       position="699.70339,459.00424"
       orientation="1,0"
       id="guide1917"
       inkscape:locked="false" />
    <sodipodi:guide
       position="699.70339,349.25847"
       orientation="0,1"
       id="guide1919"
       inkscape:locked="false" />
  </sodipodi:namedview>
  <rect
     width="1400"
     height="980.29663"
     id="rect1454"
     x="0"
     y="-140.1483"
     style="fill:#006600;stroke-width:1.18339503" />
  <rect
     width="1400"
     height="700.21191"
     id="rect1456"
     x="0"
     y="-140.1483"
     style="fill:#ffffff;stroke-width:1.18339503" />
  <rect
     width="1400"
     height="280.08475"
     id="rect1458"
     x="0"
     y="-140.1483"
     style="fill:#cc0000;stroke-width:1.18339503" />
  <g
     id="g1488"
     transform="matrix(1.2076178,0,0,1.2076178,-145.55327,-72.98333)"
     style="fill:#f8c300">
    <path
       d="m 672,340.7 a 12.5,12.5 0 0 1 23.3,5.9 v 50 h 9.4 v -50 a 12.5,12.5 0 0 1 23.3,-5.9 29.5,29.5 0 1 0 -56,0"
       id="path1460"
       inkscape:connector-curvature="0" />
    <path
       d="m 678.7,327.65 a 20,20 0 0 1 21.3,9.55 20,20 0 0 1 21.3,-9.55 21.5,21.5 0 0 0 -42.6,0"
       id="path1462"
       inkscape:connector-curvature="0"
       style="fill:#ffffff" />
    <path
       id="w"
       d="m 695.3,376.627 a 38,38 0 0 1 -63.845,24.316 39.5,39.5 0 0 1 -59.734,17.467 c 3.6496,36.426 58.252,28.989 62.32,-6.4288 17.154,30.115 54.873,21.49 65.91,-15.4 z"
       inkscape:connector-curvature="0" />
    <use
       xlink:href="#w"
       transform="matrix(-1,0,0,1,1400,0)"
       id="use1465"
       x="0"
       y="0"
       width="100%"
       height="100%" />
    <path
       id="r"
       d="m 658.84,441.31 c -7.6181,16.446 -22.845,19.271 -36.164,5.9953 0,0 5.3539,-3.7831 11.086,-4.826 -1.0748,-4.5744 1.1291,-10.902 4.2354,-14.324 3.2575,2.2264 7.8036,6.6886 8.9598,11.874 8.0291,-1.0394 11.883,1.2815 11.883,1.2815 z"
       inkscape:connector-curvature="0" />
    <use
       xlink:href="#r"
       transform="rotate(9.37,700,804)"
       id="use1468"
       x="0"
       y="0"
       width="100%"
       height="100%" />
    <use
       xlink:href="#r"
       transform="rotate(18.74,700,804)"
       id="use1470"
       x="0"
       y="0"
       width="100%"
       height="100%" />
    <path
       d="m 603,478 a 340,340 0 0 1 194,0"
       id="path1472"
       inkscape:connector-curvature="0"
       style="fill:none;stroke:#f8c300;stroke-width:16" />
    <g
       transform="translate(700,380)"
       id="g1486">
      <g
         transform="translate(0,-140)"
         id="g1475">
        <polygon
           id="s"
           points="0,-513674 301930,415571 -488533,-158734 488533,-158734 -301930,415571 "
           transform="matrix(4.8669e-5,0,0,4.8669e-5,0,0)" />
      </g>
      <g
         id="h">
        <use
           xlink:href="#s"
           transform="translate(-70,-121.24356)"
           id="use1477"
           x="0"
           y="0"
           width="100%"
           height="100%" />
        <use
           xlink:href="#s"
           transform="translate(-121.24356,-70)"
           id="use1479"
           x="0"
           y="0"
           width="100%"
           height="100%" />
        <use
           xlink:href="#s"
           transform="translate(-140)"
           id="use1481"
           x="0"
           y="0"
           width="100%"
           height="100%" />
      </g>
      <use
         xlink:href="#h"
         transform="scale(-1,1)"
         id="use1484"
         x="0"
         y="0"
         width="100%"
         height="100%" />
    </g>
  </g>
</svg>
