<?xml version="1.0" encoding="UTF-8" standalone="no"?>
<svg
   xmlns:dc="http://purl.org/dc/elements/1.1/"
   xmlns:cc="http://creativecommons.org/ns#"
   xmlns:rdf="http://www.w3.org/1999/02/22-rdf-syntax-ns#"
   xmlns:svg="http://www.w3.org/2000/svg"
   xmlns="http://www.w3.org/2000/svg"
   xmlns:xlink="http://www.w3.org/1999/xlink"
   xmlns:sodipodi="http://sodipodi.sourceforge.net/DTD/sodipodi-0.dtd"
   xmlns:inkscape="http://www.inkscape.org/namespaces/inkscape"
   width="1000"
   height="700"
   viewBox="0 0 2800 1400"
   version="1.1"
   id="svg886"
   sodipodi:docname="my.svg"
   inkscape:version="0.92.3 (2405546, 2018-03-11)">
  <metadata
     id="metadata892">
    <rdf:RDF>
      <cc:Work
         rdf:about="">
        <dc:format>image/svg+xml</dc:format>
        <dc:type
           rdf:resource="http://purl.org/dc/dcmitype/StillImage" />
      </cc:Work>
    </rdf:RDF>
  </metadata>
  <defs
     id="defs890" />
  <sodipodi:namedview
     pagecolor="#ffffff"
     bordercolor="#666666"
     borderopacity="1"
     objecttolerance="10"
     gridtolerance="10"
     guidetolerance="10"
     inkscape:pageopacity="0"
     inkscape:pageshadow="2"
     inkscape:window-width="2560"
     inkscape:window-height="1376"
     id="namedview888"
     showgrid="false"
     inkscape:zoom="1.3485714"
     inkscape:cx="694.60341"
     inkscape:cy="375.97248"
     inkscape:window-x="0"
     inkscape:window-y="0"
     inkscape:window-maximized="1"
     inkscape:current-layer="svg886" />
  <rect
     width="2800"
     height="1957.4229"
     id="red"
     style="fill:#cc0001;stroke-width:1.1824379"
     x="0"
     y="-281.4115" />
  <rect
     width="2800"
     height="139.81593"
     y="1536.1954"
     id="white"
     style="fill:#ffffff;stroke-width:1.1824379"
     x="0" />
  <use
     transform="translate(0,-279.63182)"
     id="use3035"
     xlink:href="#white"
     x="0"
     y="0"
     width="100%"
     height="100%" />
  <use
     transform="translate(0,-559.26365)"
     id="use3038"
     xlink:href="#white"
     x="0"
     y="0"
     width="100%"
     height="100%" />
  <use
     transform="translate(0,-838.89548)"
     id="use3062"
     xlink:href="#white"
     x="0"
     y="0"
     width="100%"
     height="100%" />
  <use
     transform="translate(0,-1118.5273)"
     id="use3064"
     xlink:href="#white"
     x="0"
     y="0"
     width="100%"
     height="100%" />
  <use
     transform="translate(0,-1398.1592)"
     id="use3066"
     xlink:href="#white"
     x="0"
     y="0"
     width="100%"
     height="100%" />
  <use
     transform="translate(0,-1677.791)"
     id="use3068"
     xlink:href="#white"
     x="0"
     y="0"
     width="100%"
     height="100%" />
  <rect
     width="1475.3973"
     height="843.08423"
     id="blue"
     style="fill:#010066;stroke-width:1.0538553"
     x="0"
     y="-285.60016" />
  <path
     d="m 607.02063,-180.21447 c -175.0943,0 -317.21043,141.64398 -317.21043,316.15658 0,174.5126 142.11613,316.15657 317.21043,316.15658 63.26004,0 122.19943,-18.51027 171.7014,-50.35663 -28.8262,9.94785 -59.76353,15.38881 -91.97093,15.38881 -155.26122,10e-6 -281.27034,-125.59046 -281.27034,-280.33588 0,-154.745421 126.0091,-280.33588 281.27034,-280.33588 34.31146,0 67.17891,6.1279 97.5889,17.35412 -50.62807,-34.0993 -111.65899,-54.0277 -177.31937,-54.0277 z"
     id="path4945"
     style="fill:#ffcc00;stroke-width:1.0538553"
     inkscape:connector-curvature="0" />
  <path
     d="M 1133.0707,300.52685 999.45226,230.81144 1038.9591,373.49114 949.58834,254.13849 921.70666,399.40593 894.28462,254.05529 804.53677,373.13848 844.49472,230.57834 710.65634,299.89139 810.08011,188.3575 658.65954,194.17212 797.85704,135.75517 658.84499,76.919696 810.24644,83.189861 711.17595,-28.642625 844.79444,41.072788 805.28763,-101.60692 894.65837,17.745744 922.54006,-127.5217 949.96209,17.828925 1039.71,-101.25425 999.752,41.30589 l 133.8384,-69.31304 -99.4238,111.533865 151.4206,-5.814604 -139.1975,58.416949 139.012,58.83547 -151.4014,-6.27015 z"
     id="path4959"
     style="fill:#ffcc00;stroke-width:1.32569075"
     inkscape:connector-curvature="0" />
</svg>
