<?xml version="1.0" encoding="UTF-8" standalone="no"?>
<svg
   xmlns:dc="http://purl.org/dc/elements/1.1/"
   xmlns:cc="http://creativecommons.org/ns#"
   xmlns:rdf="http://www.w3.org/1999/02/22-rdf-syntax-ns#"
   xmlns:svg="http://www.w3.org/2000/svg"
   xmlns="http://www.w3.org/2000/svg"
   xmlns:sodipodi="http://sodipodi.sourceforge.net/DTD/sodipodi-0.dtd"
   xmlns:inkscape="http://www.inkscape.org/namespaces/inkscape"
   width="1000"
   height="700"
   viewBox="0 0 900 600"
   version="1.1"
   id="svg916"
   sodipodi:docname="mz.svg"
   inkscape:version="0.92.3 (2405546, 2018-03-11)">
  <metadata
     id="metadata922">
    <rdf:RDF>
      <cc:Work
         rdf:about="">
        <dc:format>image/svg+xml</dc:format>
        <dc:type
           rdf:resource="http://purl.org/dc/dcmitype/StillImage" />
      </cc:Work>
    </rdf:RDF>
  </metadata>
  <defs
     id="defs920" />
  <sodipodi:namedview
     pagecolor="#ffffff"
     bordercolor="#666666"
     borderopacity="1"
     objecttolerance="10"
     gridtolerance="10"
     guidetolerance="10"
     inkscape:pageopacity="0"
     inkscape:pageshadow="2"
     inkscape:window-width="2560"
     inkscape:window-height="1376"
     id="namedview918"
     showgrid="false"
     inkscape:zoom="0.953584"
     inkscape:cx="679.34919"
     inkscape:cy="300.96891"
     inkscape:window-x="0"
     inkscape:window-y="0"
     inkscape:window-maximized="1"
     inkscape:current-layer="svg916"
     showguides="true"
     inkscape:guide-bbox="true">
    <sodipodi:guide
       position="482.28578,186.06496"
       orientation="0,1"
       id="guide997"
       inkscape:locked="false" />
    <sodipodi:guide
       position="558.73421,413.47769"
       orientation="0,1"
       id="guide999"
       inkscape:locked="false" />
    <sodipodi:guide
       position="182.56101,304.37863"
       orientation="0,1"
       id="guide1001"
       inkscape:locked="false" />
  </sodipodi:namedview>
  <rect
     width="900"
     height="631.14569"
     id="rect894"
     x="0"
     y="-15.100924"
     style="fill:#000000;stroke-width:1.02562642" />
  <rect
     width="900"
     height="206.25"
     id="rect896"
     fill="#fff" />
  <rect
     width="900"
     height="197.23302"
     id="rect898"
     x="0"
     y="-15.100924"
     style="fill:#007168;stroke-width:1.02562642" />
  <rect
     y="398.82544"
     width="900"
     height="217.2193"
     id="rect900"
     x="0"
     style="fill:#ffffff;stroke-width:1.02562642" />
  <rect
     y="418.81174"
     width="900"
     height="197.23302"
     id="rect902"
     x="0"
     style="fill:#fce100;stroke-width:1.02562642" />
  <path
     d="M 0,-15.100924 V 616.04473 L 393.75,300.47191 Z"
     id="path904"
     inkscape:connector-curvature="0"
     style="fill:#d21034;stroke-width:1.02562642" />
  <path
     d="m 216.57526,419.63179 -77.81899,-56.97515 -77.713604,56.9914 30.13921,-91.61655 -78.216869,-56.29872 96.446043,0.35303 29.37292,-91.78593 29.46773,91.83473 96.37032,-0.42811 -78.23398,56.40397 z"
     id="path906"
     inkscape:connector-curvature="0"
     style="fill:#fce100;stroke-width:1.29998696" />
  <path
     d="M 77.1122,167.913 L 118.946,167.913 C 122.312,171.689 129.822,173.229 136.975,167.868 C 150.087,160.688 175.454,167.913 175.454,167.913 L 180.449,162.606 L 168.273,122.645 L 163.902,117.962 C 163.902,117.962 154.537,112.343 136.741,114.216 C 118.946,116.089 112.702,113.592 112.702,113.592 C 112.702,113.592 97.0927,115.465 92.7219,117.65 C 92.2414,118.039 87.7268,122.645 87.7268,122.645 z"
     transform="matrix(1.259719,0,0,1.259719,-29.41569,140.9042)"
     fill="#fff"
     fill-rule="evenodd"
     stroke="#000"
     stroke-width="1.25"
     stroke-linecap="round"
     stroke-linejoin="round"
     id="path908" />
  <path
     d="M 85.5415,157.611 C 85.5415,157.611 125.502,152.616 137.054,167.913 C 130.53,172.377 124.786,172.745 118.634,168.226 C 119.614,166.593 132.995,152.616 167.024,157.299"
     transform="matrix(1.259719,0,0,1.259719,-29.41569,140.9042)"
     fill="none"
     stroke="#000"
     stroke-width="1.25"
     stroke-linecap="round"
     stroke-linejoin="round"
     id="path910" />
  <path
     d="M 128.312,117.65 L 128,161.67 M 163.902,118.274 L 171.395,153.24 M 93.1339,117.725 L 88.9756,135.757"
     transform="matrix(1.259719,0,0,1.259719,-29.41569,140.9042)"
     stroke="#000"
     stroke-width="1.25"
     stroke-linecap="round"
     stroke-linejoin="round"
     id="path912" />
  <path
     d="m 34.80611,362.1675 13.183679,15.45748 c 1.54816,0.92329 2.923319,0.86433 4.298478,0 l 19.538598,-23.44551 8.206199,-10.16026 c 1.270634,-1.50487 1.676268,-3.18396 1.563033,-4.68883 l 15.688501,-13.94055 c 1.283365,0.0885 2.047735,0.23317 3.331092,0.32028 -1.51626,-0.39263 -2.628772,-1.13101 -1.434917,-2.79266 l 3.516687,-2.73505 2.73505,3.51629 c 0,0 -3.90706,5.08013 -4.29781,5.08013 -0.39076,0 -4.298483,0 -4.298483,0 l -8.206197,7.42522 3.587313,3.17056 5.400401,14.80487 6.643566,-4.69018 -4.299019,-15.23905 9.379149,-10.16025 -3.51764,-5.47143 2.3451,-3.12634 c 0,0 32.45869,20.43577 44.96403,14.96568 0.33769,0.12195 0.75579,-14.57438 0.75579,-14.57438 0,0 -33.60577,-3.51628 -34.38837,-10.16025 -0.78124,-6.64264 7.42523,-7.42388 7.42523,-7.42388 l -3.51764,-5.08013 0.78259,-2.73638 5.86139,7.42521 13.28659,-11.3328 78.15305,89.0959 c 4.26672,-1.73001 5.17795,-2.7739 5.47142,-7.03392 -0.10988,-0.1072 -76.59056,-87.92336 -76.59056,-87.92336 l 5.86139,-6.25133 c 1.15512,-1.30253 1.56115,-1.85597 1.56249,-3.90892 l 8.98772,-7.81491 c 2.70288,0.92852 4.42619,2.54851 5.86138,4.68857 l 24.70918,-20.94083 c 0.65126,0.65126 2.62917,1.30253 3.97191,0.57006 l 40.85142,-39.2116 -44.52316,31.44748 -1.56249,-1.17227 c 0,-1.30267 1.61475,-1.62481 0,-3.90773 -1.73001,-2.07586 -4.29889,1.95394 -4.68884,1.95394 -0.3913,0 -6.44431,-2.13926 -7.77095,-4.84937 l -0.43552,7.19391 -11.3328,10.55089 -8.59642,-0.39076 -12.50535,12.11379 -1.5625,4.68869 1.9538,3.90893 c 0,0 -6.64397,5.86138 -6.64397,5.47008 0,-0.38995 -1.34273,-1.72732 -1.40035,-1.90019 l 5.69923,-5.13372 0.78125,-3.5167 -1.90153,-2.96928 c -0.57622,0.41876 -7.86744,8.04981 -8.25873,7.26722 -0.65127,-0.72899 -21.10043,-23.83654 -21.10043,-23.83654 l 1.1712,-4.29848 -13.28525,-14.4586 c -4.84361,-1.67224 -12.505076,-1.9538 -14.068109,8.59695 -1.217168,2.47816 -11.332401,0.39076 -11.332401,0.39076 l -5.470754,1.17242 -30.870998,43.7663 17.193913,20.71046 35.169476,-44.54754 1.044033,-12.62006 7.37938,8.25109 c 2.46034,0.31612 4.80409,0.34386 7.03393,-0.78152 l 20.83643,23.25751 -3.46938,3.38496 c 1.17254,1.30254 1.97925,2.13471 3.15179,3.43723 1.17255,-0.78124 2.29149,-1.71928 3.46403,-2.50187 0.3913,0.52262 1.04256,1.51292 1.43386,2.0342 -1.74609,0.95009 -2.9709,2.2151 -4.71698,3.16519 -2.794,-1.82112 -5.49153,-4.08849 -5.2865,-7.69724 l -11.72275,9.76896 -0.3913,1.9538 -34.77818,28.91693 -3.126202,0.39129 -0.781517,8.98773 22.664671,-18.75669 v -2.73638 l 2.344678,1.95379 17.58413,-14.0665 c 0,0 1.17255,1.5625 0.7826,1.5625 -0.3913,0 -15.63169,14.06784 -15.63169,14.06784 l -0.38995,1.5625 -2.73585,2.34509 -1.563169,-1.17254 -21.101628,18.75667 h -3.126068 l -11.723159,11.7241 c -3.023689,0.26265 -5.643754,0.58292 -8.206198,2.34375 z"
     id="path914"
     inkscape:connector-curvature="0"
     style="fill:#000000;fill-rule:evenodd;stroke:#000000;stroke-width:1.67506242;stroke-linecap:round;stroke-linejoin:round" />
</svg>
