<?xml version="1.0" encoding="UTF-8" standalone="no"?>
<svg
   xmlns:dc="http://purl.org/dc/elements/1.1/"
   xmlns:cc="http://creativecommons.org/ns#"
   xmlns:rdf="http://www.w3.org/1999/02/22-rdf-syntax-ns#"
   xmlns:svg="http://www.w3.org/2000/svg"
   xmlns="http://www.w3.org/2000/svg"
   xmlns:xlink="http://www.w3.org/1999/xlink"
   xmlns:sodipodi="http://sodipodi.sourceforge.net/DTD/sodipodi-0.dtd"
   xmlns:inkscape="http://www.inkscape.org/namespaces/inkscape"
   width="1000"
   height="700"
   viewBox="0 0 12 6"
   version="1.1"
   id="svg32"
   sodipodi:docname="si0.svg"
   inkscape:version="0.92.3 (2405546, 2018-03-11)">
  <metadata
     id="metadata38">
    <rdf:RDF>
      <cc:Work
         rdf:about="">
        <dc:format>image/svg+xml</dc:format>
        <dc:type
           rdf:resource="http://purl.org/dc/dcmitype/StillImage" />
      </cc:Work>
    </rdf:RDF>
  </metadata>
  <defs
     id="defs36" />
  <sodipodi:namedview
     pagecolor="#ffffff"
     bordercolor="#666666"
     borderopacity="1"
     objecttolerance="10"
     gridtolerance="10"
     guidetolerance="10"
     inkscape:pageopacity="0"
     inkscape:pageshadow="2"
     inkscape:window-width="2560"
     inkscape:window-height="1376"
     id="namedview34"
     showgrid="false"
     inkscape:zoom="0.953584"
     inkscape:cx="446.08953"
     inkscape:cy="207.08424"
     inkscape:window-x="0"
     inkscape:window-y="0"
     inkscape:window-maximized="1"
     inkscape:current-layer="svg32"
     showguides="true"
     inkscape:guide-bbox="true">
    <sodipodi:guide
       position="2.9950167,6.1392449"
       orientation="1,0"
       id="guide40"
       inkscape:locked="false" />
  </sodipodi:namedview>
  <title
     id="title2">Flag of Slovenia</title>
  <rect
     width="12"
     height="8.4035635"
     id="rect4"
     x="0"
     y="-1.208074"
     style="fill:#ed1c24;stroke-width:1.18346703" />
  <rect
     width="12"
     height="5.602376"
     id="rect6"
     x="0"
     y="-1.208074"
     style="fill:#005da4;stroke-width:1.18346703" />
  <rect
     width="12"
     height="2.801188"
     id="rect8"
     x="0"
     y="-1.208074"
     style="fill:#ffffff;stroke-width:1.18346703" />
  <g
     transform="matrix(0.13339927,0,0,0.13339927,2.1946211,0.72755063)"
     id="g30">
    <svg
       width="12"
       viewBox="-120 -190.22313 240 309.18827"
       height="15.459"
       version="1.1"
       id="svg28">
      <path
         d="m 110.26,-19.478 9.74,-143.75 a 280.22,280.22 0 0 0 -240,0 l 9.74,143.75 A 155.61,155.61 0 0 0 0,118.972 155.61,155.61 0 0 0 110.26,-19.478"
         id="path10"
         inkscape:connector-curvature="0"
         style="fill:#005da4" />
      <path
         d="M -90,0 A 138.29,138.29 0 0 0 0,100.77 138.29,138.29 0 0 0 90,0 L 45,-60 27,-36 0,-90 -27,-36 -45,-60 -90,0"
         id="path12"
         inkscape:connector-curvature="0"
         style="fill:#ffffff" />
      <g
         id="wave"
         transform="matrix(5,0,0,5,0,25.981)"
         style="fill:#005da4">
        <path
           d="M -17.196,-2.1962 A 6,6 0 0 0 -8.9998,0 a 6,6 0 0 1 6,0 6,6 0 0 0 6,0 6,6 0 0 1 6,0 6,6 0 0 0 8.1962,-2.1962 v 1.732 a 6,6 0 0 1 -8.1962,2.1962 6,6 0 0 0 -6,0 6,6 0 0 1 -6,0 6,6 0 0 0 -6,0 6,6 0 0 1 -8.1962,-2.1962 z"
           id="path14"
           inkscape:connector-curvature="0" />
      </g>
      <use
         xlink:href="#wave"
         transform="translate(0,17.321)"
         id="use17"
         x="0"
         y="0"
         width="100%"
         height="100%" />
      <g
         id="s"
         transform="matrix(2.25,0,0,2.25,0,-120)">
        <path
           d="M 0,-5 1,-1.7321 4.3301,-2.5 2,0 4.3301,2.5 1,1.7321 0,5 -1,1.7321 -4.3301,2.5 -2,0 -4.3301,-2.5 -1,-1.7321 Z"
           id="path19"
           inkscape:connector-curvature="0"
           style="fill:#ffdd00;stroke-width:0.2" />
      </g>
      <use
         xlink:href="#s"
         transform="translate(-33.75,-45)"
         id="use22"
         x="0"
         y="0"
         width="100%"
         height="100%" />
      <use
         xlink:href="#s"
         transform="translate(33.75,-45)"
         id="use24"
         x="0"
         y="0"
         width="100%"
         height="100%" />
      <path
         d="m -111.58,-167.05 9.96,146.99 A 146.95,146.95 0 0 0 0,109.89 146.95,146.95 0 0 0 101.62,-20.06 l 9.96,-146.99 a 280.22,280.22 0 0 0 8.42,3.82 l -9.74,143.75 A 155.61,155.61 0 0 1 0,118.97 155.61,155.61 0 0 1 -110.26,-19.48 L -120,-163.23 a 280.22,280.22 0 0 0 8.42,-3.82"
         id="path26"
         inkscape:connector-curvature="0"
         style="fill:#ed1c24" />
    </svg>
  </g>
</svg>
