<?xml version="1.0" encoding="UTF-8" standalone="no"?>
<svg
   xmlns:dc="http://purl.org/dc/elements/1.1/"
   xmlns:cc="http://creativecommons.org/ns#"
   xmlns:rdf="http://www.w3.org/1999/02/22-rdf-syntax-ns#"
   xmlns:svg="http://www.w3.org/2000/svg"
   xmlns="http://www.w3.org/2000/svg"
   xmlns:sodipodi="http://sodipodi.sourceforge.net/DTD/sodipodi-0.dtd"
   xmlns:inkscape="http://www.inkscape.org/namespaces/inkscape"
   width="1000"
   height="700"
   viewBox="0 0 1200 600"
   version="1.1"
   id="svg195"
   sodipodi:docname="bm.svg"
   inkscape:version="0.92.3 (2405546, 2018-03-11)">
  <metadata
     id="metadata201">
    <rdf:RDF>
      <cc:Work
         rdf:about="">
        <dc:format>image/svg+xml</dc:format>
        <dc:type
           rdf:resource="http://purl.org/dc/dcmitype/StillImage" />
      </cc:Work>
    </rdf:RDF>
  </metadata>
  <defs
     id="defs199" />
  <sodipodi:namedview
     pagecolor="#ffffff"
     bordercolor="#666666"
     borderopacity="1"
     objecttolerance="10"
     gridtolerance="10"
     guidetolerance="10"
     inkscape:pageopacity="0"
     inkscape:pageshadow="2"
     inkscape:window-width="2560"
     inkscape:window-height="1376"
     id="namedview197"
     showgrid="false"
     inkscape:zoom="0.67428571"
     inkscape:cx="830.02475"
     inkscape:cy="209.90455"
     inkscape:window-x="0"
     inkscape:window-y="0"
     inkscape:window-maximized="1"
     inkscape:current-layer="svg195" />
  <clipPath
     id="a">
    <path
       d="M0 0v150h700v150H600zm600 0H300v350H0v-50z"
       id="path2" />
  </clipPath>
  <path
     d="M 0,-120 H 1200 V 480 H 0 Z"
     id="path5"
     inkscape:connector-curvature="0"
     style="fill:#00247d" />
  <path
     d="M 0,-120 600,180 M 600,-120 0,180"
     id="path7"
     inkscape:connector-curvature="0"
     style="stroke:#ffffff;stroke-width:60" />
  <path
     d="M 0,0 600,300 M 600,0 0,300"
     clip-path="url(#a)"
     id="path9"
     inkscape:connector-curvature="0"
     transform="translate(0,-120)"
     style="stroke:#cf142b;stroke-width:40" />
  <path
     d="M 300,-120 V 230 M 0,30 h 700"
     id="path11"
     inkscape:connector-curvature="0"
     style="stroke:#ffffff;stroke-width:100" />
  <path
     d="M 300,-120 V 230 M 0,30 h 700"
     id="path13"
     inkscape:connector-curvature="0"
     style="stroke:#cf142b;stroke-width:60" />
  <path
     d="m 0,180 h 600 v -300 h 600 V 480 H 0 Z"
     id="path15"
     inkscape:connector-curvature="0"
     style="fill:#cf142b;fill-opacity:1" />
  <rect
     style="fill:#cf142b;fill-opacity:1;stroke-width:6.33375549"
     id="rect4776"
     width="1200"
     height="279.4068"
     x="0"
     y="440.84744" />
  <path
     d="M 746.23379,70.729572 V 395.73789 c 3.8467,46.53465 100.82681,75.8296 168.44271,125.25248 88.687,-59.48429 174.7036,-71.51646 178.162,-138.20724 l 1.079,-312.053558 H 746.24019 Z"
     id="path17"
     inkscape:connector-curvature="0"
     style="fill:#ffffff;stroke-width:1.28138149" />
  <g
     id="g35"
     transform="matrix(1.2813815,0,0,1.2813815,-236.99587,-115.26809)"
     style="fill:none">
    <path
       d="m 767.292,395.158 2.834,14.485 9.447,11.338 68.34,44.085 50.072,31.18 97.626,-53.222 33.697,-25.826 6.615,-33.696 -4.096,-7.872 0.946,8.188 -2.521,6.613 -2.832,-1.891 -1.89,-12.28 -0.316,9.13 -4.723,5.357 -0.945,-6.617 1.26,-4.722 -1.89,-5.353 -0.63,10.706 -2.518,4.726 -2.206,-3.151 0.946,-4.726 -0.315,-4.406 -1.575,-2.207 -0.317,4.725 -0.943,1.574 0.315,2.833 -1.89,1.891 -1.26,-3.778 0.631,-3.466 -0.63,-3.147 -1.26,-3.467 0.316,5.67 -3.15,6.928 -2.52,1.574 -1.574,-1.89 0.316,-6.613 -2.205,-3.777 0.629,8.187 -3.148,7.245 -1.889,-2.207 -0.948,-2.203 v -3.467 l 3.467,-8.817 -3.467,3.15 -2.832,7.557 -1.26,2.203 -1.574,-3.778 2.205,-8.503 -1.26,-1.572 -2.834,10.391 -2.521,1.574 -1.889,-0.63 -1.259,0.63 -152.425,8.504 -4.094,-5.985 -0.943,5.985 -2.522,2.203 -2.517,-11.023 -1.89,11.654 -2.521,-5.669 1.26,-12.914 -1.26,-0.943 -1.888,6.927 v 9.763 l -0.946,6.614 -1.89,-1.26 -2.518,-5.984 -0.315,-9.764 0.943,-6.928 -2.518,8.188 v 10.079 l -0.315,5.036 -3.151,-6.927 -1.574,-5.67 -3.15,-6.612 1.89,8.503 V 392 l -5.354,-4.726 -2.833,-13.225 -0.63,9.763 1.26,4.722 -1.574,1.891 -3.149,-5.67 -1.889,-7.556 -2.204,-7.244 v 11.65 l 1.574,6.3 -1.26,1.576 -2.519,-1.26 -0.945,-6.931 -0.631,-10.075 -2.518,6.927 -0.631,7.241 -0.945,5.67 -1.574,3.781 -4.409,0.323 z"
       id="path19"
       inkscape:connector-curvature="0"
       style="fill:#2f8f22;stroke:#000000;stroke-width:0.456" />
    <path
       d="m 876.022,472.104 c -0.818,-14.885 12.643,-29.772 -23.593,-44.66"
       id="path21"
       inkscape:connector-curvature="0"
       style="stroke:#4dcf4a;stroke-width:0.91299999" />
    <path
       d="m 910.572,463.678 c 0,-19.662 -11.236,-28.087 -33.707,-25.28"
       id="path23"
       inkscape:connector-curvature="0"
       style="stroke:#38bb26;stroke-width:1.14100003" />
    <path
       d="m 922.368,472.104 c -11.875,-14.298 -27.737,-12.642 -46.346,0 m 75.838,-18.538 c -4.51,-8.406 -20.974,-2.87 -38.761,4.217"
       id="path25"
       inkscape:connector-curvature="0"
       style="stroke:#51c757;stroke-width:0.91299999" />
    <path
       d="m 1011.69,426.602 c -4.494,-12.92 -12.358,-20.225 -23.594,-21.91"
       id="path27"
       inkscape:connector-curvature="0"
       style="stroke:#7acb73;stroke-width:0.82200003" />
    <path
       d="m 1026.86,406.376 c -2.98,-6.674 -6.1,-13.075 -13.482,-10.955"
       id="path29"
       inkscape:connector-curvature="0"
       style="stroke:#4cb135;stroke-width:1.14100003" />
    <path
       d="m 845.686,459.466 c 3.925,-13.476 -0.332,-18.77 -7.583,-21.067"
       id="path31"
       inkscape:connector-curvature="0"
       style="stroke:#60c85a;stroke-width:1.278" />
    <path
       d="m 781.645,409.747 c 7.5,-3.256 13.49,-9.532 24.436,-5.896 m -33.706,-2.528 c 6.125,0.128 10.402,2.519 11.796,8.425"
       id="path33"
       inkscape:connector-curvature="0"
       style="stroke:#71ce5b;stroke-width:1.18700004" />
  </g>
  <g
     id="g77"
     transform="matrix(1.2813815,0,0,1.2813815,-236.99587,-115.26809)"
     style="stroke:#000000;stroke-width:0.456">
    <path
       d="m 905.36,150.642 c -3.542,3.26 -7.176,6.25 -12.28,4.957 -3.494,1.432 -0.106,9.672 -5.793,7.974 -5.519,-4.368 -4.058,5.21 -7.595,7.214 -3.232,1.033 -9.232,2.622 -4.482,6.46 2.904,2.836 5.695,7.763 0.941,10.235 -2.755,5.184 -3.342,-4.775 -7.426,1.074 -1.324,5.916 8.79,4.627 4.088,9.212 -0.788,2.743 -3.598,-6.762 -6.447,0.795 -2.214,3.127 -2.3,7.744 1.952,9.141 3.622,2.08 11.215,-1.083 6.692,5.021 10e-4,3.602 -5.948,9.583 -3.69,2.8 4.065,-4.719 -1.835,-6.024 -4.507,-2.805 -5.486,3.741 -3.207,12.066 2.152,14.468 1.587,3.324 3.199,4.202 -0.818,8.203 0.55,4.008 -0.283,7.452 -5.568,7.201 -2.95,2.797 -4.934,7.463 -10.547,6.759 -5.388,2.171 -6.743,-1.373 -7.759,-5.65 -1.744,-4.248 -8.866,-6.678 -11.465,-1.983 -3.119,-1.262 -7.171,-7.188 -10.37,-1.356 -2.843,3.895 -7.341,-2.278 -10.345,2.79 -3.494,3.837 2.174,7.421 2.993,10.348 4.673,3.767 2.16,5.993 1.161,10.864 -1.695,4.413 6.185,7.145 3.746,10.683 -3.502,2.735 -9.136,5.89 -7.783,11.13 -4.964,1.75 -4.293,7.444 -2.756,11.386 2.5,5.628 13.084,4.99 12.577,-1.9 2.802,-0.4 6.096,5.682 8.138,8.635 -1.98,2.08 -8.403,-0.427 -11.948,1.373 -4.648,-0.479 -8.635,4.573 -13.273,5.254 -3.363,1.993 -7.842,4.584 -6.724,9.42 0.834,4.066 2.372,8.11 1.774,12.29 -2.23,3.695 -4.14,7.612 -3.958,12.07 -1.966,6.513 2.427,14.368 -3.145,19.699 -1.574,4.818 2.702,4.796 4.608,1.724 2.583,1.132 4.215,-3.28 3.972,-5.184 2.26,4.124 3.04,-1.13 5.086,2.742 4.139,-1.374 -0.941,-13.305 1.652,-8.313 1.976,2.898 3.022,9.057 5.87,9.488 3.167,-1.254 1.556,-12.902 3.844,-3.841 2.471,8.078 3.753,16.602 7.83,24.029 2.397,6.986 8.719,13.51 16.717,12.147 2.267,2.148 -3.514,6.589 -4.624,9.624 -3.574,2.705 -7.987,-0.786 -11.767,-0.938 -3.79,1.473 -8.143,2.277 -10.838,5.536 -1.727,3.792 -3.046,7.099 -3.434,10.855 -0.888,5.31 0.13,11.423 5.43,14.047 1.325,-4.065 0.321,-7.529 5.987,-7.18 3.963,2.273 -0.436,8.102 3.088,11.678 1.781,3.71 6.917,8.342 5.22,1.03 -2.016,-5.742 3.357,-5.794 6.617,-8.162 4.295,-4.53 4.972,-0.126 4.394,4.302 2.408,3.15 7.216,-2.93 8.382,-5.643 1.664,-3.145 0.099,-9.927 3.056,-8.559 3.808,-0.98 6.274,-4.468 9.262,-6.941 2.693,-5.24 7.736,-0.069 11.705,0.689 4.944,2.133 11.575,1.377 13.803,7.372 -3.808,-1.882 -8.258,1.64 -6.864,6.386 1.926,4.869 7.81,3.45 11.35,2.756 3.562,1.468 7.575,-3.006 11.407,0.298 3.75,-0.817 7.885,-0.305 11.406,-2.178 3.468,-2.849 2.047,-9.281 -3.03,-8.3 2.323,-3.432 7.59,-4.394 11.093,-6.785 4.027,-0.366 7.53,-4.832 11.058,-4.17 5.026,3.478 7.524,9.095 11.844,13.11 4.235,0.49 0.311,6.377 0.765,9.973 -1.134,4.345 1.297,10.36 4.926,4.42 2.186,-3.95 8.198,-2.82 8.523,-8.005 1.678,-4.38 2.811,6.4 7.104,5.824 0.289,3.346 -0.977,11.535 4.07,6.148 4.429,-4.065 5.167,-10.29 3.59,-15.805 0.71,-4.513 7.239,2.715 6.054,5.954 1.008,4.168 6.179,-3.6 6.91,-5.973 0.567,-6.085 0.746,-13.275 -3.864,-17.94 -3.499,-1.736 -4.948,-7.176 -9.954,-6.974 -3.445,1.895 -7.375,5.505 -8.844,-0.822 -4.543,-4.036 3.08,-4.32 5.626,-6.172 5.123,-3.238 7.928,-8.794 8.967,-14.566 1.864,-5.297 3.463,-10.685 4.685,-16.168 4.008,-1.44 7.765,-4.377 9.996,-6.806 4.553,-8.556 0.198,6.417 -1.419,9.938 3.48,1.54 8.027,-1.245 9.517,-4.931 2.241,-2.484 2.735,-12.253 3.902,-4.43 0.52,2.708 -4.304,10.748 -0.395,9.326 4.04,-1.293 7.281,-5.18 9.137,-8.92 1.619,-5.02 3.228,-11.126 1.187,-15.964 3.248,-2.224 -0.235,-11.523 -3.75,-6.467 -4.514,-0.85 -3.216,-7.42 -4.04,-10.66 3.697,-5.233 0.614,-15.367 -6.579,-15.12 -3.635,-2.084 -6.535,-3.016 -10.262,-4.421 -4.842,1.51 -8.301,-3.067 -13.119,-2.274 -7.278,0.361 0.612,-7.967 3.435,-5.097 3.301,4.252 10.294,6.275 13.691,1.072 -0.16,-3.923 -0.152,-9.324 -3.654,-12.394 -0.695,-4.386 -1.865,-8.533 -4.883,-11.951 -3.705,-5.446 3.11,-6.713 5.354,-10.104 0.996,-4.387 -1.666,-9.2 -4.292,-12.782 2.824,-2.826 5.67,-8.063 2.635,-11.652 1.13,-3.422 -6.573,-4.017 -9.066,-3.68 -4.991,-0.331 -9.182,4.22 -14.151,4.562 -4.251,3.468 -9.404,5.395 -14.873,4.014 -3.869,-0.961 -6.9,-5.21 -8.975,-7.735 -5.043,2.76 -0.915,-5.447 -5.01,-7.85 -2.833,-3.885 -8.7,-3.051 -6.572,2.649 -3.706,4.527 -0.474,-6.087 -2.79,-8.26 -3.017,-7.273 -1.782,-2.055 2.292,-0.066 4.528,3.1 11.121,1.226 12.254,-4.338 -2.223,-3.304 0.26,-9.824 -4.752,-9.356 -3.67,0.56 -3.854,9.498 -5.909,2.19 -0.557,-4.032 -2.83,-7.386 -4.864,-10.847 2.731,4.795 8.022,9.975 13.89,7.019 3.15,-2.06 4.268,-7.18 2.375,-10.247 0.177,-10.609 -5.948,5.636 -8.76,-2.757 -6.502,-1.926 12.459,-8.926 4.682,-11.246 -2.645,3.682 -8.39,1.949 -8.996,-1.917 3.28,-1.836 6.403,-8.92 4.234,-11.263 -4.732,-2.685 -6.564,-6.739 -5.507,-12.178 -2.773,-2.97 -9.863,2.25 -10.276,-4.43 -0.23,-6.205 -5.882,0.82 -8.98,-1.423 -2.338,-1.382 -4.713,-2.755 -6.924,-4.479 z"
       id="path37"
       inkscape:connector-curvature="0" />
    <g
       id="g59"
       style="fill:#d40000">
      <path
         d="m 904.106,194.538 c -0.31,6.88 -6.22,5.435 -7.908,3.553 -1.624,-6.29 7.801,-8.015 7.908,-3.553 z m 3.203,-0.395 c 0.616,5.434 6.847,6.188 8.027,3.912 2.059,-5.189 -5.677,-8.485 -8.027,-3.912 z"
         id="path39"
         inkscape:connector-curvature="0" />
      <path
         d="m 903.481,188.9 v 1.19 l -0.655,0.12 -0.238,-0.297 -0.177,-1.847 -0.358,-0.178 v -0.834 l 0.833,-0.058 v -0.776 h -1.012 l -0.359,0.776 -0.18,1.071 0.42,0.894 -0.42,0.715 -0.772,0.417 -1.073,1.014 -0.717,0.356 -1.668,0.179 -1.369,-0.656 -1.373,-1.31 c 0,0 -0.595,-0.954 -0.655,-1.192 -0.059,-0.238 -0.417,-1.072 -0.417,-1.072 l -0.36,-0.894 -0.654,-0.715 -1.013,-0.12 -0.298,1.251 -0.356,0.477 -0.835,0.119 -0.892,-0.774 -0.596,-1.013 -0.657,-1.312 -0.536,-0.894 -0.774,-1.13 -0.359,-0.655 -0.356,-1.55 -0.896,-1.132 -0.595,-0.953 -0.951,-0.774 -1.014,-0.775 h -1.192 l -0.775,-0.596 -1.13,-1.072 -0.835,-1.132 -0.534,-0.655 0.12,-0.597 0.416,-0.537 0.894,-0.535 0.892,-0.06 1.014,-0.238 1.013,-0.536 0.179,-0.716 0.179,-1.191 1.071,-1.907 0.477,-1.37 0.06,-1.072 1.549,-0.239 1.49,0.179 1.072,0.299 1.132,0.356 1.31,-0.655 1.073,-1.372 0.356,-2.382 0.477,-2.204 0.537,-1.25 h 2.742 l 0.95,0.655 0.776,-0.357 0.714,-0.357 1.729,0.177 h 0.893 c 0,0 0.715,-1.131 1.014,-1.31 0.296,-0.179 1.727,-2.086 1.727,-2.086 l 1.846,-0.476 0.953,0.12 1.312,1.49 1.071,0.656 0.954,0.06 2.265,1.489 c 0,0 0.715,0.595 0.954,0.475 0.237,-0.119 2.265,-1.013 2.265,-1.013 l 1.785,-0.119 1.908,-0.655 0.655,1.488 c 0,0 0.954,2.265 1.252,2.503 0.298,0.238 1.489,2.501 1.489,2.501 0,0 0.596,-0.297 0.895,-0.357 0.296,-0.06 1.667,0.298 1.667,0.298 l 3.932,0.18 0.537,-0.597 0.415,0.715 -0.534,2.74 0.237,2.086 0.716,2.801 0.892,1.31 1.193,0.06 1.55,1.311 0.06,1.31 -1.192,0.418 -1.073,-0.358 -1.373,0.774 -2.143,1.25 -1.79,1.789 -1.546,2.203 -1.014,2.204 -1.012,0.716 -0.895,-0.358 -0.894,0.059 -0.416,1.073 -0.894,1.071 -0.775,2.741 -1.668,1.847 -1.728,0.834 -1.25,0.954 h -0.834 l -1.43,-1.372 -0.655,-0.595 -0.178,-2.144 -1.373,-1.074 h -1.014 l 1.49,1.192 0.06,1.608 -0.832,0.714 -0.419,-0.118 -0.415,-0.834 h -0.479 l -0.06,1.608 -1.787,2.085 -1.786,-1.489 -0.06,-1.907 z"
         id="path41"
         inkscape:connector-curvature="0"
         style="stroke-linejoin:round" />
      <path
         d="m 874.307,173.86 2.662,0.085 1.375,2.063 1.202,1.288 1.201,0.945 1.032,0.17 1.976,2.921 v 0.345 l 1.544,1.374 0.43,1.802 0.172,0.601 -0.086,0.773 -0.86,0.516 -1.03,-0.173 -0.601,-0.43 -1.888,1.633 -1.203,1.632 -0.773,0.173 -2.063,2.232 -1.03,0.344 -1.632,1.202 -2.576,-0.086 -1.63,-1.975 -0.343,-0.774 -0.086,-1.546 1.46,-1.03 0.687,0.772 -0.342,0.773 0.084,0.946 0.86,0.343 0.858,-0.087 3.092,-2.662 0.773,-0.43 1.804,-1.802 1.117,-0.602 -0.085,-1.116 -1.289,-1.975 -0.428,-1.374 -0.344,-1.289 -0.342,-0.945 -1.203,-1.373 -0.688,-0.774 -0.258,-0.773 -1.201,-0.945 -0.343,-0.173 v -0.599 z"
         id="path43"
         inkscape:connector-curvature="0" />
      <path
         d="m 926.009,183.908 h 1.375 l 1.46,-0.688 1.118,-0.944 h 1.03 l 0.687,0.686 1.117,-0.085 0.687,-0.859 0.258,-1.03 0.944,-1.288 0.258,-1.29 0.86,-1.803 0.257,-1.289 -2.147,-0.085 -2.49,2.148 -1.89,0.085 -1.546,1.632 -1.202,0.17 -1.288,1.89 -0.429,1.118 0.172,1.117 z"
         id="path45"
         inkscape:connector-curvature="0"
         style="fill:#aa0000" />
      <path
         d="m 899.472,201.173 -1.633,1.632 -0.429,1.46 0.687,1.458 1.547,0.258 1.117,-0.6 1.03,1.202 0.171,2.061 2.062,2.232 0.944,0.258 0.774,-0.859 0.858,-0.86 0.086,-0.857 1.376,-0.601 0.343,-2.577 0.774,0.943 1.286,-0.772 1.633,-0.17 v -2.149 l -0.6,-1.459 -1.29,-0.946 -1.975,-0.859 -2.147,-0.773 -1.03,0.087 -1.893,1.118 -2.06,0.685 z"
         id="path47"
         inkscape:connector-curvature="0"
         style="stroke-linejoin:round" />
      <path
         d="m 912.4,200.641 3.1,-0.142 c 2.128,-1.38 3.049,-7 4.513,-10.713 2.271,-2.945 5.06,-3.826 8.46,-2.256 l 1.974,0.564 2.537,1.973 h 1.83 l 1.272,0.282 1.974,0.141 3.525,-2.82 -0.14,2.96 -2.398,2.115 -4.934,1.834 -3.808,-2.255 -0.14,0.564 8.178,9.021 h 0.704 l 1.41,1.41 0.705,-0.564 0.141,-2.396 2.821,-2.537 0.281,3.665 0.987,1.832 v 3.525 l -2.679,3.384 -4.229,0.564 -4.934,-3.101 -0.14,-1.41 -4.514,-5.216 v 2.256 l 2.68,5.498 0.422,2.114 0.988,0.988 0.706,1.693 v 2.115 l 1.267,2.96 2.256,0.28 0.566,-1.408 v -1.974 l 2.397,-2.398 1.551,-0.14 0.564,0.846 -0.705,0.704 -0.282,1.552 v 0.986 l 1.974,2.679 0.565,1.692 -2.962,4.51 -1.975,0.566 -3.523,-0.565 -2.116,-1.41 h -1.128 l -3.243,-4.935 -0.422,-2.396 -4.371,-6.909 -0.143,1.41 1.694,2.116 0.845,3.242 0.845,5.78 2.538,4.935 0.14,9.165 0.848,0.986 h 1.125 l 1.411,-1.127 1.127,-1.55 -0.282,-5.358 h 1.552 l 2.678,1.551 1.974,3.243 0.705,1.41 v 2.96 l -0.986,0.14 -1.975,2.116 -3.243,1.409 h -5.638 l -1.268,-1.127 h -1.128 l -0.845,-0.846 h -1.552 l -4.373,-6.203 -0.139,-10.292 0.564,-2.255 v -3.102 h -0.704 v 3.102 l -0.707,1.975 -0.14,2.82 0.14,7.754 4.652,7.472 3.384,1.692 0.988,1.128 h -1.551 l 0.142,1.128 -1.271,-0.282 -0.281,0.564 -0.704,-0.282 -1.271,-0.847 -1.692,0.283 -1.126,0.564 h -2.96 l -1.271,-2.538 -0.985,-1.974 -3.384,-3.102 H 909.3 l -0.564,-1.832 0.423,-3.243 0.707,-2.96 v -7.896 l -0.566,9.024 -1.55,5.075 -0.565,0.423 -0.141,5.78 0.987,2.679 3.947,4.37 -2.678,0.282 -1.974,-0.844 -2.116,0.42 -3.241,-0.704 -3.667,-1.268 -2.397,-2.396 -1.128,-2.68 -0.423,-2.677 -0.564,-2.82 0.564,-2.255 0.282,-2.256 -1.127,2.537 v 6.062 l -1.552,-0.422 v -1.692 l -1.268,-1.692 -0.28,-2.256 -0.424,-3.383 -0.143,-5.498 0.143,-3.384 0.704,-3.807 -0.564,-0.141 -0.425,4.795 -0.28,9.445 -0.987,0.283 -2.255,3.101 H 881.1 l -1.974,-1.69 3.808,-4.09 -0.423,-3.243 -0.424,-3.805 -0.423,-6.486 -4.371,4.652 -4.934,3.526 h -4.23 l -2.396,-2.962 -0.425,-3.382 0.283,-2.398 2.537,-3.384 1.831,-0.28 0.707,-0.706 0.423,0.564 -0.986,2.82 -0.987,2.114 0.845,1.974 2.398,0.282 3.101,-4.793 2.397,-5.64 1.832,-2.82 v -1.55 l -1.69,1.268 -1.975,0.424 -5.779,0.141 -3.383,-2.115 -0.565,-1.692 0.14,-1.55 0.143,-2.115 3.665,-2.398 0.14,5.075 2.4,-1.974 v -0.982 l 3.1,-4.09 7.472,-6.625 h 4.512 l 2.678,1.974 1.126,0.282 3.244,3.102 0.14,3.947 3.808,3.102 -2.256,2.679 0.138,1.41 2.118,1.551 1.973,-0.564 0.846,5.217 2.396,1.41 1.269,0.14 4.795,-5.64 2.115,-0.28 1.269,-2.82 -0.567,-2.257 -0.561,-1.277 z"
         id="path49"
         inkscape:connector-curvature="0"
         style="stroke-linejoin:round" />
      <path
         d="m 858.209,249.643 v 0.827 l 1.657,2.247 -0.119,2.367 -8.4,4.259 -3.664,0.237 -1.895,1.774 -4.85,1.538 -2.128,-0.474 0.354,-1.182 0.236,-2.011 -0.236,-1.183 -1.537,-0.828 v -1.895 l 1.892,-0.59 -0.593,-0.827 -1.064,-0.12 0.237,-2.483 0.473,-0.946 0.119,-0.592 -0.119,-1.184 -0.473,-1.064 -1.302,-0.356 -3.784,1.54 -0.592,-0.594 -1.775,1.893 -0.947,0.119 -0.117,-1.539 -1.893,-2.485 v -0.474 l -3.548,-0.59 -2.485,3.194 h -1.775 l -1.3,-0.946 h -1.066 l -1.181,0.708 -0.712,-0.235 -1.064,1.894 h -0.59 l -0.712,-1.54 -0.946,-1.537 -0.354,-0.948 0.474,-1.891 1.537,-0.947 1.89,-0.948 1.424,-0.235 1.654,0.947 0.71,1.536 2.13,-2.01 2.128,-2.367 1.774,-0.709 2.249,0.354 2.485,3.313 2.364,0.235 2.84,-2.01 1.065,-0.592 2.604,0.355 2.603,1.42 2.72,4.02 0.474,3.904 0.59,1.066 4.732,-0.357 4.968,-0.945 z"
         id="path51"
         inkscape:connector-curvature="0" />
      <path
         d="m 861.049,244.319 -1.302,5.797 1.537,1.656 -0.119,1.893 0.827,0.828 1.539,-0.828 1.537,-1.065 1.537,-0.593 1.775,-0.945 0.235,-1.066 1.892,-0.945 2.013,-0.593 2.601,-0.71 2.604,-0.355 -1.892,-1.302 -5.442,-3.547 -2.249,-0.237 -0.828,0.709 -3.192,0.119 -1.773,0.472 z"
         id="path53"
         inkscape:connector-curvature="0"
         style="stroke:none" />
      <path
         d="m 887.192,238.523 -3.785,-0.119 h -2.486 l -2.01,-0.827 -1.656,-1.656 -0.237,-1.538 -1.182,-1.892 -1.183,-1.184 h -1.775 l -2.482,1.656 -1.066,2.13 -0.235,3.43 1.418,2.957 4.732,3.55 2.721,0.59 1.895,-0.826 4.257,-1.893 2.721,-1.774 0.95,-1.538 z m -9.109,-5.443 2.128,-2.246 0.118,-5.088 -0.591,-0.473 0.591,-2.011 0.237,-1.656 h -0.828 l -4.614,4.376 -3.195,0.473 -1.653,0.948 -0.12,1.182 1.302,0.828 2.366,-0.237 1.3,0.12 z"
         id="path55"
         inkscape:connector-curvature="0" />
      <path
         d="m 879.976,246.448 4.139,-0.355 3.313,0.237 1.656,0.474 3.313,1.774 1.894,0.948 3.667,-0.238 -1.42,-1.773 -1.42,-1.775 -0.948,-1.775 -0.236,-1.773 -0.825,0.236 -0.948,-0.236 -1.182,-1.538 -0.71,-2.248 -0.475,-2.957 -0.944,-0.12 -0.712,1.42 0.712,0.709 0.708,1.42 -1.183,1.536 -0.118,1.185 -1.537,1.183 -2.13,0.947 -2.011,0.827 -2.248,0.828 z m 30.284,-5.442 0.119,5.087 1.775,1.538 h 1.654 l 1.302,-0.709 0.356,-1.064 -1.184,-0.71 -0.474,-1.42 -2.484,-2.72 h -1.065 v -0.002 z m 19.283,4.022 5.086,3.43 1.538,0.475 1.42,-0.474 2.365,-1.893 1.182,-2.602 0.12,-1.892 -1.182,-0.118 -1.893,1.302 -2.721,0.236 -2.129,0.354 h -1.657 l -1.657,0.355 z m 14.667,-3.902 -0.944,1.538 -0.947,2.366 -2.13,2.248 0.119,1.655 h -0.948 l 0.12,1.302 1.654,1.3 4.616,0.709 3.668,-4.73 v -1.302 l -2.012,-2.367 -1.421,-0.354 z m 21.53,13.249 2.368,1.183 v 0.828 l -0.947,1.302 -0.59,2.483 -0.238,1.538 -2.84,0.12 -2.956,-1.065 -1.657,-1.065 h -1.538 l -0.828,-0.709 -1.418,-0.947 -1.776,-1.184 -1.891,-2.483 -1.301,-1.656 v -1.183 l 1.775,-2.248 1.775,-0.59 h 7.926 l 3.666,-1.302 2.956,-2.484 3.55,-0.71 0.828,-0.946 2.366,-0.474 5.915,-3.076 3.312,0.59 3.313,-0.117 2.838,0.827 1.066,0.947 -0.592,0.355 -1.537,-0.119 -1.775,0.947 -0.237,3.194 1.42,2.602 -0.355,0.71 -1.774,-0.118 -1.182,-0.593 -0.593,-1.065 v -1.064 l -1.181,-1.656 -0.947,-0.354 h -2.127 l -0.71,4.494 h -1.068 l -2.008,-1.774 -2.96,-0.356 -2.01,1.775 0.708,2.366 2.96,2.84 h 1.537 l 1.42,1.654 -0.12,1.301 -2.128,-0.474 -2.13,-0.472 -1.774,-0.83 -1.42,0.238 -1.657,-0.948 -1.656,-0.708 -1.064,-0.474 z m 7.984,52.853 -1.882,1.705 -1.255,2.42 -0.447,2.507 -0.807,3.137 -0.359,2.42 0.36,5.287 0.18,2.866 1.7,2.69 0.896,0.268 1.075,2.15 1.523,-4.211 0.719,0.537 0.447,3.136 2.51,2.15 c 0,0 -2.33,-1.164 -2.868,-1.164 -0.538,0 -0.627,0.626 -0.627,0.626 l 0.627,1.344 1.432,1.434 2.51,0.984 4.66,0.09 -1.075,1.075 h -3.225 l -0.81,0.626 1.167,1.703 1.433,2.24 2.6,1.254 2.686,-0.716 h 0.896 l -0.447,1.075 1.344,0.984 1.164,1.075 1.076,1.166 0.895,0.178 v 1.344 l -1.612,4.034 -0.36,1.88 -0.894,1.524 -0.538,2.328 -1.613,2.778 -0.179,0.986 h 0.807 l 1.164,-1.525 1.704,-0.716 2.061,-2.688 c 0,0 1.164,0.36 1.434,-0.18 0.268,-0.538 1.523,-4.301 1.523,-4.301 l 1.254,-0.269 0.628,-3.942 1.075,3.675 0.898,4.66 -0.36,3.942 -2.33,4.3 -0.626,0.72 0.358,1.432 h 1.702 l 1.972,-2.063 3.404,-4.57 1.347,-4.57 0.716,-8.871 1.523,4.123 1.434,4.031 0.719,3.136 -1.077,4.122 -1.344,4.84 1.793,-1.256 3.765,-4.212 2.955,-4.388 0.808,-3.226 0.717,-6.184 -0.448,-4.838 0.177,-1.793 0.628,-0.985 -0.09,-3.226 -0.627,-1.344 -2.149,2.867 -0.896,0.18 -2.51,-1.703 -0.626,-0.18 -1.434,-2.061 -0.984,-3.316 0.088,-3.763 h -0.536 c 0,0 0.269,-3.137 0.536,-3.943 0.27,-0.807 0.628,-2.328 0.628,-2.328 l -0.449,-3.317 -1.702,-3.137 -2.061,-1.79 -3.315,-0.985 -3.855,-1.077 -2.24,-1.79 -4.211,-0.448 -2.15,0.269 -4.033,-1.882 -2.599,-0.986 -3.314,-0.088 -3.137,-0.36 z m -144.176,0.196 -8.264,-0.164 -1.323,-0.662 -1.982,1.652 h -3.802 l -4.133,2.314 -2.809,2.148 -1.487,-0.164 -5.786,5.29 0.827,4.296 0.66,1.158 0.331,4.132 0.164,5.949 -1.32,0.993 -1.984,4.96 -1.158,4.296 -0.992,8.43 0.827,6.28 -1.158,3.306 -2.313,3.637 -0.496,1.818 1.982,-1.324 -0.328,-0.661 0.99,1.487 2.478,-4.463 0.993,1.654 0.99,0.164 v -5.62 l -1.155,-8.76 2.809,9.093 0.662,3.305 0.496,-0.167 0.33,-7.438 1.817,4.133 0.166,3.635 0.826,0.662 0.498,-0.992 v -5.454 l -2.977,-8.76 -1.487,-8.101 3.967,10.579 2.315,2.148 2.148,5.786 1.82,3.305 0.33,2.148 1.322,-0.826 0.498,-0.825 -1.158,-0.827 0.825,-0.66 -0.167,-2.975 -0.99,-6.94 h -0.99 l -3.472,-7.273 3.14,4.464 h 1.322 l 0.166,-1.159 -1.487,-2.975 -0.33,-3.471 2.975,4.298 0.99,-0.495 -1.652,-4.796 -0.33,-5.454 0.992,2.314 -0.166,2.645 2.15,2.646 2.148,1.155 1.652,-1.98 -1.158,-0.829 -0.494,-2.312 -1.655,-1.984 v -2.646 l 2.317,4.133 2.147,1.488 2.149,0.496 2.15,-1.487 3.634,-4.133 -0.493,-0.497 -3.804,0.167 -2.975,-1.984 -2.644,-2.478 v -2.149 l 0.496,0.329 1.156,2.316 2.149,2.15 2.479,0.328 3.142,0.167 3.469,-3.14 1.82,-5.951 0.496,-3.306 -0.661,-4.132 -2.15,-4.794 -1.323,-2.15 z m 121.656,91.572 -8.762,9.088 -1.157,-0.33 -3.14,2.646 -0.165,2.81 2.975,2.316 1.158,2.148 0.827,-0.167 2.973,3.636 2.812,3.969 1.158,0.662 0.824,1.817 -1.485,2.148 0.495,1.325 2.314,-0.333 2.646,0.167 1.651,0.991 0.662,2.976 v 1.155 l 1.818,-0.99 1.488,-2.15 0.166,-5.288 -0.329,-1.487 0.493,-3.968 0.496,5.288 1.158,1.654 0.826,-0.663 0.99,3.473 2.15,2.15 1.158,1.98 0.167,-1.32 -0.167,-2.644 1.158,-2.976 1.322,-3.47 1.323,-0.829 1.155,0.5 1.656,1.65 -0.166,0.662 1.488,-0.167 -0.333,-3.966 -2.147,-2.976 -3.307,-2.145 -1.652,-1.653 -1.487,-2.645 2.314,1.322 2.479,2.314 2.313,1.158 1.654,0.33 2.812,5.454 1.818,2.645 0.33,-3.636 1.322,-4.134 1.324,-1.817 1.652,-0.166 2.15,0.662 -0.498,-2.48 -1.652,-3.14 -3.306,-2.974 -3.472,-2.645 -2.973,-1.325 -2.647,2.316 -0.826,0.329 -1.488,1.325 -1.156,-0.496 -3.802,-3.64 -0.992,-0.658 -1.652,-3.969 -2.48,-1.158 -3.802,0.333 z m -99.341,-2.148 1.158,1.981 0.992,3.14 1.652,1.821 -0.165,0.99 2.314,1.982 2.313,3.636 3.803,3.14 -2.81,2.481 -6.612,4.96 -2.15,0.662 -2.809,-1.657 0.33,3.968 1.157,1.82 -2.975,-0.662 -3.472,0.33 -2.148,1.82 -0.497,1.816 -0.826,-1.32 -1.158,-1.821 -0.33,-0.329 -0.66,0.496 0.496,0.328 0.164,3.306 -0.825,0.663 -0.167,0.991 -3.8,2.478 -0.992,-2.478 -1.325,-2.81 -2.313,-1.158 -2.478,0.332 -2.81,1.652 0.825,-2.314 1.654,-2.645 3.139,-2.644 3.14,-1.982 2.48,-0.991 0.662,-0.333 -0.828,-0.825 -4.626,1.32 -3.307,2.15 -3.472,2.48 -2.644,3.8 -1.322,0.99 v -2.807 l -1.49,-3.802 -0.495,-2.481 -1.488,-1.817 h -1.817 l -2.479,0.495 1.82,-3.139 3.634,-1.982 1.654,-2.81 2.975,-2.482 2.479,-0.496 3.637,0.496 1.816,0.995 3.474,0.163 2.146,-0.163 2.646,-1.325 2.15,-3.969 2.973,-4.294 3.474,-1.82 z"
         id="path57"
         inkscape:connector-curvature="0" />
    </g>
    <path
       d="m 892.877,173.292 v 2.084 l -0.775,1.25 h -1.37 l -0.833,0.895 -0.24,0.715 1.55,1.43 1.43,1.012 0.594,0.716 0.36,0.178 5.957,-0.06 0.714,0.715 1.312,-0.953 1.61,-2.443 5.064,0.06 2.68,1.966 0.179,1.609 0.596,0.239 1.428,-1.25 1.192,-0.06 0.595,0.775 h 1.074 l 3.515,-3.159 0.596,-0.834 1.31,-0.06 -0.177,-1.013 -1.43,-0.357 -1.25,-1.25 -0.359,-2.086 -1.131,-0.178 -1.966,1.013 -3.396,1.668 -1.133,0.834 -1.012,0.059 c 0,0 -0.417,-0.357 -0.656,-0.357 h -1.31 l -1.074,0.894 h -0.834 l -0.298,-0.298 -4.587,-0.358 -3.813,-0.953 -1.968,-1.31 -1.25,-1.013 -0.359,-0.356 z"
       id="path61"
       inkscape:connector-curvature="0" />
    <g
       id="g65"
       style="fill:#ffffff">
      <path
         d="m 895.739,178.772 h 2.62 l 0.656,0.536 v 0.714 l -1.25,0.537 -2.206,0.119 -1.55,-0.238 -1.073,-0.954 -0.237,-1.906 1.428,-1.609 h 1.372 l 0.12,0.537 z m 17.515,-0.118 -0.416,0.356 v 0.716 l 0.534,0.357 2.623,0.12 2.86,-2.263 0.06,-0.895 -1.726,-1.49 h -1.49 l -0.24,0.417 0.36,0.775 0.475,0.715 -0.476,0.953 z"
         id="path63"
         inkscape:connector-curvature="0" />
    </g>
    <g
       id="g75"
       style="fill:#48489c">
      <path
         d="m 819.408,249.526 1.538,2.72 -0.117,4.85 -0.593,0.592 -2.246,-1.893 -1.185,-1.655 -1.183,-2.011 v -1.774 l 1.183,-0.947 1.537,-0.354 z m 4.733,7.804 3.43,-7.097 v -1.892 l -1.302,-1.895 h -1.775 l -1.891,1.775 v 6.27 z m 5.913,0 1.894,-0.827 4.614,-4.377 0.709,-1.301 -0.357,-1.065 -1.3,-0.946 -0.826,-0.237 -1.894,0.828 -1.064,1.065 -2.13,3.784 z m 8.165,3.076 -1.657,1.184 -1.894,-0.118 -3.428,-2.367 0.117,-0.474 2.13,-0.355 1.892,-0.828 1.892,0.118 1.067,0.946 0.353,1.066 z"
         id="path67"
         inkscape:connector-curvature="0"
         style="fill:#5656a6" />
      <path
         d="m 970,256.975 h 2.722 l 1.537,0.828 h 3.075 v 1.184 l -1.774,1.3 -3.431,0.947 -1.539,0.709 -1.182,-0.119 -0.828,-1.064 v -1.656 l 0.71,-1.42 z m 18.808,-3.665 c 0,0 1.894,-1.067 2.246,-1.892 0.357,-0.828 1.184,-2.604 1.184,-2.604 l 0.711,-3.076 -0.945,-2.602 -1.775,-0.472 -1.537,0.117 -0.828,0.827 -0.236,2.249 0.827,1.892 0.71,1.065 -0.118,2.01 z m -7.098,0.945 1.894,-0.946 1.18,-2.247 0.122,-2.485 -0.947,-1.894 -1.302,-1.417 h -1.775 l -0.474,3.31 1.3,1.303 v 4.376 z m -2.247,2.13 0.71,-0.828 0.357,-1.775 -0.71,-2.601 -1.067,-1.184 -1.3,-1.183 -1.42,-0.945 h -2.013 l -1.3,1.064 0.353,2.13 2.369,1.774 1.892,0.355 z m 8.643,-5.628 v 2.134 l -2.132,0.306 -0.153,-2.896 z"
         id="path69"
         inkscape:connector-curvature="0" />
      <path
         d="m 971.699,428.416 -1.818,2.48 v 4.132 l 0.826,1.985 -0.826,7.767 4.133,-5.784 1.485,-2.977 -0.164,-3.965 -1.158,-1.82 -1.322,-1.157 z m 13.719,-8.592 -1.322,0.329 -1.488,3.139 -0.33,4.132 0.826,2.148 v 2.977 l 0.332,1.817 1.485,-2.146 2.15,-3.638 0.328,-2.645 v -3.635 l -0.991,-1.654 z m -36.034,21.484 2.15,-1.487 1.653,-1.158 2.15,-2.808 -0.332,-2.148 -1.324,-0.991 -1.652,-0.662 -1.487,0.166 -1.654,2.313 0.167,4.63 z"
         id="path71"
         inkscape:connector-curvature="0"
         style="fill:#4f4d9f" />
      <path
         d="m 848.724,426.766 1.652,0.659 v 4.464 l -2.809,3.14 -3.139,2.315 0.163,-2.976 -0.825,-0.988 v -3.144 l 0.662,-0.825 v -1.486 l 2.81,-1.49 z m -21.49,2.643 2.314,-0.166 2.479,1.486 0.991,2.812 -1.487,1.323 -0.825,1.321 -0.496,2.15 0.33,3.472 0.166,3.14 -2.81,-3.473 -2.313,-3.635 -0.167,-3.635 0.826,-3.14 z m -7.934,-4.131 -0.661,2.312 -0.826,0.496 -0.991,1.324 v 4.957 l -1.654,-0.988 -1.818,-2.316 -0.99,-2.48 0.33,-6.28 0.826,-2.645 1.984,-0.662 1.983,0.662 1.651,3.802 z m 0.168,-16.032 -0.992,2.477 -2.645,1.982 c -0.405,-2.64 0.955,-4.026 3.637,-4.459 z"
         id="path73"
         inkscape:connector-curvature="0"
         style="fill:#4748a5" />
    </g>
  </g>
  <g
     id="g191"
     transform="matrix(1.2813815,0,0,1.2813815,-236.99587,-115.26809)"
     style="stroke:#000000;stroke-width:0.456">
    <path
       d="m 825.559,261.236 3.193,2.957 2.368,1.537 1.892,0.71 2.367,1.301 h 4.969 l 4.494,-0.474 2.247,-0.828 4.377,-0.119 3.55,-1.656 2.601,-1.773 2.602,-0.118 1.423,-1.42 h 1.891 l 3.784,-2.84 5.325,-2.364 5.56,-2.011 6.035,-1.183 2.482,0.117 0.946,0.71 1.184,2.01 0.472,0.948 -0.59,2.01 -2.247,1.303 -0.474,-1.421 1.419,-1.183 -0.354,-0.71 -2.25,-0.355 h -1.538 l -1.417,1.42 -0.237,3.194 1.892,1.655 2.011,1.302 1.775,0.119 2.13,-1.3 2.84,-2.485 1.654,-2.839 -0.474,-4.14 -0.946,-2.604 -2.839,-2.129 -3.548,-1.42 -6.151,0.12 -3.668,0.945 -1.42,0.474 -3.903,2.602 -1.775,0.118 -3.903,2.602 -1.54,0.59 -1.775,0.71 -2.72,1.184 -5.207,2.364 -3.547,2.13 -1.775,0.238 -4.139,2.601 -5.916,0.474 -1.064,-0.593 -2.722,-0.354 -1.774,-0.711 -1.774,-0.946 -2.483,-2.957 -0.711,-0.474 h -2.248 l -0.71,0.948 z"
       id="path79"
       inkscape:connector-curvature="0"
       style="fill:#dfda4d" />
    <path
       d="m 894.408,251.299 0.71,5.915 -1.3,3.666 2.721,0.119 h 3.192 l 2.84,-0.593 2.721,-0.237 2.485,0.12 2.011,0.236 2.483,-0.946 0.119,-1.892 -0.592,-1.656 1.182,-3.669 -0.474,-0.828 z"
       id="path81"
       inkscape:connector-curvature="0"
       style="fill:#d9d24d" />
    <path
       d="m 922.444,257.804 -0.71,0.474 -1.064,-0.474 -0.592,-1.655 1.183,-1.065 2.601,0.118 2.367,2.13 v 3.075 l -3.195,1.54 -3.31,0.827 -3.669,-1.065 -2.247,-3.076 -0.592,-2.129 0.474,-3.668 0.592,-2.366 3.194,-2.367 3.43,-1.064 4.02,-0.593 4.617,1.183 9.343,3.55 6.27,2.839 6.98,3.668 4.14,1.893 5.443,2.601 3.313,1.184 3.785,-0.474 1.656,0.118 3.312,-1.064 2.247,-0.238 4.968,-5.796 2.012,-1.183 -0.236,2.602 -3.313,3.668 -2.838,3.194 -1.182,0.12 -1.538,1.299 -2.957,-0.119 -6.862,0.356 -3.312,-1.064 -5.205,-1.066 -6.151,-2.72 -4.852,-2.485 -2.366,-0.353 -3.669,-1.894 -2.246,-0.236 -1.301,-0.947 -4.024,-1.182 -3.313,-1.184 -3.192,-0.355 -2.485,-0.354 -1.182,0.709 -1.183,1.656 -0.59,2.247 0.827,2.722 1.42,0.238 1.302,-0.59 0.472,-0.948 -0.592,-0.236 z"
       id="path83"
       inkscape:connector-curvature="0"
       style="fill:#d9d34a" />
    <path
       d="m 852.564,388.192 -1.51,1.507 -2.374,-1.507 1.077,-2.804 3.883,-0.648 2.158,3.235 -0.864,3.234 -3.02,3.018 -3.668,1.08 -3.666,0.43 -4.312,-0.214 -5.825,-1.297 -4.528,-5.39 -3.451,-6.902 -2.586,-5.822 -3.02,-11.862 -1.511,-4.961 -0.647,-4.529 -3.234,-6.254 1.292,-1.078 11.216,-9.92 h 0.648 l 2.373,-2.158 4.096,-7.764 0.432,-0.43 1.293,-4.744 -0.216,-8.195 -1.077,-3.882 -2.587,-4.314 c 0,0 -0.863,-1.51 0,-1.294 0.861,0.216 -2.373,-3.667 -2.373,-3.667 l -3.884,-4.1 v -0.86 l -2.802,-2.804 -1.941,-1.078 h -1.51 l -0.648,-0.864 -2.804,-0.862 -1.293,1.294 -0.863,2.804 v 1.08 l 1.94,0.86 0.646,-0.43 -0.646,-1.08 0.216,-1.294 1.512,-1.077 1.724,1.291 -0.216,3.235 -1.294,1.511 -3.234,0.217 -2.588,-1.295 -1.078,-2.157 -0.861,-3.233 0.861,-1.942 1.295,-1.077 2.157,0.43 3.45,-0.863 1.077,-0.431 2.805,0.43 1.941,1.942 2.155,1.294 5.393,6.04 1.509,1.508 2.804,4.099 3.451,7.764 0.862,5.39 -0.43,5.393 -2.804,7.764 -3.235,4.96 -4.528,5.607 -7.764,6.472 -1.078,0.215 -1.725,2.157 3.02,6.47 4.744,19.842 3.882,8.194 5.607,5.823 4.313,2.373 5.609,0.648 4.96,-1.296 2.157,-1.938 -0.864,-1.294 z"
       id="path85"
       inkscape:connector-curvature="0"
       style="fill:#ddd457" />
    <path
       d="m 861.622,392.72 -0.647,1.076 0.863,1.727 2.158,0.431 1.508,-1.942 v -2.158 l -1.295,-2.37 -1.724,-0.435 -1.94,0.217 -2.805,1.942 -1.51,1.726 -0.864,4.096 2.158,6.688 3.451,4.528 8.626,5.607 9.275,3.45 5.82,0.862 4.316,4.315 2.156,5.174 -1.94,3.238 -2.588,0.215 v -1.294 l 1.077,-0.217 1.295,-1.294 -0.647,-1.293 -2.587,-1.511 -2.156,1.726 -0.218,3.883 1.94,1.941 2.804,0.645 2.158,-0.863 2.155,-2.374 0.218,-2.803 -0.863,-4.098 -3.668,-5.173 -3.88,-1.942 -9.705,-3.452 -6.255,-2.37 -4.53,-3.239 -4.096,-4.311 -2.373,-6.252 1.078,-4.098 2.373,-1.727 1.294,0.43 z"
       id="path87"
       inkscape:connector-curvature="0"
       style="fill:#dbd45d" />
    <path
       d="m 939.906,392.934 1.726,1.079 0.217,1.724 -1.942,0.863 -2.587,-0.43 v -2.587 l 1.508,-3.235 4.316,-0.217 1.94,2.373 1.295,4.528 -1.295,4.746 -4.96,4.097 -6.902,4.746 -7.548,3.234 -11.214,5.39 -3.235,2.37 -2.805,5.177 1.727,3.022 2.157,0.43 v -1.078 l -0.648,-0.863 0.43,-2.374 1.295,-1.292 2.586,1.51 0.65,3.235 -2.374,2.373 -2.589,0.431 -4.096,-1.942 -1.295,-2.155 -0.215,-3.023 1.726,-2.803 3.45,-3.449 5.392,-3.022 7.764,-3.234 11.43,-5.606 7.978,-8.628 v -3.448 l -1.726,-2.157 z"
       id="path89"
       inkscape:connector-curvature="0"
       style="fill:#e5dc5e" />
    <path
       d="m 949.826,386.681 v 1.938 h 1.51 l 1.51,-0.215 0.647,-2.586 -1.293,-1.724 -1.726,-0.219 -2.158,0.431 -2.37,1.726 -0.217,3.452 1.077,2.37 2.157,3.234 3.882,1.942 3.881,1.079 5.825,-0.431 6.685,-3.234 6.254,-4.529 2.588,-6.256 3.234,-11.43 4.096,-14.448 2.589,-5.39 2.156,-1.943 -0.647,-0.861 h -1.94 l -4.96,-3.666 -5.175,-3.236 -6.687,-7.978 -3.45,-6.687 -1.078,-9.488 1.941,-9.275 4.097,-6.901 6.685,-5.608 6.04,-4.313 6.038,-0.213 0.86,2.371 -0.86,1.942 -1.295,-1.08 -1.94,-0.215 -0.862,3.235 2.154,1.078 3.882,-0.431 1.08,-2.587 -0.43,-3.666 -2.805,-2.589 -4.962,0.431 -3.666,0.43 -4.53,2.59 -4.742,4.959 -3.234,4.745 -4.1,6.685 -1.293,6.038 0.216,10.569 5.393,11.428 4.743,6.04 9.273,6.253 1.51,1.079 -2.803,6.254 -4.098,13.156 -2.587,10.567 -2.156,4.529 -6.901,6.038 -7.766,3.018 -6.684,-0.213 -3.235,-2.374 -0.864,-2.156 -0.216,-3.234 z"
       id="path91"
       inkscape:connector-curvature="0"
       style="fill:#d7d643" />
    <g
       id="g109"
       style="fill:#5db7d2">
      <path
         d="m 890.873,284.615 -0.33,3.305 0.991,7.273 3.636,20 h 1.82 l 0.164,-3.14 z"
         id="path93"
         inkscape:connector-curvature="0"
         style="fill:#44b3cc" />
      <path
         d="m 900.127,313.706 -6.61,-28.926 4.956,29.422 z"
         id="path95"
         inkscape:connector-curvature="0"
         style="fill:#50aece" />
      <path
         d="m 901.285,313.375 2.314,-0.826 -8.596,-27.769 z"
         id="path97"
         inkscape:connector-curvature="0"
         style="fill:#50afce" />
      <path
         d="m 897.484,283.127 10.082,28.926 -1.983,0.66 z"
         id="path99"
         inkscape:connector-curvature="0"
         style="fill:#50abce" />
      <path
         d="m 909.054,311.39 -9.752,-29.255 12.397,28.926 z"
         id="path101"
         inkscape:connector-curvature="0"
         style="fill:#50b0ce" />
      <path
         d="m 912.69,309.904 -11.57,-27.935 14.38,28.266 z"
         id="path103"
         inkscape:connector-curvature="0"
         style="fill:#50b3ce" />
      <path
         d="m 822.091,258.767 -1.56,0.239 -1.918,1.56 -0.84,2.039 0.122,3.717 1.318,2.278 2.28,2.4 1.078,1.799 -0.6,3.236 -3.236,2.039 -3.478,2.519 -1.32,2.038 -0.48,2.278 0.121,2.399 0.479,0.599 2.639,-0.122 1.559,-0.477 2.397,-0.24 2.278,0.36 3.477,2.399 4.918,4.437 2.156,2.519 -1.557,-3.719 -0.839,-4.437 -0.6,-4.437 0.721,-2.637 1.199,-1.68 1.319,0.72 1.079,-0.6 1.44,0.72 1.2,-0.72 1.917,0.6 2.397,-1.2 3.598,-2.757 h 2.518 l 0.721,0.599 1.438,-0.599 0.84,1.2 2.999,-2.28 2.397,-1.199 2.398,0.96 3.119,0.72 1.2,-1.08 2.517,-0.12 3.477,-0.48 1.68,1.2 1.676,4.076 1.2,1.32 1.8,0.358 0.959,0.48 1.677,4.198 1.2,3.358 0.6,4.076 -0.24,1.079 1.078,-0.119 1.68,1.676 1.439,0.722 1.199,1.318 0.357,2.158 0.961,-0.119 0.84,-1.079 1.68,0.36 1.438,1.558 1.438,0.121 -2.52,-16.669 -2.398,-1.319 -0.12,-3.836 5.636,-2.04 0.12,-1.438 -0.838,-2.4 -1.08,-2.157 -2.158,0.238 1.678,-5.395 4.197,4.317 -1.919,0.24 1.677,6.595 7.197,-1.199 1.32,1.8 -0.48,1.558 0.6,1.078 0.358,1.92 2.16,2.757 5.636,12.23 5.396,11.033 2.398,-2.518 2.52,-0.598 2.758,-1.92 1.678,-0.6 1.198,-1.558 3.12,-0.121 4.674,4.197 0.722,-1.078 4.435,-0.242 1.439,2.878 0.24,1.2 1.8,-0.72 4.916,1.078 2.998,2.4 2.276,0.957 0.601,1.201 1.319,-1.56 0.96,0.122 1.56,0.36 4.915,-0.36 2.52,-5.038 c 0,0 2.277,-4.675 3.359,-5.875 1.078,-1.199 5.515,-5.995 5.515,-5.995 l 5.395,-3.6 4.077,-2.277 3.837,-0.48 3.6,-0.12 -0.12,-3.237 -1.44,-3.118 -3.598,-4.675 -0.72,-3.718 v -2.28 l 3.118,-2.039 3.718,-2.997 0.121,-3.119 -1.079,-3.838 -2.16,-3.236 -0.72,-0.6 -1.2,-0.239 -1.677,1.078 -3.358,4.676 -3.717,3.719 -4.557,2.759 -5.276,0.599 -8.393,-1.32 -5.875,-1.8 -7.317,-2.757 -7.675,-3.597 -4.196,-0.842 -6.357,-3.116 -2.397,-0.121 -0.121,1.08 1.917,1.917 -0.477,3.36 -1.68,1.797 -3.117,0.121 c 0,0 0.36,0.241 -1.439,0.72 -1.8,0.48 -3.357,0 -3.357,0 l -2.998,-1.799 -2.879,-0.48 h -5.755 l -6.355,0.601 -7.196,0.6 -3.597,3.118 -3.119,0.48 -3.357,-0.84 -3.477,-4.076 0.12,-2.278 2.518,-3.119 -1.319,-0.12 -7.915,2.879 -4.918,2.756 -2.636,1.68 -1.919,-0.12 -2.52,2.278 -3.117,0.24 -1.8,1.918 -0.6,-0.24 -5.034,1.32 -4.558,0.838 c 0,0 -5.756,0.84 -6.355,0.84 -0.601,0 -6.115,-0.72 -6.115,-0.72 l -4.08,-2.038 -1.917,-2.158 -1.8,-1.2 -2.397,-2.516 0.12,-1.92 z"
         id="path105"
         inkscape:connector-curvature="0"
         style="fill:#64b4d1" />
      <path
         d="m 893.774,318.595 -0.17,3.743 2.722,-0.678 -0.34,-3.574 z m 3.574,-1.02 v 3.062 h 1.192 v -3.232 z m 2.723,-0.68 v 3.403 l 1.7,-0.511 -0.17,-3.062 z m 3.572,-0.682 0.172,2.552 h 1.528 l 0.172,-3.062 z m 3.403,-0.68 v 2.724 h 2.38 l -0.339,-3.065 z m 3.742,-0.85 v 2.552 l 2.042,-0.51 -0.51,-2.724 z"
         id="path107"
         inkscape:connector-curvature="0" />
    </g>
    <g
       id="g115"
       style="fill:#cccccc">
      <path
         d="m 973.633,345.67 v 2.69 l 0.628,0.36 0.18,0.894 2.775,0.45 -0.27,-0.897 -1.793,-1.703 -0.447,-1.255 z"
         id="path111"
         inkscape:connector-curvature="0"
         style="fill:#fffcfc" />
      <path
         d="m 916.933,309.892 -0.46,-0.916 1.527,-1.676 2.893,-0.607 2.286,-1.83 2.896,-1.829 3.048,-0.762 3.963,3.352 -1.371,1.07 -1.374,-0.154 -2.59,1.676 -1.98,1.22 -1.676,-0.305 -1.526,-0.457 -0.913,0.762 h -1.374 l -1.068,0.61 z m 18.594,-4.269 1.523,-0.607 h 2.286 l 1.22,3.351 v 1.068 l 1.98,-0.61 h 3.659 l 2.59,1.22 2.286,2.286 2.438,1.373 h 1.98 v -1.068 h 1.981 l 0.459,0.61 2.132,0.304 1.525,-0.456 0.457,1.372 -0.304,1.827 -0.459,1.374 0.61,5.79 2.744,9.906 5.182,8.384 -1.98,-0.916 -4.421,-0.61 -1.373,0.61 -1.827,-0.152 -2.134,1.98 -1.068,0.152 -0.913,0.763 -1.677,-2.286 -6.4,-8.534 -1.677,-1.829 -3.657,-7.924 -5.03,-10.822 -0.306,-4.421 -1.218,-1.22 -0.61,-0.152 v -0.763 z m -1.83,58.984 2.592,1.22 -0.152,-1.22 1.828,1.22 c 0,0 1.676,0.305 2.59,0.152 0.913,-0.153 2.896,-2.133 2.896,-2.133 l 0.61,-4.115 3.963,-6.859 2.893,-1.676 0.918,-0.153 2.74,-3.049 5.182,-2.742 2.439,-0.915 3.963,0.762 2.896,1.372 0.61,2.439 0.458,6.553 1.828,1.374 1.525,-0.764 1.371,-1.676 3.352,-1.221 2.44,0.303 -0.154,3.05 -1.066,5.64 -1.676,5.943 -2.743,9.448 -2.59,6.708 -6.402,4.878 -5.029,3.198 h -8.078 l -2.438,-2.285 3.048,-0.764 1.067,-1.826 0.305,-3.201 -2.742,-1.981 -2.743,0.152 -3.658,2.135 -1.374,1.825 -0.762,2.136 h -1.37 l -3.05,-0.154 -2.287,1.526 -1.675,2.13 -0.458,3.202 0.764,2.288 1.675,1.066 3.048,-0.153 0.764,-0.607 h 0.61 l -2.745,3.044 -3.504,3.66 -4.573,3.048 -3.048,0.913 -5.03,1.83 -3.657,1.677 -4.116,0.152 -4.267,3.809 -2.896,2.288 -1.981,2.742 -0.915,4.726 v 3.503 l 2.284,3.048 -0.304,0.916 -1.371,-0.156 -0.763,-0.607 h -3.352 l -0.916,-1.373 -1.676,0.306 -2.437,0.761 -1.068,1.07 -1.829,-0.917 1.068,-2.742 0.152,-2.59 -0.762,-3.508 -2.286,-4.573 -1.98,-2.131 -3.507,-2.135 -6.706,-1.982 -7.314,-2.739 -5.334,-2.594 -1.981,-3.048 -0.763,-3.809 1.22,1.22 -1.068,-4.268 1.524,1.979 1.07,0.152 3.047,3.813 2.439,0.458 0.61,0.303 h 0.76 l 0.153,-0.303 2.286,1.22 2.592,0.76 h 3.656 l -3.2,-0.76 -3.963,-1.83 -4.115,-2.288 -2.286,-3.044 -0.306,-1.373 -1.219,-0.152 0.154,-0.917 0.914,-1.067 1.22,0.154 0.305,0.913 1.22,-0.459 1.98,1.527 3.354,0.302 2.437,0.306 -2.131,-1.219 -3.354,-1.829 -3.353,-3.049 -1.068,-0.152 -3.354,-5.18 -1.828,-5.03 -1.524,-5.333 v -6.25 l 1.98,-5.027 2.896,-4.574 1.676,-1.525 1.372,0.457 3.505,-2.59 2.438,-0.761 3.202,0.15 2.438,0.763 3.506,1.068 1.675,2.132 1.676,0.154 0.456,1.22 -0.913,0.304 1.22,1.676 -0.458,1.067 1.068,1.372 -0.152,1.98 -1.98,2.287 1.37,2.285 -0.154,0.764 1.677,1.829 1.525,2.284 2.59,0.458 6.097,0.154 4.418,-0.459 2.592,-0.153 -1.068,-1.22 1.829,-0.458 2.286,-0.458 4.115,-3.197 c 0,0 3.201,-5.489 3.811,-6.251 0.61,-0.76 1.828,-3.353 1.828,-3.353 l 5.181,-5.334 1.98,-0.762 4.573,-2.285 h 4.726 l 1.222,1.373 1.98,0.305 1.828,2.285 0.914,6.25 -2.896,1.98 h -2.436 l -1.676,-1.067 -0.459,0.914 z m -73.956,22.461 c 0,0 0.359,-0.716 0.719,-0.716 0.359,0 1.165,-0.088 1.165,-0.088 l 0.089,-4.662 c 0,0 -0.627,-0.356 -0.718,-0.716 -0.089,-0.357 -0.089,-2.06 -0.089,-2.06 l -0.626,-0.628 -0.09,-18.819 -1.793,-4.838 -1.523,-2.598 -1.254,-0.987 -1.972,-0.177 -2.24,1.434 -1.345,0.716 -2.868,-0.625 -1.074,-0.719 -1.705,-0.087 -1.523,-2.778 -3.135,-0.987 -1.433,-0.447 -4.301,-0.36 -1.254,-0.09 -1.615,1.077 -1.882,2.24 -1.343,2.597 -0.178,4.214 0.985,1.344 v 1.97 l 0.449,0.806 v 1.703 l -1.434,-1.703 -1.434,-3.494 -0.717,-2.15 -0.627,0.896 0.178,2.868 0.09,2.328 0.807,2.153 0.806,3.044 1.344,3.853 1.075,4.125 0.987,3.94 1.881,3.585 1.613,2.24 3.675,3.674 2.329,1.612 3.584,1.257 4.032,-0.088 1.253,-0.9 -1.613,-1.521 c 0,0 -0.267,-0.984 -0.267,-1.344 0,-0.36 0.536,-2.152 0.536,-2.152 l 1.703,-1.793 4.928,-0.895 1.703,1.255 2.24,2.51 z m 53.941,-73.237 v 2.552 l 1.53,-0.34 -0.338,-2.212 z m 2.552,-0.68 v 2.041 h 1.022 v -2.211 z m 2.214,-0.171 0.17,1.87 1.7,-0.338 -0.17,-2.212 z m 3.4,-1.36 v 2.554 h 1.022 l 0.34,-2.554 z m 2.895,-0.51 v 2.213 l 1.36,0.17 -0.34,-2.382 h -1.02 z m 2.723,-0.681 v 2.551 l 1.36,0.17 v -2.211 z m 2.721,-0.852 -0.511,2.892 h 1.532 l -0.171,-2.212 z m 2.041,0 v 2.383 l 2.213,-1.022 -0.342,-2.554 z"
         id="path113"
         inkscape:connector-curvature="0" />
    </g>
    <path
       d="m 890.046,266.598 -1.488,4.463 5.125,-0.827 z"
       id="path117"
       inkscape:connector-curvature="0"
       style="fill:#76401b;stroke:none" />
    <g
       id="g123"
       style="fill:#784421">
      <path
         d="m 932.194,351.556 -4.792,1.325 -3.306,2.645 -4.298,4.461 -3.472,6.282 -3.966,4.794 -7.274,2.974 -6.612,0.167 -5.124,-1.486 -1.818,-2.813 -0.496,-3.635 -0.66,-4.464 -1.489,-2.809 -2.313,-2.811 -2.645,-1.818 2.811,-11.902 0.826,-2.645 v -3.471 l 0.496,-4.626 2.479,-4.133 2.479,-2.314 4.297,-1.983 7.602,-1.983 7.605,-2.479 7.934,-1.818 8.926,-2.15 3.801,-0.33 -0.33,4.96 0.993,1.818 -0.167,12.892 -0.826,11.406 z m 1.82,-0.165 4.627,0.992 3.636,2.15 1.487,2.148 1.984,-1.653 0.825,-2.811 3.472,-1.982 5.29,-4.628 -4.465,-6.778 -2.314,-3.306 -3.14,-3.634 -3.802,-6.942 -4.298,-9.423 h -2.314 l -0.33,18.677 0.166,6.776 z"
         id="path119"
         inkscape:connector-curvature="0" />
      <path
         d="m 886.904,279.325 0.167,3.472 14.215,-4.463 v -1.323 z"
         id="path121"
         inkscape:connector-curvature="0"
         style="fill:#a05a2c" />
    </g>
    <g
       id="g127"
       style="fill:none">
      <path
         d="m 846.526,359.353 0.64,3.21 2.14,3.852 4.064,3.528 -3.423,-2.46 2.567,3.424 -4.384,-2.78 4.277,2.78 -4.493,-6.42 z m -5.241,14.224 -1.604,1.711 -2.782,-0.427 0.107,3.53 3.85,5.67 -3.85,-5.347 0.108,-3.635 2.675,0.21 z m -4.599,9.842 -0.856,-2.461 v -2.78 z"
         id="path125"
         inkscape:connector-curvature="0" />
    </g>
    <g
       id="g143"
       style="fill:#666666">
      <path
         d="m 887.275,369.728 -1.283,1.282 -2.138,0.536 c 0,0 -2.139,-0.214 -2.567,-0.536 -0.427,-0.32 -2.782,-1.71 -2.782,-1.71 l 2.782,1.496 h 4.919 z m 3.423,5.028 0.534,3.102 2.138,3.74 1.39,1.82 z"
         id="path129"
         inkscape:connector-curvature="0" />
      <path
         d="m 898.078,383.525 -2.034,-0.638 -1.818,-1.715 -2.567,-4.596 2.674,3.422 z"
         id="path131"
         inkscape:connector-curvature="0"
         style="fill:#808080" />
      <path
         d="m 880.217,371.011 0.322,9.091 0.855,3.53 1.28,2.567 1.714,2.675 0.427,-1.069 1.818,1.283 0.537,-0.537 -1.82,-1.816 -1.819,-2.462 -1.071,-2.566 -1.175,-4.385 -0.427,-4.705 h 1.495 l -0.427,-0.856 z"
         id="path133"
         inkscape:connector-curvature="0"
         style="stroke-width:0.13699999" />
      <path
         d="m 920.644,385.344 3.422,-0.32 3.21,-2.675 0.534,-1.82 1.497,-1.071 -0.214,3.103 0.748,1.606 2.031,0.642 1.283,1.175 2.248,0.214 3.207,-2.03 2.354,-2.461 2.032,-1.82 1.497,-0.641 0.535,-2.994 h 0.962 l 0.214,-1.392 -0.427,-2.672 -0.963,-2.568 -1.282,-1.71 -2.14,-1.926 -0.961,0.429 2.352,2.245 1.925,2.46 0.106,3.85 -0.534,1.497 -2.888,3.317 -3.743,4.063 -1.818,0.856 -3.85,-0.533 -1.391,-1.82 -0.32,-1.282 -0.43,-1.283 v -1.497 l 0.536,-1.07 -3.956,4.49 -1.605,0.106 z"
         id="path135"
         inkscape:connector-curvature="0"
         style="fill:#808080;stroke-width:0.13699999" />
      <path
         d="m 972.088,357.323 0.856,-0.749 0.962,1.392 0.216,3.849 0.106,0.108 v 2.566 l -1.496,2.782 -3.21,3.422 -3.742,1.602 -3.424,0.428 -2.353,-0.532 -0.856,-1.392 -0.534,-1.39 v -3.207 l 0.642,-1.284 0.214,0.64 -0.107,3.531 1.175,1.39 2.46,0.747 2.245,-0.746 2.675,-0.75 2.245,-1.283 0.108,-0.749 -0.856,-0.107 0.214,-0.32 h 1.283 l 1.604,-3.21 0.534,-2.675 v -2.138 l -0.64,-0.641 -0.322,-0.534 v -0.75 z"
         id="path137"
         inkscape:connector-curvature="0"
         style="fill:#808080;stroke-width:0.228" />
      <path
         d="m 887.381,406.842 -5.348,2.567 -4.92,1.496 -2.674,-0.427 5.24,1.925 2.033,-1.603 3.208,-1.606 z"
         id="path139"
         inkscape:connector-curvature="0" />
      <path
         d="m 891.553,417.643 2.887,0.856 1.39,0.536 2.995,0.427 -2.246,1.389 2.886,0.64 c 0,0 -2.778,0.323 -3.207,0.323 -0.429,0 -1.926,0.961 -1.926,0.961 0,0 -0.32,1.715 0.642,1.606 0.965,-0.108 2.352,-0.323 2.887,-0.323 0.535,0 2.247,0.323 2.247,0.323 l 1.07,0.856 -0.642,0.964 -4.493,0.106 0.644,0.536 h 3.636 l -3.528,2.352 4.275,-0.109 3.423,1.392 v 0.856 l -3.315,0.75 -0.749,-1.287 -4.278,1.178 -0.855,1.07 -1.605,-1.07 1.283,-2.78 -0.107,-2.888 -0.642,-2.248 -1.496,-3.313 z"
         id="path141"
         inkscape:connector-curvature="0"
         style="fill:#999999;stroke-width:0.183" />
    </g>
    <g
       id="g167"
       style="fill:#e2d67e">
      <path
         d="m 868.889,274.852 -3.445,0.416 -2.436,0.298 -1.605,0.952 -1.306,-0.774 -0.773,0.475 -2.911,-1.545 -3.388,1.844 -1.604,1.424 h -1.008 l -0.774,-1.01 -1.545,1.072 -0.891,-0.892 -0.95,-0.534 -6.417,4.634 -2.317,-0.773 -1.01,0.892 -0.418,0.356 -0.236,1.01 -0.952,-2.498 -0.83,0.594 -1.426,-0.475 -1.01,1.427 -0.238,3.743 0.594,4.693 1.546,5.17 1.425,2.138 1.188,0.237 0.357,-1.485 0.654,2.792 0.95,0.95 0.298,5.05 3.862,8.675 0.356,4.456 0.178,7.723 -1.426,1.725 -1.84,2.793 0.058,0.829 -1.9,3.625 0.117,5.526 0.418,0.475 0.12,5.288 1.484,0.118 1.188,1.307 2.615,-0.236 v -1.605 l 0.356,1.841 2.079,2.735 1.783,1.424 1.246,0.06 0.654,-0.95 -0.06,-5.941 0.416,6.535 1.307,-0.06 1.665,-1.484 2.199,-0.298 0.713,0.06 c 0,0 0.594,0.356 0.891,0.89 0.297,0.534 1.367,1.012 1.367,1.012 l 0.773,1.604 0.95,0.357 0.475,-1.012 -0.652,-12.655 -0.654,-10.337 -0.713,-13.129 -0.714,-16.757 -0.119,-5.346 -0.832,-0.713 0.06,-1.723 2.021,-0.594 1.187,-0.356 -0.535,-1.603 -0.593,-5.348 v -2.02 l 0.714,-0.593 1.426,-0.059 1.01,1.188 1.96,8.138 1.011,0.357 3.564,-0.06 8.081,12.775 2.851,4.278 3.922,7.307 5.11,7.308 1.605,2.138 1.07,0.121 0.356,-7.784 2.26,-1.96 -1.903,-13.428 -1.544,-0.296 -2.139,-1.96 -1.188,0.177 -1.188,1.96 -1.484,-1.663 -0.18,-1.902 -1.367,-0.889 h -1.008 l -1.309,-1.782 -0.712,-0.18 -0.831,0.773 -0.179,-6.059 -1.307,-2.851 -0.237,-1.723 -2.436,-3.447 -2.554,-0.594 c 0,0 -1.128,-2.556 -1.128,-2.912 0,-0.356 -0.478,-1.604 -0.478,-1.604 z"
         id="path145"
         inkscape:connector-curvature="0"
         style="fill:#e4cb5e;stroke-width:0.228" />
      <path
         d="m 871.027,356.128 -1.722,-2.197 -0.594,-2.317 -0.238,-4.991 -0.534,-4.755 -0.951,-7.366 -1.545,-9.09 -1.246,-7.367 -0.477,-4.337 -1.009,-5.11 -0.416,-3.506 -0.417,-2.911 -0.356,-4.158 1.188,3.743 1.962,8.733 2.196,6.06 0.891,4.1 v 2.317 l 1.546,3.325 1.01,4.22 2.079,8.911 2.198,7.31 1.128,5.286 0.178,2.02 -2.317,0.774 -1.128,0.533 z"
         id="path147"
         inkscape:connector-curvature="0"
         style="fill:#dcc56a" />
      <path
         d="m 882.613,354.348 1.25,-6.001 1.485,-4.575 0.653,-3.09 0.475,-2.494 -0.12,-3.743 -1.01,-2.199 -4.633,-9.327 -2.793,-5.644 -1.13,-2.912 -2.078,-3.625 -2.792,-5.823 -2.496,-4.335 -2.079,-3.566 -1.96,-2.616 -0.593,0.537 1.78,6.654 1.485,5.702 1.427,6.298 2.376,8.258 1.367,5.705 1.366,3.505 1.307,4.931 3.624,11.765 0.714,3.089 1.783,3.566 z"
         id="path149"
         inkscape:connector-curvature="0"
         style="fill:#e2cc75" />
      <path
         d="m 863.999,357.562 -1.873,1.87 0.17,0.682 h 2.212 l 0.683,-1.532 z m -2.214,-2.554 0.34,2.042 1.532,-0.17 0.85,-1.53 -0.17,-1.192 -1.53,0.341 z m 3.743,-0.85 0.511,1.36 h 2.893 v -1.02 l -1.19,-0.51 z m -0.338,-2.551 0.168,1.53 h 2.044 l 1.02,-1.363 -1.19,-1.02 z m -4.086,0.509 -0.34,1.022 1.022,0.51 2.214,-0.51 v -0.852 z m 0,-2.552 v 1.192 l 2.213,0.17 0.681,-1.021 -0.852,-0.68 z m 4.424,-1.02 -0.337,1.02 2.04,0.511 1.02,-0.85 -1.529,-1.023 z m -4.252,-2.723 -0.34,1.531 1.36,0.17 1.192,-0.85 0.17,-1.19 -1.362,-0.172 z m 3.743,-0.681 v 1.53 l 2.213,0.509 v -2.212 l -1.021,-0.338 z m -2.043,-2.553 h -2.041 l -0.173,2.38 2.383,-1.02 z m 1.701,-0.681 -0.85,1.702 h 2.382 l 1.022,-2.21 -1.362,-0.342 z m -0.51,-2.892 0.173,1.362 2.213,-0.34 -0.854,-1.701 z m -2.212,0.512 -1.53,-0.34 0.172,1.872 2.211,-0.34 z m -1.53,-3.064 -0.17,1.703 h 2.722 l -0.51,-1.703 z m 3.233,-0.851 v 2.042 h 2.552 l -0.512,-2.042 z m -1.362,-1.531 -1.7,2.04 -0.682,-1.7 1.19,-2.043 z m 1.531,-1.532 -0.34,1.703 h 2.21 v -1.703 l -0.848,-0.51 z m -2.723,-2.04 h -1.19 l -0.17,1.362 h 2.04 z"
         id="path151"
         inkscape:connector-curvature="0"
         style="fill:#ddd690" />
      <path
         d="m 863.488,329.996 -0.34,1.531 h 1.702 v -1.531 z m -0.512,-3.063 -0.34,1.53 h 2.381 l 0.173,-1.36 z m -2.721,0.681 -0.34,2.212 2.04,-0.849 v -1.191 z m -0.171,-3.062 -0.68,1.36 1.02,0.512 0.853,-1.192 -0.341,-1.02 z m 2.81,-1.147 -0.538,1.128 0.882,1.52 1.227,-0.295 0.051,-1.717 -1.376,-0.688 z m -2.894,-1.721 -0.444,1.228 0.884,0.784 c 0,0 0.735,-0.292 0.735,-0.54 0,-0.244 0.246,-1.03 0.246,-1.03 l -0.98,-0.59 z m 2.356,-0.637 -0.295,1.375 0.687,0.442 1.227,0.098 c 0,0 0.049,-0.933 0.049,-1.277 0,-0.342 -0.884,-0.735 -0.884,-0.735 z m -2.602,-1.866 -0.1,1.374 1.032,0.246 c 0,0 0.54,-0.538 0.54,-0.734 0,-0.196 -0.492,-1.08 -0.492,-1.08 z m 2.307,-0.393 -0.197,1.13 c 0,0 0.394,0.538 0.885,0.538 0.49,0 0.686,-0.49 0.686,-0.685 0,-0.198 -0.197,-1.032 -0.197,-1.032 z m -2.406,-1.521 -0.342,1.13 0.98,0.44 0.737,-0.98 -0.786,-0.538 z m 2.307,-0.687 -0.146,1.03 c 0,0 0.685,0.49 0.932,0.343 0.246,-0.147 0.539,-0.784 0.539,-0.784 l -0.885,-0.589 z m -2.994,-2.209 -0.245,1.276 c 0,0 0.735,0.687 0.931,0.59 0.198,-0.1 1.228,-0.394 1.228,-0.394 l -0.54,-1.275 c 0,0 -0.637,-0.148 -0.833,-0.148 -0.197,0 -0.59,0 -0.541,-0.049 z m 2.553,-0.638 -0.293,1.226 1.667,0.296 c 0,0 0.246,-1.376 -0.096,-1.376 -0.347,10e-4 -1.18,-0.097 -1.278,-0.146 z m -2.405,-1.668 -0.294,0.737 0.833,0.637 0.687,-0.391 -0.442,-0.934 z m 2.502,-0.491 -0.636,0.983 1.03,0.439 0.882,-0.685 z m -2.453,-2.159 -0.442,0.737 0.491,0.783 0.786,-0.638 z m 1.767,-0.491 -0.392,0.54 0.589,0.784 0.98,-0.54 0.099,-0.44 -0.442,-0.54 z m -2.013,-1.522 -0.442,1.03 0.98,0.54 0.543,-0.686 -0.345,-0.786 z m 1.865,-0.982 -0.54,0.689 0.737,0.735 0.931,-0.54 -0.636,-0.786 z m -1.865,-0.737 h -0.392 v 0.834 l 1.128,-0.098 -0.197,-0.834 z m 1.522,-0.981 -0.05,0.932 1.03,-0.147 -0.049,-0.833 z m -1.767,-0.735 -0.342,0.49 0.587,0.786 0.59,-0.542 c 0,0 0.196,-0.734 0,-0.734 z m 0.098,-1.62 -0.44,0.392 0.538,0.54 0.687,-0.343 z m 0.147,-1.226 -0.54,0.784 h 0.934 z m 1.227,0.44 0.098,0.786 h 0.786 z m 0.049,1.277 c 0,0 -0.194,1.03 0,1.03 0.197,0 0.737,-0.148 0.737,-0.148 z"
         id="path153"
         inkscape:connector-curvature="0" />
      <path
         d="m 886.307,326.544 -1.078,1.472 0.098,1.523 1.424,1.325 1.325,-1.866 z"
         id="path155"
         inkscape:connector-curvature="0"
         style="fill:#d3c55f" />
      <path
         d="m 888.222,324.432 -1.325,1.916 1.276,2.013 1.325,-0.833 c 0,0 0.196,-1.672 -0.05,-1.967 -0.246,-0.293 -1.275,-1.178 -1.226,-1.129 z"
         id="path157"
         inkscape:connector-curvature="0"
         style="fill:#d3c75f" />
      <path
         d="m 885.767,321.733 c 0,0 -0.588,0.883 -0.588,1.081 0,0.196 0.344,1.618 0.344,1.618 l 0.834,1.081 c 0,0 0.93,-0.295 1.029,-0.59 0.098,-0.292 0.443,-1.424 0.443,-1.424 l -1.128,-1.473 z"
         id="path159"
         inkscape:connector-curvature="0" />
      <path
         d="m 883.706,323.844 -0.246,0.49 c 0,0 -0.145,1.18 0.148,1.375 0.294,0.197 1.177,1.13 1.177,1.13 0,0 0.783,-0.49 0.783,-0.737 0,-0.247 -0.588,-1.768 -0.588,-1.768 l -0.685,-0.686 z"
         id="path161"
         inkscape:connector-curvature="0"
         style="fill:#d3c95f" />
      <path
         d="m 881.693,320.458 -0.391,0.931 0.49,1.277 0.933,0.932 c 0,0 1.03,-0.194 1.03,-0.393 v -1.374 l -0.64,-1.079 -1.079,-0.49 z m 2.209,-0.884 -0.245,0.736 c 0,0 0.099,1.032 0.294,1.128 l 0.982,0.492 0.685,-1.13 -0.685,-1.423 z m -1.078,-2.354 -0.492,1.079 0.295,0.783 0.688,0.345 c 0,0 0.783,-0.393 0.783,-0.59 v -1.029 l -0.882,-0.541 z m -2.259,0.784 -0.637,0.834 0.246,1.032 1.079,0.343 0.735,-0.884 -0.59,-1.177 z m -0.837,-2.21 -0.538,0.49 v 0.64 l 0.834,0.639 0.784,-0.394 -0.196,-0.884 -0.39,-0.59 z m 2.162,-0.637 -0.344,0.785 0.49,1.03 0.788,-0.441 -0.15,-0.884 z m -1.473,-2.109 -0.194,1.766 1.225,-0.196 0.295,-0.932 -0.44,-0.688 z m -1.277,0.391 c -0.196,0.048 -0.882,0.098 -0.882,0.098 l 0.197,1.766 0.783,-0.096 0.296,-0.639 -0.099,-0.785 z m -1.471,-1.767 -0.588,0.737 0.588,0.98 0.54,-0.098 0.342,-0.735 z m 1.912,-0.493 -0.49,0.541 0.394,0.59 0.49,0.049 0.49,-0.59 -0.44,-0.538 z m -3.139,-1.273 -0.344,0.931 0.933,0.246 0.244,-0.589 -0.293,-0.541 z m 1.62,-0.491 -0.097,1.079 1.03,-0.099 -0.099,-0.882 z m -2.798,-1.227 0.05,0.931 h 1.029 c 0,0 0.344,-1.079 -0.099,-1.03 -0.441,0.05 -0.882,0.146 -0.98,0.099 z m 1.964,-0.443 v 0.932 l 1.079,-0.147 -0.245,-0.833 z m -1.425,-0.981 h -1.079 l 0.148,0.932 0.98,-0.098 z m 0.688,-0.639 -0.148,0.884 1.13,-0.049 v -0.835 z m -1.079,-1.423 -0.05,1.03 c 0,0 1.227,0.196 1.227,0 0,-0.196 -0.246,-0.882 -0.246,-0.882 z m -0.688,0.098 h -0.982 l 0.1,1.128 h 1.177 l 0.147,-0.784 z m -2.306,-3.337 -0.492,0.49 1.523,2.406 h 0.931 l -0.882,-1.227 c 0,0 0.146,-0.588 -0.098,-0.685 -0.244,-0.098 -0.44,-0.098 -0.44,-0.098 z"
         id="path163"
         inkscape:connector-curvature="0" />
      <path
         d="m 872.612,300.53 -0.342,0.442 1.817,1.226 v 1.03 l 0.834,0.786 0.685,0.194 -0.244,-0.833 -0.343,-0.931 -0.689,-0.541 -0.488,-0.882 c 0,0 -0.246,-0.05 -0.443,-0.099 -0.194,-0.049 -0.391,-0.344 -0.391,-0.344 z"
         id="path165"
         inkscape:connector-curvature="0" />
    </g>
    <g
       id="g173"
       style="fill:none">
      <path
         d="m 851.578,283.375 -0.173,7.996 0.511,2.552 v 4.426 l 0.17,6.806 v 4.594 l -3.914,-4.767 4.084,5.106 0.68,4.933 1.023,1.874 -0.68,2.552 0.17,4.253 v 12.08 l -3.915,-9.528 0.341,19.738 0.341,-11.399 1.362,-2.044 2.212,5.618 0.34,2.552 -0.512,-9.53"
         id="path169"
         inkscape:connector-curvature="0"
         style="fill:#000000" />
      <path
         d="m 835.582,282.694 -0.68,5.106 1.362,3.571 0.171,4.936 -0.171,-5.445 -1.362,-2.722 z m 4.935,3.063 v 6.466 l 1.19,1.53 -0.338,6.807 1.02,2.041 v 11.23 m 5.103,-35.73 -1.36,2.551 0.51,4.595 0.34,3.233 -0.51,5.102 m 31.99,-3.062 -0.173,7.828 0.851,4.252 0.682,4.594 m 5.954,-5.273 1.531,17.016 m -45.26,8.338 0.34,9.869 0.681,4.255 0.17,4.592"
         id="path171"
         inkscape:connector-curvature="0" />
    </g>
    <g
       id="g177"
       style="fill:#d38d5f">
      <path
         d="m 893.264,345.481 v -1.703 l 7.487,-1.703 -1.192,0.852 0.17,5.105 m 13.953,-6.806 v -2.213 l 7.487,-1.36 -1.703,0.34 0.34,5.274 m -22.288,14.464 v -1.703 l 6.296,-1.189 -0.171,6.295 m 8.848,-5.784 v -2.724 l 6.805,-1.19 0.341,5.953 m -29.265,-24.33 v 4.254 l -1.531,0.34 v -2.042 z m 3.574,-0.682 0.17,4.255 h -1.192 l -0.34,-3.744 z m 2.719,-0.849 -1.19,0.68 v 3.402 l 1.704,-0.34 z m 3.235,-1.191 -1.192,1.021 v 3.063 l 1.871,-0.17 z m 3.743,-0.852 -1.703,0.68 v 3.404 l 1.875,-0.34 z m 3.574,-1.021 -1.531,0.172 v 4.254 l 1.873,-0.341 z m 4.593,-0.85 -1.7,0.68 0.17,2.891 1.7,-0.509 z m 4.254,-1.19 -1.7,0.85 v 2.893 h 1.53 z m 3.404,-1.022 -1.362,0.68 v 3.233 h 1.703 z m 3.742,-0.339 -1.362,0.85 v 2.55 h 1.874 z m 4.085,-1.363 -1.532,0.682 0.171,2.55 1.531,-0.339 z m 4.423,-1.021 -1.702,0.85 v 2.724 l 2.044,-0.17 z"
         id="path175"
         inkscape:connector-curvature="0" />
    </g>
    <g
       id="g189"
       style="stroke-width:0.91299999">
      <path
         d="m 891.564,368.79 26.371,-5.954"
         id="path179"
         inkscape:connector-curvature="0"
         style="fill:#fffcfc" />
      <path
         d="m 885.096,352.285 2.725,0.34 44.919,-10.209"
         id="path181"
         inkscape:connector-curvature="0"
         style="fill:#c87137" />
      <path
         d="m 887.65,340.717 6.976,-1.024 38.794,-10.208"
         id="path183"
         inkscape:connector-curvature="0"
         style="fill:#c87137;stroke-width:0.86699998" />
      <path
         d="m 935.122,327.955 6.635,-1.192"
         id="path185"
         inkscape:connector-curvature="0"
         style="fill:none;stroke-width:1.18700004" />
      <path
         d="m 935.122,341.906 14.633,-3.912"
         id="path187"
         inkscape:connector-curvature="0"
         style="fill:#fffcfc;stroke-width:1.324" />
    </g>
  </g>
  <path
     d="M 746.23379,70.729572 V 395.73789 c 3.8467,46.53465 100.82681,75.8296 168.44271,125.25248 88.687,-59.48429 174.7036,-71.51646 178.162,-138.20724 l 1.079,-312.053558 H 746.24019 Z"
     id="path193"
     inkscape:connector-curvature="0"
     style="fill:none;stroke:#000000;stroke-width:10.52783012" />
</svg>
