<?xml version="1.0" encoding="UTF-8" standalone="no"?>
<svg
   xmlns:dc="http://purl.org/dc/elements/1.1/"
   xmlns:cc="http://creativecommons.org/ns#"
   xmlns:rdf="http://www.w3.org/1999/02/22-rdf-syntax-ns#"
   xmlns:svg="http://www.w3.org/2000/svg"
   xmlns="http://www.w3.org/2000/svg"
   xmlns:xlink="http://www.w3.org/1999/xlink"
   xmlns:sodipodi="http://sodipodi.sourceforge.net/DTD/sodipodi-0.dtd"
   xmlns:inkscape="http://www.inkscape.org/namespaces/inkscape"
   width="1000"
   height="700"
   viewBox="0 0 950 570"
   version="1.1"
   id="svg63"
   sodipodi:docname="vu.svg"
   inkscape:version="0.92.3 (2405546, 2018-03-11)">
  <metadata
     id="metadata69">
    <rdf:RDF>
      <cc:Work
         rdf:about="">
        <dc:format>image/svg+xml</dc:format>
        <dc:type
           rdf:resource="http://purl.org/dc/dcmitype/StillImage" />
      </cc:Work>
    </rdf:RDF>
  </metadata>
  <defs
     id="defs67" />
  <sodipodi:namedview
     pagecolor="#ffffff"
     bordercolor="#666666"
     borderopacity="1"
     objecttolerance="10"
     gridtolerance="10"
     guidetolerance="10"
     inkscape:pageopacity="0"
     inkscape:pageshadow="2"
     inkscape:window-width="2560"
     inkscape:window-height="1376"
     id="namedview65"
     showgrid="false"
     inkscape:zoom="0.953584"
     inkscape:cx="519.93337"
     inkscape:cy="251.45009"
     inkscape:window-x="0"
     inkscape:window-y="0"
     inkscape:window-maximized="1"
     inkscape:current-layer="svg63" />
  <rect
     width="950"
     height="334.31393"
     id="rect40"
     x="0"
     y="-47.819595"
     style="fill:#d21034;stroke-width:1.08306575" />
  <rect
     y="286.49438"
     width="950"
     height="334.31393"
     id="rect42"
     x="0"
     style="fill:#009543;stroke-width:1.08306575" />
  <path
     d="M 0,-47.819594 552.8133,286.49436 0,620.80832 Z"
     id="path44"
     inkscape:connector-curvature="0"
     style="fill:#000000;stroke-width:1.08306575" />
  <rect
     y="226.66977"
     width="950"
     height="119.64921"
     id="rect46"
     x="0"
     style="fill:#000000;stroke-width:1.08306575" />
  <path
     d="M 0,-0.30947528 474.251,286.49377 0,573.29703 Z"
     id="path48"
     inkscape:connector-curvature="0"
     style="fill:#fdce12;stroke-width:1.08306575" />
  <rect
     y="268.8989"
     width="950"
     height="35.190941"
     id="rect50"
     x="0"
     style="fill:#fdce12;stroke-width:1.08306575" />
  <path
     d="M 0,39.283538 408.78173,286.49436 0,533.70487 Z"
     id="path52"
     inkscape:connector-curvature="0"
     style="fill:#000000;stroke-width:1.08306575" />
  <path
     d="M 115.481,339.524 C 115.481,339.524 115.481,360.119 115.481,372 C 143.734,372 199.181,350.35 199.181,280.644 C 199.181,210.938 140.037,198 122.346,198 C 104.656,198 50,210.674 50,267.706 C 50,324.738 103.6,330.019 114.161,330.019 C 124.722,330.019 164.328,320.513 159.84,277.739 C 159.84,289.885 146.11,315.497 117.329,315.497 C 88.549,315.497 70.595,294.109 70.595,272.987 C 70.595,251.863 88.021,223.611 118.385,223.611 C 148.749,223.611 170.928,250.542 170.928,277.739 C 170.928,304.935 149.542,339.524 115.481,339.524 z"
     fill="#fdce12"
     id="path54" />
  <g
     id="frond"
     fill="#fdce12">
    <path
       d="M 90.728,297.245 L 92.411,298.334 C 92.411,298.334 105.778,267.838 141.72,246.154 C 137.165,248.629 113.105,260.61 90.728,297.245 z"
       id="path56"
       stroke="#fdce12" />
    <path
       d="M 94.193,291.997 C 94.193,291.997 90.035,283.482 93.698,279.72 C 97.362,275.957 95.679,289.72 95.679,289.72 L 97.263,287.443 C 97.263,287.443 94.787,277.046 97.56,274.868 C 100.332,272.69 98.946,284.868 98.946,284.868 L 100.629,282.69 C 100.629,282.69 98.847,272.591 101.52,270.709 C 104.194,268.828 102.511,280.215 102.511,280.215 L 104.491,277.937 C 104.491,277.937 103.006,268.333 106.273,266.056 C 109.541,263.778 106.669,275.165 106.669,275.165 L 108.847,272.789 C 108.847,272.789 107.857,263.976 110.63,261.996 C 113.402,260.016 111.026,270.313 111.026,270.313 L 113.006,268.234 C 113.006,268.234 112.412,260.016 115.085,258.135 C 117.759,256.253 115.283,265.957 115.283,265.957 L 117.363,263.976 C 117.363,263.976 116.868,255.758 120.234,254.174 C 123.6,252.59 119.64,261.897 119.64,261.897 L 121.917,259.917 C 121.917,259.917 122.61,250.313 125.482,249.421 C 128.353,248.53 124.195,257.937 124.195,257.937 L 126.274,256.253 C 126.274,256.253 127.363,248.035 130.531,247.045 C 133.7,246.055 128.551,254.57 128.551,254.57 L 130.63,252.986 C 130.63,252.986 132.908,244.768 135.878,243.877 C 138.849,242.986 132.809,251.6 132.809,251.6 L 134.789,250.214 C 134.789,250.214 138.056,242.787 140.73,242.292 C 143.403,241.797 137.759,248.431 137.759,248.431 L 140.235,246.946 C 140.235,246.946 144.492,239.223 145.978,241.599 C 147.463,243.976 140.037,247.441 140.037,247.441 L 137.561,248.827 C 137.561,248.827 146.572,244.57 147.661,246.748 C 148.75,248.926 135.284,250.313 135.284,250.313 L 133.106,251.798 C 133.106,251.798 142.116,249.322 141.027,251.6 C 139.938,253.877 131.027,253.382 131.027,253.382 L 128.947,254.867 C 128.947,254.867 137.957,252.689 136.769,254.768 C 135.581,256.847 126.769,256.649 126.769,256.649 L 124.591,258.432 C 124.591,258.432 133.403,256.154 132.116,258.828 C 130.828,261.501 120.828,261.402 120.828,261.402 L 118.353,263.679 C 118.353,263.679 127.66,260.511 126.868,262.986 C 126.076,265.462 115.481,266.749 115.481,266.749 L 113.105,269.125 C 113.105,269.125 123.105,265.759 120.135,268.828 C 117.165,271.898 109.937,272.69 109.937,272.69 L 107.065,276.155 C 107.065,276.155 116.967,270.214 115.58,273.581 C 114.194,276.947 104.491,279.225 104.491,279.225 L 102.511,281.601 C 102.511,281.601 111.422,276.452 110.531,279.324 C 109.64,282.195 100.134,285.264 100.134,285.264 L 98.55,287.443 C 98.55,287.443 109.045,281.205 108.154,284.373 C 107.263,287.542 97.263,289.819 97.263,289.819 L 95.976,291.799 C 95.976,291.799 105.679,286.255 105.778,288.928 C 105.877,291.601 94.391,294.275 94.391,294.275 L 94.193,291.997 z"
       id="path58" />
  </g>
  <use
     xlink:href="#frond"
     transform="translate(238.5) scale(-1,1)"
     id="use61" />
</svg>
