<?xml version="1.0" encoding="UTF-8" standalone="no"?>
<svg
   xmlns:dc="http://purl.org/dc/elements/1.1/"
   xmlns:cc="http://creativecommons.org/ns#"
   xmlns:rdf="http://www.w3.org/1999/02/22-rdf-syntax-ns#"
   xmlns:svg="http://www.w3.org/2000/svg"
   xmlns="http://www.w3.org/2000/svg"
   xmlns:xlink="http://www.w3.org/1999/xlink"
   xmlns:sodipodi="http://sodipodi.sourceforge.net/DTD/sodipodi-0.dtd"
   xmlns:inkscape="http://www.inkscape.org/namespaces/inkscape"
   width="1000"
   height="700"
   viewBox="0 0 4320 2880"
   version="1.1"
   id="svg112"
   sodipodi:docname="sg.svg"
   inkscape:version="0.92.3 (2405546, 2018-03-11)">
  <metadata
     id="metadata118">
    <rdf:RDF>
      <cc:Work
         rdf:about="">
        <dc:format>image/svg+xml</dc:format>
        <dc:type
           rdf:resource="http://purl.org/dc/dcmitype/StillImage" />
      </cc:Work>
    </rdf:RDF>
  </metadata>
  <defs
     id="defs116" />
  <sodipodi:namedview
     pagecolor="#ffffff"
     bordercolor="#666666"
     borderopacity="1"
     objecttolerance="10"
     gridtolerance="10"
     guidetolerance="10"
     inkscape:pageopacity="0"
     inkscape:pageshadow="2"
     inkscape:window-width="2560"
     inkscape:window-height="1376"
     id="namedview114"
     showgrid="false"
     inkscape:zoom="1.3485714"
     inkscape:cx="790.28666"
     inkscape:cy="330.6785"
     inkscape:window-x="0"
     inkscape:window-y="0"
     inkscape:window-maximized="1"
     inkscape:current-layer="svg112" />
  <rect
     width="4320"
     height="1513.678"
     id="rect95"
     x="0"
     y="-73.677963"
     style="fill:#ed2939;stroke-width:1.02526355" />
  <rect
     y="1440"
     width="4320"
     height="1513.678"
     id="rect97"
     x="0"
     style="fill:#ffffff;stroke-width:1.02526355" />
  <path
     fill="#fff"
     d="M 1481.678,720 A 541.5,541.5 0 1 1 398.67798,720 A 541.5,541.5 0 1 1 1481.678,720 z"
     id="path99" />
  <path
     fill="#ed2939"
     d="M 1651.835,720 A 511.73499,511.73499 0 1 1 628.36499,720 A 511.73499,511.73499 0 1 1 1651.835,720 z"
     id="path101" />
  <path
     fill="#fff"
     id="star"
     d="M 1007.1951,733.06439 L 933.63466,676.63425 L 860.09279,733.09117 L 888.40587,642.09687 L 814.61147,586.0053 L 905.6704,586.1981 L 933.6049,495.07467 L 961.56934,586.18798 L 1052.6282,585.96246 L 978.8522,642.0808 L 1007.1951,733.06439 z" />
  <use
     xlink:href="#star"
     transform="translate(577.18853,0)"
     id="use104" />
  <use
     xlink:href="#star"
     transform="translate(288.88853,-214.21117)"
     id="use106" />
  <use
     xlink:href="#star"
     transform="translate(107.99953,342.74883)"
     id="use108" />
  <use
     xlink:href="#star"
     transform="translate(469.18853,342.74883)"
     id="use110" />
</svg>
