<?xml version="1.0" encoding="UTF-8" standalone="no"?>
<svg
   xmlns:dc="http://purl.org/dc/elements/1.1/"
   xmlns:cc="http://creativecommons.org/ns#"
   xmlns:rdf="http://www.w3.org/1999/02/22-rdf-syntax-ns#"
   xmlns:svg="http://www.w3.org/2000/svg"
   xmlns="http://www.w3.org/2000/svg"
   xmlns:xlink="http://www.w3.org/1999/xlink"
   xmlns:sodipodi="http://sodipodi.sourceforge.net/DTD/sodipodi-0.dtd"
   xmlns:inkscape="http://www.inkscape.org/namespaces/inkscape"
   width="1000"
   height="700"
   viewBox="0 0 250 150"
   version="1.1"
   id="svg109"
   sodipodi:docname="kg.svg"
   inkscape:version="0.92.3 (2405546, 2018-03-11)">
  <metadata
     id="metadata115">
    <rdf:RDF>
      <cc:Work
         rdf:about="">
        <dc:format>image/svg+xml</dc:format>
        <dc:type
           rdf:resource="http://purl.org/dc/dcmitype/StillImage" />
      </cc:Work>
    </rdf:RDF>
  </metadata>
  <defs
     id="defs113" />
  <sodipodi:namedview
     pagecolor="#ffffff"
     bordercolor="#666666"
     borderopacity="1"
     objecttolerance="10"
     gridtolerance="10"
     guidetolerance="10"
     inkscape:pageopacity="0"
     inkscape:pageshadow="2"
     inkscape:window-width="2560"
     inkscape:window-height="1376"
     id="namedview111"
     showgrid="false"
     inkscape:zoom="1.3485714"
     inkscape:cx="529.5164"
     inkscape:cy="275.00016"
     inkscape:window-x="0"
     inkscape:window-y="0"
     inkscape:window-maximized="1"
     inkscape:current-layer="svg109" />
  <clipPath
     id="c">
    <circle
       r="25"
       id="circle70" />
  </clipPath>
  <rect
     width="250"
     height="175.76801"
     id="rect73"
     x="0"
     y="-13.162077"
     style="fill:#e8112d;stroke-width:1.08249092" />
  <g
     transform="translate(125,75)"
     id="g107">
    <g
       id="r20"
       transform="scale(0.25)">
      <g
         id="r4">
        <path
           id="r1"
           d="m-8.4,108c8.4,22 -9.6,56 8.4,72c-6,-24 14-50 8.4,-72s-25.2,-22 -16.8,0z"
           fill="#ffef00" />
        <use
           xlink:href="#r1"
           transform="rotate(90)"
           id="use76" />
        <use
           xlink:href="#r1"
           transform="rotate(180)"
           id="use78" />
        <use
           xlink:href="#r1"
           transform="rotate(270)"
           id="use80" />
      </g>
      <use
         xlink:href="#r4"
         transform="rotate(18)"
         id="use83" />
      <use
         xlink:href="#r4"
         transform="rotate(36)"
         id="use85" />
      <use
         xlink:href="#r4"
         transform="rotate(54)"
         id="use87" />
      <use
         xlink:href="#r4"
         transform="rotate(72)"
         id="use89" />
    </g>
    <use
       xlink:href="#r20"
       transform="rotate(9)"
       id="use92" />
    <circle
       r="27"
       fill="#e8112d"
       id="circle94" />
    <circle
       cy="-1.5"
       r="22.5"
       fill="#ffef00"
       id="circle96" />
    <g
       id="x"
       fill="#e8112d"
       clip-path="url(#c)">
      <path
         d="M-23.055236,18a37.755236,37.755236 0 1,1 75.510472,0H52.760449a36.260449,36.260449 0 1,0 -72.520898,0z"
         id="path98" />
      <path
         d="M-17.601203,18a35.301203,35.301203 0 1,1 70.602406,0H53.424578a33.924578,33.924578 0 1,0 -67.849156,0z"
         id="path100" />
      <path
         d="M20.7,-15.052356a33.052356,33.052356 0 1,0 0,66.104712L22.5,49.819805a31.819805,31.819805 0 1,1 0,-63.63961z"
         id="path102" />
    </g>
    <use
       xlink:href="#x"
       transform="scale(-1,1)"
       id="use105" />
  </g>
</svg>
