<?xml version="1.0" encoding="UTF-8" standalone="no"?>
<svg
   xmlns:dc="http://purl.org/dc/elements/1.1/"
   xmlns:cc="http://creativecommons.org/ns#"
   xmlns:rdf="http://www.w3.org/1999/02/22-rdf-syntax-ns#"
   xmlns:svg="http://www.w3.org/2000/svg"
   xmlns="http://www.w3.org/2000/svg"
   xmlns:xlink="http://www.w3.org/1999/xlink"
   xmlns:sodipodi="http://sodipodi.sourceforge.net/DTD/sodipodi-0.dtd"
   xmlns:inkscape="http://www.inkscape.org/namespaces/inkscape"
   width="1000"
   height="700"
   viewBox="0 0 600 300"
   version="1.1"
   id="svg279"
   sodipodi:docname="io.svg"
   inkscape:version="0.92.3 (2405546, 2018-03-11)">
  <metadata
     id="metadata283">
    <rdf:RDF>
      <cc:Work
         rdf:about="">
        <dc:format>image/svg+xml</dc:format>
        <dc:type
           rdf:resource="http://purl.org/dc/dcmitype/StillImage" />
      </cc:Work>
    </rdf:RDF>
  </metadata>
  <sodipodi:namedview
     pagecolor="#ffffff"
     bordercolor="#666666"
     borderopacity="1"
     objecttolerance="10"
     gridtolerance="10"
     guidetolerance="10"
     inkscape:pageopacity="0"
     inkscape:pageshadow="2"
     inkscape:window-width="2560"
     inkscape:window-height="1376"
     id="namedview281"
     showgrid="false"
     inkscape:zoom="0.67428571"
     inkscape:cx="1027.593"
     inkscape:cy="161.4907"
     inkscape:window-x="0"
     inkscape:window-y="0"
     inkscape:window-maximized="1"
     inkscape:current-layer="svg279" />
  <defs
     id="defs8">
    <clipPath
       id="cp">
      <path
         d="M0 0V75H350V150H300zM300 0H150V200H0V150z"
         id="path2" />
    </clipPath>
    <clipPath
       id="cp2">
      <rect
         width="300"
         height="150"
         id="rect5" />
    </clipPath>
  </defs>
  <rect
     width="600"
     height="434.36441"
     id="rect10"
     x="0"
     y="-60.000027"
     style="fill:#ffffff;stroke-width:1.20327938" />
  <path
     id="wave"
     d="m 600,200.881 c -6.723,4.045 -12.499,13.498 -30.36,13.498 -35.711,0 -44.641,-19.902 -71.427,-19.902 -17.856,0 -26.785,19.902 -44.641,19.902 -35.715,0 -44.643,-19.902 -71.429,-19.902 -17.857,0 -26.786,19.902 -44.643,19.902 -35.714,0 -44.643,-19.902 -71.428,-19.902 -17.858,0 -26.786,19.902 -44.643,19.902 -35.714,0 -44.643,-19.902 -71.429,-19.902 -17.858,0 -26.786,19.902 -44.643,19.902 -35.714,0 -44.643,-19.902 -71.428,-19.902 -17.858,0 -23.215,14.182 -33.929,14.182 v 25.621 c 10.714,0 16.071,-14.181 33.929,-14.181 26.785,0 35.714,19.901 71.428,19.901 17.857,0 26.785,-19.901 44.643,-19.901 26.785,0 35.715,19.901 71.429,19.901 17.857,0 26.785,-19.901 44.643,-19.901 26.785,0 35.714,19.901 71.428,19.901 17.857,0 26.786,-19.901 44.643,-19.901 26.786,0 35.714,19.901 71.429,19.901 17.856,0 26.785,-19.901 44.641,-19.901 26.786,0 35.716,19.901 71.427,19.901 17.861,0 23.637,-5.64 30.36,-9.684 z"
     inkscape:connector-curvature="0"
     style="fill:#002b7f" />
  <use
     transform="translate(0,-49.75348)"
     xlink:href="#wave"
     id="use13"
     x="0"
     y="0"
     width="100%"
     height="100%" />
  <use
     transform="translate(0,-99.50701)"
     xlink:href="#wave"
     id="use15"
     x="0"
     y="0"
     width="100%"
     height="100%" />
  <use
     transform="translate(0,-149.26056)"
     xlink:href="#wave"
     id="use17"
     x="0"
     y="0"
     width="100%"
     height="100%" />
  <use
     transform="translate(0,-199.01404)"
     xlink:href="#wave"
     id="use19"
     x="0"
     y="0"
     width="100%"
     height="100%" />
  <use
     transform="translate(0,-248.76752)"
     xlink:href="#wave"
     id="use21"
     x="0"
     y="0"
     width="100%"
     height="100%" />
  <rect
     width="300"
     height="152"
     id="rect23"
     x="0"
     y="-60.000027"
     style="fill:#ffffff" />
  <g
     clip-path="url(#cp2)"
     id="g35"
     transform="translate(0,-60)">
    <rect
       width="300"
       height="150"
       id="rect25"
       x="0"
       y="0"
       style="fill:#00247d" />
    <path
       d="M 0,0 300,150 M 300,0 0,150"
       id="path27"
       inkscape:connector-curvature="0"
       style="stroke:#ffffff;stroke-width:30" />
    <path
       d="M 0,0 300,150 M 300,0 0,150"
       clip-path="url(#cp)"
       id="path29"
       inkscape:connector-curvature="0"
       style="stroke:#cf142b;stroke-width:20" />
    <path
       d="M 150,0 V 200 M 0,75 h 350"
       id="path31"
       inkscape:connector-curvature="0"
       style="stroke:#ffffff;stroke-width:50" />
    <path
       d="M 150,0 V 200 M 0,75 h 350"
       id="path33"
       inkscape:connector-curvature="0"
       style="stroke:#cf142b;stroke-width:30" />
  </g>
  <path
     style="fill:#002b7f"
     inkscape:connector-curvature="0"
     d="m 600,200.881 c -6.723,4.045 -12.499,13.498 -30.36,13.498 -35.711,0 -44.641,-19.902 -71.427,-19.902 -17.856,0 -26.785,19.902 -44.641,19.902 -35.715,0 -44.643,-19.902 -71.429,-19.902 -17.857,0 -26.786,19.902 -44.643,19.902 -35.714,0 -44.643,-19.902 -71.428,-19.902 -17.858,0 -26.786,19.902 -44.643,19.902 -35.714,0 -44.643,-19.902 -71.429,-19.902 -17.858,0 -26.786,19.902 -44.643,19.902 -35.714,0 -44.643,-19.902 -71.428,-19.902 -17.858,0 -23.215,14.182 -33.929,14.182 v 25.621 c 10.714,0 16.071,-14.181 33.929,-14.181 26.785,0 35.714,19.901 71.428,19.901 17.857,0 26.785,-19.901 44.643,-19.901 26.785,0 35.715,19.901 71.429,19.901 17.857,0 26.785,-19.901 44.643,-19.901 26.785,0 35.714,19.901 71.428,19.901 17.857,0 26.786,-19.901 44.643,-19.901 26.786,0 35.714,19.901 71.429,19.901 17.856,0 26.785,-19.901 44.641,-19.901 26.786,0 35.716,19.901 71.427,19.901 17.861,0 23.637,-5.64 30.36,-9.684 z"
     id="path152" />
  <use
     height="100%"
     width="100%"
     y="0"
     x="0"
     id="use154"
     xlink:href="#wave"
     transform="translate(0,-49.75348)" />
  <use
     height="100%"
     width="100%"
     y="0"
     x="0"
     id="use156"
     xlink:href="#wave"
     transform="translate(0,-99.50701)" />
  <path
     id="path160"
     d="m 600,352.081 c -6.723,4.045 -12.499,13.498 -30.36,13.498 -35.711,0 -44.641,-19.902 -71.427,-19.902 -17.856,0 -26.785,19.902 -44.641,19.902 -35.715,0 -44.643,-19.902 -71.429,-19.902 -17.857,0 -26.786,19.902 -44.643,19.902 -35.714,0 -44.643,-19.902 -71.428,-19.902 -17.858,0 -26.786,19.902 -44.643,19.902 -35.714,0 -44.643,-19.902 -71.429,-19.902 -17.858,0 -26.786,19.902 -44.643,19.902 -35.714,0 -44.643,-19.902 -71.428,-19.902 -17.858,0 -23.215,14.182 -33.929,14.182 v 25.621 c 10.714,0 16.071,-14.181 33.929,-14.181 26.785,0 35.714,19.901 71.428,19.901 17.857,0 26.785,-19.901 44.643,-19.901 26.785,0 35.715,19.901 71.429,19.901 17.857,0 26.785,-19.901 44.643,-19.901 26.785,0 35.714,19.901 71.428,19.901 17.857,0 26.786,-19.901 44.643,-19.901 26.786,0 35.714,19.901 71.429,19.901 17.856,0 26.785,-19.901 44.641,-19.901 26.786,0 35.716,19.901 71.427,19.901 17.861,0 23.637,-5.64 30.36,-9.684 z"
     inkscape:connector-curvature="0"
     style="fill:#002b7f" />
  <use
     transform="translate(0,101.44652)"
     xlink:href="#wave"
     id="use162"
     x="0"
     y="0"
     width="100%"
     height="100%" />
  <use
     transform="translate(0,51.69299)"
     xlink:href="#wave"
     id="use164"
     x="0"
     y="0"
     width="100%"
     height="100%" />
  <g
     id="g277"
     transform="translate(10.861217,-24.53065)">
    <g
       transform="matrix(0.604762,0,0,0.604762,0,-1.160721e-4)"
       id="g107">
      <path
         d="M 814.961,-301.181 797.244,407.48 c 0,37.298 80.097,37.298 88.583,0 L 868.11,-301.181 Z"
         transform="matrix(0.200004,0,0,0.475,575.1662,274.5648)"
         style="fill:#a24300;stroke:#ffffff;stroke-width:6.93499994"
         id="path37"
         inkscape:connector-curvature="0" />
      <g
         transform="matrix(0.725195,0,0,0.6231,202.0636,41.43416)"
         id="g105">
        <g
           transform="matrix(-0.314512,0.10485,-0.138292,-0.303235,1046.472,373.319)"
           id="g56">
          <g
             id="t3"
             style="fill:none;stroke:#000000;stroke-width:1">
            <path
               d="m 496.063,549.213 17.717,70.866 35.433,-53.15 -17.717,88.583 35.433,-35.433 -35.433,88.582 35.433,-35.433 -35.433,88.583 35.433,-35.433 -35.433,106.299 35.433,-35.433 -35.433,106.299 35.433,-35.433 -35.433,106.299 -17.716,53.151 -17.717,17.72 -17.717,-17.72 -17.716,-53.151 -35.433,-106.299 35.433,35.433 -35.433,-106.299 35.433,35.433 -35.433,-106.299 35.433,35.433 -35.433,-88.583 35.433,35.433 -35.433,-88.582 35.433,35.433 -17.717,-88.583 35.433,53.15 z"
               transform="translate(177.1655,-224.0517)"
               style="fill:#006d00;stroke:#ffffff;stroke-width:8.25"
               id="path39"
               inkscape:connector-curvature="0" />
            <path
               d="M 496.063,549.213 V 1045.28"
               transform="translate(177.1655,-224.0517)"
               id="path41"
               inkscape:connector-curvature="0" />
            <path
               d="M 425.197,868.11 496.063,974.409 566.929,868.11"
               transform="translate(177.1655,-224.0517)"
               id="path43"
               inkscape:connector-curvature="0" />
            <path
               d="m 425.197,797.244 70.866,106.299 70.866,-106.299"
               transform="translate(177.1655,-224.0517)"
               id="path45"
               inkscape:connector-curvature="0" />
            <path
               d="m 425.197,726.378 70.866,106.299 70.866,-106.299"
               transform="translate(177.1655,-224.0517)"
               id="path47"
               inkscape:connector-curvature="0" />
            <path
               d="m 425.197,673.228 70.866,88.583 70.866,-88.583"
               transform="translate(177.1655,-224.0517)"
               id="path49"
               inkscape:connector-curvature="0" />
            <path
               d="m 425.197,620.079 70.866,88.582 70.866,-88.582"
               transform="translate(177.1655,-224.0517)"
               id="path51"
               inkscape:connector-curvature="0" />
            <path
               d="m 442.913,566.929 53.15,106.299 53.15,-106.299"
               transform="translate(177.1655,-224.0517)"
               id="path53"
               inkscape:connector-curvature="0" />
          </g>
        </g>
        <use
           xlink:href="#t3"
           transform="matrix(0.236516,-0.281856,0.294964,0.227618,354.5673,204.654)"
           id="use58"
           x="0"
           y="0"
           width="100%"
           height="100%" />
        <use
           xlink:href="#t3"
           transform="matrix(0.15164,0.335243,-0.332899,0.167308,907.5388,-153.4696)"
           id="use60"
           x="0"
           y="0"
           width="100%"
           height="100%" />
        <use
           xlink:href="#t3"
           transform="matrix(-0.209517,0.302465,-0.314697,-0.199448,1141.363,167.5798)"
           id="use62"
           x="0"
           y="0"
           width="100%"
           height="100%" />
        <use
           xlink:href="#t3"
           transform="matrix(-0.207724,-0.258384,0.236176,-0.235153,689.9856,567.2772)"
           id="use64"
           x="0"
           y="0"
           width="100%"
           height="100%" />
        <g
           transform="matrix(-0.362184,-0.09947167,-0.209809,0.317733,1222.415,-24.22945)"
           id="g83">
          <g
             id="t2"
             style="fill:none;stroke:#000000;stroke-width:1">
            <path
               d="m 460.63,549.213 28.643,70.866 42.223,-53.15 -10.184,88.583 27.9,-35.433 -17.716,88.582 25.249,-35.433 -25.249,88.583 35.433,-35.433 -35.433,106.299 35.433,-35.433 -35.433,106.299 35.433,-35.433 -35.433,106.299 -17.716,53.151 -17.717,17.72 -17.717,-17.72 -17.716,-53.151 -35.433,-106.299 35.433,35.433 -35.433,-106.299 35.433,35.433 -35.433,-106.299 35.433,35.433 -45.617,-88.583 45.617,35.433 -53.15,-88.582 42.966,35.433 -25.25,-88.583 35.433,53.15 z"
               transform="translate(283.4647,-124.0162)"
               style="fill:#006d00;stroke:#ffffff;stroke-width:8.25"
               id="path66"
               inkscape:connector-curvature="0" />
            <path
               d="m 467.208,584.646 28.855,124.016 v 336.618"
               transform="translate(283.4647,-124.0162)"
               id="path68"
               inkscape:connector-curvature="0" />
            <path
               d="m 436.23,885.827 59.833,88.582 60.682,-88.582"
               transform="translate(283.4647,-124.0162)"
               id="path70"
               inkscape:connector-curvature="0" />
            <path
               d="m 434.533,814.961 61.53,88.582 60.682,-88.582"
               transform="translate(283.4647,-124.0162)"
               id="path72"
               inkscape:connector-curvature="0" />
            <path
               d="m 435.381,744.095 60.682,88.582 59.833,-88.582"
               transform="translate(283.4647,-124.0162)"
               id="path74"
               inkscape:connector-curvature="0" />
            <path
               d="m 432.835,690.945 63.228,70.866 53.149,-70.866"
               transform="translate(283.4647,-124.0162)"
               id="path76"
               inkscape:connector-curvature="0" />
            <path
               d="m 425.197,637.796 70.866,70.865 45.406,-70.865"
               transform="translate(283.4647,-124.0162)"
               id="path78"
               inkscape:connector-curvature="0" />
            <path
               d="m 436.124,593.238 53.15,86.886 35.327,-95.478"
               transform="translate(283.4647,-124.0162)"
               id="path80"
               inkscape:connector-curvature="0" />
          </g>
        </g>
        <use
           xlink:href="#t2"
           transform="matrix(0.360878,0.10411,0.01321056,0.380525,452.7614,-239.2657)"
           id="use85"
           x="0"
           y="0"
           width="100%"
           height="100%" />
        <g
           transform="matrix(0.04613187,-0.364743,0.326017,0.06479648,379.5799,479.5432)"
           style="fill:none;stroke:#000000;stroke-width:1"
           id="g103">
          <path
             d="m 354.331,531.496 88.583,88.583 17.716,-53.149 v 88.582 l 35.433,-35.433 -17.716,88.583 35.432,-35.434 -17.716,88.584 35.433,-35.433 -17.716,106.299 35.433,-35.433 -35.433,106.299 35.433,-35.433 -17.717,106.298 -17.716,53.151 -17.717,17.72 -17.717,-17.72 -17.716,-53.151 -53.15,-82.294 35.434,11.429 -35.433,-106.299 35.433,35.433 -53.15,-106.299 35.433,35.433 -53.15,-88.584 53.15,35.434 -70.866,-88.583 53.149,35.433 -70.866,-70.866 70.866,35.433 z"
             transform="translate(442.9136,-42.96583)"
             style="fill:#006d00;stroke:#ffffff;stroke-width:8.25"
             id="path87"
             inkscape:connector-curvature="0" />
          <path
             d="m 378.962,560.015 63.952,95.497 17.716,53.15 8.859,45.205 8.858,78.811 9.315,70.866 8.401,141.736"
             transform="translate(442.9136,-42.96583)"
             id="path89"
             inkscape:connector-curvature="0" />
          <path
             d="m 425.197,903.544 63.665,70.866 50.749,-88.583"
             transform="translate(442.9136,-42.96583)"
             id="path91"
             inkscape:connector-curvature="0" />
          <path
             d="m 417.082,814.961 70.579,88.583 50.75,-88.583"
             transform="translate(442.9136,-42.96583)"
             id="path93"
             inkscape:connector-curvature="0" />
          <path
             d="m 407.48,752.443 70.867,80.235 45.948,-88.583"
             transform="translate(442.9136,-42.96583)"
             id="path95"
             inkscape:connector-curvature="0" />
          <path
             d="m 372.047,637.796 88.583,70.866 25.831,-70.866"
             transform="translate(442.9136,-42.96583)"
             id="path97"
             inkscape:connector-curvature="0" />
          <path
             d="m 360.618,602.363 82.296,53.149 10.515,-53.149"
             transform="translate(442.9136,-42.96583)"
             id="path99"
             inkscape:connector-curvature="0" />
          <path
             d="m 389.764,690.945 81.095,70.866 33.946,-70.866"
             transform="translate(442.9136,-42.96583)"
             id="path101"
             inkscape:connector-curvature="0" />
        </g>
      </g>
    </g>
    <g
       transform="matrix(0.253333,0,0,0.253333,412,157.1807)"
       id="g275">
      <path
         d="m 52.504,257.674 98.536,-17.68 102.642,17.68 -47.626,19.801 -87.861,1.415 z"
         style="fill:#9d9d9d;stroke:#000000;stroke-width:1.00800002"
         id="path109"
         inkscape:connector-curvature="0" />
      <path
         d="m 151.789,98.445 c -17.223,5.987 -36.302,-8.425 -67.359,15.094 0,0 -54.144,-23.163 -58.257,30.371 -0.165,2.167 8.57,15.223 9.786,14.29 6.804,-5.224 -3.23,5.072 -3.23,6.56 0,1.5 0.998,2.333 1.335,2.994 0.331,0.667 1.163,1.665 1.329,4.494 0.165,2.828 -6.137,10.544 -3.474,13.372 2.657,2.829 2.822,10.984 2.822,13.311 0,2.326 1.666,8.816 2.829,10.151 1.163,1.328 3.159,4.653 3.159,7.481 0,2.829 1.163,10.647 0.661,12.637 -0.496,1.996 2.994,4.494 6.16,5.492 3.159,0.998 43.935,1.706 101.162,0.708 57.233,-0.998 76.328,8.057 99.974,-0.543 3.655,-1.328 4.322,-4.322 3.992,-5.988 -0.337,-1.659 0,-6.979 0.998,-8.314 0.998,-1.328 7.653,-11.975 6.318,-13.971 1.256,-1.134 10.589,5.39 4.645,-0.436 -1.524,-1.493 0.853,-17.216 1.673,-20.528 0.827,-3.318 2.096,-9.549 3.621,-10.706 1.532,-1.157 -2.598,-5.488 -2.305,-6.27 0.298,-0.788 1.411,-3.229 2.962,-4.341 0,0 2.885,-13.527 1.106,-20.176 -1.767,-6.655 -8.27,-36.583 -48.862,-30.588 0,0 -54.34,-20.9 -71.045,-15.094 z"
         style="fill:#cc0000;stroke:#000000;stroke-width:1.62899995"
         id="path111"
         inkscape:connector-curvature="0" />
      <g
         transform="translate(0,-2.600445e-4)"
         id="g245">
        <g
           transform="matrix(1.085779,0,0,1.085779,6.91471,26.11235)"
           id="g214">
          <g
             transform="matrix(0.496967,-0.04459677,0.08946727,0.726775,44.70009,100.5425)"
             id="g118"
             style="stroke-width:1.24100006">
            <g
               id="t4">
              <path
                 d="m 49.75,0.125 c -5.093,0.89 -15.156,29.245 -12.609,38.75 1.763,6.58 4.498,11.12 6.047,13.906 -3.405,-4.685 -11.383,-13.75 -22.25,-13.75 -13.664,0 -15.431,29.948 -15.094,31.875 10e-4,0.007 -0.002,0.026 0,0.032 10e-4,0.004 0.029,0.027 0.031,0.031 0.002,-10e-4 0.029,0.001 0.031,0 0.613,-0.715 6.142,-13.094 19.657,-13.094 8.896,0 15.829,7.035 18.375,10.031 -0.001,0.945 0.022,1.858 0.031,2.782 C 41.965,73.516 40.687,80.219 34.5,88.656 27.023,98.852 4.128,99.897 0.281,100 c 0.971,0 37.525,0 49.532,0 0.047,0 0.109,0.003 0.156,0 0.022,0.002 0.04,-0.001 0.062,0 0.047,0.003 0.109,0 0.157,0 12.006,0 48.56,0 49.531,0 -3.847,-0.103 -27.18,-1.148 -34.656,-11.344 -6.188,-8.437 -7.028,-15.14 -9.032,-17.968 0.009,-0.924 0.032,-1.837 0.032,-2.782 2.545,-2.996 9.478,-10.031 18.375,-10.031 13.514,0 19.043,12.379 19.656,13.094 0.002,0.001 0.029,-10e-4 0.031,0 0.002,-0.004 0.03,-0.027 0.031,-0.031 0.002,-0.006 -0.001,-0.025 0,-0.032 0.337,-1.927 -1.43,-31.875 -15.093,-31.875 -10.868,0 -18.846,9.065 -22.25,13.75 1.548,-2.786 4.29,-8.575 5.718,-13.906 C 65.118,29.219 55.091,0.132 50,0.125 c -0.08,0 -0.169,-0.014 -0.25,0 z m -6.437,52.844 c 0.352,0.49 0.662,0.912 0.906,1.281 0.005,0.008 0.541,2.977 0.547,2.984 -0.003,0.064 2.627,10.186 2.624,10.25 -0.264,-0.392 -3.737,-13.915 -4.077,-14.515 z m 13.375,0 c -0.341,0.6 -4.033,14.123 -4.297,14.515 -0.003,-0.064 3.393,-13.139 3.39,-13.203 0,-0.01 -0.437,2.964 -0.437,2.953 0.244,-0.369 0.991,-3.775 1.344,-4.265 z"
                 style="fill:#f7d917;stroke:#000000;stroke-width:1.24100006"
                 id="path113"
                 inkscape:connector-curvature="0" />
              <path
                 d="m 42,67.578 c 0,0 4,-1.859 8,-1.859 4,0 8,1.859 8,1.859 v 4.953 c 0,0 -4,-1.859 -8,-1.859 -4,0 -8,1.859 -8,1.859 z"
                 style="fill:#f7d917;stroke:#000000;stroke-width:1.24100006"
                 id="path115"
                 inkscape:connector-curvature="0" />
            </g>
          </g>
          <use
             xlink:href="#t4"
             transform="matrix(0.495379,0.05970303,-0.06359282,0.729495,168.9189,96.59048)"
             id="use120"
             x="0"
             y="0"
             width="100%"
             height="100%" />
          <g
             style="fill:#f7d917;stroke:#000000;stroke-width:0.71499997"
             id="g128">
            <path
               d="m 24.308,134.56 9.69,-11.814 c 0,0 0.903,1.168 0,0 C 14.132,97.065 13.127,82.331 15.363,74.87 c 2.236,-7.461 6.709,-15.544 18.635,-25.493 11.926,-9.948 20.156,-4.419 31.336,-4.419 11.181,0 14.163,2.487 23.852,3.731 9.69,1.243 35.778,2.487 35.778,2.487 v -6.84 c 0,0 1.029,0.192 0,0 -11.518,-2.147 -26.088,0 -35.778,-2.487 -9.689,-2.487 -17.889,-3.108 -28.324,-3.108 -10.435,0 -17.92,-3.043 -24.628,1.31 C 29.525,44.403 21.326,51.864 15.363,58.082 9.4,64.3 6.419,76.735 7.164,84.818 c 0.746,8.083 3.727,14.923 8.199,21.14 4.473,6.218 3.727,11.192 5.218,15.544 1.491,4.353 3.727,13.679 3.727,13.058 z"
               id="path122"
               inkscape:connector-curvature="0" />
            <path
               d="m 239.255,134.56 -9.69,-11.814 c 0,0 -0.904,1.168 0,0 19.865,-25.681 20.87,-40.415 18.634,-47.876 -2.236,-7.461 -6.708,-15.544 -18.634,-25.493 -11.926,-9.948 -20.156,-4.419 -31.337,-4.419 -11.181,0 -14.162,2.487 -23.852,3.731 -9.69,1.243 -35.778,2.487 -35.778,2.487 v -6.84 c 0,0 -1.029,0.192 0,0 11.519,-2.147 26.088,0 35.778,-2.487 9.69,-2.487 17.889,-3.108 28.324,-3.108 10.436,0 17.92,-3.043 24.629,1.31 6.708,4.352 14.907,11.813 20.87,18.031 5.963,6.218 8.945,18.653 8.199,26.736 -0.745,8.083 -3.727,14.923 -8.199,21.14 -4.472,6.218 -3.727,11.192 -5.217,15.544 -1.491,4.353 -3.727,13.679 -3.727,13.058 z"
               id="path124"
               inkscape:connector-curvature="0" />
            <rect
               width="34.563"
               height="70.893997"
               x="115.553"
               y="38.701"
               style="stroke-width:0.83499998"
               id="rect126" />
          </g>
          <g
             transform="translate(0,-8)"
             style="fill:#f7d917;stroke:#000000;stroke-width:0.5"
             id="g136">
            <path
               d="m 119.684,-15.799 c 0,0 3.72,3.028 6.575,6.922 2.856,3.893 4.846,8.652 4.846,8.652 0,0 -4.759,-1.99 -8.652,-4.846 -3.894,-2.855 -6.922,-6.575 -6.922,-6.575 v 26.302 c 0,0 3.028,-3.72 6.922,-6.575 3.893,-2.856 8.652,-4.846 8.652,-4.846 0,0 -1.534,3.927 -2.524,8.653 -0.891,4.25 -8.183,14.064 -8.183,14.064 l 21.303,1.429 c 0,0 -3.542,-11.243 -4.969,-15.493 -1.536,-4.578 -2.167,-8.653 -2.167,-8.653 0,0 4.759,1.99 8.653,4.846 3.893,2.855 6.921,6.575 6.921,6.575 v -26.302 c 0,0 -3.028,3.72 -6.921,6.575 -3.894,2.856 -8.653,4.846 -8.653,4.846 0,0 1.99,-4.759 4.846,-8.652 2.855,-3.894 6.575,-6.922 6.575,-6.922 z"
               id="path130"
               inkscape:connector-curvature="0" />
            <path
               d="m 150,23.076 a 17.143,17.143 0 1 1 -34.286,0 17.143,17.143 0 1 1 34.286,0 z"
               transform="translate(-0.02209282,8)"
               id="path132"
               inkscape:connector-curvature="0" />
            <path
               d="m 116.074,33.535 h 34.102 c 0,0 0.494,-6.596 -1.974,-9.064 -2.379,0 -10.594,0 -10.594,0 l -0.179,-9.888 h -3.945 -6.097 l -0.179,9.888 c 0,0 -7.127,0.357 -10.41,0.357 -1.489,4.041 -1.26,4.381 -1.26,4.381 z"
               id="path134"
               inkscape:connector-curvature="0" />
          </g>
          <g
             style="fill:#f7d917;stroke:#000000;stroke-width:0.75"
             id="g146">
            <path
               d="m 110.877,107.221 c 0,0 6.212,5.056 10.979,11.557 4.767,6.501 8.09,14.446 8.09,14.446 0,0 -7.946,-3.323 -14.446,-8.09 -6.501,-4.767 -11.557,-10.979 -11.557,-10.979 v 43.916 c 0,0 5.056,-6.211 11.557,-10.979 6.5,-4.767 14.446,-8.09 14.446,-8.09 0,0 -3.323,7.946 -8.09,14.447 -4.767,6.5 -10.979,11.557 -10.979,11.557 h 43.916 c 0,0 -6.212,-5.057 -10.979,-11.557 -4.767,-6.501 -8.09,-14.447 -8.09,-14.447 0,0 7.946,3.323 14.446,8.09 6.501,4.768 11.557,10.979 11.557,10.979 v -43.916 c 0,0 -5.056,6.212 -11.557,10.979 -6.5,4.767 -14.446,8.09 -14.446,8.09 0,0 3.323,-7.945 8.09,-14.446 4.767,-6.501 10.979,-11.557 10.979,-11.557 z"
               id="path138"
               inkscape:connector-curvature="0" />
            <path
               d="m 27.24,181.78 21.625,-3.813 c 0,0 -6.995,-3.901 -12.819,-9.475 C 30.222,162.918 25.57,155.67 25.57,155.67 c 0,0 8.402,1.892 15.632,5.458 7.23,3.566 13.288,8.806 13.288,8.806 l -7.626,-43.249 c 0,0 -3.901,6.995 -9.475,12.819 -5.574,5.824 -12.822,10.475 -12.822,10.475 0,0 1.892,-8.401 5.458,-15.631 3.566,-7.23 8.806,-13.288 8.806,-13.288 l -21.625,3.813 z"
               id="path140"
               inkscape:connector-curvature="0" />
            <path
               d="m 226.839,121.06 c 0,0 5.24,6.058 8.806,13.288 3.566,7.23 5.458,15.631 5.458,15.631 0,0 -7.248,-4.651 -12.822,-10.475 -5.574,-5.824 -9.475,-12.819 -9.475,-12.819 l -7.626,43.249 c 0,0 6.058,-5.24 13.288,-8.806 7.23,-3.566 15.632,-5.458 15.632,-5.458 0,0 -4.652,7.248 -10.476,12.822 -5.823,5.574 -12.819,9.475 -12.819,9.475 l 21.625,3.813 10.034,-56.907 z"
               id="path142"
               inkscape:connector-curvature="0" />
            <path
               d="m 27.464,179.533 0.15,31.506 c 0,0 52.648,-17.928 105.296,-17.928 52.648,0 105.296,17.928 105.296,17.928 v -31.506 c 0,0 -52.685,-17.929 -105.371,-17.929 -52.686,0 -105.371,17.929 -105.371,17.929 z"
               id="path144"
               inkscape:connector-curvature="0" />
          </g>
          <g
             store-width="1.5"
             id="g203"
             style="fill:#ffffff;stroke:#000000">
            <g
               transform="matrix(0.661234,0,0,0.661234,21.24618,-360.3206)"
               id="g149">
              <path
                 id="c3"
                 d="m 2.02,723.052 a 12.122,12.122 0 1 1 -24.243,0 12.122,12.122 0 1 1 24.243,0 z"
                 inkscape:connector-curvature="0" />
            </g>
            <use
               xlink:href="#c3"
               transform="matrix(0.661234,0,0,0.661234,10.96519,-378.6019)"
               id="use151"
               x="0"
               y="0"
               width="100%"
               height="100%" />
            <use
               xlink:href="#c3"
               transform="matrix(0.661234,0,0,0.661234,8.822333,-400.0304)"
               id="use153"
               x="0"
               y="0"
               width="100%"
               height="100%" />
            <use
               xlink:href="#c3"
               transform="matrix(0.661234,0,0,0.661234,15.25091,-420.0304)"
               id="use155"
               x="0"
               y="0"
               width="100%"
               height="100%" />
            <use
               xlink:href="#c3"
               transform="matrix(0.661234,0,0,0.661234,28.82233,-436.459)"
               id="use157"
               x="0"
               y="0"
               width="100%"
               height="100%" />
            <use
               xlink:href="#c3"
               transform="matrix(0.661234,0,0,0.661234,47.39376,-447.8875)"
               id="use159"
               x="0"
               y="0"
               width="100%"
               height="100%" />
            <use
               xlink:href="#c3"
               transform="matrix(0.661234,0,0,0.661234,68.10805,-446.459)"
               id="use161"
               x="0"
               y="0"
               width="100%"
               height="100%" />
            <use
               xlink:href="#c3"
               transform="matrix(0.661234,0,0,0.661234,88.82233,-443.0304)"
               id="use163"
               x="0"
               y="0"
               width="100%"
               height="100%" />
            <use
               xlink:href="#c3"
               transform="matrix(0.661234,0,0,0.661234,109.5366,-440.8875)"
               id="use165"
               x="0"
               y="0"
               width="100%"
               height="100%" />
            <use
               xlink:href="#c3"
               transform="matrix(-0.661234,0,0,0.661234,242.3163,-360.3206)"
               id="use167"
               x="0"
               y="0"
               width="100%"
               height="100%" />
            <use
               xlink:href="#c3"
               transform="matrix(-0.661234,0,0,0.661234,252.5973,-378.6019)"
               id="use169"
               x="0"
               y="0"
               width="100%"
               height="100%" />
            <use
               xlink:href="#c3"
               transform="matrix(-0.661234,0,0,0.661234,254.7402,-400.0304)"
               id="use171"
               x="0"
               y="0"
               width="100%"
               height="100%" />
            <use
               xlink:href="#c3"
               transform="matrix(-0.661234,0,0,0.661234,248.3116,-420.0304)"
               id="use173"
               x="0"
               y="0"
               width="100%"
               height="100%" />
            <use
               xlink:href="#c3"
               transform="matrix(-0.661234,0,0,0.661234,234.7402,-436.459)"
               id="use175"
               x="0"
               y="0"
               width="100%"
               height="100%" />
            <use
               xlink:href="#c3"
               transform="matrix(-0.661234,0,0,0.661234,216.1687,-447.8875)"
               id="use177"
               x="0"
               y="0"
               width="100%"
               height="100%" />
            <use
               xlink:href="#c3"
               transform="matrix(-0.661234,0,0,0.661234,195.4544,-446.459)"
               id="use179"
               x="0"
               y="0"
               width="100%"
               height="100%" />
            <use
               xlink:href="#c3"
               transform="matrix(-0.661234,0,0,0.661234,174.7402,-443.0304)"
               id="use181"
               x="0"
               y="0"
               width="100%"
               height="100%" />
            <use
               xlink:href="#c3"
               transform="matrix(-0.661234,0,0,0.661234,154.0259,-440.8875)"
               id="use183"
               x="0"
               y="0"
               width="100%"
               height="100%" />
            <g
               transform="translate(1.040326)"
               id="g201">
              <use
                 xlink:href="#c3"
                 transform="matrix(0.661234,0,0,0.661234,138.4742,-378.3206)"
                 id="use185"
                 x="0"
                 y="0"
                 width="100%"
                 height="100%" />
              <use
                 xlink:href="#c3"
                 transform="matrix(0.661234,0,0,0.661234,138.4742,-392.6019)"
                 id="use187"
                 x="0"
                 y="0"
                 width="100%"
                 height="100%" />
              <use
                 xlink:href="#c3"
                 transform="matrix(0.661234,0,0,0.661234,138.4742,-404.0304)"
                 id="use189"
                 x="0"
                 y="0"
                 width="100%"
                 height="100%" />
              <use
                 xlink:href="#c3"
                 transform="matrix(0.661234,0,0,0.661234,138.4742,-414.459)"
                 id="use191"
                 x="0"
                 y="0"
                 width="100%"
                 height="100%" />
              <use
                 xlink:href="#c3"
                 transform="matrix(0.661234,0,0,0.661234,138.4742,-447.8875)"
                 id="use193"
                 x="0"
                 y="0"
                 width="100%"
                 height="100%" />
              <use
                 xlink:href="#c3"
                 transform="matrix(0.661234,0,0,0.661234,138.4742,-446.459)"
                 id="use195"
                 x="0"
                 y="0"
                 width="100%"
                 height="100%" />
              <use
                 xlink:href="#c3"
                 transform="matrix(0.661234,0,0,0.661234,138.4742,-439.0304)"
                 id="use197"
                 x="0"
                 y="0"
                 width="100%"
                 height="100%" />
              <use
                 xlink:href="#c3"
                 transform="matrix(0.661234,0,0,0.661234,138.4742,-428.8875)"
                 id="use199"
                 x="0"
                 y="0"
                 width="100%"
                 height="100%" />
            </g>
          </g>
          <g
             id="g212"
             style="fill:#ffffff;stroke:#000000">
            <g
               transform="translate(-0.457137,-2)"
               id="g206">
              <path
                 id="circle1"
                 d="m 143.571,136.291 a 10.357,10.357 0 1 1 -20.714,0 10.357,10.357 0 1 1 20.714,0 z"
                 inkscape:connector-curvature="0" />
            </g>
            <use
               xlink:href="#circle1"
               transform="translate(-108.7143,16.78571)"
               id="use208"
               x="0"
               y="0"
               width="100%"
               height="100%" />
            <use
               xlink:href="#circle1"
               transform="translate(107.2857,16.78571)"
               id="use210"
               x="0"
               y="0"
               width="100%"
               height="100%" />
          </g>
        </g>
        <rect
           width="34.762001"
           height="15.153"
           x="134.791"
           y="210.09599"
           style="fill:#002b7f;stroke:#000000;stroke-width:0.84100002"
           id="rect216" />
        <path
           d="m 16.043,233.111 a 22.995,8.556 0 1 1 -45.99,0 22.995,8.556 0 1 1 45.99,0 z"
           transform="matrix(-0.678154,-0.06882792,0.02382547,0.957698,195.4766,-0.830297)"
           style="fill:#3e8225;stroke:#000000;stroke-width:1.5"
           id="path218"
           inkscape:connector-curvature="0" />
        <path
           d="m 36.937,229.285 -8.709,8.709 10.101,5.832 23.493,-6.294 -4.187,-13.304 z"
           style="fill:#cc0000;stroke:#000000;stroke-width:1.08599997"
           id="path220"
           inkscape:connector-curvature="0" />
        <path
           d="m 267.406,229.285 8.71,8.709 -10.102,5.832 -23.493,-6.294 4.187,-13.304 z"
           style="fill:#cc0000;stroke:#000000;stroke-width:1.08599997"
           id="path222"
           inkscape:connector-curvature="0" />
        <path
           d="m 16.043,233.111 a 22.995,8.556 0 1 1 -45.99,0 22.995,8.556 0 1 1 45.99,0 z"
           transform="matrix(0.678154,-0.06882792,-0.02382547,0.957698,108.8665,-0.830297)"
           style="fill:#3e8225;stroke:#000000;stroke-width:1.5"
           id="path224"
           inkscape:connector-curvature="0" />
        <g
           store-width="0.7"
           id="g243"
           style="fill:#ffffff;stroke:#000000">
          <g
             transform="translate(1.069518,-3.475935)"
             id="g227">
            <path
               id="c2"
               d="m 126.203,214.704 a 4.278,4.278 0 1 1 -8.556,0 4.278,4.278 0 1 1 8.556,0 z"
               inkscape:connector-curvature="0" />
          </g>
          <use
             xlink:href="#c2"
             transform="translate(2.406416,10.16042)"
             id="use229"
             x="0"
             y="0"
             width="100%"
             height="100%" />
          <use
             xlink:href="#c2"
             transform="translate(-52.40642,6.149728)"
             id="use231"
             x="0"
             y="0"
             width="100%"
             height="100%" />
          <use
             xlink:href="#c2"
             transform="translate(-47.05882,18.98396)"
             id="use233"
             x="0"
             y="0"
             width="100%"
             height="100%" />
          <use
             xlink:href="#c2"
             transform="matrix(-1,0,0,1,303.0748,-3.475943)"
             id="use235"
             x="0"
             y="0"
             width="100%"
             height="100%" />
          <use
             xlink:href="#c2"
             transform="matrix(-1,0,0,1,301.7379,10.16041)"
             id="use237"
             x="0"
             y="0"
             width="100%"
             height="100%" />
          <use
             xlink:href="#c2"
             transform="matrix(-1,0,0,1,356.5507,6.14972)"
             id="use239"
             x="0"
             y="0"
             width="100%"
             height="100%" />
          <use
             xlink:href="#c2"
             transform="matrix(-1,0,0,1,351.2031,18.98395)"
             id="use241"
             x="0"
             y="0"
             width="100%"
             height="100%" />
        </g>
      </g>
      <g
         transform="translate(0,-2.600445e-4)"
         id="g273">
        <path
           d="m 238.538,280.603 c 3.267,-0.567 22.977,-5.253 27.127,-7.76 -2.678,-4.828 -7.484,-8.605 -3.744,-7.018 2.014,0.855 3.607,-5.799 -2.239,-10.885 -16.973,5.567 -57.68,15.739 -108.829,15.739 -52.344,0 -93.562,-10.707 -110.535,-16.273 -5.846,5.086 -4.025,10.864 -4.378,13.023 -0.003,0.017 0.003,2.725 1.069,4.879 5.754,6.251 24.394,9.332 27.662,9.9 15.352,2.666 30.705,6.697 86.148,6.697 51.289,0 72.366,-5.635 87.719,-8.302 z"
           style="fill:#ffffff;stroke:#000000;stroke-width:1.71399999"
           id="path247"
           inkscape:connector-curvature="0" />
        <g
           transform="matrix(1.085779,0,0,1.085779,-81.34112,-69.11104)"
           id="g271">
          <path
             d="m 132.906,289.655 c -3.009,0.523 -22.147,7.301 -25.968,9.61 0.003,0.014 -0.003,0.045 0,0.061 0.325,1.988 -3.322,11.251 2.062,15.935 15.632,-5.127 59.525,-20.406 106.634,-20.406 48.209,0 88.14,15.279 103.772,20.406 5.384,-4.684 1.737,-13.947 2.063,-15.935 0.003,-0.016 -0.004,-0.047 0,-0.061 -3.822,-2.309 -22.96,-9.087 -25.969,-9.61 -14.14,-2.455 -28.772,-11.586 -79.835,-11.586 -47.237,0 -68.619,9.131 -82.759,11.586 z"
             style="fill:#ffffff;stroke:#000000;stroke-width:1.57799995"
             id="path249"
             inkscape:connector-curvature="0" />
          <g
             transform="matrix(1.384389,-0.143242,0.15642,1.267764,-86.62648,-64.7552)"
             id="g261">
            <g
               id="t1"
               store-width="1.6"
               style="fill:#000000;stroke:#000000">
              <g
                 transform="matrix(0.4996,0,0,0.4996,56.86367,150.9007)"
                 id="g252">
                <path
                   id="a1"
                   d="m 115.508,301.56 a 1.872,1.872 0 1 1 -3.743,0 1.872,1.872 0 1 1 3.743,0 z"
                   inkscape:connector-curvature="0" />
              </g>
              <use
                 xlink:href="#a1"
                 transform="matrix(0.4996,0,0,0.4996,55.52674,153.307)"
                 id="use254"
                 x="0"
                 y="0"
                 width="100%"
                 height="100%" />
              <use
                 xlink:href="#a1"
                 transform="matrix(0.4996,0,0,0.4996,57.3984,154.9114)"
                 id="use256"
                 x="0"
                 y="0"
                 width="100%"
                 height="100%" />
              <path
                 d="m 113.518,303.669 8.526,-3.166 -4.185,2.392 2.686,-0.083 -2.492,1.168 4.001,0.275 z"
                 id="path258"
                 inkscape:connector-curvature="0"
                 style="stroke-width:1" />
            </g>
          </g>
          <use
             xlink:href="#t1"
             transform="matrix(1.384389,-0.143242,0.15642,1.267764,-45.03159,-76.65847)"
             id="use263"
             x="0"
             y="0"
             width="100%"
             height="100%" />
          <use
             xlink:href="#t1"
             transform="matrix(1.378425,0.192343,-0.151629,1.268346,100.1696,-120.8592)"
             id="use265"
             x="0"
             y="0"
             width="100%"
             height="100%" />
          <use
             xlink:href="#t1"
             transform="matrix(1.384389,0.143242,0.15642,-1.267764,54.4337,659.4577)"
             id="use267"
             x="0"
             y="0"
             width="100%"
             height="100%" />
          <use
             xlink:href="#t1"
             transform="matrix(1.384389,0.143242,0.15642,-1.267764,96.41226,670.4203)"
             id="use269"
             x="0"
             y="0"
             width="100%"
             height="100%" />
        </g>
      </g>
    </g>
  </g>
</svg>
