<?xml version="1.0" encoding="UTF-8" standalone="no"?>
<svg
   xmlns:dc="http://purl.org/dc/elements/1.1/"
   xmlns:cc="http://creativecommons.org/ns#"
   xmlns:rdf="http://www.w3.org/1999/02/22-rdf-syntax-ns#"
   xmlns:svg="http://www.w3.org/2000/svg"
   xmlns="http://www.w3.org/2000/svg"
   xmlns:sodipodi="http://sodipodi.sourceforge.net/DTD/sodipodi-0.dtd"
   xmlns:inkscape="http://www.inkscape.org/namespaces/inkscape"
   width="1000"
   height="700"
   viewBox="0 0 1000 500"
   version="1.1"
   id="svg10"
   sodipodi:docname="er.svg"
   inkscape:version="0.92.3 (2405546, 2018-03-11)">
  <metadata
     id="metadata16">
    <rdf:RDF>
      <cc:Work
         rdf:about="">
        <dc:format>image/svg+xml</dc:format>
        <dc:type
           rdf:resource="http://purl.org/dc/dcmitype/StillImage" />
      </cc:Work>
    </rdf:RDF>
  </metadata>
  <defs
     id="defs14" />
  <sodipodi:namedview
     pagecolor="#ffffff"
     bordercolor="#666666"
     borderopacity="1"
     objecttolerance="10"
     gridtolerance="10"
     guidetolerance="10"
     inkscape:pageopacity="0"
     inkscape:pageshadow="2"
     inkscape:window-width="2560"
     inkscape:window-height="1376"
     id="namedview12"
     showgrid="false"
     inkscape:zoom="0.953584"
     inkscape:cx="328.37376"
     inkscape:cy="286.63451"
     inkscape:window-x="0"
     inkscape:window-y="0"
     inkscape:window-maximized="1"
     inkscape:current-layer="svg10" />
  <rect
     width="1000"
     height="705.54041"
     id="rect2"
     x="0"
     y="-102.77018"
     style="fill:#ea0437;stroke-width:1.1878891" />
  <path
     d="M 0,602.77018 H 1000 V 250"
     id="path4"
     inkscape:connector-curvature="0"
     style="fill:#4189dd;stroke-width:1.1878891" />
  <path
     d="M 0,-102.77018 H 1000 V 250"
     id="path6"
     inkscape:connector-curvature="0"
     style="fill:#12ad2b;stroke-width:1.1878891" />
  <path
     d="m 236.14557,366.69087 c -12.78306,3.52961 -20.11172,13.44711 -19.92405,22.80403 l 62.92164,-0.25262 c 0.5654,-10.05466 -7.70642,-19.35384 -20.2994,-23.01577 61.60553,-1.27276 115.12454,-24.34868 124.84957,-39.15519 -9.62398,-4.1768 -20.7517,2.54555 -28.68428,0.99848 18.83413,-8.70488 75.26199,-45.22792 66.08792,-84.38311 -7.13138,21.7478 -28.73483,39.74224 -37.93534,44.57349 21.07892,-32.00697 49.86188,-65.33002 24.89002,-91.13435 1.26075,14.95567 -9.50369,31.41511 -14.25792,32.65177 12.22725,-33.81867 23.89393,-76.2797 -2.59848,-104.27108 3.47906,10.11721 2.07395,38.65715 -2.71639,39.93955 -1.47486,-22.99651 -5.39905,-71.366695 -29.6178,-70.678575 7.69196,6.847475 11.05794,25.537255 11.22877,44.414715 -5.51934,-12.93224 -11.79179,-22.66931 -25.20762,-32.21871 -10.85346,-20.814275 -30.16399,-38.060465 -49.47693,-50.415265 2.1678,15.15056 3.96268,27.10356 25.11619,42.81712 -11.02907,-0.68571 -22.05577,-21.59382 -33.84274,-22.17367 -9.37617,-0.45233 -16.73371,8.49558 -32.05508,3.34675 1.69621,5.0574 8.84444,7.29739 10.35298,11.03871 -3.28177,2.26645 -11.07238,-0.35368 -17.54932,-3.72688 8.90939,12.13584 22.715,19.272025 34.43462,16.863625 13.93793,-2.68028 28.88159,-1.26314 43.13472,6.84747 -3.6403,1.86946 -17.8092,1.85743 -26.90145,0.7194 8.26459,8.36805 13.80801,13.91388 28.17902,13.82245 12.83599,-0.0842 19.56557,-6.84747 22.86178,-2.65863 8.05048,9.53977 13.46877,19.07474 20.20316,30.30594 -14.87627,1.64329 -10.3915,-16.82513 -26.95919,-26.27107 -9.3088,19.26722 10.70668,42.10733 24.33185,51.60139 0.18286,14.4817 2.30014,26.59832 8.44263,37.62499 4.14072,7.77378 9.49408,15.73041 7.47544,33.27493 -8.15633,-5.94041 -16.12739,-25.97513 -13.19449,-41.87877 -10.20864,2.78375 -14.2002,20.73487 -9.3882,29.77181 3.59456,6.87875 5.99334,20.04437 1.84781,25.92943 -4.03967,5.48327 -4.46312,4.86973 -4.41019,16.63747 0.14436,7.04234 -3.78945,15.36951 -10.19662,21.17517 1.33774,-4.96117 2.86314,-13.49765 1.38104,-18.83415 -5.06461,8.59182 -17.77069,17.48197 -21.77185,26.7186 -3.929,9.25828 -4.92509,25.29425 -23.93968,28.99226 -24.46177,4.85531 -32.90442,9.09468 -48.64444,15.53553 -1.74676,-11.9554 3.48147,-36.88634 13.4784,-35.46441 9.76111,1.73714 39.35487,-10.1966 28.76849,-35.12754 -2.09081,7.858 -9.06579,15.5259 -16.60618,15.86514 8.1467,-10.56954 22.68614,-21.51442 15.60529,-39.22496 -3.93621,7.52836 -10.12684,16.56289 -19.51504,21.64675 10.06427,-19.28647 1.16932,-25.05604 -10.78128,-9.17166 -4.51365,6.12807 -7.23965,18.40827 -10.1076,34.00396 -4.69409,-12.68442 -4.38372,-29.38204 -9.94638,-42.93983 -5.81049,-14.66215 7.71122,-18.53339 14.07509,-17.35687 15.58123,4.15998 41.62133,4.15756 39.6869,-21.58419 -6.72956,8.70729 -18.53099,11.39721 -31.27554,8.26218 14.31327,-10.45164 25.61425,-30.11104 9.66489,-40.37502 -0.53173,10.88473 -8.95513,23.08795 -20.20076,28.70836 -2.63216,-9.1837 -2.63216,-18.9304 -0.37533,-29.61543 -6.27965,6.60927 -10.86548,20.36195 -14.51297,35.99612 -0.27429,-15.45372 2.649,-26.58867 4.8168,-34.90139 3.28659,-12.14306 11.45495,-4.24177 23.95892,-3.34674 12.04202,0.6833 28.62175,-5.97168 25.45304,-22.30119 -4.11184,6.46011 -12.55208,8.97438 -21.17518,8.29108 10.38188,-6.28928 28.47016,-17.46514 18.55024,-34.65599 -4.16719,6.51063 -5.51696,12.0805 -17.57822,14.07749 3.15907,-7.26612 3.68359,-17.53972 13.04533,-21.61065 -16.70003,-3.3251 -26.26147,7.63422 -31.12158,24.79859 -1.97052,-11.90006 -4.31635,-16.28137 -4.78313,-24.98627 9.0273,-10.0258 9.97287,-29.63947 -9.57104,-34.025625 -1.1597,10.117235 -0.81564,12.528045 1.4075,20.766165 -9.17407,-5.44957 -22.10389,-8.45707 -30.71254,-0.75066 5.83213,6.2941 14.85943,11.8351 28.77331,4.97079 -3.2866,10.75239 -11.83511,8.91181 -23.58118,4.81198 7.17951,13.48561 16.24049,15.88201 26.2398,14.32773 5.23545,13.80319 5.46643,24.29093 -9.83331,44.39305 0.70736,-12.49194 -0.18044,-21.79834 -10.10518,-31.89872 -8.5052,-8.32955 -15.41763,0.3561 -2.1269,18.87505 -8.0625,-5.938 -17.18844,-17.98963 -19.9361,-30.03887 -2.65861,14.8859 -0.26465,32.43044 7.97589,42.26616 -3.89771,4.16477 -8.32957,-0.44272 -14.88591,-10.63212 2.48059,32.60847 16.39206,38.90016 35.08907,31.63166 0.53172,17.89819 0.53172,34.47071 1.59517,56.091 -10.90157,-15.6823 -24.72163,-27.38026 -32.43283,-30.30354 -2.39157,8.77227 6.64777,20.20075 11.69795,26.58145 -7.70882,-1.59517 -24.45697,-14.35417 -24.45697,-14.35417 -1.6842,14.53223 17.10425,28.001 29.24251,34.02561 -14.26518,-0.62076 -20.55926,-6.02461 -29.77423,-14.88591 0.17805,40.3173 43.68328,33.31584 51.8372,27.11318 1.06346,19.84947 2.57923,42.79546 3.64269,62.64496 -12.29946,-2.14616 -11.33225,-5.84419 -21.85609,-6.81861 -29.2088,-1.13803 -52.37854,-35.06259 -60.05126,-60.01759 -2.2015,4.10703 -0.45475,8.40414 -2.46856,13.44952 -4.74222,-12.24893 -10.80052,-28.06836 -18.92557,-35.4307 2.06915,7.14099 2.2881,14.39748 1.5687,27.74354 -2.78854,-8.64714 -5.38221,-11.29855 -5.56988,-21.44946 0.17805,-7.79302 7.51874,-13.54336 7.11214,-24.50508 -0.30076,-8.00235 -7.60055,-25.34719 -8.67363,-38.77505 -3.53441,13.82006 -5.75274,28.38837 -11.16622,36.94409 2.6899,-14.75839 1.82759,-24.94297 6.37829,-34.87493 5.2571,-10.45646 9.72745,-19.79172 6.22672,-30.34444 -3.35637,4.07578 -2.20149,7.77859 -10.63427,17.68168 -1.83168,-10.76925 10.90374,-28.00582 23.26334,-34.93508 8.71695,-4.59305 19.70512,-21.0212 12.54728,-32.28125 -8.19723,5.88747 -11.87841,13.84168 -23.45847,27.43318 8.25979,-32.28849 29.72127,-40.73595 55.41492,-40.84662 5.68537,-0.0265 17.14755,-2.07878 20.36436,-9.60234 -7.24204,2.79578 -15.80499,3.15186 -23.42478,1.62646 5.54582,-8.14189 17.22453,-7.08326 28.10685,-7.13137 8.53647,-0.0409 21.86329,-1.1982 27.25033,-13.355705 -10.41316,4.51124 -26.65364,5.44959 -36.87913,2.25442 16.26213,-8.4258 41.73441,-9.33286 54.79899,-20.39083 -14.89071,-11.11329 -52.1524,2.58886 -75.68784,18.73069 6.57799,-6.01499 16.97428,-16.68559 22.71019,-25.29905 -12.87207,-6.17139 -45.42521,29.89211 -56.63957,51.319915 -10.65135,6.01498 -14.91237,15.4441 -19.04828,22.02451 5.67575,-19.17822 6.27724,-33.0945 11.01224,-48.887465 -36.51195,12.568925 -21.33541,80.030685 -29.27737,96.170105 0.93473,-17.81882 0.1778,-40.70947 -7.15832,-52.51329 -11.24611,8.57979 -12.15365,59.07686 -1.59517,101.11684 -3.81279,-11.25044 -11.00913,-21.75263 -13.31791,-35.44515 -16.644214,30.35646 9.75703,66.16972 31.83373,94.45943 -16.62015,-8.65677 -33.0531,-27.27679 -43.84737,-42.88688 2.97936,54.33221 59.71733,65.62115 68.52568,78.97442 -11.95539,-5.56505 -34.8114,-16.57731 -44.50997,-5.03815 15.78862,3.6451 28.38258,7.85799 38.53107,14.51057 14.7247,18.38423 42.6078,26.42506 91.16803,28.45573 z"
     id="path8"
     inkscape:connector-curvature="0"
     style="fill:#ffc726;stroke-width:1.18250036" />
</svg>
