<?xml version="1.0" encoding="UTF-8" standalone="no"?>
<svg
   width="1000"
   height="700"
   viewBox="0 0 2880 1440"
   version="1.1"
   id="svg21"
   sodipodi:docname="xk.svg"
   inkscape:version="1.3.2 (091e20e, 2023-11-25)"
   xmlns:inkscape="http://www.inkscape.org/namespaces/inkscape"
   xmlns:sodipodi="http://sodipodi.sourceforge.net/DTD/sodipodi-0.dtd"
   xmlns="http://www.w3.org/2000/svg"
   xmlns:svg="http://www.w3.org/2000/svg"
   xmlns:rdf="http://www.w3.org/1999/02/22-rdf-syntax-ns#"
   xmlns:cc="http://creativecommons.org/ns#"
   xmlns:dc="http://purl.org/dc/elements/1.1/">
  <metadata
     id="metadata25">
    <rdf:RDF>
      <cc:Work
         rdf:about="">
        <dc:format>image/svg+xml</dc:format>
        <dc:type
           rdf:resource="http://purl.org/dc/dcmitype/StillImage" />
      </cc:Work>
    </rdf:RDF>
  </metadata>
  <sodipodi:namedview
     pagecolor="#ffffff"
     bordercolor="#666666"
     borderopacity="1"
     objecttolerance="10"
     gridtolerance="10"
     guidetolerance="10"
     inkscape:pageopacity="0"
     inkscape:pageshadow="2"
     inkscape:window-width="1392"
     inkscape:window-height="949"
     id="namedview23"
     showgrid="false"
     inkscape:zoom="0.67428571"
     inkscape:cx="427.11864"
     inkscape:cy="299.57627"
     inkscape:window-x="35"
     inkscape:window-y="25"
     inkscape:window-maximized="0"
     inkscape:current-layer="g2"
     inkscape:showpageshadow="2"
     inkscape:pagecheckerboard="0"
     inkscape:deskcolor="#d1d1d1"
     showguides="true" />
  <defs
     id="defs3">
    <path
       id="s"
       d="M0,0 0.309017,0.951057 -0.5,0.363271H0.5L-0.309017,0.951057z" />
  </defs>
  <rect
     width="2880"
     height="2022.8956"
     id="rect5"
     x="0"
     y="-287.99994"
     style="fill:#244aa5;stroke-width:1.18523777;fill-opacity:1" />
  <g
     fill="#ffffff"
     id="g3"
     transform="matrix(2.88,0,0,2.88,487.22278,-206.99878)">
    <g
       id="g2"
       transform="matrix(0.87453835,0,0,0.87453835,4.1183315,8.2051922)">
      <g
         id="g4"
         transform="translate(30.524579,27.132959)">
        <path
           d="M 364.73645,65.4 389.98844,143.19494 323.8,95.043637 h 81.87289 L 339.48447,143.19494 364.5796,65.4 Z m 98.49842,17.409753 25.09514,77.794937 -66.03158,-48.1513 h 81.71605 l -66.18844,48.1513 z m 93.94994,34.192127 25.09514,77.79493 -66.0316,-48.15129 h 81.71605 l -66.18842,48.30815 25.40883,-77.79494 z"
           id="path3"
           style="stroke-width:1.56844" />
        <path
           d="m 266.05337,65.874576 -25.25199,77.794944 66.18844,-48.151307 h -81.87289 l 66.18842,48.151307 -25.09513,-77.794944 z m -98.49842,17.409753 -25.09514,77.794941 66.03158,-48.1513 h -81.71605 l 66.18844,48.1513 z M 73.60501,117.47646 48.50987,195.27139 114.54147,147.1201 H 32.82542 l 66.18842,48.30815 -25.40883,-77.79494 z"
           id="path3-4"
           style="stroke-width:1.56844" />
      </g>
    </g>
  </g>
  <path
     fill="#d0a650"
     d="m 1092.9131,610.05002 c 0,0 5.3693,-3.57956 7.1591,-4.02702 2.2372,0 8.9488,-2.68467 8.9488,-2.68467 0,0 4.4746,-2.23721 6.7118,-2.23721 2.6846,0 7.1592,2.68467 8.9489,4.92188 1.3423,2.23724 8.949,6.26424 8.949,6.26424 0,0 5.3692,1.7898 6.7117,0 0.8948,-1.78977 3.1321,-3.1321 5.8167,-3.1321 2.2372,0 2.6847,-2.23724 2.6847,-4.02702 0,-1.78979 0.8949,-4.027 2.6846,-6.26424 2.2373,-2.23724 5.8169,-3.57958 5.8169,-3.57958 0,0 5.3692,-2.23722 5.8168,-5.36933 0.8949,-3.13213 5.8166,-5.36936 8.9489,-5.8168 3.1322,0 0,-1.78979 8.054,-0.89489 7.6067,0.89489 8.9489,-1.78979 8.9489,-4.02702 0.4474,-2.23722 0,-4.47446 4.9219,-4.47446 4.922,0.8949 7.1592,0.8949 7.1592,-1.78977 0,-2.68469 4.4744,-4.47447 -3.1321,-6.26424 -8.0541,-2.23724 -7.1592,-0.44746 -8.0541,-4.47447 0,-3.13213 0,-2.68468 -4.9218,-3.13213 -5.3695,-0.44743 -2.6847,-3.13211 -3.1322,-5.81678 -0.4474,-2.68468 -1.7898,-4.47447 -2.6847,-5.8168 -1.3423,-1.78978 -4.0269,-1.78978 -4.0269,-4.47446 0,-2.68468 -0.4476,-4.47445 -3.1322,-4.47445 -3.1323,0 -4.4745,0 -4.4745,-2.23724 0,-2.68468 0.8949,-4.47446 3.5796,-4.47446 3.1322,0 4.4745,-2.68467 4.4745,-5.36934 -0.895,-2.68469 -0.895,-8.50147 -0.895,-8.50147 l 4.0271,-4.47447 c 0,0 11.6335,-9.39637 12.5285,-11.18614 0.8949,-1.78979 4.9218,-3.13212 6.7117,0.44744 1.7897,3.57957 2.6846,4.47447 4.4744,6.26425 1.3422,1.78977 5.8168,0.44744 6.7118,-1.34233 0.8947,-1.78979 1.3423,-8.50148 4.0269,-12.08104 2.6846,-3.13213 4.4744,-4.92191 4.9219,-8.05404 0.4475,-3.13211 2.2372,-5.36934 5.3693,-5.36934 2.6847,0 4.4745,-4.02702 4.4745,-6.26424 0,-2.23723 1.7898,-4.47446 5.3693,-5.36935 3.5795,-0.44744 5.8169,-2.68468 7.1592,0.89489 1.3422,3.57956 2.6847,3.13212 4.922,4.47446 2.6845,1.34233 6.2641,2.68467 8.0539,1.34233 2.2373,-1.78978 3.1321,-4.47445 5.8169,-3.13211 2.6846,1.78978 4.4744,0 5.3692,-3.13213 l 1.3424,-8.50147 c 0,0 0.4474,-2.23723 4.9219,-2.23723 4.4745,0 1.3423,-2.68468 3.5796,-4.47445 2.6847,-1.78978 2.6847,-3.57957 5.8169,-2.68467 3.132,1.34233 8.0539,-1.34235 5.8166,-4.47446 -2.6846,-2.68468 -8.054,-7.15915 -4.9219,-10.73871 3.1322,-3.57955 4.4745,-8.94891 1.3424,-9.84381 -3.1322,-0.44744 -8.054,0.44745 -8.5014,-2.68467 -0.4476,-3.57957 -1.7899,-6.26424 2.2371,-6.71169 3.5796,-0.44745 9.8438,-0.44745 12.0811,-2.23723 1.7898,-1.78978 8.0539,-3.13212 8.0539,-8.05402 0,-5.36935 1.7899,-5.81681 2.6847,-8.94892 0.4475,-2.68468 0.4475,-8.94892 -2.2371,-11.63359 -2.6847,-3.13212 -6.2642,-7.15913 -6.7117,-8.94891 -0.895,-1.7898 -3.1322,-4.47446 -7.1591,-5.8168 -3.5797,-0.89489 -7.1592,-1.78979 -7.1592,-4.47447 0,-3.13212 2.6846,0.44745 2.6846,-7.15912 0,-7.60658 -4.9219,-8.94892 -4.9219,-8.94892 l -7.6065,-4.47447 c 0,0 -13.4233,-3.57955 -17.0031,-3.57955 -3.5793,0 -8.0539,-3.57957 -4.0269,-6.26425 4.4745,-2.23723 5.3694,-6.71168 4.0269,-9.84381 -1.7896,-3.13212 -2.6845,-5.8168 -8.5013,-7.15913 -5.8169,-1.34234 -7.1592,-2.68468 -4.4745,-6.26424 2.2373,-3.13212 3.1322,-5.81679 6.2644,-3.13212 2.6845,2.23722 8.0539,3.13212 12.0809,1.34234 4.4744,-1.78979 5.8168,-3.57957 8.0541,-1.34234 1.7897,1.78978 4.4745,3.57957 7.6066,0.89489 3.1321,-3.13212 8.9488,-3.57956 11.6335,-2.23723 2.2372,1.78978 8.949,1.34234 10.7387,0 1.7898,-0.89489 6.2642,-4.47445 6.2642,-5.81679 0,-1.34234 2.6847,-5.36935 4.9219,-6.71169 2.6847,-1.78978 5.8169,-6.26425 8.5015,-6.26425 2.6847,0 3.5796,-3.13211 3.5796,-4.47444 0,-2.23724 2.2373,-6.26425 2.6847,-7.60658 0,-1.34234 5.3693,-3.57958 8.9489,0 4.027,2.23723 8.9489,3.57957 8.9489,3.57957 0,0 4.4744,0.89487 7.6065,0 a 8.9489164,8.9489164 0 0 1 9.3965,0 c 4.0269,2.68466 8.9489,2.68466 8.9489,2.68466 l 1.3423,-5.81679 c 0,-1.78978 0.8948,-5.36935 -1.3423,-6.71168 -1.7899,-1.34234 -4.4744,-3.13212 -0.4475,-6.26425 4.4744,-2.68468 4.4744,-2.23723 8.5014,-2.23723 l 9.8439,0.44745 c 3.1321,0 8.054,3.13211 8.054,5.81679 0,2.68469 2.2372,4.47446 4.4746,6.26424 2.6845,1.34234 5.8167,2.68468 4.4743,5.36935 -0.4474,2.23723 -0.4474,4.47447 2.6848,3.57956 3.1321,-0.44744 4.0268,1.34235 4.0268,4.02702 0,2.23723 0.895,3.57957 4.4746,4.47446 2.6846,0.89488 4.4744,3.13212 4.4744,5.36935 0,2.23722 -0.8949,4.027 0,6.26424 l 4.4745,6.26424 c 0,0 5.8169,6.71169 -1.7898,3.13213 -7.1591,-3.13213 -8.9489,-4.47447 -11.1862,-4.47447 l -4.4743,2.23723 -5.8169,0.89488 c -2.6847,0 -5.3694,5.36936 -0.8949,6.26426 4.027,0.89489 5.3694,1.78977 5.3694,5.36936 0,3.57955 -1.3424,2.23721 -3.5796,4.47444 -1.7898,2.68468 -3.5796,0.8949 -7.1591,0.8949 -3.5797,0 -4.4745,3.13212 -4.4745,5.81678 0,2.68468 1.3423,2.68468 2.6847,4.47447 1.7898,2.68468 4.4744,3.13213 7.1591,0.89489 2.2372,-2.23723 4.4744,-4.02702 5.8169,0.44746 1.7896,4.47445 4.027,4.47445 6.7115,4.47445 3.1322,0 4.4746,0 7.1592,-1.78978 2.2372,-1.34234 5.3694,0 5.8168,4.027 0.895,3.57958 3.1322,4.47447 5.8168,5.8168 2.6847,1.34233 4.4744,2.23723 4.4744,4.47445 0.895,2.68468 2.2373,3.57957 4.9221,2.23724 2.6846,-1.78978 6.7116,-2.68468 8.5013,-0.44744 l 4.0271,5.36934 v 4.92191 l 10.2913,3.57955 0.8949,4.47447 c 0,1.34234 1.7896,2.68468 4.4744,1.78979 h 7.159 c 0,0 3.5796,-1.34234 3.5796,-4.47447 0,-2.68467 1.3424,-3.57957 4.4746,-3.57957 2.2371,0 8.054,2.23724 9.3963,-0.89488 1.7898,-2.68467 6.2643,-3.57957 9.8437,-2.23723 l 13.4234,5.36935 c 0,0 -1.3423,0 1.7898,4.9219 3.1322,4.92191 8.949,4.92191 8.949,4.92191 0,0 0,4.47445 1.3423,6.26423 0.8949,1.78979 5.8168,2.68468 8.054,0.8949 2.6847,-1.78978 6.2642,-4.47445 9.3964,-4.47445 3.1322,0 5.3692,0 5.3692,-1.7898 0,-1.78978 -3.1321,-3.13212 -3.1321,-6.26423 0,-3.13213 3.1321,-2.68469 3.5798,-5.8168 0.4474,-2.68467 3.5795,0 5.8167,1.78978 2.2373,1.78978 4.4745,3.57957 4.4745,5.36936 0,2.23721 4.4744,8.94891 6.7117,9.8438 2.6846,0.8949 9.3962,1.34234 11.6335,-0.89489 1.7898,-2.68468 7.1591,-3.57956 6.7118,2.23723 -0.4475,5.8168 -1.7899,6.26424 1.7897,8.05402 3.5795,1.78979 4.4745,8.94892 1.3423,10.7387 -3.132,1.78978 -4.4743,2.23723 -4.4743,5.36936 0,3.13211 -0.895,7.15913 1.7896,8.94891 2.6847,2.23723 4.4746,3.57956 4.4746,5.36936 0,2.23722 2.6846,10.73869 2.6846,10.73869 0,0 1.7898,8.50146 0.8948,10.29126 0,2.23722 -1.3422,5.36934 3.1321,4.92189 4.4746,-0.44743 5.8169,-0.44743 5.8169,3.13213 0,3.57957 1.7898,5.36935 -0.8949,6.71169 -2.6847,1.78978 -4.4743,6.26424 -1.7898,7.15913 2.6847,0.89489 4.4745,2.68467 5.3694,4.47445 0.4474,1.78979 4.4745,5.36936 7.1591,3.13213 2.6847,-1.78978 3.1322,-2.68468 5.3693,-3.13213 1.7898,-0.44744 3.5795,-1.78978 1.3424,-4.47445 -1.7898,-2.23723 -2.6848,-4.47445 -0.4474,-6.26425 2.2371,-1.34233 3.1322,-5.81679 3.1322,-5.81679 0,0 3.1321,-4.47446 6.7115,0 3.5797,4.47446 4.4745,2.68468 6.7118,2.68468 2.2372,0 3.5795,2.23723 3.5795,4.47445 0,2.68468 5.3693,2.23723 5.3693,5.8168 l 0.8949,13.42338 c 0,0 0,4.92189 3.1321,6.71169 3.1321,2.23722 2.6847,2.68468 0.895,4.47445 -1.3424,2.68467 -0.895,6.71168 -0.895,8.94892 0,2.23723 0.895,2.23723 -1.3423,4.47445 -2.6847,1.78978 -4.0269,4.47447 -2.2372,7.15914 1.3424,2.68467 0.8949,4.47446 4.9219,8.05403 4.4744,3.13211 4.027,4.47445 4.027,7.15913 0,2.23722 4.027,5.81679 4.027,8.05404 0,2.23721 3.1322,5.36933 5.8168,5.81677 2.6847,0.44746 5.3693,4.47448 5.3693,7.15915 l 0.4476,8.50147 c 0,0 0,1.34234 2.6846,1.34234 3.132,0 5.3693,3.57955 6.2642,0 0.895,-4.47447 4.4746,-4.47447 6.2642,-5.81681 1.7899,-1.34234 6.2643,-2.68466 8.5016,-1.34234 2.2372,1.34234 4.4745,1.34234 6.7117,1.34234 l 11.6335,0.44745 c 0,0 2.6847,0 4.4745,3.57957 1.3424,3.57956 5.8168,8.05403 3.5795,9.8438 -2.6847,2.23724 -2.6847,5.8168 0,5.8168 2.6847,0 6.7117,0 6.7117,2.23723 0,2.68468 0,4.47445 3.1322,3.13212 2.2372,-1.34234 4.027,-1.78978 4.922,0 1.3423,1.78978 3.1319,1.78978 5.8167,3.13212 2.6847,1.78978 3.5795,0.44745 5.3693,-1.34234 1.3423,-1.78978 7.6066,-3.57956 7.6066,-3.57956 0,0 8.0541,-2.23723 11.1861,-1.34234 l 7.6067,3.13212 c 0,0 1.7897,4.47446 0.8948,7.60657 -0.8948,2.68468 -2.2372,2.23724 -0.8948,6.7117 0.8948,4.47445 -1.3424,4.47445 -3.1322,4.47445 -2.2373,-0.89488 -4.4745,-0.89488 -4.4745,3.13213 0,3.57956 -1.7897,4.47444 -1.7897,8.05402 0,3.57957 0,2.68468 -2.2373,4.47445 -1.7897,1.34234 -2.6847,3.57958 0.4474,4.47446 3.1321,0 2.2373,3.57958 2.2373,5.36936 l -0.4474,6.26424 c 0,0 0,2.23723 -3.1322,2.23723 -3.1321,0 -6.7117,0 -7.1591,2.23723 -0.8949,2.23722 -4.4743,5.8168 -1.3423,8.50148 3.5794,2.23721 2.6846,3.57955 0.4474,4.47445 -1.7899,1.34234 -3.5794,5.8168 0.8949,7.15913 4.027,1.78979 3.5796,3.13213 0.8949,4.9219 -2.6847,1.78979 -7.6066,3.57957 -7.6066,6.26425 0,2.68467 -1.3423,2.68467 -4.4744,3.13212 -3.1321,0.44744 -4.4745,4.47445 -0.8949,8.94891 3.5795,4.9219 4.4745,4.47446 7.159,4.47446 2.6848,0 2.6848,-4.47446 2.6848,-4.47446 l 11.1862,0.8949 c 2.6845,0 6.2642,0 8.5014,-1.34234 2.2373,-1.78979 7.6065,-4.02702 7.6065,0 0,4.47445 1.3424,4.47445 3.5797,5.81679 2.6846,2.23723 3.132,0.44745 5.3693,3.57957 2.2372,2.68467 2.6847,0 4.4744,-3.13212 1.3424,-3.13213 4.4746,-6.26424 7.1592,-2.68468 2.2372,4.02702 2.2372,2.68468 5.3694,2.68468 3.1321,0 4.4744,1.78978 4.4744,4.02701 0,2.23722 2.6846,2.23722 6.7116,1.78978 3.5796,0 4.0271,2.23723 5.3695,4.47446 1.3423,2.23723 2.2373,1.78978 4.4743,1.78978 1.7899,0 4.0271,0 5.3695,-1.78978 1.7897,-1.78979 3.5796,-4.47446 5.8168,-1.34234 2.2371,2.68468 6.2642,2.23723 7.159,-0.89489 1.3424,-3.57957 5.8168,-6.26424 8.5015,-2.68467 2.6848,4.02701 4.4745,4.02701 7.1592,4.47446 2.6847,0 6.2642,0 7.6066,2.68467 1.7898,2.68468 6.7116,6.26424 3.132,8.94891 -3.5795,3.13213 -7.6065,6.71169 -4.4744,8.05403 a 13.423375,13.423375 0 0 1 7.1591,4.47446 c 2.2372,1.78977 8.949,3.13212 12.0811,3.57957 3.1322,0 5.3693,0.89488 8.9489,-2.23723 4.0269,-2.68467 7.6066,-2.68467 7.159,1.34234 -0.4473,3.57956 1.3425,8.05401 1.3425,8.05401 0,0 2.6846,6.26425 2.6846,8.50147 0,2.23724 -0.4474,2.68469 4.4745,5.8168 4.4745,2.68468 3.5795,4.47447 7.6066,1.7898 3.5795,-2.68468 4.4744,-4.47446 4.4744,-6.7117 v -7.60657 c 0,0 5.3694,-0.89489 7.1591,-2.23724 2.2373,-1.78979 10.2913,-5.8168 12.5285,-4.02701 2.2373,1.78979 4.4745,1.34234 6.7117,0.44745 2.2373,-0.8949 6.2643,-0.8949 8.5016,-0.8949 1.7897,0 5.3692,0.44745 9.8437,-2.68467 4.0271,-3.57956 4.0271,-2.68468 6.7116,0 2.2373,2.23724 2.2373,4.92191 0.895,7.15913 -1.7898,1.78979 0,5.8168 3.5796,5.8168 3.5796,0 4.4745,2.23723 4.4745,4.47446 l 1.3422,7.60658 c 0,1.78978 0,3.13212 6.2643,4.47446 5.3693,1.34233 4.4746,4.47445 5.3693,7.15913 1.3423,2.23722 1.3423,4.47446 -1.7897,4.47446 -3.1322,0 -4.4746,1.34234 -4.4746,3.57956 -0.8948,2.23723 -5.3693,3.13213 -5.3693,3.13213 l -4.4744,-0.8949 c 0,0 -3.5796,0 -4.9219,1.78979 -1.7898,2.23722 -4.4745,5.81679 -2.6846,8.94892 2.2373,3.57956 2.2373,5.36934 0,7.15913 -1.7899,1.34234 -3.1323,8.50147 -4.922,7.15913 -2.2371,-1.78979 -4.4745,0 -6.7117,1.34234 -2.2372,0.89489 -1.7898,7.60657 2.2372,9.8438 4.4745,2.68467 5.3695,5.81681 5.3695,5.81681 l 4.4744,7.15911 c 0,0 -1.3423,1.34234 -2.2373,4.02702 -1.3424,2.23724 -4.4744,7.15914 -1.3424,8.05402 3.1323,0.89491 1.7899,6.26425 -1.3422,6.26425 -3.1321,0 -6.7117,-1.78978 -7.1592,2.23723 -0.4474,4.02702 -2.2372,2.68468 -5.3693,2.23724 -3.1322,0 -10.7387,-2.23724 -12.976,1.34234 -2.2372,4.027 -2.6846,5.36933 -6.2642,4.92189 -3.5796,0 -2.2373,5.8168 -0.895,8.05404 l 4.4746,5.81679 c 0,0 3.1321,2.23723 3.1321,7.15913 0,4.47446 -2.2372,4.47446 -4.4744,0.89488 -1.7897,-3.13211 -5.8169,-2.68468 -6.2643,0.89491 -0.4474,4.02701 -1.3423,9.84379 -4.4744,9.84379 -4.0271,0 -5.3694,0.89487 -7.1592,2.68469 -1.3424,1.78982 -4.0271,5.36938 -4.0271,7.15911 0,1.78982 -0.4474,4.02704 -3.132,4.47443 -2.6847,0.44748 -3.1321,5.36938 -3.1321,5.36938 0,0 -6.2643,1.34235 -6.7117,3.57956 -0.4474,2.23729 0.4474,6.26425 -4.4746,6.71172 a 13.423375,13.423375 0 0 0 -9.8436,6.26425 c -1.7899,2.23722 -2.2373,4.47443 0,6.71164 2.2371,2.23722 3.5796,9.84381 6.2642,11.18616 2.2372,1.34234 4.4745,2.23721 4.0269,5.81677 -0.4475,4.02703 -3.5796,6.71172 0.4476,6.71172 4.4743,0 6.7116,0.89487 5.3692,4.47443 -1.7897,3.13216 -1.7897,3.57956 -4.4744,4.9219 -3.5795,1.78982 -4.922,1.78982 -4.922,5.36938 0,3.57956 0.895,4.02704 -1.7897,5.3693 -2.6847,1.34242 -2.6847,3.13216 -2.6847,6.26425 0,3.13216 -0.8948,1.78982 -4.027,4.9219 -3.1321,3.57964 -7.1591,3.57964 -9.8438,2.68469 -2.6847,-0.89487 -3.1321,-0.89487 -3.5796,-4.02695 -0.4474,-2.68469 -4.922,-2.68469 -7.6065,-2.2373 -2.6847,0 -6.2642,3.13209 -6.2642,3.13209 0,0 -4.4745,3.13216 -2.6847,5.36946 2.2372,2.23713 0.8948,6.26424 -2.6847,5.81677 -3.5796,-0.44748 -11.6336,3.57956 -14.3183,-0.44748 -2.6846,-4.47443 -9.8438,-7.15911 -11.1861,-1.34234 -0.8949,5.36938 3.1321,4.9219 2.6847,10.73867 0,5.8169 -1.3424,5.8169 -3.5796,7.6066 -1.7899,1.7898 -1.7899,3.5796 -2.6847,5.8168 0,2.2372 -0.895,7.6066 2.6847,9.3965 3.5796,2.2371 5.3693,7.159 5.3693,10.2912 0,2.6845 0,5.8167 3.5795,5.8167 3.5797,0 6.7118,-0.8949 7.1591,-4.027 0.4475,-3.1322 7.6066,-5.3694 8.5017,1.3424 0,6.7116 0,10.2911 3.1321,12.9758 2.2371,2.6847 4.4744,6.7118 6.7116,8.0541 1.7898,1.3423 5.3694,13.4234 5.3694,13.4234 -4.9219,1.3423 -6.2644,8.054 -9.3964,8.9489 -1.7899,0.895 -4.027,0 -5.8167,1.3424 -0.8951,1.3422 -0.8951,3.1321 -2.6847,3.5795 -4.0271,1.7897 -3.1322,-4.0269 -8.0541,-1.7898 -4.027,1.7898 -4.4744,6.7116 -10.2912,4.4744 -3.1322,-0.8949 -4.922,-13.4234 -5.8169,-16.108 l -4.9218,-8.054 c -3.5797,-5.3693 -10.2912,0 -12.5285,-1.7898 -3.5796,-2.2373 -2.2374,-6.2642 -7.6066,-6.7116 -10.7387,-0.8949 -3.1321,6.7116 -7.6066,8.0539 -8.9489,3.1322 -8.9489,-8.0539 -15.2131,-2.6845 -2.2373,1.7897 4.4744,3.132 2.6846,6.2641 -1.3424,2.6846 -7.6066,7.1592 -7.6066,10.2913 0.895,4.4745 5.3693,5.8167 6.7117,8.9489 4.4745,10.2912 -2.2372,17.0029 -12.081,8.9488 -5.3694,-4.027 -6.7117,-12.081 -14.7657,-11.1861 -2.2373,0 -2.6847,1.7899 -4.4745,2.2373 -2.2372,0 -3.5795,-1.7898 -5.8168,-1.3423 -3.1322,1.3423 0,3.5796 -0.8949,5.3692 0,0 -4.4745,3.1322 -4.4745,4.4745 -2.6846,2.6847 -1.7897,5.3694 -5.3694,8.0541 -2.6845,2.2371 -4.9218,0.8948 -8.0539,4.4744 -3.1322,3.1322 -3.5795,8.5015 -7.6066,11.6336 -2.2373,1.7898 -3.5795,-4.9219 -6.2642,-0.4475 l -0.8949,1.7899 c -0.8949,1.3423 -0.8949,1.7897 0,3.1321 5.3693,10.7387 -6.2642,14.3182 -9.8438,21.9248 -1.3424,3.1322 2.6847,5.8168 1.3423,8.5015 l -6.7117,7.6065 c 0,0.8949 -0.8949,3.5796 -1.7897,4.4745 -0.895,0.895 -4.4745,0 -4.4745,1.7899 0,1.7897 3.5795,3.1321 4.4745,4.0269 0.8948,1.3423 -0.895,3.1322 0,3.5796 5.3693,5.8169 2.2371,4.027 4.9218,8.949 0.4475,0.8948 2.2373,-0.4476 3.1321,1.3422 0.4475,1.7899 -1.7896,1.7899 -0.8948,3.5796 0,0.8948 4.4744,6.2642 4.4744,6.2642 0,1.7899 -8.054,5.3695 -9.8438,5.3695 -4.9218,0 4.4746,-9.8438 -3.5795,-9.8438 -3.5797,0 -4.027,7.6065 -4.4745,8.9488 h -4.4744 c -5.3695,0 -8.9489,6.2643 -10.7388,6.7117 -1.3423,0.4474 -4.4745,-0.8949 -6.7118,0 -1.7895,0 -4.4743,2.2373 -6.2642,2.2373 -1.3423,0 -1.7897,-0.8949 -3.1319,-1.7899 -2.2373,-1.3423 -6.7118,-1.7898 -8.9491,-2.6846 -1.7896,0 -4.4744,1.7898 -5.3693,1.3423 -1.3423,-0.8948 1.3424,-4.4744 -2.6846,-6.2642 l -3.1321,-7.6066 c 1.3422,-4.4744 2.6845,-8.949 2.2371,-13.8708 -0.8949,-4.922 -8.9488,-8.9489 -10.7387,-13.4234 -1.3423,-2.6846 -2.6847,-10.7387 -5.8168,-12.5285 a 27.74164,27.74164 0 0 1 -8.0539,-9.8438 c 0,-0.8949 1.3423,-2.6846 0,-4.4745 -1.3424,-1.3422 -3.5797,-2.2373 -4.4745,-4.4744 -0.4474,-1.7898 0,-8.0541 -2.2373,-9.3963 -2.2372,-1.3423 -17.8977,-3.5796 -22.3722,-4.0271 -1.7898,0 -3.1321,0 -4.4746,-1.3424 l -2.6846,-3.1319 -4.4745,0.8948 c -1.3423,0 -3.5795,-0.8948 -4.4744,0 -4.9219,3.1321 -6.2643,7.6066 -11.1861,11.6335 -4.922,3.5796 -10.2913,3.5796 -15.2132,7.6065 -3.1321,2.6847 -5.3694,9.3964 -8.5016,12.5286 -1.3422,1.3424 -3.132,0 -3.5794,0.4475 -2.6847,3.1321 -6.2642,5.3693 -8.9489,8.0539 -0.4474,0.895 0,1.7898 -0.895,2.2373 l -5.8168,1.7899 h -5.3693 c -2.2372,0.8947 -2.2372,3.5795 -11.1862,5.3692 l -2.2373,1.3423 -2.6845,2.2373 h -4.0269 c -2.2373,0 -3.5798,2.2372 -5.3695,2.2372 -4.4744,0.8949 -12.5285,-2.2372 -16.1081,-0.4473 -2.2371,0.4473 -8.054,7.6065 -10.2912,8.0539 -1.3423,0.4474 -2.6847,0 -4.4744,-0.4474 l -2.6847,9.8438 -10.7387,9.3964 c -1.3423,1.3423 -1.7899,3.1321 -3.5796,4.4743 -0.8949,1.3424 -2.6847,2.2374 -4.4744,2.2374 -1.7898,0 -4.922,-1.7898 -7.1592,-1.7898 -3.5796,-0.895 -14.7658,-1.3424 -17.8979,-0.4476 -4.027,0.4476 -2.6846,10.7388 -11.6335,11.6337 l -14.7658,1.7897 c -0.4474,0 -3.5796,-1.7897 -6.7117,-1.3423 -1.3422,0.4475 -4.9218,4.4745 -4.9218,5.3693 v 2.2373 l 0.8948,1.7898 c -1.7897,2.2372 -6.2643,5.8168 -7.6065,8.9489 l -1.7898,1.7899 c -0.8949,0.8948 -7.1592,3.1321 -7.6066,4.027 -1.3423,3.5795 4.4745,7.1591 3.5795,8.5013 -1.3422,4.4746 -7.6065,8.9491 -9.8438,13.4235 -0.4474,1.7897 2.2373,7.6065 2.2373,9.3963 -0.8949,5.8169 -2.6847,12.976 -2.2373,18.3453 l 0.895,7.6065 3.1322,2.2373 8.0538,16.1081 c 1.3424,9.8438 -13.4233,6.2642 -4.4743,16.1081 0.8949,1.7896 1.7897,3.1322 3.5795,4.4744 l 12.5286,10.2912 c 0,1.7899 -8.949,3.1322 -10.2914,4.4744 -4.4744,4.4746 -7.6066,11.6337 -11.6336,16.1081 -2.6846,2.2373 -4.4744,-0.4474 -8.054,5.8169 -0.8949,2.2372 0,7.1592 -1.3424,8.9488 -2.2371,1.7898 -3.5795,-0.8949 -5.8167,0 -0.8948,0 -1.3424,3.1321 -2.2371,3.5796 -2.2374,2.2373 -23.2673,13.4233 -25.0572,12.081 -0.8948,-0.4474 -2.2371,-4.0269 -2.2371,-4.9219 0,-1.3424 -1.7898,-4.027 -2.6848,-4.4745 -5.3693,-4.4744 -13.4233,-5.8168 -18.7925,0 -1.3425,1.3425 -1.3425,3.5796 -3.1322,4.4745 l -8.9489,7.1593 -2.2373,2.2371 c -2.2372,0 -7.1592,-5.8168 -8.9489,-7.6067 -1.7898,-2.6846 -8.9489,-8.9488 -9.3963,-12.081 0,-10.7387 -8.5016,-21.9247 -11.6337,-32.2161 h 4.9219 c 5.8169,-4.0269 4.4745,-13.4234 14.7657,-9.8437 1.3424,-1.7898 1.3424,-3.5797 3.5796,-4.4745 0.895,-0.8947 2.6847,-1.3424 3.1322,-2.2373 3.5795,-5.3693 7.6066,-25.9517 4.0269,-31.3211 -3.132,-4.4744 -6.7117,-4.4744 -8.9488,-12.0811 -0.8951,-2.2372 0,-4.4744 0,-7.1591 l -4.4744,-13.8708 c -0.8951,-1.3423 -3.1321,-2.2372 -3.1321,-3.1322 l -0.8951,-13.8708 c -3.132,-9.8437 -15.2131,-15.6606 -15.6605,-17.0029 l -4.4746,-7.6066 c -1.7896,-3.1322 -1.7896,-4.4744 -2.6845,-7.1591 -0.4475,-1.3423 -2.6848,-2.6846 -2.6848,-4.027 0,-2.6848 7.1592,-7.6067 6.7118,-12.081 0,-1.3424 -4.4745,-5.8168 -3.5796,-8.0541 0.8949,-2.6847 5.3693,-8.0541 5.3693,-11.1862 0,-3.5794 -7.1592,-11.6335 -8.0541,-15.2132 -0.4474,-2.2371 2.6848,-3.5795 1.7899,-4.9217 -0.895,-1.7898 -8.0541,-8.5017 -8.9488,-10.2913 -1.3425,-1.3424 2.237,-3.1321 0,-5.8169 -2.6848,-2.2372 -0.4476,-1.7898 -1.3425,-3.5794 -0.8949,-2.2374 -3.132,-4.4745 -4.4744,-6.7118 -0.8949,-2.2372 -7.1592,-24.6095 -6.7118,-25.9519 -1.3422,-1.3423 -3.1321,-2.6847 -4.0269,-4.4744 l -1.7898,-5.3694 c 0,0 -7.159,-2.2371 -8.5014,-4.4744 -0.8949,-1.3422 -1.3425,-7.1592 -3.1322,-9.8439 -0.8949,-1.3422 -2.2373,-0.8948 -3.1322,-1.7897 -0.8947,-0.8949 -0.8947,-2.2373 -1.3423,-3.1321 -2.2372,-2.6847 -6.2642,0 -8.9489,-10.7387 -4.4745,-2.6846 -7.6065,-4.4745 -10.7387,-8.0541 l -1.7897,-1.7897 c -2.6847,-0.8948 -6.7118,-1.3424 -8.9489,-3.1321 -1.3425,0 -8.054,0 -8.949,-0.8949 l -1.7897,-3.5796 c -3.5795,-0.4475 -9.8439,0 -12.976,-2.6846 -2.2373,-2.2374 -2.6846,-12.5286 -7.1591,-11.1863 a 3.1321208,3.1321208 0 0 0 -1.7898,0 c -3.1322,-4.4744 -12.976,-4.4744 -17.0029,-7.1591 -0.895,-0.4475 -4.4745,0 -4.4745,-0.8949 l 0.4474,-5.8168 -4.9219,-6.2643 c -4.027,-0.8948 -2.6847,-1.3422 -4.4744,-2.6846 -6.7117,0 -7.6067,0.895 -11.6337,4.4745 -0.8949,0.8949 -3.1321,1.3423 -4.4744,1.7899 -2.2372,1.3422 -2.6848,5.3692 -5.8168,3.5795 l -2.6848,-2.2373 c -1.7897,-1.7898 -2.6846,-0.8948 -3.5794,-3.5796 -5.3694,-3.132 -20.1352,6.7117 -23.2672,0 -2.6848,-1.3424 -4.4745,0 -6.7117,-1.7898 -0.8949,-0.8948 3.1321,-13.4232 -7.6065,-17.8978 l 7.159,-4.92185 c 0.8949,-1.34234 0,-3.57956 0,-4.47443 0,-2.23729 1.3423,-6.26424 0.8949,-7.60659 0,-1.34234 -1.7897,-2.68477 -2.2373,-4.47443 -0.8948,-1.34234 0,-3.57964 -0.8948,-5.36946 l -3.5796,-1.78974 c -2.6847,-2.23721 -5.3693,-3.57955 -7.6066,-6.26424 l -1.7898,-2.23722 c -1.7897,-1.34234 -8.05392,-3.57956 -8.05392,-6.26425 0,-0.89487 1.78972,-1.34234 1.78972,-2.23721 0.4474,-1.34235 0,-2.68469 1.3424,-3.57956 2.6847,-4.47451 9.3963,-2.23729 8.5014,-9.84381 -0.4474,-3.57964 -3.132,-6.26424 -3.5796,-9.8438 -1.3423,-0.89495 -1.3423,-2.23722 -2.2371,-3.13217 -6.71182,-0.44739 -5.81682,-7.15912 -8.05412,-8.94885 -6.7117,-4.47451 -12.081,-1.78982 -4.4744,-10.73876 0.8948,-3.13209 -6.7117,-8.05399 -8.0541,-9.39633 -2.6847,-2.68469 -1.3423,-8.50147 -2.6847,-11.18615 0,-1.34235 -4.9219,-4.02704 -6.2642,-5.81678 l -2.23725,-4.47451 v -0.44739 c 1.34235,-1.34235 0.89487,-3.57959 0,-4.47447 -0.44739,-1.34234 -2.68468,-0.89489 -3.13208,-1.7898 -6.26425,-5.36935 -13.42345,-8.05401 -21.92487,-11.18614 -2.23724,-0.89489 -1.34235,-2.68466 -3.57957,-3.57957 l -13.42337,-5.36935 c -0.8949,0 -1.7898,-4.9219 -2.68468,-6.71167 l -4.02701,-4.47447 c 0,-4.47446 -2.68468,-4.47446 -6.26425,-7.15914 v -2.68467 l 2.68468,-9.39636 c 0.44745,-1.78978 2.68467,-3.57956 2.23723,-5.36935 l -1.78978,-10.29126 c -3.57958,-8.94891 -7.60659,-8.05402 -5.36936,-20.13506 0,-2.68467 -0.44744,-4.027 1.34234,-6.26424 l 0.89489,-1.34234 5.36935,-4.027 c 1.78978,-2.68467 3.13212,-8.50147 5.36935,-10.29127 l 8.05402,-5.36934 c 0.8949,-0.8949 1.78979,-4.02701 1.34233,-5.36935 -1.78977,-0.89489 -3.57956,-0.44743 -5.36934,-0.89489 -0.89489,0 -3.1321,-1.78979 -4.92191,-1.78979 -0.44744,-0.89489 -1.34233,-1.34234 -1.34233,-2.23723 l -0.89488,-0.89489 c -2.23724,0 -4.47446,-1.34233 -6.26426,-2.23723 -2.23722,-0.89488 -5.36934,-0.89488 -7.60657,-2.23722 -4.47446,-2.23724 -8.94891,-8.94892 -12.97593,-9.84381 -5.36934,-1.34235 -8.94891,0.44745 -14.31826,0.89489 -3.13212,0 -3.13212,-1.78979 -5.81679,-2.68468 -3.57957,-1.34233 -0.8949,1.78979 -8.94892,-0.8949 -1.34233,-0.89488 0,-3.57955 0,-4.47444 h -4.47447 c -6.26424,-1.78978 -4.02701,-8.05403 -5.81679,-12.08105 -0.44745,-0.89489 -3.57957,-0.89489 -4.47446,-0.89489 -0.89489,0 -0.89489,-0.89489 -0.89489,-0.89489 l 0.89489,-0.44745 c 0.89489,-1.78977 -3.13212,-6.26424 -3.13212,-7.15912 0.44744,-1.34234 8.94891,-2.68468 9.84381,-2.68468 0.44744,-1.34234 -0.44745,-2.23723 -0.8949,-3.13212 0,-2.23724 1.34234,-5.36935 2.23724,-7.60658 v -0.89489 c -2.68467,-1.34234 -3.13212,-3.13213 -5.36935,-4.47447 0,-1.34233 1.34233,-1.78978 1.78978,-3.13211 4.02701,-11.18614 10.29126,-2.23723 15.66061,-12.52848 0.44744,-0.89491 2.23723,-3.13213 2.68467,-4.92192 h 0.8949 c 0.89487,0 2.68467,0.89491 3.57955,0 0.8949,-0.89488 2.23724,-0.89488 3.57958,-1.34233 h 2.23722 c 9.84381,-1.78977 7.60659,-5.36936 13.42338,-9.39637 1.78978,-1.34232 6.26424,-1.78977 8.05401,-2.68466 2.23724,1.34234 5.36936,4.47446 9.39637,6.26424 3.13212,0.89489 13.42339,3.13211 15.21316,4.47445 2.23723,0.8949 2.68467,3.57958 4.47446,4.47446 5.8168,3.57957 2.23722,-1.78979 8.05402,-0.89488 5.81682,1.34233 10.29125,6.26424 15.66063,8.50147 l 4.47443,-0.44745 c 1.34234,-0.44745 10.29129,-2.23723 11.18619,-1.78978 l 3.5795,1.34233 c 1.3424,0.44745 2.2372,-2.23722 3.5796,-2.23722 3.5795,0.89489 3.5795,2.23722 8.9489,1.78978 0,0 2.6847,-14.76573 5.3693,-15.21316 1.34242,-0.44744 5.36952,3.13211 6.26432,3.57957 1.7899,0.44745 0,-3.13214 0,-3.13214 -0.8948,-1.34233 -3.5795,-10.29125 -3.1321,-11.18612 0,0 2.2373,0.89487 3.5795,0.44743 2.6847,-0.89489 6.7117,-1.78977 8.9491,-4.02701 l 4.4743,-6.71169 c 0.4475,-0.89489 -0.8948,-3.57956 0,-4.47446 l 4.027,-2.68467 c 1.7899,-1.78978 1.7899,-4.47446 4.4744,-5.81679 8.9491,-0.8949 12.0811,-8.05402 20.5826,-8.94892 h 2.6846 l 1.7899,2.68468 c 0,0.44743 5.8168,4.02701 6.7116,3.57956 0.8949,0 1.3424,-1.34234 2.2372,-1.78979 1.3424,0.44745 6.2643,-2.23722 6.7119,-4.02701 0,0 -0.895,-1.34235 -0.4476,-2.68468 a 53.693499,53.693499 0 0 1 7.1592,-5.36934 h 6.2642 c 0.8949,0.89489 0.8949,2.68466 2.2372,2.68466 h 5.3695 c 0.8948,0 1.3422,-2.23722 3.1321,-2.23722 z"
     id="path2"
     style="stroke-width:4.47445" />
</svg>
