<?xml version="1.0" encoding="UTF-8" standalone="no"?>
<svg
   id="flag-icons-ws"
   viewBox="0 0 512 512"
   version="1.1"
   sodipodi:docname="flag_1x1.svg"
   inkscape:version="1.3.2 (091e20e, 2023-11-25)"
   xmlns:inkscape="http://www.inkscape.org/namespaces/inkscape"
   xmlns:sodipodi="http://sodipodi.sourceforge.net/DTD/sodipodi-0.dtd"
   xmlns="http://www.w3.org/2000/svg"
   xmlns:svg="http://www.w3.org/2000/svg">
  <defs
     id="defs3" />
  <sodipodi:namedview
     id="namedview3"
     pagecolor="#ffffff"
     bordercolor="#000000"
     borderopacity="0.25"
     inkscape:showpageshadow="2"
     inkscape:pageopacity="0.0"
     inkscape:pagecheckerboard="0"
     inkscape:deskcolor="#d1d1d1"
     inkscape:zoom="4.452563"
     inkscape:cx="127.56698"
     inkscape:cy="566.19075"
     inkscape:window-width="1920"
     inkscape:window-height="949"
     inkscape:window-x="0"
     inkscape:window-y="25"
     inkscape:window-maximized="1"
     inkscape:current-layer="flag-icons-ws" />
  <path
     fill="#244aa5"
     d="m 0.2,0.2 h 512 v 512 H 0.2 Z"
     id="path1"
     style="stroke-width:0.92376" />
  <path
     fill="#d0a650"
     d="m 185.2,243 c 0,0 1.2,-0.8 1.6,-0.9 0.5,0 2,-0.6 2,-0.6 0,0 1,-0.5 1.5,-0.5 0.6,0 1.6,0.6 2,1.1 0.3,0.5 2,1.4 2,1.4 0,0 1.2,0.4 1.5,0 0.2,-0.4 0.7,-0.7 1.3,-0.7 0.5,0 0.6,-0.5 0.6,-0.9 0,-0.4 0.2,-0.9 0.6,-1.4 0.5,-0.5 1.3,-0.8 1.3,-0.8 0,0 1.2,-0.5 1.3,-1.2 0.2,-0.7 1.3,-1.2 2,-1.3 0.7,0 0,-0.4 1.8,-0.2 1.7,0.2 2,-0.4 2,-0.9 0.1,-0.5 0,-1 1.1,-1 1.1,0.2 1.6,0.2 1.6,-0.4 0,-0.6 1,-1 -0.7,-1.4 -1.8,-0.5 -1.6,-0.1 -1.8,-1 0,-0.7 0,-0.6 -1.1,-0.7 -1.2,-0.1 -0.6,-0.7 -0.7,-1.3 -0.1,-0.6 -0.4,-1 -0.6,-1.3 -0.3,-0.4 -0.9,-0.4 -0.9,-1 0,-0.6 -0.1,-1 -0.7,-1 -0.7,0 -1,0 -1,-0.5 0,-0.6 0.2,-1 0.8,-1 0.7,0 1,-0.6 1,-1.2 -0.2,-0.6 -0.2,-1.9 -0.2,-1.9 l 0.9,-1 c 0,0 2.6,-2.1 2.8,-2.5 0.2,-0.4 1.1,-0.7 1.5,0.1 0.4,0.8 0.6,1 1,1.4 0.3,0.4 1.3,0.1 1.5,-0.3 0.2,-0.4 0.3,-1.9 0.9,-2.7 0.6,-0.7 1,-1.1 1.1,-1.8 0.1,-0.7 0.5,-1.2 1.2,-1.2 0.6,0 1,-0.9 1,-1.4 0,-0.5 0.4,-1 1.2,-1.2 0.8,-0.1 1.3,-0.6 1.6,0.2 0.3,0.8 0.6,0.7 1.1,1 0.6,0.3 1.4,0.6 1.8,0.3 0.5,-0.4 0.7,-1 1.3,-0.7 0.6,0.4 1,0 1.2,-0.7 l 0.3,-1.9 c 0,0 0.1,-0.5 1.1,-0.5 1,0 0.3,-0.6 0.8,-1 0.6,-0.4 0.6,-0.8 1.3,-0.6 0.7,0.3 1.8,-0.3 1.3,-1 -0.6,-0.6 -1.8,-1.6 -1.1,-2.4 0.7,-0.8 1,-2 0.3,-2.2 -0.7,-0.1 -1.8,0.1 -1.9,-0.6 -0.1,-0.8 -0.4,-1.4 0.5,-1.5 0.8,-0.1 2.2,-0.1 2.7,-0.5 0.4,-0.4 1.8,-0.7 1.8,-1.8 0,-1.2 0.4,-1.3 0.6,-2 0.1,-0.6 0.1,-2 -0.5,-2.6 -0.6,-0.7 -1.4,-1.6 -1.5,-2 -0.2,-0.4 -0.7,-1 -1.6,-1.3 -0.8,-0.2 -1.6,-0.4 -1.6,-1 0,-0.7 0.6,0.1 0.6,-1.6 0,-1.7 -1.1,-2 -1.1,-2 l -1.7,-1 c 0,0 -3,-0.8 -3.8,-0.8 -0.8,0 -1.8,-0.8 -0.9,-1.4 1,-0.5 1.2,-1.5 0.9,-2.2 -0.4,-0.7 -0.6,-1.3 -1.9,-1.6 -1.3,-0.3 -1.6,-0.6 -1,-1.4 0.5,-0.7 0.7,-1.3 1.4,-0.7 0.6,0.5 1.8,0.7 2.7,0.3 1,-0.4 1.3,-0.8 1.8,-0.3 0.4,0.4 1,0.8 1.7,0.2 0.7,-0.7 2,-0.8 2.6,-0.5 0.5,0.4 2,0.3 2.4,0 0.4,-0.2 1.4,-1 1.4,-1.3 0,-0.3 0.6,-1.2 1.1,-1.5 0.6,-0.4 1.3,-1.4 1.9,-1.4 0.6,0 0.8,-0.7 0.8,-1 0,-0.5 0.5,-1.4 0.6,-1.7 0,-0.3 1.2,-0.8 2,0 0.9,0.5 2,0.8 2,0.8 0,0 1,0.2 1.7,0 a 2,2 0 0 1 2.1,0 c 0.9,0.6 2,0.6 2,0.6 l 0.3,-1.3 c 0,-0.4 0.2,-1.2 -0.3,-1.5 -0.4,-0.3 -1,-0.7 -0.1,-1.4 1,-0.6 1,-0.5 1.9,-0.5 l 2.2,0.1 c 0.7,0 1.8,0.7 1.8,1.3 0,0.6 0.5,1 1,1.4 0.6,0.3 1.3,0.6 1,1.2 -0.1,0.5 -0.1,1 0.6,0.8 0.7,-0.1 0.9,0.3 0.9,0.9 0,0.5 0.2,0.8 1,1 0.6,0.2 1,0.7 1,1.2 0,0.5 -0.2,0.9 0,1.4 l 1,1.4 c 0,0 1.3,1.5 -0.4,0.7 -1.6,-0.7 -2,-1 -2.5,-1 l -1,0.5 -1.3,0.2 c -0.6,0 -1.2,1.2 -0.2,1.4 0.9,0.2 1.2,0.4 1.2,1.2 0,0.8 -0.3,0.5 -0.8,1 -0.4,0.6 -0.8,0.2 -1.6,0.2 -0.8,0 -1,0.7 -1,1.3 0,0.6 0.3,0.6 0.6,1 0.4,0.6 1,0.7 1.6,0.2 0.5,-0.5 1,-0.9 1.3,0.1 0.4,1 0.9,1 1.5,1 0.7,0 1,0 1.6,-0.4 0.5,-0.3 1.2,0 1.3,0.9 0.2,0.8 0.7,1 1.3,1.3 0.6,0.3 1,0.5 1,1 0.2,0.6 0.5,0.8 1.1,0.5 0.6,-0.4 1.5,-0.6 1.9,-0.1 l 0.9,1.2 v 1.1 l 2.3,0.8 0.2,1 c 0,0.3 0.4,0.6 1,0.4 h 1.6 c 0,0 0.8,-0.3 0.8,-1 0,-0.6 0.3,-0.8 1,-0.8 0.5,0 1.8,0.5 2.1,-0.2 0.4,-0.6 1.4,-0.8 2.2,-0.5 l 3,1.2 c 0,0 -0.3,0 0.4,1.1 0.7,1.1 2,1.1 2,1.1 0,0 0,1 0.3,1.4 0.2,0.4 1.3,0.6 1.8,0.2 0.6,-0.4 1.4,-1 2.1,-1 0.7,0 1.2,0 1.2,-0.4 0,-0.4 -0.7,-0.7 -0.7,-1.4 0,-0.7 0.7,-0.6 0.8,-1.3 0.1,-0.6 0.8,0 1.3,0.4 0.5,0.4 1,0.8 1,1.2 0,0.5 1,2 1.5,2.2 0.6,0.2 2.1,0.3 2.6,-0.2 0.4,-0.6 1.6,-0.8 1.5,0.5 -0.1,1.3 -0.4,1.4 0.4,1.8 0.8,0.4 1,2 0.3,2.4 -0.7,0.4 -1,0.5 -1,1.2 0,0.7 -0.2,1.6 0.4,2 0.6,0.5 1,0.8 1,1.2 0,0.5 0.6,2.4 0.6,2.4 0,0 0.4,1.9 0.2,2.3 0,0.5 -0.3,1.2 0.7,1.1 1,-0.1 1.3,-0.1 1.3,0.7 0,0.8 0.4,1.2 -0.2,1.5 -0.6,0.4 -1,1.4 -0.4,1.6 0.6,0.2 1,0.6 1.2,1 0.1,0.4 1,1.2 1.6,0.7 0.6,-0.4 0.7,-0.6 1.2,-0.7 0.4,-0.1 0.8,-0.4 0.3,-1 -0.4,-0.5 -0.6,-1 -0.1,-1.4 0.5,-0.3 0.7,-1.3 0.7,-1.3 0,0 0.7,-1 1.5,0 0.8,1 1,0.6 1.5,0.6 0.5,0 0.8,0.5 0.8,1 0,0.6 1.2,0.5 1.2,1.3 l 0.2,3 c 0,0 0,1.1 0.7,1.5 0.7,0.5 0.6,0.6 0.2,1 -0.3,0.6 -0.2,1.5 -0.2,2 0,0.5 0.2,0.5 -0.3,1 -0.6,0.4 -0.9,1 -0.5,1.6 0.3,0.6 0.2,1 1.1,1.8 1,0.7 0.9,1 0.9,1.6 0,0.5 0.9,1.3 0.9,1.8 0,0.5 0.7,1.2 1.3,1.3 0.6,0.1 1.2,1 1.2,1.6 l 0.1,1.9 c 0,0 0,0.3 0.6,0.3 0.7,0 1.2,0.8 1.4,0 0.2,-1 1,-1 1.4,-1.3 0.4,-0.3 1.4,-0.6 1.9,-0.3 0.5,0.3 1,0.3 1.5,0.3 l 2.6,0.1 c 0,0 0.6,0 1,0.8 0.3,0.8 1.3,1.8 0.8,2.2 -0.6,0.5 -0.6,1.3 0,1.3 0.6,0 1.5,0 1.5,0.5 0,0.6 0,1 0.7,0.7 0.5,-0.3 0.9,-0.4 1.1,0 0.3,0.4 0.7,0.4 1.3,0.7 0.6,0.4 0.8,0.1 1.2,-0.3 0.3,-0.4 1.7,-0.8 1.7,-0.8 0,0 1.8,-0.5 2.5,-0.3 l 1.7,0.7 c 0,0 0.4,1 0.2,1.7 -0.2,0.6 -0.5,0.5 -0.2,1.5 0.2,1 -0.3,1 -0.7,1 -0.5,-0.2 -1,-0.2 -1,0.7 0,0.8 -0.4,1 -0.4,1.8 0,0.8 0,0.6 -0.5,1 -0.4,0.3 -0.6,0.8 0.1,1 0.7,0 0.5,0.8 0.5,1.2 l -0.1,1.4 c 0,0 0,0.5 -0.7,0.5 -0.7,0 -1.5,0 -1.6,0.5 -0.2,0.5 -1,1.3 -0.3,1.9 0.8,0.5 0.6,0.8 0.1,1 -0.4,0.3 -0.8,1.3 0.2,1.6 0.9,0.4 0.8,0.7 0.2,1.1 -0.6,0.4 -1.7,0.8 -1.7,1.4 0,0.6 -0.3,0.6 -1,0.7 -0.7,0.1 -1,1 -0.2,2 0.8,1.1 1,1 1.6,1 0.6,0 0.6,-1 0.6,-1 l 2.5,0.2 c 0.6,0 1.4,0 1.9,-0.3 0.5,-0.4 1.7,-0.9 1.7,0 0,1 0.3,1 0.8,1.3 0.6,0.5 0.7,0.1 1.2,0.8 0.5,0.6 0.6,0 1,-0.7 0.3,-0.7 1,-1.4 1.6,-0.6 0.5,0.9 0.5,0.6 1.2,0.6 0.7,0 1,0.4 1,0.9 0,0.5 0.6,0.5 1.5,0.4 0.8,0 0.9,0.5 1.2,1 0.3,0.5 0.5,0.4 1,0.4 0.4,0 0.9,0 1.2,-0.4 0.4,-0.4 0.8,-1 1.3,-0.3 0.5,0.6 1.4,0.5 1.6,-0.2 0.3,-0.8 1.3,-1.4 1.9,-0.6 0.6,0.9 1,0.9 1.6,1 0.6,0 1.4,0 1.7,0.6 0.4,0.6 1.5,1.4 0.7,2 -0.8,0.7 -1.7,1.5 -1,1.8 a 3,3 0 0 1 1.6,1 c 0.5,0.4 2,0.7 2.7,0.8 0.7,0 1.2,0.2 2,-0.5 0.9,-0.6 1.7,-0.6 1.6,0.3 -0.1,0.8 0.3,1.8 0.3,1.8 0,0 0.6,1.4 0.6,1.9 0,0.5 -0.1,0.6 1,1.3 1,0.6 0.8,1 1.7,0.4 0.8,-0.6 1,-1 1,-1.5 v -1.7 c 0,0 1.2,-0.2 1.6,-0.5 0.5,-0.4 2.3,-1.3 2.8,-0.9 0.5,0.4 1,0.3 1.5,0.1 0.5,-0.2 1.4,-0.2 1.9,-0.2 0.4,0 1.2,0.1 2.2,-0.6 0.9,-0.8 0.9,-0.6 1.5,0 0.5,0.5 0.5,1.1 0.2,1.6 -0.4,0.4 0,1.3 0.8,1.3 0.8,0 1,0.5 1,1 l 0.3,1.7 c 0,0.4 0,0.7 1.4,1 1.2,0.3 1,1 1.2,1.6 0.3,0.5 0.3,1 -0.4,1 -0.7,0 -1,0.3 -1,0.8 -0.2,0.5 -1.2,0.7 -1.2,0.7 l -1,-0.2 c 0,0 -0.8,0 -1.1,0.4 -0.4,0.5 -1,1.3 -0.6,2 0.5,0.8 0.5,1.2 0,1.6 -0.4,0.3 -0.7,1.9 -1.1,1.6 -0.5,-0.4 -1,0 -1.5,0.3 -0.5,0.2 -0.4,1.7 0.5,2.2 1,0.6 1.2,1.3 1.2,1.3 l 1,1.6 c 0,0 -0.3,0.3 -0.5,0.9 -0.3,0.5 -1,1.6 -0.3,1.8 0.7,0.2 0.4,1.4 -0.3,1.4 -0.7,0 -1.5,-0.4 -1.6,0.5 -0.1,0.9 -0.5,0.6 -1.2,0.5 -0.7,0 -2.4,-0.5 -2.9,0.3 -0.5,0.9 -0.6,1.2 -1.4,1.1 -0.8,0 -0.5,1.3 -0.2,1.8 l 1,1.3 c 0,0 0.7,0.5 0.7,1.6 0,1 -0.5,1 -1,0.2 -0.4,-0.7 -1.3,-0.6 -1.4,0.2 -0.1,0.9 -0.3,2.2 -1,2.2 -0.9,0 -1.2,0.2 -1.6,0.6 -0.3,0.4 -0.9,1.2 -0.9,1.6 0,0.4 -0.1,0.9 -0.7,1 -0.6,0.1 -0.7,1.2 -0.7,1.2 0,0 -1.4,0.3 -1.5,0.8 -0.1,0.5 0.1,1.4 -1,1.5 a 3,3 0 0 0 -2.2,1.4 c -0.4,0.5 -0.5,1 0,1.5 0.5,0.5 0.8,2.2 1.4,2.5 0.5,0.3 1,0.5 0.9,1.3 -0.1,0.9 -0.8,1.5 0.1,1.5 1,0 1.5,0.2 1.2,1 -0.4,0.7 -0.4,0.8 -1,1.1 -0.8,0.4 -1.1,0.4 -1.1,1.2 0,0.8 0.2,0.9 -0.4,1.2 -0.6,0.3 -0.6,0.7 -0.6,1.4 0,0.7 -0.2,0.4 -0.9,1.1 -0.7,0.8 -1.6,0.8 -2.2,0.6 -0.6,-0.2 -0.7,-0.2 -0.8,-0.9 -0.1,-0.6 -1.1,-0.6 -1.7,-0.5 -0.6,0 -1.4,0.7 -1.4,0.7 0,0 -1,0.7 -0.6,1.2 0.5,0.5 0.2,1.4 -0.6,1.3 -0.8,-0.1 -2.6,0.8 -3.2,-0.1 -0.6,-1 -2.2,-1.6 -2.5,-0.3 -0.2,1.2 0.7,1.1 0.6,2.4 0,1.3 -0.3,1.3 -0.8,1.7 -0.4,0.4 -0.4,0.8 -0.6,1.3 0,0.5 -0.2,1.7 0.6,2.1 0.8,0.5 1.2,1.6 1.2,2.3 0,0.6 0,1.3 0.8,1.3 0.8,0 1.5,-0.2 1.6,-0.9 0.1,-0.7 1.7,-1.2 1.9,0.3 0,1.5 0,2.3 0.7,2.9 0.5,0.6 1,1.5 1.5,1.8 0.4,0.3 1.2,3 1.2,3 -1.1,0.3 -1.4,1.8 -2.1,2 -0.4,0.2 -0.9,0 -1.3,0.3 -0.2,0.3 -0.2,0.7 -0.6,0.8 -0.9,0.4 -0.7,-0.9 -1.8,-0.4 -0.9,0.4 -1,1.5 -2.3,1 -0.7,-0.2 -1.1,-3 -1.3,-3.6 l -1.1,-1.8 c -0.8,-1.2 -2.3,0 -2.8,-0.4 -0.8,-0.5 -0.5,-1.4 -1.7,-1.5 -2.4,-0.2 -0.7,1.5 -1.7,1.8 -2,0.7 -2,-1.8 -3.4,-0.6 -0.5,0.4 1,0.7 0.6,1.4 -0.3,0.6 -1.7,1.6 -1.7,2.3 0.2,1 1.2,1.3 1.5,2 1,2.3 -0.5,3.8 -2.7,2 -1.2,-0.9 -1.5,-2.7 -3.3,-2.5 -0.5,0 -0.6,0.4 -1,0.5 -0.5,0 -0.8,-0.4 -1.3,-0.3 -0.7,0.3 0,0.8 -0.2,1.2 0,0 -1,0.7 -1,1 -0.6,0.6 -0.4,1.2 -1.2,1.8 -0.6,0.5 -1.1,0.2 -1.8,1 -0.7,0.7 -0.8,1.9 -1.7,2.6 -0.5,0.4 -0.8,-1.1 -1.4,-0.1 l -0.2,0.4 c -0.2,0.3 -0.2,0.4 0,0.7 1.2,2.4 -1.4,3.2 -2.2,4.9 -0.3,0.7 0.6,1.3 0.3,1.9 l -1.5,1.7 c 0,0.2 -0.2,0.8 -0.4,1 -0.2,0.2 -1,0 -1,0.4 0,0.4 0.8,0.7 1,0.9 0.2,0.3 -0.2,0.7 0,0.8 1.2,1.3 0.5,0.9 1.1,2 0.1,0.2 0.5,-0.1 0.7,0.3 0.1,0.4 -0.4,0.4 -0.2,0.8 0,0.2 1,1.4 1,1.4 0,0.4 -1.8,1.2 -2.2,1.2 -1.1,0 1,-2.2 -0.8,-2.2 -0.8,0 -0.9,1.7 -1,2 h -1 c -1.2,0 -2,1.4 -2.4,1.5 -0.3,0.1 -1,-0.2 -1.5,0 -0.4,0 -1,0.5 -1.4,0.5 -0.3,0 -0.4,-0.2 -0.7,-0.4 -0.5,-0.3 -1.5,-0.4 -2,-0.6 -0.4,0 -1,0.4 -1.2,0.3 -0.3,-0.2 0.3,-1 -0.6,-1.4 l -0.7,-1.7 c 0.3,-1 0.6,-2 0.5,-3.1 -0.2,-1.1 -2,-2 -2.4,-3 -0.3,-0.6 -0.6,-2.4 -1.3,-2.8 a 6.2,6.2 0 0 1 -1.8,-2.2 c 0,-0.2 0.3,-0.6 0,-1 -0.3,-0.3 -0.8,-0.5 -1,-1 -0.1,-0.4 0,-1.8 -0.5,-2.1 -0.5,-0.3 -4,-0.8 -5,-0.9 -0.4,0 -0.7,0 -1,-0.3 l -0.6,-0.7 -1,0.2 c -0.3,0 -0.8,-0.2 -1,0 -1.1,0.7 -1.4,1.7 -2.5,2.6 -1.1,0.8 -2.3,0.8 -3.4,1.7 -0.7,0.6 -1.2,2.1 -1.9,2.8 -0.3,0.3 -0.7,0 -0.8,0.1 -0.6,0.7 -1.4,1.2 -2,1.8 -0.1,0.2 0,0.4 -0.2,0.5 l -1.3,0.4 h -1.2 c -0.5,0.2 -0.5,0.8 -2.5,1.2 l -0.5,0.3 -0.6,0.5 h -0.9 c -0.5,0 -0.8,0.5 -1.2,0.5 -1,0.2 -2.8,-0.5 -3.6,-0.1 -0.5,0.1 -1.8,1.7 -2.3,1.8 -0.3,0.1 -0.6,0 -1,-0.1 l -0.6,2.2 -2.4,2.1 c -0.3,0.3 -0.4,0.7 -0.8,1 -0.2,0.3 -0.6,0.5 -1,0.5 -0.4,0 -1.1,-0.4 -1.6,-0.4 -0.8,-0.2 -3.3,-0.3 -4,-0.1 -0.9,0.1 -0.6,2.4 -2.6,2.6 l -3.3,0.4 c -0.1,0 -0.8,-0.4 -1.5,-0.3 -0.3,0.1 -1.1,1 -1.1,1.2 v 0.5 l 0.2,0.4 c -0.4,0.5 -1.4,1.3 -1.7,2 l -0.4,0.4 c -0.2,0.2 -1.6,0.7 -1.7,0.9 -0.3,0.8 1,1.6 0.8,1.9 -0.3,1 -1.7,2 -2.2,3 -0.1,0.4 0.5,1.7 0.5,2.1 -0.2,1.3 -0.6,2.9 -0.5,4.1 l 0.2,1.7 0.7,0.5 1.8,3.6 c 0.3,2.2 -3,1.4 -1,3.6 0.2,0.4 0.4,0.7 0.8,1 l 2.8,2.3 c 0,0.4 -2,0.7 -2.3,1 -1,1 -1.7,2.6 -2.6,3.6 -0.6,0.5 -1,-0.1 -1.8,1.3 -0.2,0.5 0,1.6 -0.3,2 -0.5,0.4 -0.8,-0.2 -1.3,0 -0.2,0 -0.3,0.7 -0.5,0.8 -0.5,0.5 -5.2,3 -5.6,2.7 -0.2,-0.1 -0.5,-0.9 -0.5,-1.1 0,-0.3 -0.4,-0.9 -0.6,-1 -1.2,-1 -3,-1.3 -4.2,0 -0.3,0.3 -0.3,0.8 -0.7,1 l -2,1.6 -0.5,0.5 c -0.5,0 -1.6,-1.3 -2,-1.7 -0.4,-0.6 -2,-2 -2.1,-2.7 0,-2.4 -1.9,-4.9 -2.6,-7.2 h 1.1 c 1.3,-0.9 1,-3 3.3,-2.2 0.3,-0.4 0.3,-0.8 0.8,-1 0.2,-0.2 0.6,-0.3 0.7,-0.5 0.8,-1.2 1.7,-5.8 0.9,-7 -0.7,-1 -1.5,-1 -2,-2.7 -0.2,-0.5 0,-1 0,-1.6 l -1,-3.1 c -0.2,-0.3 -0.7,-0.5 -0.7,-0.7 l -0.2,-3.1 c -0.7,-2.2 -3.4,-3.5 -3.5,-3.8 l -1,-1.7 c -0.4,-0.7 -0.4,-1 -0.6,-1.6 -0.1,-0.3 -0.6,-0.6 -0.6,-0.9 0,-0.6 1.6,-1.7 1.5,-2.7 0,-0.3 -1,-1.3 -0.8,-1.8 0.2,-0.6 1.2,-1.8 1.2,-2.5 0,-0.8 -1.6,-2.6 -1.8,-3.4 -0.1,-0.5 0.6,-0.8 0.4,-1.1 -0.2,-0.4 -1.8,-1.9 -2,-2.3 -0.3,-0.3 0.5,-0.7 0,-1.3 -0.6,-0.5 -0.1,-0.4 -0.3,-0.8 -0.2,-0.5 -0.7,-1 -1,-1.5 -0.2,-0.5 -1.6,-5.5 -1.5,-5.8 -0.3,-0.3 -0.7,-0.6 -0.9,-1 l -0.4,-1.2 c 0,0 -1.6,-0.5 -1.9,-1 -0.2,-0.3 -0.3,-1.6 -0.7,-2.2 -0.2,-0.3 -0.5,-0.2 -0.7,-0.4 -0.2,-0.2 -0.2,-0.5 -0.3,-0.7 -0.5,-0.6 -1.4,0 -2,-2.4 -1,-0.6 -1.7,-1 -2.4,-1.8 l -0.4,-0.4 c -0.6,-0.2 -1.5,-0.3 -2,-0.7 -0.3,0 -1.8,0 -2,-0.2 l -0.4,-0.8 c -0.8,-0.1 -2.2,0 -2.9,-0.6 -0.5,-0.5 -0.6,-2.8 -1.6,-2.5 a 0.7,0.7 0 0 0 -0.4,0 c -0.7,-1 -2.9,-1 -3.8,-1.6 -0.2,-0.1 -1,0 -1,-0.2 l 0.1,-1.3 -1.1,-1.4 c -0.9,-0.2 -0.6,-0.3 -1,-0.6 -1.5,0 -1.7,0.2 -2.6,1 -0.2,0.2 -0.7,0.3 -1,0.4 -0.5,0.3 -0.6,1.2 -1.3,0.8 l -0.6,-0.5 c -0.4,-0.4 -0.6,-0.2 -0.8,-0.8 -1.2,-0.7 -4.5,1.5 -5.2,0 -0.6,-0.3 -1,0 -1.5,-0.4 -0.2,-0.2 0.7,-3 -1.7,-4 l 1.6,-1.1 c 0.2,-0.3 0,-0.8 0,-1 0,-0.5 0.3,-1.4 0.2,-1.7 0,-0.3 -0.4,-0.6 -0.5,-1 -0.2,-0.3 0,-0.8 -0.2,-1.2 l -0.8,-0.4 c -0.6,-0.5 -1.2,-0.8 -1.7,-1.4 l -0.4,-0.5 c -0.4,-0.3 -1.8,-0.8 -1.8,-1.4 0,-0.2 0.4,-0.3 0.4,-0.5 0.1,-0.3 0,-0.6 0.3,-0.8 0.6,-1 2.1,-0.5 1.9,-2.2 -0.1,-0.8 -0.7,-1.4 -0.8,-2.2 -0.3,-0.2 -0.3,-0.5 -0.5,-0.7 -1.5,-0.1 -1.3,-1.6 -1.8,-2 -1.5,-1 -2.7,-0.4 -1,-2.4 0.2,-0.7 -1.5,-1.8 -1.8,-2.1 -0.6,-0.6 -0.3,-1.9 -0.6,-2.5 0,-0.3 -1.1,-0.9 -1.4,-1.3 l -0.5,-1 v -0.1 c 0.3,-0.3 0.2,-0.8 0,-1 -0.1,-0.3 -0.6,-0.2 -0.7,-0.4 -1.4,-1.2 -3,-1.8 -4.9,-2.5 -0.5,-0.2 -0.3,-0.6 -0.8,-0.8 l -3,-1.2 c -0.2,0 -0.4,-1.1 -0.6,-1.5 l -0.9,-1 c 0,-1 -0.6,-1 -1.4,-1.6 v -0.6 l 0.6,-2.1 c 0.1,-0.4 0.6,-0.8 0.5,-1.2 l -0.4,-2.3 c -0.8,-2 -1.7,-1.8 -1.2,-4.5 0,-0.6 -0.1,-0.9 0.3,-1.4 l 0.2,-0.3 1.2,-0.9 c 0.4,-0.6 0.7,-1.9 1.2,-2.3 l 1.8,-1.2 c 0.2,-0.2 0.4,-0.9 0.3,-1.2 -0.4,-0.2 -0.8,-0.1 -1.2,-0.2 -0.2,0 -0.7,-0.4 -1.1,-0.4 -0.1,-0.2 -0.3,-0.3 -0.3,-0.5 l -0.2,-0.2 c -0.5,0 -1,-0.3 -1.4,-0.5 -0.5,-0.2 -1.2,-0.2 -1.7,-0.5 -1,-0.5 -2,-2 -2.9,-2.2 -1.2,-0.3 -2,0.1 -3.2,0.2 -0.7,0 -0.7,-0.4 -1.3,-0.6 -0.8,-0.3 -0.2,0.4 -2,-0.2 -0.3,-0.2 0,-0.8 0,-1 h -1 c -1.4,-0.4 -0.9,-1.8 -1.3,-2.7 -0.1,-0.2 -0.8,-0.2 -1,-0.2 -0.2,0 -0.2,-0.2 -0.2,-0.2 l 0.2,-0.1 c 0.2,-0.4 -0.7,-1.4 -0.7,-1.6 0.1,-0.3 2,-0.6 2.2,-0.6 0.1,-0.3 -0.1,-0.5 -0.2,-0.7 0,-0.5 0.3,-1.2 0.5,-1.7 v -0.2 c -0.6,-0.3 -0.7,-0.7 -1.2,-1 0,-0.3 0.3,-0.4 0.4,-0.7 0.9,-2.5 2.3,-0.5 3.5,-2.8 0.1,-0.2 0.5,-0.7 0.6,-1.1 h 0.2 c 0.2,0 0.6,0.2 0.8,0 0.2,-0.2 0.5,-0.2 0.8,-0.3 h 0.5 c 2.2,-0.4 1.7,-1.2 3,-2.1 0.4,-0.3 1.4,-0.4 1.8,-0.6 0.5,0.3 1.2,1 2.1,1.4 0.7,0.2 3,0.7 3.4,1 0.5,0.2 0.6,0.8 1,1 1.3,0.8 0.5,-0.4 1.8,-0.2 1.3,0.3 2.3,1.4 3.5,1.9 l 1,-0.1 c 0.3,-0.1 2.3,-0.5 2.5,-0.4 l 0.8,0.3 c 0.3,0.1 0.5,-0.5 0.8,-0.5 0.8,0.2 0.8,0.5 2,0.4 0,0 0.6,-3.3 1.2,-3.4 0.3,-0.1 1.2,0.7 1.4,0.8 0.4,0.1 0,-0.7 0,-0.7 -0.2,-0.3 -0.8,-2.3 -0.7,-2.5 0,0 0.5,0.2 0.8,0.1 0.6,-0.2 1.5,-0.4 2,-0.9 l 1,-1.5 c 0.1,-0.2 -0.2,-0.8 0,-1 l 0.9,-0.6 c 0.4,-0.4 0.4,-1 1,-1.3 2,-0.2 2.7,-1.8 4.6,-2 h 0.6 l 0.4,0.6 c 0,0.1 1.3,0.9 1.5,0.8 0.2,0 0.3,-0.3 0.5,-0.4 0.3,0.1 1.4,-0.5 1.5,-0.9 0,0 -0.2,-0.3 -0.1,-0.6 a 12,12 0 0 1 1.6,-1.2 h 1.4 c 0.2,0.2 0.2,0.6 0.5,0.6 h 1.2 c 0.2,0 0.3,-0.5 0.7,-0.5 z"
     id="path2" />
  <g
     fill="#ffffff"
     id="g3"
     transform="translate(-67.8,18.2)">
    <path
       d="M 351.9,73.4 368,123 325.8,92.3 H 378 l -42.2,30.7 16,-49.6 z m 62.8,11.1 16,49.6 -42.1,-30.7 h 52.1 l -42.2,30.7 z m 59.9,21.8 16,49.6 -42.1,-30.7 h 52.1 l -42.2,30.8 16.2,-49.6 z"
       id="path3" />
  </g>
  <path
     fill="#ffffff"
     d="m 220.3,91.6 -16.1,49.6 42.2,-30.7 h -52.2 l 42.2,30.7 -16,-49.6 z m -62.8,11.1 -16,49.6 42.1,-30.7 h -52.1 l 42.2,30.7 z m -59.6,21.8 16.2,49.6 -42.2,-30.7 H 124 l -42.2,30.7 z"
     id="path4" />
</svg>
