<?xml version="1.0" encoding="UTF-8" standalone="no"?>
<svg
   xmlns:dc="http://purl.org/dc/elements/1.1/"
   xmlns:cc="http://creativecommons.org/ns#"
   xmlns:rdf="http://www.w3.org/1999/02/22-rdf-syntax-ns#"
   xmlns:svg="http://www.w3.org/2000/svg"
   xmlns="http://www.w3.org/2000/svg"
   xmlns:xlink="http://www.w3.org/1999/xlink"
   xmlns:sodipodi="http://sodipodi.sourceforge.net/DTD/sodipodi-0.dtd"
   xmlns:inkscape="http://www.inkscape.org/namespaces/inkscape"
   width="1000"
   height="700"
   viewBox="0 0 900 600"
   version="1.1"
   id="svg19"
   sodipodi:docname="hk.svg"
   inkscape:version="0.92.3 (2405546, 2018-03-11)">
  <metadata
     id="metadata25">
    <rdf:RDF>
      <cc:Work
         rdf:about="">
        <dc:format>image/svg+xml</dc:format>
        <dc:type
           rdf:resource="http://purl.org/dc/dcmitype/StillImage" />
      </cc:Work>
    </rdf:RDF>
  </metadata>
  <defs
     id="defs23" />
  <sodipodi:namedview
     pagecolor="#ffffff"
     bordercolor="#666666"
     borderopacity="1"
     objecttolerance="10"
     gridtolerance="10"
     guidetolerance="10"
     inkscape:pageopacity="0"
     inkscape:pageshadow="2"
     inkscape:window-width="2560"
     inkscape:window-height="1376"
     id="namedview21"
     showgrid="false"
     inkscape:zoom="1.907168"
     inkscape:cx="608.33587"
     inkscape:cy="94.280145"
     inkscape:window-x="0"
     inkscape:window-y="0"
     inkscape:window-maximized="1"
     inkscape:current-layer="svg19" />
  <rect
     width="900"
     height="630.67383"
     id="rect2"
     x="0"
     y="-15.100924"
     style="fill:#de2910;stroke-width:1.02524281" />
  <g
     id="petal">
    <path
       d="m 449.96406,299.9134 c -105.26305,-44.48626 -58.60174,-181.58185 42.06956,-174.6907 -20.36609,10.46694 -23.31775,29.99772 -11.68704,48.09021 13.02444,20.2558 -1.19897,52.84856 -18.80577,60.7674 -28.93485,13.02443 -34.72791,47.74999 -11.57675,65.83309 z"
       fill="#fff"
       id="path4" />
    <path
       d="m 444.27188,200.91974 -5.91976,9.29378 -2.14454,-10.8142 -10.67812,-2.75928 9.62461,-5.3895 -0.67104,-10.99955 8.08542,7.48945 10.25578,-4.04271 -4.61053,10.00942 7.00143,8.50541 z"
       fill="#de2910"
       id="path6" />
    <path
       d="m 450.56002,298.75902 c -12.73114,-6.53451 -22.9963,-20.15491 -27.46839,-36.43134 -5.11498,-18.66969 -2.17269,-38.74247 8.08308,-55.03768 l -2.20789,-1.39371 c -10.64057,16.92871 -13.69313,37.74293 -8.38575,57.11886 4.72784,17.22201 15.21355,31.09815 28.78703,38.06438 z"
       fill="#de2910"
       id="path8" />
  </g>
  <use
     xlink:href="#petal"
     transform="rotate(72 450,300)"
     id="use11" />
  <use
     xlink:href="#petal"
     transform="rotate(144 450,300)"
     id="use13" />
  <use
     xlink:href="#petal"
     transform="rotate(216 450,300)"
     id="use15" />
  <use
     xlink:href="#petal"
     transform="rotate(288 450,300)"
     id="use17" />
</svg>
