<?xml version="1.0" encoding="UTF-8" standalone="no"?>
<svg
   xmlns:dc="http://purl.org/dc/elements/1.1/"
   xmlns:cc="http://creativecommons.org/ns#"
   xmlns:rdf="http://www.w3.org/1999/02/22-rdf-syntax-ns#"
   xmlns:svg="http://www.w3.org/2000/svg"
   xmlns="http://www.w3.org/2000/svg"
   xmlns:sodipodi="http://sodipodi.sourceforge.net/DTD/sodipodi-0.dtd"
   xmlns:inkscape="http://www.inkscape.org/namespaces/inkscape"
   width="1000"
   height="700"
   viewBox="0 0 750 500"
   version="1.1"
   id="svg8"
   sodipodi:docname="lb.svg"
   inkscape:version="0.92.3 (2405546, 2018-03-11)">
  <metadata
     id="metadata14">
    <rdf:RDF>
      <cc:Work
         rdf:about="">
        <dc:format>image/svg+xml</dc:format>
        <dc:type
           rdf:resource="http://purl.org/dc/dcmitype/StillImage" />
      </cc:Work>
    </rdf:RDF>
  </metadata>
  <defs
     id="defs12" />
  <sodipodi:namedview
     pagecolor="#ffffff"
     bordercolor="#666666"
     borderopacity="1"
     objecttolerance="10"
     gridtolerance="10"
     guidetolerance="10"
     inkscape:pageopacity="0"
     inkscape:pageshadow="2"
     inkscape:window-width="2560"
     inkscape:window-height="1376"
     id="namedview10"
     showgrid="false"
     showguides="true"
     inkscape:guide-bbox="true"
     inkscape:zoom="1.3485714"
     inkscape:cx="578.35323"
     inkscape:cy="209.80017"
     inkscape:window-x="0"
     inkscape:window-y="0"
     inkscape:window-maximized="1"
     inkscape:current-layer="svg8">
    <sodipodi:guide
       position="376.50953,237.28814"
       orientation="1,0"
       id="guide102"
       inkscape:locked="false" />
  </sodipodi:namedview>
  <rect
     width="750"
     height="526.13879"
     id="rect2"
     x="0"
     y="-12.791313"
     style="fill:#ed1c24;stroke-width:1.02580583" />
  <rect
     y="118.74338"
     width="750"
     height="263.0694"
     id="rect4"
     x="0"
     style="fill:#ffffff;stroke-width:1.02580583" />
  <path
     d="m 370.86974,118.99999 c -5.60635,11.80527 -16.16429,20.05684 -26.25549,27.8649 -1.66016,1.4499 -5.78773,4.25804 -2.79337,6.39501 2.56546,-2.86714 9.60633,0.92969 5.51426,4.01259 -3.66565,3.43107 -8.71273,4.68727 -12.78265,7.51836 -3.60456,1.95832 -7.26043,4.00333 -10.11884,7.00103 -0.19471,4.683 5.81045,2.09067 8.24736,4.04163 3.1734,3.39275 -1.34559,9.11195 -5.51029,7.80388 -5.32515,0.16318 -9.00299,4.84866 -11.01672,9.31889 -4.16551,6.44136 -12.05884,8.34878 -18.3429,12.01444 -3.59575,2.09605 -7.08439,4.41513 -10.43168,6.86091 -4.31558,2.95071 -0.56108,8.79282 4.03081,7.35878 4.95678,-0.49419 9.41639,-4.38871 14.5481,-3.26645 4.65399,1.6352 5.96017,7.71747 4.37406,11.96404 -1.17433,3.39999 -4.02111,5.79488 -6.30198,8.45079 -3.70262,3.75106 -8.54484,6.1863 -13.65068,7.34751 -4.9347,1.6568 -9.36979,4.67985 -12.60659,8.76091 -3.75684,3.78192 -7.49866,7.62511 -11.81656,10.77866 -1.36396,3.48037 2.48531,6.44502 5.69458,6.35262 6.7619,-0.42581 11.44834,-5.96009 17.20728,-8.80402 4.779,-2.14788 10.40331,3.00295 9.23424,7.98171 -0.36981,4.84367 -4.90487,7.30152 -8.93703,8.79186 -11.85354,5.95894 -22.14544,14.59993 -31.28373,24.13415 -1.89001,3.85524 -7.08597,2.72031 -9.8838,5.40783 -1.82269,3.40105 2.75161,5.19431 5.48054,4.84472 11.72726,-1.41049 22.67018,-6.3673 33.03685,-11.82097 3.85518,-1.84322 7.47525,-4.26894 11.48329,-5.7379 3.7648,-0.93007 9.01452,0.70651 9.6881,4.99129 -0.005,4.52317 -4.48639,7.02849 -8.03524,8.79553 -10.94386,5.74975 -22.9542,8.92828 -34.65131,12.7295 -4.37898,-1.22427 -7.67793,6.56655 -2.87415,7.96738 5.07965,1.74187 10.4798,0.34533 15.67583,0.11702 16.06669,-2.4615 30.11839,-11.15546 45.13684,-16.77537 6.2437,-2.03524 13.61365,0.80497 16.695,6.65549 3.09573,5.21487 2.81279,12.07258 -0.45286,17.13915 -5.16087,11.04139 -13.00689,21.18914 -23.53979,27.53769 -6.61152,3.27322 -14.32888,4.52548 -19.99523,9.53684 -5.24055,1.72746 2.6272,8.80888 3.76448,3.18851 3.14907,-4.29498 8.70315,-5.5787 13.74119,-5.75614 7.57148,-0.82423 15.61217,-2.22085 21.49529,-7.46241 5.27428,-4.09566 10.47178,-9.74584 17.63365,-9.83401 3.95803,0.46938 7.87275,3.64978 11.89278,1.70914 3.51661,-1.60962 9.0342,-0.6664 9.95276,3.65805 1.67929,5.05876 6.89349,7.36046 11.02848,10.06762 1.49671,2.10177 6.47009,7.52241 7.61698,2.74333 -0.92545,-3.40861 0.39687,-8.62444 4.86826,-7.48542 3.90566,0.17439 7.6276,1.61451 11.52572,1.85072 5.1912,1.07526 9.52139,4.62913 12.46906,8.92025 2.0278,2.80033 6.4697,7.6119 9.76991,3.89861 2.04798,-3.84031 -1.86131,-7.0431 -5.04375,-8.41441 -4.64078,-2.87588 -8.6085,-6.70576 -12.66614,-10.33205 -5.98033,-5.58532 -11.14573,-12.68938 -12.09499,-21.03329 -1.28686,-8.31955 -0.60965,-16.80508 0.4761,-25.10202 1.36647,-5.34171 8.19714,-8.25791 12.97339,-5.41976 6.72059,3.06646 13.39482,7.45422 21.09963,6.97846 11.13351,0.23989 22.57419,-1.89186 33.45479,1.33446 10.58792,3.3352 18.15782,12.27034 28.47161,16.13666 2.30883,1.40316 5.26255,0.0678 6.10857,-2.39823 1.02219,-2.21596 0.30095,-5.0512 -1.83421,-6.31408 -11.95308,-12.06557 -28.28899,-17.92703 -42.11921,-27.35523 -4.35413,-1.10573 -5.14689,-8.11092 -1.12184,-10.13337 5.29219,-3.8459 12.77966,-2.0556 17.4747,1.90965 3.96491,2.32253 8.43183,4.06253 13.08365,4.06667 4.76495,-1.49163 2.45484,-8.38671 -1.81155,-8.9052 -7.73026,-4.36474 -13.26669,-11.52725 -19.96409,-17.20335 -3.85585,-3.26478 -8.07619,-6.5703 -13.25841,-7.20397 -2.8325,-0.5158 -5.73016,-0.62867 -8.60007,-0.43605 -2.6916,-2.92509 0.89565,-7.40396 4.37588,-7.03774 3.57133,0.24057 7.12225,0.50603 10.68893,0.009 3.98586,-0.29202 7.96829,-0.70462 11.96835,-0.73198 3.22884,2.19887 9.68103,-1.59954 6.76692,-5.39066 -3.18333,-2.78944 -7.78664,-2.54715 -11.59079,-3.97865 -6.68283,-2.19251 -13.48383,-3.96453 -20.36992,-5.35431 -4.8176,-0.28726 -4.2234,-6.62764 0.0109,-7.32693 2.77108,-1.03372 5.17963,1.09527 7.83968,1.42533 4.54299,0.97624 9.23333,0.9637 13.77406,1.95344 3.84993,-1.90052 0.8738,-7.52526 -2.6089,-7.85301 -8.21739,-2.93838 -15.31892,-8.24179 -22.2614,-13.4008 -7.66497,-5.76453 -14.61901,-12.43091 -22.37796,-18.06223 -2.81526,-1.74461 -7.42962,-2.24706 -8.17021,-6.11336 -0.26118,-3.55679 3.92545,-5.17666 6.89318,-4.3451 4.21074,1.24348 8.13438,3.40885 12.42595,4.47196 3.36699,0.57221 6.83859,1.56851 10.08391,1.14422 4.1196,-2.5884 -1.76688,-4.24277 -3.89749,-5.14084 -5.49264,-2.96232 -10.37302,-6.90913 -15.31605,-10.67285 -4.17719,-3.56557 3.54299,-5.14081 6.19865,-3.76794 4.44004,1.85749 4.94602,-4.61242 1.62708,-6.2405 -3.91059,-1.6628 -7.27356,-4.42316 -10.8195,-6.83042 -6.40686,-4.5608 -13.66339,-8.17111 -21.53948,-9.17395 -8.83029,-0.8873 -17.0724,-5.96518 -21.75695,-13.51668 -2.90499,-4.30339 -5.03691,-9.06245 -7.09784,-13.80958 z m -28.99921,49.53925 c 4.55124,0.13502 3.85157,8.33727 -0.62921,7.79003 -4.35137,-0.28003 -4.08506,-8.67118 0.62921,-7.79003 z m 42.92868,4.4171 c 4.42859,-0.79219 5.36637,7.28926 0.94179,7.66866 -4.61002,0.8252 -6.31859,-8.18005 -0.94179,-7.66866 z m -12.57349,1.05331 c 4.48961,0.88322 3.69096,8.70448 -0.84001,8.77283 -3.31503,0.73815 -6.88801,3.00067 -10.24181,1.30499 -2.72736,-2.88453 1.21465,-7.14992 4.25908,-8.0876 2.33516,-0.4707 4.48357,-1.53096 6.82274,-1.99022 z m 28.93758,0.034 c 4.32653,1.57831 2.8006,9.21609 -1.76304,9.11873 -4.31567,0.57829 -6.32541,-6.62108 -2.30103,-8.3286 1.30278,-0.46193 2.66767,-0.85117 4.06407,-0.79013 z m -48.81485,8.66426 c 3.18144,3.02762 1.30236,8.87039 -2.62041,10.26727 -2.82756,1.57287 -6.68247,5.29335 -9.76226,2.23213 -1.67105,-3.73927 2.52337,-6.55495 4.99052,-8.63046 2.20186,-1.71206 4.63173,-3.26618 7.39215,-3.86894 z m 36.33377,16.88686 c 4.55494,2.15076 2.24273,10.35948 -2.75648,9.84924 -4.10585,-1.04039 -3.56979,-8.08238 0.56587,-8.6441 0.78177,-0.29921 1.49882,-0.73965 2.19061,-1.20514 z m -14.4534,0.81543 c 4.26005,1.99448 1.00737,9.10365 -3.28344,8.07923 -4.44889,-0.52246 -4.36686,-8.3441 0.53945,-7.63798 0.92449,-0.0458 1.8792,-0.0694 2.74399,-0.44125 z m 31.15643,4.07732 c 4.66919,-1.44889 10.29052,3.36151 8.77515,8.23959 -2.07976,3.78171 -7.22613,4.26051 -10.91224,2.84715 -4.23264,-0.20894 -7.07961,-6.57206 -3.30887,-9.26651 1.56034,-1.17849 3.52723,-1.66281 5.44596,-1.82023 z m -68.96942,1.22317 c 3.86064,-2.10039 7.95972,4.21244 4.67644,6.9969 -2.1748,3.19733 -7.75935,4.50361 -10.22175,0.94798 -2.04573,-3.47279 1.26191,-9.30727 5.54531,-7.94488 z m -17.81247,2.99005 c 4.37938,0.59915 7.23297,4.57691 8.85147,8.36447 0.39509,4.61578 -6.41566,7.14846 -9.38676,3.79011 -3.34092,-2.09594 -6.2654,-6.40634 -4.51391,-10.40686 1.07913,-1.58856 3.22898,-2.24397 5.0492,-1.74772 z m 106.56672,16.68297 c 4.75288,-1.25253 8.20353,6.34328 4.12241,9.09109 -3.73151,3.38935 -10.98694,-1.10095 -9.04091,-5.93691 0.96715,-1.79285 2.90184,-2.98442 4.9185,-3.15418 z m -60.49465,8.66428 c 3.98528,0.50754 2.69411,7.41468 -0.99089,7.18284 -3.95492,-0.73309 -3.04944,-7.57239 0.99089,-7.18284 z m -20.21624,3.66955 c 3.25055,-2.29992 7.44284,3.3136 4.73901,5.92944 -3.24079,2.28237 -7.44445,-3.24211 -4.73901,-5.92944 z m 32.1426,0.67955 c 3.76772,2.28934 6.00455,6.55795 6.47289,10.86535 -1.80565,4.02424 -8.77897,3.05415 -9.56515,-1.23131 -1.3788,-3.38921 -0.10808,-7.7496 3.09226,-9.63404 z m 11.21755,6.65961 c 4.85535,-1.21965 3.11297,8.92899 -0.94105,5.40883 -1.34723,-1.59982 -0.62569,-4.23225 0.94105,-5.40883 z m -70.44866,7.06733 c 3.21506,-0.94169 7.90158,0.0482 8.78902,3.73801 0.37489,3.46779 -3.43855,5.27188 -6.23281,6.13128 -4.47864,1.38194 -8.85884,3.65072 -13.67502,3.34595 -3.60991,-2.06329 -4.90568,-6.28555 -6.19276,-9.96807 3.48394,-3.26648 8.61406,-2.30825 12.93276,-3.12584 1.4584,-0.0747 2.9186,-0.11033 4.37881,-0.12133 z M 426.6493,268.0255 c 4.10121,-2.0107 8.51161,4.49905 5.07869,7.53969 -4.29476,4.94318 -12.56342,5.86173 -17.69868,1.70902 -0.61735,-4.3746 3.75241,-7.55183 7.63396,-8.17966 1.63281,-0.46126 3.25559,-1.15036 4.98603,-1.06905 z m 23.05143,4.99469 c 4.65977,-0.80196 8.33038,5.84564 5.00253,9.28607 -3.14938,4.74877 -10.65981,5.99424 -14.95401,2.10162 -1.67423,-3.93698 1.72204,-8.03916 5.3367,-9.30229 1.55365,-0.66121 3.02467,-1.50866 4.61478,-2.0854 z m -115.90436,7.06735 c 4.3154,-0.42586 8.26882,3.85577 7.70247,8.11029 3.12397,3.07423 -2.40801,8.80149 -5.52036,5.61806 -2.74269,-3.3233 -2.72827,-7.83175 -3.79064,-11.80901 -0.0476,-0.88346 0.60648,-2.02781 1.60853,-1.91934 z m 33.12872,2.48037 c 4.4614,-1.92886 10.23332,3.40843 7.80441,7.92695 -1.73456,3.68017 -8.49954,2.44666 -8.27474,-1.81613 -0.0115,-2.03915 -0.17615,-4.13051 0.47033,-6.11082 z m -16.11751,2.88806 c 4.47352,-1.02563 8.57788,4.77344 6.0919,8.64292 -4.45997,0.39651 -6.7754,-4.89662 -6.0919,-8.64292 z"
     id="path6"
     inkscape:connector-curvature="0"
     style="fill:#00a651;stroke-width:1.04474151" />
</svg>
