<?xml version="1.0" encoding="UTF-8" standalone="no"?>
<svg
   xmlns:dc="http://purl.org/dc/elements/1.1/"
   xmlns:cc="http://creativecommons.org/ns#"
   xmlns:rdf="http://www.w3.org/1999/02/22-rdf-syntax-ns#"
   xmlns:svg="http://www.w3.org/2000/svg"
   xmlns="http://www.w3.org/2000/svg"
   xmlns:xlink="http://www.w3.org/1999/xlink"
   xmlns:sodipodi="http://sodipodi.sourceforge.net/DTD/sodipodi-0.dtd"
   xmlns:inkscape="http://www.inkscape.org/namespaces/inkscape"
   width="1000"
   height="700"
   viewBox="0 0 900 450"
   version="1.1"
   id="svg985"
   sodipodi:docname="nc.svg"
   inkscape:version="0.92.3 (2405546, 2018-03-11)">
  <metadata
     id="metadata991">
    <rdf:RDF>
      <cc:Work
         rdf:about="">
        <dc:format>image/svg+xml</dc:format>
        <dc:type
           rdf:resource="http://purl.org/dc/dcmitype/StillImage" />
      </cc:Work>
    </rdf:RDF>
  </metadata>
  <defs
     id="defs989" />
  <sodipodi:namedview
     pagecolor="#ffffff"
     bordercolor="#666666"
     borderopacity="1"
     objecttolerance="10"
     gridtolerance="10"
     guidetolerance="10"
     inkscape:pageopacity="0"
     inkscape:pageshadow="2"
     inkscape:window-width="2560"
     inkscape:window-height="1376"
     id="namedview987"
     showgrid="false"
     showguides="true"
     inkscape:guide-bbox="true"
     inkscape:zoom="1.3485714"
     inkscape:cx="707.06735"
     inkscape:cy="295.72916"
     inkscape:window-x="0"
     inkscape:window-y="0"
     inkscape:window-maximized="1"
     inkscape:current-layer="svg985">
    <sodipodi:guide
       position="300.3178,302.70127"
       orientation="-1,-1.0009765e-07"
       id="guide993"
       inkscape:locked="false" />
    <sodipodi:guide
       position="274.95763,225"
       orientation="0,1"
       id="guide995"
       inkscape:locked="false" />
  </sodipodi:namedview>
  <title
     id="title956">Flag of New Caledonia</title>
  <rect
     width="900"
     height="631.52545"
     id="rect958"
     x="0"
     y="-91.430084"
     style="fill:#009543;stroke-width:1.18464756" />
  <rect
     width="900"
     height="421.01697"
     id="rect960"
     x="0"
     y="-91.430084"
     style="fill:#ed4135;stroke-width:1.18464756" />
  <rect
     width="900"
     height="210.50848"
     id="rect962"
     x="0"
     y="-91.430084"
     style="fill:#0035ad;stroke-width:1.18464756" />
  <circle
     cx="300.49847"
     cy="223.69833"
     r="164.17836"
     id="circle964"
     style="fill:#fae600;stroke:#000000;stroke-width:5.56612301" />
  <path
     d="m 272.66775,248.18931 h 55.66124 M 272.66775,207 h 55.66124 M 300.49837,60.054347 V 340.58696"
     id="path966"
     inkscape:connector-curvature="0"
     style="stroke:#000000;stroke-width:6.67934799" />
  <path
     d="m 234.39509,374.45014 c 67.0061,27.36306 129.8109,1.68097 129.8109,1.68097 0,0 -23.70835,-25.65761 -35.86142,-35.67551 -11.85918,-9.77189 -46.74542,-9.3856 -58.65024,0 -9.93442,7.83487 -38.42851,36.70301 -35.29924,33.99454 z"
     id="path968"
     inkscape:connector-curvature="0"
     style="stroke-width:1.11322463" />
  <ellipse
     cx="300.49847"
     cy="299.39777"
     rx="18.368206"
     ry="26.717392"
     id="ellipse970"
     style="stroke-width:1.11322463" />
  <ellipse
     cx="300.49847"
     cy="227.59462"
     rx="22.264492"
     ry="14.093424"
     id="ellipse972"
     style="stroke-width:1.11322463" />
  <circle
     cx="300.49847"
     cy="162.47098"
     id="ellipse974"
     r="22.264492"
     style="stroke-width:1.11322463" />
  <path
     d="m 327.21576,79.535779 c -0.007,-0.01492 1.92922,3.195841 -2.1296,10.504391 -19.39905,34.93633 -38.86601,35.69109 -42.5608,38.70014 -4.07218,3.31518 -5.791,3.08808 -5.791,3.08808 0.29055,-2.99234 0.56107,-15.2278 0.77369,-16.4067 2.94448,-16.32321 27.60352,-16.09834 46.90238,-32.81285 3.01462,-2.611073 2.79865,-3.087979 2.79865,-3.087979 z"
     id="path976"
     inkscape:connector-curvature="0"
     style="stroke-width:1.11322463" />
  <g
     id="leaf"
     transform="matrix(1.1132246,0,0,1.1132246,-33.469023,-26.777175)">
    <path
       d="m 265.5,163 c 0,0 3.91436,11.22974 4.5,22.5 0.93516,17.99657 18.18031,18.5 30,18.5 v -10 c -8.85851,0 -16.55267,-1.31658 -23,-14.5 -3.18045,-6.50336 -11.5,-16.5 -11.5,-16.5 z"
       id="path978"
       inkscape:connector-curvature="0" />
    <path
       d="m 265,308 c 0,0 6.29638,-7.76543 13.6619,-25.97461 C 282.5048,272.5249 291.6115,267 300,267 v -14 c -19.02757,0 -28.1503,7.0552 -29.11281,17.36332 C 268.90975,291.54089 265,308 265,308 Z"
       id="path980"
       inkscape:connector-curvature="0" />
  </g>
  <use
     xlink:href="#leaf"
     transform="matrix(-1,0,0,1,600.99674,0)"
     id="use983"
     x="0"
     y="0"
     width="100%"
     height="100%" />
</svg>
